<?xml version="1.0" encoding="utf-8"?>
<!-- Generator: Adobe Illustrator 26.0.2, SVG Export Plug-In . SVG Version: 6.00 Build 0)  -->
<svg version="1.1" id="Layer_1" xmlns="http://www.w3.org/2000/svg" xmlns:xlink="http://www.w3.org/1999/xlink" x="0px" y="0px"
	 viewBox="0 0 800 800" style="enable-background:new 0 0 800 800;" xml:space="preserve">
<style type="text/css">
	.st0{fill:#D9EBF4;}
</style>
<path class="st0" d="M466.7,666.7l-11.8,11.8l11.8,11.8l11.8-11.8L466.7,666.7z M200,116.7c-9.2,0-16.7,7.5-16.7,16.7
	S190.8,150,200,150V116.7z M288.2,511.8l166.7,166.7l23.6-23.6L311.8,488.2L288.2,511.8z M478.5,678.5l166.7-166.7l-23.6-23.6
	L454.9,654.9L478.5,678.5z M483.3,666.7V333.3H450v333.3H483.3z M266.7,116.7H200V150h66.7V116.7z M483.3,333.3
	c0-119.7-97-216.7-216.7-216.7V150C367.9,150,450,232.1,450,333.3H483.3z"/>
</svg>
