<?xml version="1.0" encoding="utf-8"?>
<!-- Generator: Adobe Illustrator 26.0.2, SVG Export Plug-In . SVG Version: 6.00 Build 0)  -->
<svg version="1.1" id="Layer_1" xmlns="http://www.w3.org/2000/svg" xmlns:xlink="http://www.w3.org/1999/xlink" x="0px" y="0px"
	 viewBox="0 0 225 225" style="enable-background:new 0 0 225 225;" xml:space="preserve">
<style type="text/css">
	.st0{fill:#1D4A79;}
</style>
<path class="st0" d="M127.7,141.4c-11.5,0-21.5-3.9-30-11.6c-2.7-2.4-4.1-5.2-1.3-8.2c2.7-2.9,5.5-1.9,8.3,0.5
	c15.5,13,33.4,12.1,47.8-2.2c7.3-7.3,14.7-14.5,21.9-21.9c13.5-13.7,13.5-34.6,0-47.9C161.2,37,140.6,37.3,127,50.8
	c-5,4.9-9.9,9.9-14.8,14.9c-2.6,2.6-5.5,3.7-8.3,0.8c-2.8-2.9-1.6-5.8,0.9-8.3c5.4-5.4,10.7-11,16.3-16.2
	c13.6-12.5,32.3-15.6,48.7-7.5c16.6,8.2,25.1,22,25.1,40.5c0,11.4-4.3,21.5-12.3,29.7c-8.4,8.6-16.9,17-25.6,25.3
	C148.9,137.6,139,141.4,127.7,141.4z"/>
<path class="st0" d="M97.8,83.8c11.3,0,21.1,4,29.5,11.5c2.6,2.4,4.3,5.1,1.5,8.2c-2.8,3.2-5.8,2-8.7-0.6
	c-14.2-12.4-33-11.9-46.4,1.2c-7.9,7.7-15.7,15.4-23.4,23.3c-13.2,13.5-13.1,34.4,0.1,47.5c13.3,13.1,34,13,47.5-0.4
	c5-4.9,9.9-9.9,14.8-14.9c2.5-2.6,5.3-3.9,8.2-1.1c2.9,2.8,1.9,5.8-0.7,8.3c-5.7,5.7-11.1,11.5-17.1,16.8
	c-18.1,16.1-44.7,14.9-61.2-2.5c-16.3-17.1-16.1-43.6,0.6-60.9c8.1-8.4,16.5-16.5,24.8-24.6C75.9,87.6,86.1,83.7,97.8,83.8z"/>
</svg>
