<?xml version="1.0" encoding="utf-8"?>
<!-- Generator: Adobe Illustrator 26.0.2, SVG Export Plug-In . SVG Version: 6.00 Build 0)  -->
<svg version="1.1" id="Layer_1" xmlns="http://www.w3.org/2000/svg" xmlns:xlink="http://www.w3.org/1999/xlink" x="0px" y="0px"
	 viewBox="0 0 800 800" style="enable-background:new 0 0 800 800;" xml:space="preserve">
<style type="text/css">
	.st0{fill:none;stroke:#D9EBF4;stroke-width:66.6667;stroke-miterlimit:133.3333;}
</style>
<path class="st0" d="M400,233.3c18.3,0,33.3-15,33.3-33.3s-15-33.3-33.3-33.3c-18.3,0-33.3,15-33.3,33.3S381.7,233.3,400,233.3z"/>
<path class="st0" d="M400,433.3c18.3,0,33.3-15,33.3-33.3c0-18.3-15-33.3-33.3-33.3c-18.3,0-33.3,15-33.3,33.3
	C366.7,418.3,381.7,433.3,400,433.3z"/>
<path class="st0" d="M400,633.3c18.3,0,33.3-15,33.3-33.3s-15-33.3-33.3-33.3c-18.3,0-33.3,15-33.3,33.3S381.7,633.3,400,633.3z"/>
</svg>
