<?xml version="1.0" encoding="utf-8"?>
<!-- Generator: Adobe Illustrator 26.0.2, SVG Export Plug-In . SVG Version: 6.00 Build 0)  -->
<svg version="1.1" id="Layer_1" xmlns="http://www.w3.org/2000/svg" xmlns:xlink="http://www.w3.org/1999/xlink" x="0px" y="0px"
	 viewBox="0 0 800 800" style="enable-background:new 0 0 800 800;" xml:space="preserve">
<style type="text/css">
	.st0{fill:#D9EBF4;}
	.st1{fill:none;stroke:#D9EBF4;stroke-width:33.3333;stroke-miterlimit:133.3333;}
</style>
<path class="st0" d="M66.7,400l-13-10.4L45.3,400l8.3,10.4L66.7,400z M366.7,416.7c9.2,0,16.7-7.5,16.7-16.7
	c0-9.2-7.5-16.7-16.7-16.7V416.7z M187,222.9L53.7,389.6l26,20.8L213,243.7L187,222.9z M53.7,410.4L187,577.1l26-20.8L79.7,389.6
	L53.7,410.4z M66.7,416.7h300v-33.3h-300V416.7z"/>
<path class="st1" d="M333.3,271.1v-24.8c0-53.9,0-80.9,15.8-99.6c15.8-18.6,42.4-23.1,95.6-32l55.7-9.3c108.1-18,162.2-27,197.5,2.9
	c35.4,30,35.4,84.8,35.4,194.3v194.5c0,109.6,0,164.4-35.4,194.3c-35.4,30-89.4,20.9-197.5,2.9l-55.7-9.3
	c-53.2-8.9-79.8-13.3-95.6-32c-15.8-18.6-15.8-45.6-15.8-99.6v-18.2"/>
</svg>
