<?xml version="1.0" encoding="utf-8"?>
<!-- Generator: Adobe Illustrator 26.0.2, SVG Export Plug-In . SVG Version: 6.00 Build 0)  -->
<svg version="1.1" id="Layer_1" xmlns="http://www.w3.org/2000/svg" xmlns:xlink="http://www.w3.org/1999/xlink" x="0px" y="0px"
	 viewBox="0 0 800 800" style="enable-background:new 0 0 800 800;" xml:space="preserve">
<style type="text/css">
	.st0{fill:none;stroke:#D9EBF4;stroke-width:33.3333;stroke-linejoin:round;stroke-miterlimit:133.3333;}
	.st1{fill:#D9EBF4;}
	.st2{fill:none;stroke:#D9EBF4;stroke-width:33.3333;stroke-linecap:round;stroke-miterlimit:133.3333;}
</style>
<path class="st0" d="M166.7,266.7v266.7"/>
<path class="st1" d="M174.1,148.2l49.6,99.1c4.4,8.9-2,19.3-11.9,19.3h-90.2c-9.9,0-16.4-10.4-11.9-19.3l49.6-99.1
	C162.3,142.1,171,142.1,174.1,148.2z"/>
<path class="st1" d="M174.1,651.8l49.6-99.1c4.4-8.9-2-19.3-11.9-19.3h-90.2c-9.9,0-16.4,10.4-11.9,19.3l49.6,99.1
	C162.3,657.9,171,657.9,174.1,651.8z"/>
<path class="st2" d="M366.7,266.7h266.7"/>
<path class="st2" d="M366.7,400h266.7"/>
<path class="st2" d="M366.7,533.3h266.7"/>
</svg>
