<?xml version="1.0" encoding="utf-8"?>
<!-- Generator: Adobe Illustrator 26.0.2, SVG Export Plug-In . SVG Version: 6.00 Build 0)  -->
<svg version="1.1" id="Layer_1" xmlns="http://www.w3.org/2000/svg" xmlns:xlink="http://www.w3.org/1999/xlink" x="0px" y="0px"
	 viewBox="0 0 800 800" style="enable-background:new 0 0 800 800;" xml:space="preserve">
<style type="text/css">
	.st0{fill-rule:evenodd;clip-rule:evenodd;fill:#1D4A79;}
</style>
<path class="st0" d="M182.2,146.4c9.8,9.8,9.7,25.6,0,35.4c-56,55.8-90.5,133-90.5,218.2c0,86.3,35.4,164.2,92.5,220.2
	c9.9,9.7,10,25.5,0.4,35.4c-9.7,9.9-25.5,10-35.4,0.3C82.9,590.9,41.7,500.2,41.7,400c0-99.1,40.2-188.8,105.2-253.6
	C156.6,136.6,172.5,136.6,182.2,146.4z M620.5,148.8c9.9-9.7,25.7-9.5,35.4,0.4c63.3,64.6,102.4,153.2,102.4,250.8
	c0,98.8-40,188.3-104.7,253.1c-9.8,9.8-25.6,9.8-35.4,0c-9.8-9.8-9.8-25.6,0-35.4C673.9,562,708.3,485,708.3,400
	c0-84-33.6-160.2-88.1-215.8C610.5,174.3,610.7,158.5,620.5,148.8z M277,249.6c9.4,10.1,8.9,25.9-1.2,35.3
	C244.2,314.5,225,355,225,399.4c0,44.9,19.6,85.8,51.9,115.5c10.2,9.3,10.8,25.2,1.5,35.3c-9.3,10.2-25.2,10.8-35.3,1.5
	c-41.8-38.4-68.1-92.3-68.1-152.3c0-59.3,25.7-112.7,66.6-151C251.7,239,267.5,239.5,277,249.6z M524.8,250.9
	c9.5-10,25.4-10.3,35.3-0.8C600,288.2,625,341,625,399.4c0,59.2-25.6,112.4-66.3,150.7c-10.1,9.5-25.9,9-35.3-1.1
	c-9.5-10.1-9-25.9,1.1-35.3c31.5-29.6,50.6-70,50.6-114.3c0-43.8-18.6-83.7-49.5-113.2C515.6,276.7,515.2,260.8,524.8,250.9z
	 M419.7,296.3c0.6,0.3,1.2,0.6,1.8,1c8,4.4,16,9,23.1,13.5c8.2,5.2,16.8,11.2,25.4,17.5c0.5,0.4,1,0.7,1.5,1.1
	c13.6,10,26.3,19.3,35.4,28.8c10.4,10.9,18.1,24.2,18.1,41.9c0,17.6-7.7,30.9-18.1,41.9c-9,9.4-21.7,18.8-35.4,28.8
	c-0.5,0.4-1,0.7-1.5,1.1c-8.5,6.3-17.2,12.3-25.4,17.5c-7.2,4.5-15.1,9.1-23.1,13.5c-0.6,0.3-1.2,0.6-1.8,1
	c-13.4,7.3-26.3,14.4-37.7,18.1c-13.6,4.4-29.4,5.4-44.5-4.9c-14.3-9.6-20.1-23.9-23-37.5c-2.7-12.4-3.7-28.2-4.8-45.6
	c0-0.6-0.1-1.2-0.1-1.7c-0.7-11-1.2-22.1-1.2-32.2c0-10.1,0.5-21.2,1.2-32.2c0-0.6,0.1-1.2,0.1-1.7c1.1-17.4,2.1-33.2,4.8-45.6
	c2.9-13.6,8.8-27.9,23-37.5c15.2-10.2,30.9-9.3,44.5-4.9C393.4,281.9,406.4,289,419.7,296.3z M365,325.3c-0.4,1-1.1,2.7-1.7,5.8
	c-1.8,8.3-2.6,20.3-3.9,40c-0.7,10.4-1.1,20.3-1.1,29c0,8.7,0.4,18.6,1.1,28.9c1.3,19.7,2.1,31.6,3.9,40c0.7,3.1,1.3,4.8,1.7,5.8
	c0.4-0.1,1-0.3,1.6-0.5c6.3-2,15.1-6.7,30.9-15.4c7.4-4.1,14.4-8.1,20.4-11.9c6.9-4.3,14.5-9.7,22.5-15.5
	c15.7-11.5,24.7-18.3,30.3-24.1c4.3-4.5,4.3-6.1,4.3-7.2c0,0,0-0.1,0-0.1c0,0,0-0.1,0-0.1c0-1.1,0-2.7-4.3-7.2
	c-5.6-5.9-14.6-12.6-30.3-24.1c-8-5.8-15.6-11.2-22.5-15.5c-6-3.8-13-7.8-20.4-11.9c-15.8-8.7-24.5-13.3-30.9-15.4
	C366,325.5,365.5,325.4,365,325.3z"/>
</svg>
