<?xml version="1.0" encoding="utf-8"?>
<!-- Generator: Adobe Illustrator 26.0.2, SVG Export Plug-In . SVG Version: 6.00 Build 0)  -->
<svg version="1.1" id="Layer_1" xmlns="http://www.w3.org/2000/svg" xmlns:xlink="http://www.w3.org/1999/xlink" x="0px" y="0px"
	 viewBox="0 0 800 800" style="enable-background:new 0 0 800 800;" xml:space="preserve">
<style type="text/css">
	.st0{fill:#D9EBF4;stroke:#D9EBF4;stroke-width:33.3333;stroke-miterlimit:133.3333;}
</style>
<path class="st0" d="M133.3,300c0-94.3,0-141.4,29.3-170.7S239.1,100,333.3,100h133.3c94.3,0,141.4,0,170.7,29.3
	s29.3,76.4,29.3,170.7v227.6c0,89.4,0,134.2-28.1,147.8c-28.1,13.7-63.3-13.9-133.6-69.2l-22.5-17.7c-39.5-31.1-59.3-46.6-82.4-46.6
	s-42.8,15.5-82.4,46.6l-22.5,17.7c-70.3,55.3-105.5,82.9-133.6,69.2s-28.1-58.4-28.1-147.8L133.3,300L133.3,300z"/>
</svg>
