<?xml version="1.0" encoding="utf-8"?>
<!-- Generator: Adobe Illustrator 26.0.2, SVG Export Plug-In . SVG Version: 6.00 Build 0)  -->
<svg version="1.1" id="Layer_1" xmlns="http://www.w3.org/2000/svg" xmlns:xlink="http://www.w3.org/1999/xlink" x="0px" y="0px"
	 viewBox="0 0 800 800" style="enable-background:new 0 0 800 800;" xml:space="preserve">
<style type="text/css">
	.st0{fill:none;stroke:#D9EBF4;stroke-width:33.3333;stroke-miterlimit:133.3333;}
</style>
<path class="st0" d="M233.8,83.5h333.3c46,0,83.3,37.3,83.3,83.3v466.3c0,46-37.3,83.3-83.3,83.3H233.8c-46,0-83.3-37.3-83.3-83.3
	V166.8C150.5,120.8,187.8,83.5,233.8,83.5z"/>
<path class="st0" d="M231,172.5h227.5c11,0,20,9,20,20v127c0,11-9,20-20,20H231"/>
<path class="st0" d="M231,460.5h227.5c11,0,20,9,20,20v127c0,11-9,20-20,20H231"/>
<path class="st0" d="M479,543.5h76.5c11,0,20-9,20-20v-247c0-11-9-20-20-20H479"/>
</svg>
