<?xml version="1.0" encoding="utf-8"?>
<!-- Generator: Adobe Illustrator 26.0.2, SVG Export Plug-In . SVG Version: 6.00 Build 0)  -->
<svg version="1.1" id="Layer_1" xmlns="http://www.w3.org/2000/svg" xmlns:xlink="http://www.w3.org/1999/xlink" x="0px" y="0px"
	 viewBox="0 0 800 800" style="enable-background:new 0 0 800 800;" xml:space="preserve">
<style type="text/css">
	.st0{fill:#D9EBF4;stroke:#D9EBF4;stroke-width:33.3333;stroke-miterlimit:133.3333;}
</style>
<path class="st0" d="M624.2,337.5c-9.1-19.9-26.3-34.6-60.7-64.1l-33.3-28.6C468,191.7,437,165,400,165s-68,26.6-130.2,79.9
	l-33.3,28.6c-34.4,29.5-51.5,44.2-60.7,64.1c-9.1,19.9-9.1,42.5-9.1,87.8v141.3c0,62.9,0,94.3,19.5,113.8S237.1,700,300,700h16.7
	V533.3c0-18.4,14.9-33.3,33.3-33.3h100c18.4,0,33.3,14.9,33.3,33.3V700H500c62.9,0,94.3,0,113.8-19.5s19.5-51,19.5-113.8V425.3
	C633.3,380.1,633.3,357.4,624.2,337.5z"/>
</svg>
