<?xml version="1.0" encoding="utf-8"?>
<!-- Generator: Adobe Illustrator 26.0.2, SVG Export Plug-In . SVG Version: 6.00 Build 0)  -->
<svg version="1.1" id="Layer_1" xmlns="http://www.w3.org/2000/svg" xmlns:xlink="http://www.w3.org/1999/xlink" x="0px" y="0px"
	 viewBox="0 0 800 800" style="enable-background:new 0 0 800 800;" xml:space="preserve">
<style type="text/css">
	.st0{fill:none;stroke:#D9EBF4;stroke-width:33.3333;stroke-miterlimit:133.3333;}
	.st1{fill:none;stroke:#D9EBF4;stroke-width:33.3333;stroke-linecap:round;stroke-linejoin:round;stroke-miterlimit:133.3333;}
</style>
<path class="st0" d="M166.7,425.3c0-45.3,0-67.9,9.1-87.8s26.3-34.6,60.7-64.1l33.3-28.6C332,191.7,363,165,400,165
	s68,26.6,130.2,79.9l33.3,28.6c34.4,29.5,51.5,44.2,60.7,64.1s9.2,42.5,9.2,87.8v141.3c0,62.9,0,94.3-19.5,113.8S562.9,700,500,700
	H300c-62.9,0-94.3,0-113.8-19.5s-19.5-51-19.5-113.8V425.3z"/>
<path class="st1" d="M483.3,700V533.3c0-18.4-14.9-33.3-33.3-33.3H350c-18.4,0-33.3,14.9-33.3,33.3V700"/>
</svg>
