<?xml version="1.0" encoding="utf-8"?>
<!-- Generator: Adobe Illustrator 26.0.2, SVG Export Plug-In . SVG Version: 6.00 Build 0)  -->
<svg version="1.1" id="Layer_1" xmlns="http://www.w3.org/2000/svg" xmlns:xlink="http://www.w3.org/1999/xlink" x="0px" y="0px"
	 viewBox="0 0 800 800" style="enable-background:new 0 0 800 800;" xml:space="preserve">
<style type="text/css">
	.st0{fill:none;stroke:#D9EBF4;stroke-width:33.3333;stroke-linecap:round;stroke-miterlimit:133.3333;}
</style>
<path class="st0" d="M133.3,100H300c18.4,0,33.3,14.9,33.3,33.3V300c0,18.4-14.9,33.3-33.3,33.3H133.3c-18.4,0-33.3-14.9-33.3-33.3
	V133.3C100,114.9,114.9,100,133.3,100z"/>
<path class="st0" d="M133.3,466.7H300c18.4,0,33.3,14.9,33.3,33.3v166.7c0,18.4-14.9,33.3-33.3,33.3H133.3
	c-18.4,0-33.3-14.9-33.3-33.3V500C100,481.6,114.9,466.7,133.3,466.7z"/>
<path class="st0" d="M500,100h166.7c18.4,0,33.3,14.9,33.3,33.3V300c0,18.4-14.9,33.3-33.3,33.3H500c-18.4,0-33.3-14.9-33.3-33.3
	V133.3C466.7,114.9,481.6,100,500,100z"/>
<path class="st0" d="M500,466.7h166.7c18.4,0,33.3,14.9,33.3,33.3v166.7c0,18.4-14.9,33.3-33.3,33.3H500
	c-18.4,0-33.3-14.9-33.3-33.3V500C466.7,481.6,481.6,466.7,500,466.7z"/>
</svg>
