<?xml version="1.0" encoding="utf-8"?>
<!-- Generator: Adobe Illustrator 26.0.2, SVG Export Plug-In . SVG Version: 6.00 Build 0)  -->
<svg version="1.1" id="Layer_1" xmlns="http://www.w3.org/2000/svg" xmlns:xlink="http://www.w3.org/1999/xlink" x="0px" y="0px"
	 viewBox="0 0 800 800" style="enable-background:new 0 0 800 800;" xml:space="preserve">
<style type="text/css">
	.st0{fill:#D9EBF4;stroke:#D9EBF4;stroke-width:33;stroke-linecap:round;stroke-linejoin:round;stroke-miterlimit:6.25;}
</style>
<path class="st0" d="M50,250v462.5c0,6.9,4.6,12.5,10.3,12.5H235V250c0-13.8-9.2-25-20.6-25H70.6C59.2,225,50,236.2,50,250z"/>
<path class="st0" d="M484,75H316c-11.6,0-21,11.2-21,25v625h210V100C505,86.2,495.6,75,484,75z"/>
<path class="st0" d="M729.4,325H585.6c-11.3,0-20.6,11.2-20.6,25v375h174.7c5.7,0,10.3-5.6,10.3-12.5V350
	C750,336.2,740.8,325,729.4,325z"/>
</svg>
