<?xml version="1.0" encoding="utf-8"?>
<!-- Generator: Adobe Illustrator 26.0.2, SVG Export Plug-In . SVG Version: 6.00 Build 0)  -->
<svg version="1.1" id="Layer_1" xmlns="http://www.w3.org/2000/svg" xmlns:xlink="http://www.w3.org/1999/xlink" x="0px" y="0px"
	 viewBox="0 0 1514.5 550.6" style="enable-background:new 0 0 1514.5 550.6;" xml:space="preserve">
<style type="text/css">
	.st0{fill:#8FB8D8;}
	.st1{fill:#255D98;}
</style>
<path id="Layer_2_00000022541939311977467490000013809105618223319981_" class="st0" d="M1528.6,123.5
	c-27.6,13.7-71.8,31.1-126.4,31.6C1230.7,156.8,1176-10.4,1049.8,0.5C916.1,12,870.8,208.7,759.3,190.2
	c-59.1-9.8-60.8-67.5-127.6-78.5c-96.1-15.7-132.7,97-226,91.3C289.5,196,240.5,14.7,157.5,33.2c-49.5,11-64.2,81.5-135.2,82.7
	c-18,0.5-14.1,0.2-28.1,0.4l-6.6,442.4h1540.9V123.5z"/>
<path id="Layer_1_00000098921362732827808260000016041712245105628068_" class="st1" d="M1.2,187.4c25.7-14.7,71.4-35.9,126.5-32.2
	c157.1,10.6,198.4,211.3,352,224.1c95.1,7.9,109-66.5,215.1-57.5c136.4,11.6,158.3,138.4,258.8,133.3
	c129.4-6.6,174.8-220.7,293.3-209.2c59.7,5.8,79.3,63.1,144.9,58.6c53.7-3.7,95-45.7,121.9-81.6v327.6H0L1.2,187.4z"/>
</svg>
