<svg xmlns="http://www.w3.org/2000/svg" xml:space="preserve" viewBox="0 0 1514.5 550.6"><style>.st0{fill:#8fb8d8}.st1{fill:#255d98}</style><path id="Layer_2" d="M1528.6 123.5c-27.6 13.7-71.8 31.1-126.4 31.6C1230.7 156.8 1176-10.4 1049.8.5 916.1 12 870.8 208.7 759.3 190.2c-59.1-9.8-60.8-67.5-127.6-78.5-96.1-15.7-132.7 97-226 91.3-116.2-7-165.2-188.3-248.2-169.8C108 44.2 88 117 27.5 114c-17.3-.9-31.1-7.6-39.8-12.9v457.6h1540.9V123.5z" class="st0"/><path id="Layer_1" d="M1.2 187.4c25.7-14.7 71.4-35.9 126.5-32.2 157.1 10.6 198.4 211.3 352 224.1 95.1 7.9 109-66.5 215.1-57.5 136.4 11.6 158.3 138.4 258.8 133.3 129.4-6.6 174.8-220.7 293.3-209.2 59.7 5.8 79.3 63.1 144.9 58.6 53.7-3.7 95-45.7 121.9-81.6v327.6H0l1.2-363.1z" class="st1"/></svg>