<?xml version="1.0" encoding="utf-8"?>
<!-- Generator: Adobe Illustrator 26.0.2, SVG Export Plug-In . SVG Version: 6.00 Build 0)  -->
<svg version="1.1" xmlns="http://www.w3.org/2000/svg" xmlns:xlink="http://www.w3.org/1999/xlink" x="0px" y="0px"
	 viewBox="0 0 480 480" style="enable-background:new 0 0 480 480;" xml:space="preserve">
<style type="text/css">
	.st0{fill:#255D98;}
	.st1{fill:#12A346;stroke:#000000;stroke-width:2;stroke-miterlimit:10;}
	.st2{fill:#235C97;stroke:#000000;stroke-width:2;stroke-miterlimit:10;}
	.st3{fill:none;}
	.st4{fill:#FFFFFF;}
	.st5{fill:#0285C8;}
	.st6{fill:#E00225;}
	.st7{fill:#F3C304;}
	.st8{fill:#039E3E;}
	.st9{fill:#020202;}
</style>
<g id="Layer_1">
	<rect x="0" class="st0" width="480" height="480"/>
	<g>
		<path class="st1" d="M220.6,169.1c-0.1,0-0.2,0.1-0.3,0.1c-0.3,0-0.5,0.6-0.8,0.2c-0.2-0.3-0.1-0.7,0.2-0.9
			c0.1-0.1,0.1-0.1,0.1-0.2c0.2-0.4-0.1-1,0.4-1.1c0.6-0.1,0.4,0.8,0.8,1.1C220.9,168.5,220.7,168.8,220.6,169.1z"/>
		<g>
			<path class="st2" d="M220.6,169.1c-2.1,3.9-3,8.3-4.8,12.2c-1.6,3.4-3.4,6.8-5.1,10.1c-1.6,3.1-3.7,5.9-5.8,8.8
				c-1.4,1.9-3.1,3.6-5,4.9c-3.7,2.6-6.6,5.9-9.7,9c-1.5,1.5-3.3,2.7-5.1,4c-3.5,2.6-7.3,4.5-11.2,6.4c-2.2,1-4.4,2.1-6.8,2.4
				c-2.1,0.2-3.9,1.6-5.9,2.2c-3.5,1.1-7.1,2-10.8,2.7c-4.9,1-9.9,1.1-14.9,1.6c-3.3,0.3-6.7,0.3-10,0.4c-4.3,0-8.7,0.5-13-0.1
				c-2.8-0.4-5.9-0.4-8.5-1.5c-3.6-1.5-7.4-2.1-10.9-4c-1.9-1-4.1-1.3-6.1-2c-3.4-1.1-6.7-2.3-9.8-4.1c-4-2.5-8.1-4.5-12.2-6.7
				c-3.3-1.8-6-4.3-8.7-6.8c-2.8-2.5-6-4.5-8.9-6.9c-3.5-2.9-6.9-6-9.6-9.8c-1.6-2.3-3-4.7-4.7-7c-1.5-2.1-3.2-4.1-4.5-6.4
				c-3.2-5.7-5.8-11.7-7.4-18.2c-1-4-2.2-8-3.1-12.1c-1.5-6.3-3.2-12.5-3.5-19.1c-0.1-3.4-0.6-6.7-0.4-10.1
				c0.3-5.1,0.6-10.2,1.7-15.3c0.8-3.9,1.7-7.8,2.8-11.7c0.7-2.4,1.8-4.7,2.6-7.1c1.6-4.7,4.2-8.9,5.8-13.6c0.6-1.8,2-3.2,2.8-4.9
				c1-2,2.1-3.8,3.2-5.7c2-3.5,4.8-6.3,7.5-9.2c2.7-3,5.8-5.6,8.8-8.3c1.9-1.7,3.8-3.4,5.5-5.4c0.9-1.1,2.3-1.8,3.6-2.5
				c3.6-2,7.1-4.1,10.7-6.2c3.7-2.1,7.5-4,11.3-5.9c2.3-1.2,4.8-2.1,7.1-3.2c4.8-2.2,9.8-3.2,14.8-4.5c6.1-1.6,12.4-1.8,18.7-2.6
				c3.9-0.5,7.8-0.4,11.7,0.3c1.7,0.3,3.5,0.1,5.2,0.4c3.4,0.7,6.6,2.1,10,2.9c2.9,0.7,5.6,1.6,8.3,2.7c1.9,0.7,3.8,1.5,5.6,2.3
				c2.4,1.1,4.7,2.3,7.1,3.4c2.3,1,4.1,2.5,5.8,4.3c1.9,1.9,4,3.4,6.2,4.8c3.3,2.1,6,4.9,8.7,7.7c4.1,4.1,7.6,8.9,11.4,13.2
				c2.3,2.7,4.8,5.3,6.4,8.6c1.7,3.3,3.3,6.7,4.5,10.2c0.9,2.5,2.3,4.7,3.3,7.1c1.5,3.7,2.9,7.5,3.7,11.5c0.5,2.3,1.5,4.5,2,6.7
				c0.9,3.7,1.6,7.3,2.1,11.1c0.3,2.5,0.8,5,1.2,7.5c0.7,4.3,1.1,8.7,0.9,13.1c0,1.8,0.9,3.5,0.6,5.3c-0.1,0.6,0,1.2-0.3,1.8
				c-0.1,0.2-0.1,0.5-0.1,0.7c0.5,3.4-0.4,6.8-0.6,10.2c-0.2,2.8-0.2,5.6-1,8.4c-1.1,3.7-1.6,7.5-3.3,10.9c-0.4-0.3-0.2-1.1-0.8-1.1
				c-0.5,0-0.3,0.7-0.4,1.1c0,0.1-0.1,0.1-0.1,0.2c-0.3,0.3-0.4,0.7-0.2,0.9c0.3,0.4,0.5-0.2,0.8-0.2
				C220.4,169.1,220.5,169.1,220.6,169.1z M114.5,101.3c-2.6-0.5-4.7,0.6-6.6,2.2c-1.9,1.6-3.9,2.9-5.9,4.3c-1,0.7-2.1,1.4-2.7,2.5
				c-0.5,0.9-1.2,1.5-2,2.2c-1.7,1.5-3.5,3-3.7,5.4c-0.3,3.9-0.5,7.8,0,11.7c0.1,1.2,0.2,2.5,0.6,3.6c0.9,2.6,3.1,3.5,5.5,3.7
				c3.3,0.2,5.8,2,8.5,3.6c1.4,0.9,2.2,2.4,3.6,3.2c1,0.6,1.8,1.3,2.2,2.4c0.6,1.7,1.8,2.5,3.5,3.1c1.9,0.6,3.7,1.7,5,3.2
				c1,1.1,1.9,2.3,2.7,3.5c1,1.5,1.5,3.1,0.6,4.8c-0.2,0.5-0.4,1-0.6,1.5c-0.3,0.8-0.5,1.7-0.2,2.6c0.3,1.6,1,3,1.7,4.4
				c0.4,0.9,0.5,1.7,0.4,2.7c-0.4,2.4-0.8,4.9-1.1,7.3c-0.3,3.1-0.4,6.3-1.8,9.3c-0.8,1.8-1.3,3.5-1.6,5.5c-0.5,3.6,1.1,6.4,3.2,8.7
				c1.6,1.7,3,3.4,4.1,5.5c0.7,1.3,3,2.3,4.3,1.6c2.8-1.4,5.7-2.8,8.2-5c1.6-1.4,2.9-3,4.4-4.6c2.4-2.6,4.6-5.3,6.6-8.3
				c2.2-3.3,4.9-6.1,6.9-9.5c1-1.7,2.4-3.2,3.3-4.9c2.2-4.1,3.9-8.5,6.2-12.6c1-1.8,1.5-3.9,2.9-5.5c2.1-2.5,3.4-5.5,4.5-8.5
				c1.2-3.3,2.1-6.6,2.3-10.1c0.2-2.7,0.6-5.4,0.6-8.2c0-1.7,0-3.6-1.4-5c-1.7-1.7-3.5-3.4-5.2-5.1c-0.6-0.6-1.3-0.9-1.7-1.7
				c-0.8-2-2.1-3.7-3.2-5.5c-0.8-1.2-1.9-1.9-3.2-2.3c-2.5-0.7-5.1-0.9-7.6-1.2c-3.1-0.3-6,0.2-8.5,2.4c-1.9,1.7-4.2,2.5-6.6,2.2
				c-2.3-0.3-4.4-1.5-6.2-3.2c-1.5-1.5-2.8-3.2-4.4-4.8c-1.5-1.6-3.2-1.8-5.1-1.5c-1.1,0.2-2.2,0.2-2.9-0.8c-1.1-1.4-2.5-2.3-4-3
				C118.5,102,116.7,100.7,114.5,101.3z M152.5,44.1c-2-0.4-3.8,0.3-5.3,1.9c-1.4,1.6-1.9,5.3,1.1,6.4c0.7,0.3,1.4,0.5,2.2,0.8
				c2.1,0.7,4.4,0.5,6.4,1.3c1.3,0.5,2.6,1.1,2.9,2.6c0.3,1.5-0.9,2.4-1.9,3.2c0,0-0.1,0-0.1,0.1c-1.8,1.1-3.5,2.1-5.5,2.8
				c-2.4,0.8-4.8,1.4-7.1,2.2c-1.2,0.4-2.5,0.1-3.7,0.3c-2.1,0.4-3.5,1-4.1,3.4c-0.7,3-2.8,5.3-5.1,7.4c-0.5,0.4-0.9,0.8-1.5,1
				c-2.9,0.9-5.8,1.3-8.8,0.4c-0.8-0.2-1.7-0.4-2.5-0.2c-1.4,0.2-3,0.5-3.9,1.8c-1,1.5-1.3,3.3-1.4,5.1c0,0.5,0.3,1,0.7,1.3
				c1.8,1.4,4.9,1.6,6.9,0.4c1-0.6,1.9-1.2,2.9-1.7c1.7-0.9,3.4-1.4,5.3-0.8c2.5,0.8,4.8,1.9,7.3,2.7c2.8,0.8,5.6,1.2,8.5,1.6
				c3.1,0.4,6.1-0.3,9.1-1c2.5-0.6,5-0.3,6.8,1.2c2.5,2,5.2,3.8,6.8,6.8c1,1.9,2,3.7,2.3,5.8c0.4,2.2,0.2,4.6,1.3,6.7
				c1,1.9,1.8,3.9,4.3,4.2c0.5,0.1,1,0.2,1.4,0.5c1.2,0.6,2.3,0,2.4-1.3c0.1-0.9-0.1-1.7-0.6-2.5c-0.6-0.9-0.9-1.9-0.3-2.9
				c1.1-1.8,4.3-3,6.4-2.6c1,0.2,1.8,0.9,2.9,0.8c0.8-0.1,1.3,0.4,1.6,1c0.5,0.8,0.8,1.8,1.5,2.5c1.4,1.4,2.2,3.1,2.5,5.1
				c0.2,1.2,1,2.3,0.3,3.6c-2,4.1,0.5,8.5,5,9c3.3,0.3,6.4,1.7,9.6,2.5c0.9,0.2,1.5,1.1,2.3,1.4c1.6,0.7,3.1,1.6,3.9,3.3
				c0.2,0.5,0.5,0.9,0.9,1.4c0.9,1.1,2,0.9,2.9-0.1c1.7-1.8,1.5-4.2,2.1-6.4c0.4-1.4,0.4-2.8,1.1-4.1c0.3-0.6,0.4-1.2,0.4-1.8
				c0.1-1.8-0.4-3.4-0.7-5.1c-0.5-2.9-0.8-5.9-1.2-8.9c-0.3-2.1-0.7-4.2-1.2-6.3c-0.7-2.8-1.7-5.5-2.4-8.3c-0.8-3.4-2-6.7-3.3-10
				c-0.9-2.3-2.5-4.3-3.2-6.6c-0.5-1.8-1.4-3.4-2.2-5.1c-0.8-1.9-1.9-3.7-2.8-5.5c-0.8-1.6-1.5-3.2-2.5-4.7c-1.3-1.8-2.8-3.3-4.2-5
				c-1.5-1.9-3.1-3.7-4.7-5.5c-2-2.3-3.9-4.7-6.1-6.9c-1.7-1.8-3.1-4-6.1-4.1c-2.4,0-4.8-0.1-7,1c-1.8,0.9-3.7,1.6-5.6,2.2
				c-2.1,0.6-4.3,1.1-6.3,2c-0.8,0.4-1.5,0.5-2.3,0.5C158.4,45.1,155.6,43.8,152.5,44.1z M42.8,193.1c-0.5,1.5,0.2,2.5,1.2,3.3
				c0.5,0.4,1,0.8,1.5,1.1c2.6,1.7,5.2,3.6,7.5,5.8c3.2,3.1,6.1,6.3,9.9,8.9c2.7,1.8,5.5,3.5,8.5,4.9c1,0.5,1.4,0.3,1.6-0.9
				c0.2-0.8,0.1-1.7,0.7-2.4c1.6-2.1,3-4.4,4.8-6.3c1.8-1.9,1.4-5.2,0.4-7.1c-0.6-1.2-0.7-2.2,0.2-3.2c0.5-0.5,0.9-1.1,1.5-1.5
				c1.4-0.9,2-2.2,2.1-3.7c0.3-2.6,1.4-4.9,2.2-7.3c0.9-2.7,0.7-5.4-0.4-7.9c-1.1-2.3-2.9-4.3-4.5-6.2c-1.8-2.1-3.8-4-6.3-5.5
				c-3.2-2-6.5-3.8-10.1-5c-2.4-0.8-4.7-1.6-6.6-3.2c-2.2-1.9-4.2-4-6.1-6.1c-1.6-1.8-3.5-2.6-5.8-2.5c-0.8,0-1.3,0.4-1.4,1.3
				c0,0.3-0.2,0.7-0.2,1c0,1.3-0.1,2.6,0.9,3.8c1.4,1.9,2.5,4,3.1,6.3c1,3.6,0.4,7.1-0.8,10.6c-0.8,2.2-2,4.2-3.3,6.2
				c-0.9,1.5-1.5,3.1-1.2,4.9c0.2,1.4,0.9,2.8,0.7,4.3C42.7,188.8,42.2,191,42.8,193.1z M37.1,147.1c-0.7-2.9-2.2-5.1-4.3-6.8
				c-0.9-0.7-2-1.4-2.8-2.2c-1.9-2.2-3.7-4.4-4.5-7.3c-0.5-1.6-0.2-2.9,0.9-4.1c1.1-1.3,2.6-2,4-2.8c2.8-1.7,5-3.8,6.5-6.7
				c0.4-0.7,0.9-1.4,1.5-1.9c1-1,2.4-0.8,3.1,0.4c0.7,1.4,1.5,2.8,1.8,4.4c0.1,0.4,0.3,0.8,0.5,1.2c0.3,0.4,0.7,0.4,1.1,0.4
				c0.4,0,0.5-0.3,0.5-0.7c-0.1-3,0.2-6.1-0.3-9.1c-0.4-2.5-0.4-5,2.1-6.6c1.3-0.9,2.7-1.8,4.1-2.5c2-0.9,2.6-2.1,2.3-4.3
				c-0.2-1.6-0.5-3.2,0.4-4.8c1.5-2.5,3.4-4.5,5.5-6.5c1.3-1.2,1.8-2.6,1.3-4.3c-0.5-1.6-1.1-3-2.2-4.3c-0.9-1.2-1.7-2.5-2.8-3.6
				c-1.2-1.2-2.7-1.3-4.1-0.4c-1.4,1-2,2.4-2.6,3.9c-0.9,2.1-1.5,4.2-3.1,5.9c-1.5,1.6-3,3.3-4.9,4.6c-1.2,0.8-2.3,0.7-3.5,0.3
				c-1.1-0.4-1.4-1.5-1.4-2.6c0-1.4,0.3-2.8,0.9-4c1-2,1.5-4,0.1-6c-0.3-0.5-0.1-1.1,0.1-1.7c0.6-1.4,2-2.1,3.1-3
				c1.1-1,2.2-1.9,3.1-3.1c0.8-1,0.7-2.2-0.2-3.2c-0.9-1-1.9-1.8-2.9-2.6c-1.2-1-3.3-1.2-3-3.6c-0.7,1.3-1.9,2.2-2.5,3.6
				c-1.2,2.7-2.8,5.1-4.4,7.6c-1.7,2.6-3.3,5.3-4.7,8c-2.5,5-4.4,10.3-6.2,15.6c-0.7,2-1.3,4-1.6,6c-0.6,3.7-1.6,7.3-1.8,11
				c-0.1,1,0,1.9-0.2,2.9c-0.6,4.3-0.7,8.7,0.1,13c0.1,0.7-0.1,1.7,0.7,2.2c1,0.5,1.8,1.3,2.7,2c2,1.5,3.5,3.5,4.5,5.7
				c0.9,1.8,2.2,3.3,3.8,4.3c1.7,1.1,3.5,2.3,5.3,3.4c1.4,0.9,2.3,2.1,3.2,3.4c0.1,0.2,0.2,0.4,0,0.5c-0.9,0.4-0.5,0.9-0.2,1.5
				c0.3,0.5,0.5,1.2,1.1,1.4c0.4,0.1,1.1,0.3,1.1-0.5c0-1.2,0-2.4-0.1-3.6C38.2,146.6,37.9,145.9,37.1,147.1z M99,30.4
				c-0.1-0.5-0.2-1.2-0.5-1.8c-1.5-2.7-2.8-5.3-2.8-8.5c0-0.7-0.5-0.8-1.1-0.6c-1.3,0.4-2.6,0.8-3.8,1.3c-3.4,1.4-6.9,2.5-10.1,4.2
				c-2.8,1.5-6,2.2-8.6,4.3c-2.5,2-5.3,3.8-8.2,5.4c-1,0.6-1,1.2,0,1.7c0.7,0.4,1.3,0.9,1.7,1.5c0.9,1.5,1.1,3.2,1.4,4.8
				c0.4,2.3,0.6,4.7,0.6,7.1c0,3.1,1,5.9,2.7,8.5c0.3,0.4,0.6,0.7,1.1,0.9c2,0.5,3.3-0.3,4-2.5c0.8-2.6,1.5-5.3,2-8.1
				c0.3-1.5,0.6-3,1.9-4c0.9-0.8,1.6-1.8,2.5-2.6c0.6-0.6,1.1-1.1,1.9-1.3c2.4-0.8,4.7-1.9,6.9-3.2c2.7-1.5,5.5-2.7,7.7-5.1
				C98.7,32,98.9,31.4,99,30.4z M193.5,148.5c0.3,0,0.5,0,0.7,0c0.7-0.1,1.4-0.1,1.8-0.8c0.4-0.7-0.1-1.3-0.5-1.9
				c-0.3-0.4-0.5-0.8-0.5-1.3c0.1-0.7-0.3-1.1-0.9-1.5c-0.7-0.4-1.4-0.7-2-1.2c-0.9-0.6-1.7-0.6-2.6-0.2c-0.6,0.3-1.1,0.5-1.7,0.7
				c-1.3,0.6-1.4,1.6-0.5,2.7c0.6,0.7,1.4,1.2,2.2,1.7C190.7,147.6,191.9,148.7,193.5,148.5z M193.8,131c-0.2-3.8-3.2-5.3-6.5-5.2
				c-0.3,0-0.8,0-0.9,0.4c-0.2,0.5,0.2,0.8,0.4,1.1c0.1,0.1,0.2,0.2,0.3,0.3c1.4,1.3,3,2.4,3.9,4.1c0.2,0.3,0.5,0.6,0.8,0.8
				c0.7,0.6,1.3,0.4,1.6-0.4C193.7,131.8,193.9,131.4,193.8,131z M56.2,42.3c-1.9-0.5-3.1,0.4-4.3,1.6c-0.7,0.7-0.7,1.4,0.2,1.7
				c1.5,0.5,3,1.1,4.6,0.2c0.7-0.4,1.4-0.7,2.1-1c0.5-0.2,0.8-0.6,0.8-1.2c0-0.6-0.3-1-0.9-1.2C57.8,42.1,57,42.3,56.2,42.3z
				 M61,54.8c0.5,0,0.7,0,0.9,0c0.4-0.1,0.9-0.3,1-0.7c0.2-0.5-0.4-0.7-0.8-0.9c-0.6-0.3-1.3-0.6-1.9-0.7c-1.4-0.3-2.6-0.9-4-1
				c-0.3,0-0.7,0-0.9,0.4c-0.1,0.4,0.2,0.6,0.5,0.7C57.5,53.8,59.4,54.4,61,54.8z M50.3,59.2c0.5,0,0.9,0,1.4,0c0.5,0,0.9-0.3,1-0.8
				c0-0.6-0.4-1-0.9-1c-1.3-0.1-2.5-0.6-3.7-0.7c-0.9-0.1-1.1,0.3-0.8,1.1C47.9,59.1,48.9,59.5,50.3,59.2z"/>
			<path class="st1" d="M114.5,101.3c2.2-0.6,4,0.7,5.8,1.6c1.5,0.7,2.9,1.7,4,3c0.7,0.9,1.8,0.9,2.9,0.8c2-0.3,3.6,0,5.1,1.5
				c1.5,1.5,2.9,3.2,4.4,4.8c1.7,1.8,3.9,2.9,6.2,3.2c2.4,0.4,4.7-0.5,6.6-2.2c2.4-2.2,5.4-2.7,8.5-2.4c2.6,0.3,5.1,0.5,7.6,1.2
				c1.4,0.4,2.5,1,3.2,2.3c1.1,1.8,2.4,3.5,3.2,5.5c0.3,0.8,1.1,1.2,1.7,1.7c1.8,1.7,3.5,3.4,5.2,5.1c1.4,1.4,1.4,3.3,1.4,5
				c-0.1,2.7-0.5,5.4-0.6,8.2c-0.2,3.5-1.1,6.8-2.3,10.1c-1.1,3-2.4,6-4.5,8.5c-1.4,1.6-1.8,3.7-2.9,5.5c-2.3,4.1-4,8.5-6.2,12.6
				c-0.9,1.7-2.3,3.2-3.3,4.9c-2,3.4-4.8,6.2-6.9,9.5c-2,3-4.2,5.7-6.6,8.3c-1.4,1.5-2.8,3.1-4.4,4.6c-2.4,2.2-5.3,3.6-8.2,5
				c-1.3,0.7-3.6-0.3-4.3-1.6c-1-2.1-2.5-3.8-4.1-5.5c-2.1-2.3-3.7-5.1-3.2-8.7c0.3-2,0.8-3.7,1.6-5.5c1.3-2.9,1.5-6.1,1.8-9.3
				c0.3-2.5,0.6-4.9,1.1-7.3c0.2-1,0-1.8-0.4-2.7c-0.7-1.4-1.4-2.8-1.7-4.4c-0.2-0.9,0-1.8,0.2-2.6c0.2-0.5,0.3-1,0.6-1.5
				c0.9-1.7,0.4-3.3-0.6-4.8c-0.8-1.2-1.7-2.4-2.7-3.5c-1.4-1.5-3.1-2.6-5-3.2c-1.7-0.5-2.9-1.4-3.5-3.1c-0.4-1.1-1.2-1.8-2.2-2.4
				c-1.4-0.8-2.2-2.4-3.6-3.2c-2.6-1.6-5.2-3.4-8.5-3.6c-2.4-0.2-4.6-1-5.5-3.7c-0.4-1.2-0.4-2.4-0.6-3.6c-0.5-3.9-0.3-7.8,0-11.7
				c0.2-2.4,2-3.9,3.7-5.4c0.7-0.7,1.5-1.3,2-2.2c0.6-1.1,1.7-1.8,2.7-2.5c2-1.4,4-2.7,5.9-4.3C109.7,102,111.9,100.8,114.5,101.3z"
				/>
			<path class="st1" d="M152.5,44.1c3.1-0.3,5.9,0.9,8.9,0.7c0.8-0.1,1.6-0.2,2.3-0.5c2-0.9,4.2-1.4,6.3-2c1.9-0.6,3.8-1.2,5.6-2.2
				c2.2-1.2,4.6-1.1,7-1c3,0.1,4.4,2.3,6.1,4.1c2.1,2.2,4.1,4.6,6.1,6.9c1.6,1.8,3.3,3.6,4.7,5.5c1.3,1.8,2.9,3.3,4.2,5
				c1,1.4,1.7,3.1,2.5,4.7c1,1.8,2,3.6,2.8,5.5c0.7,1.7,1.6,3.3,2.2,5.1c0.7,2.4,2.2,4.4,3.2,6.6c1.3,3.2,2.5,6.6,3.3,10
				c0.7,2.8,1.7,5.5,2.4,8.3c0.5,2.1,0.9,4.2,1.2,6.3c0.5,3,0.7,6,1.2,8.9c0.3,1.7,0.7,3.4,0.7,5.1c0,0.6-0.1,1.2-0.4,1.8
				c-0.7,1.3-0.7,2.7-1.1,4.1c-0.6,2.1-0.4,4.5-2.1,6.4c-0.9,1-2,1.2-2.9,0.1c-0.4-0.4-0.7-0.9-0.9-1.4c-0.8-1.7-2.3-2.5-3.9-3.3
				c-0.8-0.4-1.4-1.2-2.3-1.4c-3.2-0.8-6.3-2.2-9.6-2.5c-4.5-0.5-7-4.9-5-9c0.6-1.3-0.1-2.4-0.3-3.6c-0.3-1.9-1.1-3.6-2.5-5.1
				c-0.7-0.7-1-1.6-1.5-2.5c-0.4-0.7-0.8-1.1-1.6-1c-1.1,0.1-1.9-0.6-2.9-0.8c-2.1-0.5-5.3,0.7-6.4,2.6c-0.6,1-0.3,2,0.3,2.9
				c0.5,0.8,0.7,1.6,0.6,2.5c-0.1,1.3-1.2,2-2.4,1.3c-0.4-0.2-0.9-0.4-1.4-0.5c-2.5-0.3-3.3-2.3-4.3-4.2c-1.1-2.1-0.9-4.5-1.3-6.7
				c-0.4-2.2-1.3-4-2.3-5.8c-1.6-3-4.3-4.8-6.8-6.8c-1.9-1.5-4.4-1.7-6.8-1.2c-3,0.7-6,1.4-9.1,1c-2.8-0.4-5.7-0.8-8.5-1.6
				c-2.5-0.8-4.9-1.9-7.3-2.7c-1.9-0.6-3.7-0.1-5.3,0.8c-1,0.5-1.9,1.1-2.9,1.7c-2.1,1.2-5.1,1-6.9-0.4c-0.4-0.3-0.7-0.7-0.7-1.3
				c0.1-1.8,0.4-3.6,1.4-5.1c0.9-1.3,2.4-1.5,3.9-1.8c0.8-0.1,1.7,0,2.5,0.2c3,0.9,5.9,0.5,8.8-0.4c0.6-0.2,1.1-0.6,1.5-1
				c2.3-2.1,4.3-4.4,5.1-7.4c0.6-2.4,2.1-3,4.1-3.4c1.2-0.2,2.5,0.1,3.7-0.3c2.4-0.8,4.8-1.4,7.1-2.2c1.9-0.7,3.7-1.8,5.5-2.8
				c0,0,0.1,0,0.1-0.1c1-0.8,2.2-1.7,1.9-3.2c-0.3-1.5-1.6-2.1-2.9-2.6c-2.1-0.8-4.3-0.6-6.4-1.3c-0.7-0.2-1.4-0.5-2.2-0.8
				c-3-1.1-2.6-4.8-1.1-6.4C148.7,44.4,150.5,43.8,152.5,44.1z"/>
			<path class="st1" d="M42.8,193.1c-0.6-2.1-0.1-4.3,0.1-6.4c0.2-1.5-0.5-2.9-0.7-4.3c-0.3-1.9,0.3-3.4,1.2-4.9
				c1.2-2,2.5-4,3.3-6.2c1.2-3.5,1.8-7.1,0.8-10.6c-0.6-2.2-1.7-4.4-3.1-6.3c-0.9-1.2-0.9-2.5-0.9-3.8c0-0.3,0.1-0.7,0.2-1
				c0.1-0.8,0.5-1.2,1.4-1.3c2.3-0.1,4.2,0.7,5.8,2.5c1.9,2.1,3.9,4.3,6.1,6.1c1.9,1.6,4.3,2.5,6.6,3.2c3.6,1.2,6.9,3,10.1,5
				c2.4,1.5,4.5,3.4,6.3,5.5c1.7,2,3.5,3.9,4.5,6.2c1.1,2.5,1.4,5.1,0.4,7.9c-0.8,2.4-1.9,4.7-2.2,7.3c-0.2,1.5-0.7,2.8-2.1,3.7
				c-0.6,0.4-1,1-1.5,1.5c-0.9,1-0.8,1.9-0.2,3.2c0.9,1.9,1.3,5.1-0.4,7.1c-1.8,1.9-3.2,4.2-4.8,6.3c-0.5,0.7-0.5,1.6-0.7,2.4
				c-0.3,1.2-0.6,1.4-1.6,0.9c-2.9-1.4-5.8-3.1-8.5-4.9c-3.7-2.5-6.7-5.8-9.9-8.9c-2.3-2.2-4.8-4-7.5-5.8c-0.5-0.3-1-0.7-1.5-1.1
				C43,195.5,42.3,194.6,42.8,193.1z"/>
			<path class="st1" d="M37.1,147.1c0.8-1.2,1-0.4,1.1,0.2c0.1,1.2,0.1,2.4,0.1,3.6c0,0.8-0.7,0.6-1.1,0.5c-0.7-0.2-0.8-0.8-1.1-1.4
				c-0.4-0.6-0.7-1.1,0.2-1.5c0.2-0.1,0.2-0.3,0-0.5c-0.9-1.3-1.8-2.6-3.2-3.4c-1.8-1.1-3.5-2.2-5.3-3.4c-1.6-1-2.9-2.5-3.8-4.3
				c-1.1-2.2-2.5-4.2-4.5-5.7c-0.9-0.7-1.7-1.5-2.7-2c-0.8-0.4-0.6-1.4-0.7-2.2c-0.8-4.3-0.7-8.7-0.1-13c0.1-1,0.1-1.9,0.2-2.9
				c0.2-3.7,1.2-7.4,1.8-11c0.3-2,0.9-4.1,1.6-6c1.8-5.3,3.8-10.6,6.2-15.6c1.3-2.8,3-5.4,4.7-8c1.5-2.4,3.2-4.9,4.4-7.6
				c0.6-1.3,1.7-2.2,2.5-3.6c-0.3,2.3,1.8,2.6,3,3.6c1,0.8,2,1.6,2.9,2.6c0.8,1,0.9,2.1,0.2,3.2c-0.9,1.2-2,2.1-3.1,3.1
				c-1.1,1-2.5,1.6-3.1,3c-0.3,0.6-0.4,1.2-0.1,1.7c1.4,2.1,0.8,4-0.1,6c-0.6,1.3-0.8,2.6-0.9,4c0,1.1,0.3,2.1,1.4,2.6
				c1.2,0.5,2.3,0.5,3.5-0.3c1.9-1.2,3.4-2.9,4.9-4.6c1.6-1.7,2.2-3.9,3.1-5.9c0.6-1.5,1.2-2.9,2.6-3.9c1.4-1,2.9-0.9,4.1,0.4
				c1.1,1.1,1.9,2.4,2.8,3.6c1.1,1.4,1.7,2.7,2.2,4.3c0.5,1.7,0,3.1-1.3,4.3c-2.1,1.9-4,4-5.5,6.5c-1,1.6-0.7,3.2-0.4,4.8
				c0.3,2.2-0.3,3.4-2.3,4.3c-1.5,0.6-2.8,1.6-4.1,2.5c-2.5,1.6-2.6,4.1-2.1,6.6c0.5,3,0.2,6.1,0.3,9.1c0,0.3-0.1,0.6-0.5,0.7
				c-0.4,0-0.9,0.1-1.1-0.4c-0.2-0.4-0.4-0.8-0.5-1.2c-0.3-1.6-1-3-1.8-4.4c-0.7-1.3-2.1-1.5-3.1-0.4c-0.6,0.6-1.1,1.2-1.5,1.9
				c-1.5,2.9-3.7,5-6.5,6.7c-1.4,0.8-2.9,1.5-4,2.8c-1.1,1.3-1.4,2.5-0.9,4.1c0.8,2.9,2.6,5.2,4.5,7.3c0.8,0.9,1.9,1.5,2.8,2.2
				C35,142,36.4,144.2,37.1,147.1z M36.8,147.8c0-0.1,0-0.1,0-0.1c0,0-0.1,0-0.1,0C36.8,147.7,36.8,147.8,36.8,147.8z"/>
			<path class="st1" d="M99,30.4c-0.1,1-0.3,1.6-0.9,2.2c-2.1,2.3-5,3.5-7.7,5.1c-2.2,1.3-4.5,2.3-6.9,3.2c-0.7,0.3-1.3,0.8-1.9,1.3
				c-0.8,0.8-1.5,1.8-2.5,2.6c-1.3,1-1.6,2.5-1.9,4c-0.5,2.7-1.1,5.4-2,8.1c-0.7,2.2-2,3-4,2.5c-0.6-0.1-0.9-0.4-1.1-0.9
				c-1.6-2.6-2.7-5.4-2.7-8.5c0-2.4-0.2-4.8-0.6-7.1c-0.3-1.6-0.5-3.3-1.4-4.8c-0.4-0.7-1-1.1-1.7-1.5c-1-0.6-1-1.2,0-1.7
				c2.9-1.6,5.7-3.4,8.2-5.4c2.6-2.1,5.7-2.9,8.6-4.3c3.3-1.7,6.8-2.7,10.1-4.2c1.2-0.5,2.5-0.9,3.8-1.3c0.6-0.2,1.1-0.1,1.1,0.6
				c0,3.1,1.3,5.8,2.8,8.5C98.8,29.2,98.9,30,99,30.4z"/>
			<path class="st1" d="M193.5,148.5c-1.6,0.2-2.8-0.9-4-1.6c-0.7-0.5-1.5-1-2.2-1.7c-0.9-1.1-0.8-2.1,0.5-2.7
				c0.6-0.3,1.1-0.5,1.7-0.7c0.9-0.4,1.8-0.4,2.6,0.2c0.6,0.4,1.3,0.8,2,1.2c0.6,0.3,0.9,0.8,0.9,1.5c0,0.5,0.2,0.9,0.5,1.3
				c0.5,0.5,0.9,1.1,0.5,1.9c-0.4,0.7-1.1,0.8-1.8,0.8C194,148.5,193.7,148.5,193.5,148.5z"/>
			<path class="st1" d="M193.8,131c0.1,0.4-0.1,0.8-0.3,1.2c-0.3,0.8-1,1-1.6,0.4c-0.3-0.3-0.6-0.5-0.8-0.8
				c-0.9-1.8-2.5-2.9-3.9-4.1c-0.1-0.1-0.2-0.2-0.3-0.3c-0.3-0.3-0.6-0.7-0.4-1.1c0.1-0.4,0.6-0.4,0.9-0.4
				C190.6,125.7,193.6,127.2,193.8,131z"/>
			<path class="st1" d="M56.2,42.3c0.8,0,1.7-0.2,2.5,0.2c0.6,0.2,0.9,0.6,0.9,1.2c0,0.6-0.3,0.9-0.8,1.2c-0.7,0.3-1.4,0.6-2.1,1
				c-1.6,0.9-3.1,0.3-4.6-0.2c-0.9-0.3-0.9-1-0.2-1.7C53,42.7,54.3,41.8,56.2,42.3z"/>
			<path class="st1" d="M61,54.8c-1.6-0.4-3.5-1-5.2-2.1c-0.2-0.2-0.5-0.4-0.5-0.7c0.1-0.4,0.5-0.4,0.9-0.4c1.4,0.1,2.7,0.7,4,1
				c0.7,0.1,1.3,0.4,1.9,0.7c0.3,0.2,0.9,0.3,0.8,0.9c-0.1,0.4-0.6,0.6-1,0.7C61.7,54.8,61.5,54.8,61,54.8z"/>
			<path class="st1" d="M50.3,59.2c-1.4,0.3-2.4-0.1-3-1.4c-0.4-0.8-0.1-1.2,0.8-1.1c1.3,0.1,2.5,0.6,3.7,0.7c0.5,0,1,0.5,0.9,1
				c0,0.5-0.5,0.8-1,0.8C51.2,59.3,50.8,59.2,50.3,59.2z"/>
			<path class="st2" d="M36.8,147.8c0-0.1,0-0.1,0-0.1c0,0,0,0,0.1,0C36.8,147.7,36.8,147.8,36.8,147.8z"/>
		</g>
	</g>
	<g>
		<rect x="240" y="48" class="st3" width="96" height="90"/>
		<path class="st4" d="M264.7,50.2c6.5,0,11.4,1.8,14.8,5.5c3.4,3.7,5,8.8,5,15.2v2.6c0,4.3-0.8,8-2.3,10.9c-1.5,3-4,5.1-7.3,6.4
			c3.5,1.4,6,3.6,7.4,6.7c1.4,3.1,2.2,6.8,2.2,11v6.2c0,6.5-1.7,11.6-5,15.4c-3.3,3.8-8.3,5.6-14.8,5.6c-6.6,0-11.5-1.9-14.8-5.6
			c-3.3-3.8-5-8.9-5-15.4v-6.2c0-4.3,0.7-8,2.2-11c1.4-3,4-5.3,7.6-6.7c-3.4-1.4-5.9-3.5-7.4-6.4c-1.5-2.9-2.3-6.5-2.3-10.9v-2.6
			c0-6.5,1.7-11.6,5-15.2C253.3,52,258.2,50.2,264.7,50.2z M264.7,58.6c-3.4,0-6,1-7.8,3.1c-1.8,2-2.8,5.2-2.8,9.5v4.1
			c0,4.1,0.9,7.1,2.8,8.9c1.8,1.9,4.4,2.8,7.8,2.8c3.4,0,6-0.9,7.8-2.8c1.8-1.9,2.8-4.9,2.8-8.9v-4.1c0-4.3-0.9-7.5-2.8-9.5
			C270.6,59.6,268,58.6,264.7,58.6z M264.7,95.4c-7,0-10.6,4-10.6,12.1v7.1c0,4.3,0.9,7.5,2.8,9.6c1.8,2.1,4.4,3.1,7.8,3.1
			c3.4,0,5.9-1,7.7-3.1c1.8-2.1,2.7-5.3,2.8-9.6v-7.1C275.2,99.4,271.7,95.4,264.7,95.4z"/>
		<path class="st4" d="M292.3,71.3c0-6.5,1.6-11.6,4.7-15.4c3.2-3.8,8-5.7,14.5-5.7c6.5,0,11.3,1.9,14.5,5.7
			c3.2,3.8,4.8,8.9,4.8,15.4v43.3c0,6.5-1.6,11.6-4.8,15.5c-3.2,3.8-8,5.8-14.5,5.8c-6.5,0-11.3-1.9-14.5-5.8
			c-3.2-3.8-4.7-9-4.7-15.5V71.3z M301.5,115.2c0,3.8,0.8,6.8,2.5,8.9c1.6,2.1,4.1,3.2,7.5,3.2c3.4,0,6-1.1,7.6-3.2
			c1.6-2.1,2.4-5.1,2.4-8.9V70.8c0-3.8-0.8-6.8-2.4-9c-1.6-2.2-4.1-3.2-7.6-3.2c-3.4,0-5.9,1.1-7.5,3.2c-1.6,2.2-2.5,5.2-2.5,9
			V115.2z"/>
	</g>
	<g>
		<rect x="240" y="6" class="st3" width="96" height="36"/>
		<path class="st4" d="M257.5,25.5c2.1,0,3.8,0.5,4.8,1.6c1.1,1.1,1.6,2.7,1.6,5v3.1c0,2.2-0.5,3.9-1.5,5s-2.6,1.8-4.8,1.8h-6.4V14
			h11.6v2.8h-8.5v8.7H257.5z M257.7,39.1c1.1,0,1.9-0.3,2.5-0.9c0.5-0.6,0.8-1.6,0.8-2.9v-3.5c0-1.4-0.3-2.3-0.9-2.8
			c-0.6-0.5-1.4-0.8-2.5-0.8h-3.2v10.8H257.7z"/>
		<path class="st4" d="M266.8,20.7c0-2.2,0.5-3.9,1.5-5.1s2.6-1.9,4.7-1.9c2.1,0,3.7,0.6,4.7,1.9s1.6,3,1.6,5.1v14.5
			c0,2.1-0.5,3.8-1.6,5.1c-1,1.3-2.6,1.9-4.7,1.9c-2.1,0-3.7-0.6-4.7-1.9c-1-1.3-1.5-3-1.5-5.1V20.7z M269.8,35.4
			c0,1.3,0.3,2.3,0.8,3c0.5,0.7,1.4,1.1,2.4,1.1c1.1,0,1.9-0.4,2.5-1.1c0.5-0.7,0.8-1.7,0.8-3V20.6c0-1.3-0.3-2.3-0.8-3
			s-1.3-1.1-2.5-1.1c-1.1,0-1.9,0.4-2.4,1.1c-0.5,0.7-0.8,1.7-0.8,3V35.4z"/>
		<path class="st4" d="M288.1,16.8L287.5,35c-0.1,1.1-0.2,2.1-0.4,3c-0.2,0.9-0.5,1.6-0.9,2.2c-0.4,0.6-1,1.1-1.7,1.4
			S283,42,281.9,42h-0.5v-2.8c0.6,0,1.1-0.1,1.5-0.2c0.4-0.2,0.7-0.4,0.9-0.7c0.2-0.3,0.4-0.8,0.5-1.3c0.1-0.5,0.1-1.1,0.2-1.8
			l0.7-21.2h11.2v28h-3.1V16.8H288.1z"/>
		<path class="st4" d="M309.4,26.4v2.8h-6.7v10h8.2V42h-11.3V14h11.3v2.8h-8.2v9.6H309.4z"/>
		<path class="st4" d="M323.5,26.4v2.8h-6.7v10h8.2V42h-11.3V14H325v2.8h-8.2v9.6H323.5z"/>
	</g>
	<g>
		<rect x="342" y="12" class="st3" width="132" height="30"/>
		<path class="st4" d="M352.8,41.9h-2.6l-4-22.3V42h-2.3V14h3.7l4,22.4l3.8-22.4h3.8v28h-2.5V19.4L352.8,41.9z"/>
		<path class="st4" d="M368.2,29L364.7,42h-2.8V14h2.4v20.9l2.1-7.7l3.9-13.2h3v28h-2.4V19.7L368.2,29z"/>
		<path class="st4" d="M381.1,16.8L380.5,35c0,1.1-0.1,2.1-0.3,3c-0.2,0.9-0.4,1.6-0.8,2.2c-0.4,0.6-0.9,1.1-1.5,1.4
			c-0.6,0.3-1.4,0.5-2.3,0.5h-0.4v-2.8c0.6,0,1-0.1,1.3-0.2s0.6-0.4,0.8-0.7c0.2-0.3,0.3-0.8,0.4-1.3c0.1-0.5,0.1-1.1,0.1-1.8
			l0.7-21.2h9.8v28h-2.7V16.8H381.1z"/>
		<path class="st4" d="M396.4,16.8L395.8,35c0,1.1-0.1,2.1-0.3,3c-0.2,0.9-0.4,1.6-0.8,2.2c-0.4,0.6-0.9,1.1-1.5,1.4
			c-0.6,0.3-1.4,0.5-2.3,0.5h-0.4v-2.8c0.6,0,1-0.1,1.3-0.2s0.6-0.4,0.8-0.7c0.2-0.3,0.3-0.8,0.4-1.3c0.1-0.5,0.1-1.1,0.1-1.8
			l0.7-21.2h9.8v28H401V16.8H396.4z"/>
		<path class="st4" d="M412.8,29L409.3,42h-2.8V14h2.4v20.9l2.1-7.7l3.9-13.2h3v28h-2.4V19.7L412.8,29z"/>
		<path class="st4" d="M420.4,20.7c0-2.2,0.5-3.9,1.4-5.1s2.3-1.9,4.1-1.9s3.2,0.6,4.2,1.9s1.4,3,1.4,5.1v14.5
			c0,2.1-0.5,3.8-1.4,5.1c-0.9,1.3-2.3,1.9-4.2,1.9s-3.2-0.6-4.1-1.9c-0.9-1.3-1.4-3-1.4-5.1V20.7z M423,35.4c0,1.3,0.2,2.3,0.7,3
			c0.5,0.7,1.2,1.1,2.2,1.1c1,0,1.7-0.4,2.2-1.1c0.5-0.7,0.7-1.7,0.7-3V20.6c0-1.3-0.2-2.3-0.7-3c-0.5-0.7-1.2-1.1-2.2-1.1
			c-1,0-1.7,0.4-2.2,1.1s-0.7,1.7-0.7,3V35.4z"/>
		<path class="st4" d="M436.6,29.4V42H434V14h2.7v12.6h5.9V14h2.7v28h-2.7V29.4H436.6z"/>
		<path class="st4" d="M447.8,20.7c0-2.2,0.5-3.9,1.4-5.1s2.3-1.9,4.1-1.9s3.2,0.6,4.2,1.9s1.4,3,1.4,5.1v14.5
			c0,2.1-0.5,3.8-1.4,5.1c-0.9,1.3-2.3,1.9-4.2,1.9s-3.2-0.6-4.1-1.9c-0.9-1.3-1.4-3-1.4-5.1V20.7z M450.4,35.4c0,1.3,0.2,2.3,0.7,3
			c0.5,0.7,1.2,1.1,2.2,1.1c1,0,1.7-0.4,2.2-1.1c0.5-0.7,0.7-1.7,0.7-3V20.6c0-1.3-0.2-2.3-0.7-3c-0.5-0.7-1.2-1.1-2.2-1.1
			c-1,0-1.7,0.4-2.2,1.1s-0.7,1.7-0.7,3V35.4z"/>
		<path class="st4" d="M466.8,14c1.9,0,3.2,0.5,4,1.5c0.8,1,1.2,2.6,1.2,4.7v1.3c0,1.5-0.2,2.7-0.6,3.6c-0.4,0.9-1.1,1.6-2.2,1.9
			c1.2,0.4,2,1.1,2.5,2.1s0.7,2.3,0.7,3.9v2.4c0,2.1-0.4,3.7-1.3,4.9c-0.9,1.1-2.3,1.7-4.2,1.7h-5.5V14H466.8z M466.1,25.8
			c1.1,0,1.9-0.3,2.4-0.8c0.5-0.5,0.8-1.5,0.8-3v-1.6c0-1.3-0.2-2.2-0.6-2.8c-0.4-0.6-1.1-0.9-2-0.9h-2.6v9H466.1z M466.9,39.1
			c1.9,0,2.9-1.3,2.9-3.8v-2.5c0-1.6-0.3-2.7-0.8-3.3s-1.4-0.9-2.6-0.9h-2.3v10.4H466.9z"/>
	</g>
	<g>
		<rect x="342" y="54" class="st3" width="132" height="36"/>
		<path class="st4" d="M347,57.7c1.3,0,2.3,0.6,2.9,1.9c0.6,1.3,0.9,3,0.9,5.1v0.7c0,1.4-0.2,2.7-0.5,3.7c-0.4,1-0.9,1.7-1.6,2.1
			c0.7,0.4,1.3,1.1,1.6,2.1c0.3,1,0.5,2.2,0.5,3.6v2.2c0,2.1-0.3,3.8-0.9,5.1c-0.6,1.3-1.6,1.9-2.9,1.9c-1.3,0-2.3-0.6-2.9-1.9
			c-0.6-1.3-0.9-3-0.9-5.1v-2.7h1.8v2.9c0,1.3,0.2,2.3,0.5,3c0.3,0.7,0.8,1.1,1.5,1.1c0.7,0,1.2-0.4,1.5-1.1
			c0.3-0.7,0.5-1.8,0.5-3.2V77c0-2.8-0.7-4.2-2.2-4.2H346V70h0.9c0.6,0,1.1-0.3,1.5-1c0.4-0.7,0.6-1.6,0.6-2.8v-1.3
			c0-1.4-0.2-2.5-0.5-3.2c-0.3-0.7-0.8-1.1-1.5-1.1c-0.7,0-1.2,0.4-1.5,1.1s-0.5,1.7-0.5,3v1.9h-1.8v-1.8c0-2.2,0.3-3.9,0.9-5.1
			C344.7,58.3,345.7,57.7,347,57.7z"/>
		<path class="st4" d="M354.6,80.4L354,86h-1.8l3.3-28h2.8l3.3,28h-1.9l-0.7-5.6H354.6z M354.9,77.7h3.8l-1.9-16.2L354.9,77.7z"/>
		<path class="st4" d="M364.9,73.4V86H363V58h1.9v12.6h4.2V58h1.9v28h-1.9V73.4H364.9z"/>
		<path class="st4" d="M377.5,73.1L374.9,86h-2V58h1.7v20.9l1.5-7.7l2.7-13.2h2.1v28h-1.7V63.7L377.5,73.1z"/>
		<path class="st4" d="M389.2,86h-1.8l-2.8-22.3V86h-1.7V58h2.7l2.8,22.4l2.7-22.4h2.7v28h-1.8V63.5L389.2,86z"/>
		<path class="st4" d="M397.6,80.4L397,86h-1.8l3.3-28h2.8l3.3,28h-1.9l-0.7-5.6H397.6z M397.9,77.7h3.8l-1.9-16.2L397.9,77.7z"/>
		<path class="st4" d="M414.3,57.7c1.3,0,2.3,0.6,2.9,1.9s1,3,1,5.1v14.5c0,2.1-0.3,3.8-1,5.1c-0.6,1.3-1.6,1.9-2.9,1.9
			c-1.3,0-2.3-0.6-3-1.9c-0.7-1.3-1-3-1-5.1v-5.8h-2.5V86H406V58h1.9v12.6h2.5v-5.8c0-2.2,0.3-3.9,1-5.1S413,57.7,414.3,57.7z
			 M414.3,60.6c-0.7,0-1.2,0.4-1.5,1.1s-0.5,1.7-0.5,3v14.8c0,1.3,0.2,2.3,0.5,3c0.3,0.7,0.8,1.1,1.5,1.1c0.7,0,1.2-0.4,1.5-1.1
			c0.3-0.7,0.5-1.7,0.5-3V64.6c0-1.3-0.2-2.3-0.5-3S415,60.6,414.3,60.6z"/>
		<path class="st4" d="M431.7,89.8V86H420V58h1.9v25.2h3.3V58h1.9v25.2h3.3V58h1.9v25.2h1.3v6.5H431.7z"/>
		<path class="st4" d="M439.7,73.1L437.2,86h-2V58h1.7v20.9l1.5-7.7l2.7-13.2h2.1v28h-1.7V63.7L439.7,73.1z"/>
		<path class="st4" d="M449.4,73.9L446.6,86h-1.8l3.4-14.4L445,58h2l2.6,11.2l2.7-11.2h1.8l-3.2,13.6l3.4,14.4h-2L449.4,73.9z"/>
		<path class="st4" d="M459.5,57.7c1.3,0,2.3,0.6,2.9,1.9c0.6,1.3,0.9,3,0.9,5.1v2.5h-1.8v-2.7c0-1.3-0.2-2.3-0.5-3
			s-0.8-1.1-1.5-1.1c-0.7,0-1.2,0.4-1.5,1.1s-0.5,1.7-0.5,3v14.8c0,1.3,0.2,2.3,0.5,3c0.3,0.7,0.8,1.1,1.5,1.1
			c0.7,0,1.2-0.4,1.5-1.1c0.3-0.7,0.5-1.7,0.5-3v-3.6h1.8v3.5c0,2.1-0.3,3.8-0.9,5.1c-0.6,1.3-1.6,1.9-2.9,1.9
			c-1.3,0-2.3-0.6-2.9-1.9c-0.6-1.3-0.9-3-0.9-5.1V64.8c0-1.1,0.1-2,0.2-2.9c0.2-0.9,0.4-1.6,0.7-2.2c0.3-0.6,0.7-1.1,1.2-1.4
			C458.3,57.9,458.8,57.7,459.5,57.7z"/>
		<path class="st4" d="M469.5,74c-0.8,0-1.4,0.3-1.8,0.9c-0.4,0.6-0.6,1.7-0.6,3.3v4.4c0,0.9,0,1.6-0.1,2.1c0,0.5-0.1,0.9-0.2,1.3
			h-1.9c0.1-0.5,0.2-1,0.3-1.6c0-0.6,0.1-1.2,0.1-1.8v-4.4c0-1.5,0.2-2.8,0.5-3.8c0.3-1,0.9-1.7,1.6-2.1c-1.4-0.7-2.1-2.7-2.1-5.8
			v-2.3c0-2.1,0.3-3.7,0.9-4.8c0.6-1.1,1.6-1.6,2.9-1.6h3.8v28h-1.9V74H469.5z M469,60.8c-0.7,0-1.2,0.3-1.5,1
			c-0.3,0.6-0.5,1.6-0.5,2.9v2.7c0,1.5,0.2,2.5,0.6,3.1s1,0.8,1.8,0.8h1.4V60.8H469z"/>
	</g>
	<g>
		<rect x="342" y="102" class="st3" width="132" height="36"/>
		<path class="st4" d="M349.3,102c2.1,0,3.6,0.6,4.5,1.8c0.9,1.2,1.4,2.9,1.4,5v3.4c0,2.2-0.5,3.9-1.5,5.1c-1,1.1-2.5,1.7-4.6,1.7
			h-2.6v11h-2.9v-28H349.3z M349,116.2c1.1,0,1.9-0.3,2.4-0.9c0.5-0.6,0.8-1.5,0.8-2.9v-3.7c0-1.3-0.2-2.2-0.7-2.9
			c-0.5-0.6-1.2-1-2.3-1h-2.8v11.3H349z"/>
		<path class="st4" d="M366.8,114.4v2.8h-6.4v10h7.9v2.8h-10.8v-28h10.8v2.8h-7.9v9.6H366.8z"/>
		<path class="st4" d="M373.9,104.8V130H371v-28h10.5v2.8H373.9z"/>
		<path class="st4" d="M392.3,123.8c-0.2,1-0.5,2-0.8,2.8c-0.3,0.8-0.7,1.5-1.3,2c-0.5,0.5-1.2,0.9-2,1.2c-0.8,0.2-1.8,0.3-3,0.3
			v-2.8c1.1,0.1,2-0.1,2.5-0.5c0.6-0.4,1-1.2,1.2-2.2l0.6-1.8l-6.1-20.6h2.9l2.7,9.7l1.8,7l1.5-7l2.4-9.7h3L392.3,123.8z"/>
		<path class="st4" d="M405.7,104.8l-0.6,18.2c-0.1,1.1-0.2,2.1-0.3,3c-0.2,0.9-0.5,1.6-0.9,2.2c-0.4,0.6-0.9,1.1-1.6,1.4
			s-1.5,0.5-2.5,0.5h-0.5v-2.8c0.6,0,1.1-0.1,1.5-0.2s0.7-0.4,0.9-0.7s0.4-0.8,0.4-1.3c0.1-0.5,0.1-1.1,0.2-1.8l0.7-21.2h10.7v28
			h-2.9v-25.2H405.7z"/>
		<path class="st4" d="M423.6,118c-1.2,0-2.2,0.3-2.8,0.9s-1,1.7-1,3.3v4.4c0,0.9,0,1.6-0.1,2.1c-0.1,0.5-0.2,0.9-0.4,1.3h-3
			c0.2-0.5,0.4-1,0.4-1.6c0.1-0.6,0.1-1.2,0.1-1.8v-4.4c0-1.5,0.2-2.8,0.7-3.8c0.5-1,1.3-1.7,2.5-2.1c-2.2-0.7-3.2-2.7-3.2-5.8v-2.3
			c0-2.1,0.5-3.7,1.4-4.8c0.9-1.1,2.4-1.6,4.5-1.6h5.9v28h-2.9v-12H423.6z M422.8,104.8c-1.1,0-1.9,0.3-2.3,1
			c-0.5,0.6-0.7,1.6-0.7,2.9v2.7c0,1.5,0.3,2.5,1,3.1c0.7,0.5,1.6,0.8,2.7,0.8h2.2v-10.4H422.8z"/>
		<path class="st4" d="M437.3,102c2.1,0,3.6,0.6,4.5,1.8c0.9,1.2,1.4,2.9,1.4,5v3.4c0,2.2-0.5,3.9-1.5,5.1c-1,1.1-2.5,1.7-4.6,1.7
			h-2.6v11h-2.9v-28H437.3z M437.1,116.2c1.1,0,1.9-0.3,2.4-0.9c0.5-0.6,0.8-1.5,0.8-2.9v-3.7c0-1.3-0.2-2.2-0.7-2.9
			c-0.5-0.6-1.2-1-2.3-1h-2.8v11.3H437.1z"/>
		<path class="st4" d="M448.4,117.4V130h-2.9v-28h2.9v12.6h6.5V102h2.9v28h-2.9v-12.6H448.4z"/>
		<path class="st4" d="M460.6,108.8c0-2.2,0.5-3.9,1.5-5.1s2.5-1.9,4.5-1.9c2,0,3.5,0.6,4.5,1.9s1.5,3,1.5,5.1v14.5
			c0,2.1-0.5,3.8-1.5,5.1c-1,1.3-2.5,1.9-4.5,1.9c-2,0-3.5-0.6-4.5-1.9c-1-1.3-1.5-3-1.5-5.1V108.8z M463.5,123.4
			c0,1.3,0.3,2.3,0.8,3c0.5,0.7,1.3,1.1,2.3,1.1c1.1,0,1.9-0.4,2.4-1.1c0.5-0.7,0.8-1.7,0.8-3v-14.8c0-1.3-0.3-2.3-0.8-3
			c-0.5-0.7-1.3-1.1-2.4-1.1c-1.1,0-1.8,0.4-2.3,1.1s-0.8,1.7-0.8,3V123.4z"/>
	</g>
	<g>
		<rect x="240" y="150" class="st3" width="144" height="36"/>
		<path class="st4" d="M247.5,158c2,0,3.4,0.5,4.3,1.5c0.8,1,1.3,2.6,1.3,4.7v1.3c0,1.5-0.2,2.7-0.7,3.6c-0.4,0.9-1.2,1.6-2.3,1.9
			c1.2,0.4,2.1,1.1,2.6,2.1s0.8,2.3,0.8,3.9v2.4c0,2.1-0.5,3.7-1.4,4.9c-0.9,1.1-2.4,1.7-4.4,1.7h-5.9v-28H247.5z M246.8,169.8
			c1.1,0,2-0.3,2.6-0.8c0.6-0.5,0.9-1.5,0.9-3v-1.6c0-1.3-0.2-2.2-0.6-2.8c-0.4-0.6-1.1-0.9-2.2-0.9h-2.8v9H246.8z M247.6,183.1
			c2,0,3-1.3,3-3.8v-2.5c0-1.6-0.3-2.7-0.9-3.3c-0.6-0.6-1.5-0.9-2.7-0.9h-2.5v10.4H247.6z"/>
		<path class="st4" d="M267.5,169.5c2,0,3.5,0.5,4.5,1.6c1,1.1,1.5,2.7,1.5,5v3.1c0,2.2-0.5,3.9-1.4,5s-2.4,1.8-4.4,1.8h-5.9v-28
			h10.7v2.8h-7.9v8.7H267.5z M267.6,183.1c1,0,1.8-0.3,2.3-0.9c0.5-0.6,0.7-1.6,0.7-2.9v-3.5c0-1.4-0.3-2.3-0.8-2.8
			c-0.5-0.5-1.3-0.8-2.4-0.8h-3v10.8H267.6z"/>
		<path class="st4" d="M276,164.7c0-2.2,0.5-3.9,1.4-5.1c1-1.3,2.4-1.9,4.4-1.9s3.4,0.6,4.4,1.9s1.5,3,1.5,5.1v14.5
			c0,2.1-0.5,3.8-1.5,5.1c-1,1.3-2.4,1.9-4.4,1.9s-3.4-0.6-4.4-1.9c-1-1.3-1.4-3-1.4-5.1V164.7z M278.8,179.4c0,1.3,0.2,2.3,0.7,3
			c0.5,0.7,1.3,1.1,2.3,1.1c1,0,1.8-0.4,2.3-1.1c0.5-0.7,0.7-1.7,0.7-3v-14.8c0-1.3-0.2-2.3-0.7-3s-1.2-1.1-2.3-1.1
			c-1,0-1.8,0.4-2.3,1.1s-0.7,1.7-0.7,3V179.4z"/>
		<path class="st4" d="M295.8,160.8l-0.6,18.2c0,1.1-0.2,2.1-0.3,3c-0.2,0.9-0.4,1.6-0.8,2.2c-0.4,0.6-0.9,1.1-1.5,1.4
			c-0.6,0.3-1.5,0.5-2.4,0.5h-0.5v-2.8c0.6,0,1.1-0.1,1.4-0.2s0.6-0.4,0.9-0.7c0.2-0.3,0.3-0.8,0.4-1.3c0.1-0.5,0.1-1.1,0.1-1.8
			l0.7-21.2h10.4v28h-2.8v-25.2H295.8z"/>
		<path class="st4" d="M315.6,170.4v2.8h-6.2v10h7.6v2.8h-10.5v-28h10.5v2.8h-7.6v9.6H315.6z"/>
		<path class="st4" d="M328.7,170.4v2.8h-6.2v10h7.6v2.8h-10.5v-28h10.5v2.8h-7.6v9.6H328.7z"/>
		<path class="st4" d="M347.3,173.6c-0.5,0.7-1,1.3-1.7,1.6s-1.4,0.6-2.2,0.6c-0.8,0-1.6-0.2-2.2-0.5c-0.6-0.3-1.2-0.8-1.6-1.4
			c-0.4-0.6-0.7-1.3-0.9-2.1c-0.2-0.8-0.3-1.7-0.3-2.6V158h2.8v10.9c0,1.2,0.3,2.2,0.8,2.9c0.5,0.7,1.3,1.1,2.3,1.1
			c1.7,0,2.8-1.1,3.1-3.3V158h2.8v28h-2.8V173.6z"/>
		<path class="st4" d="M362.1,170.4v2.8h-6.2v10h7.6v2.8H353v-28h10.5v2.8h-7.6v9.6H362.1z"/>
		<path class="st4" d="M375.5,185.9h-2.7l-4.2-22.3V186h-2.5v-28h4l4.2,22.4l4-22.4h4v28h-2.7v-22.5L375.5,185.9z"/>
	</g>
	<g>
		<rect x="240" y="198" class="st3" width="144" height="36"/>
		<path class="st4" d="M246.5,197.7c1.6,0,2.9,0.6,3.6,1.9c0.8,1.3,1.2,3,1.2,5.1v2.5h-2.2v-2.7c0-1.3-0.2-2.3-0.6-3
			c-0.4-0.7-1-1.1-1.9-1.1c-0.9,0-1.5,0.4-1.9,1.1s-0.6,1.7-0.6,3v14.8c0,1.3,0.2,2.3,0.6,3c0.4,0.7,1,1.1,1.9,1.1
			c0.9,0,1.5-0.4,1.9-1.1c0.4-0.7,0.6-1.7,0.6-3v-3.6h2.2v3.5c0,2.1-0.4,3.8-1.2,5.1c-0.8,1.3-2,1.9-3.6,1.9c-1.6,0-2.8-0.6-3.6-1.9
			c-0.8-1.3-1.2-3-1.2-5.1v-14.5c0-1.1,0.1-2,0.3-2.9c0.2-0.9,0.5-1.6,0.9-2.2c0.4-0.6,0.9-1.1,1.5-1.4S245.7,197.7,246.5,197.7z"/>
		<path class="st4" d="M256.7,226v-25.2h-3.9V198H263v2.8h-3.9V226H256.7z"/>
		<path class="st4" d="M269.4,198c1.7,0,2.9,0.6,3.6,1.8c0.7,1.2,1.1,2.9,1.1,5v3.4c0,2.2-0.4,3.9-1.2,5.1c-0.8,1.1-2.1,1.7-3.8,1.7
			h-2.1v11h-2.4v-28H269.4z M269.3,212.2c0.9,0,1.6-0.3,2-0.9c0.4-0.6,0.6-1.5,0.6-2.9v-3.7c0-1.3-0.2-2.2-0.6-2.9
			c-0.4-0.6-1-1-1.9-1h-2.3v11.3H269.3z"/>
		<path class="st4" d="M278.5,220.4l-0.8,5.6h-2.2l4.1-28h3.4l4.1,28h-2.4l-0.8-5.6H278.5z M278.8,217.7h4.7l-2.4-16.2L278.8,217.7z
			"/>
		<path class="st4" d="M291.3,213.4V226h-2.4v-28h2.4v12.6h5.2V198h2.4v28h-2.4v-12.6H291.3z"/>
		<path class="st4" d="M303.7,220.4l-0.8,5.6h-2.2l4.1-28h3.4l4.1,28h-2.4l-0.8-5.6H303.7z M304,217.7h4.7l-2.4-16.2L304,217.7z"/>
		<path class="st4" d="M319.4,213.9l-3.6,12.1h-2.2l4.3-14.4l-4-13.6h2.5l3.3,11.2l3.3-11.2h2.2l-4,13.6l4.3,14.4h-2.5L319.4,213.9z
			"/>
		<path class="st4" d="M339.9,226h-2.3l-3.5-22.3V226H332v-28h3.3l3.5,22.4l3.4-22.4h3.3v28h-2.2v-22.5L339.9,226z"/>
		<path class="st4" d="M353.6,213.1l-3.1,12.9H348v-28h2.1v20.9l1.9-7.7l3.4-13.2h2.6v28h-2.1v-22.3L353.6,213.1z"/>
		<path class="st4" d="M365,198c1.7,0,2.9,0.6,3.6,1.8c0.7,1.2,1.1,2.9,1.1,5v3.4c0,2.2-0.4,3.9-1.2,5.1c-0.8,1.1-2.1,1.7-3.8,1.7
			h-2.1v11h-2.4v-28H365z M364.9,212.2c0.9,0,1.6-0.3,2-0.9c0.4-0.6,0.6-1.5,0.6-2.9v-3.7c0-1.3-0.2-2.2-0.6-2.9c-0.4-0.6-1-1-1.9-1
			h-2.3v11.3H364.9z"/>
		<path class="st4" d="M374.1,220.4l-0.8,5.6h-2.2l4.1-28h3.4l4.1,28h-2.4l-0.8-5.6H374.1z M374.4,217.7h4.7l-2.4-16.2L374.4,217.7z
			"/>
	</g>
	<g>
		<rect x="390" y="156" class="st3" width="84" height="72"/>
		<path class="st4" d="M406.1,158.1c3.9,0,6.8,1.5,8.7,4.6c1.8,3,2.7,7.1,2.7,12.3c0,3.4-0.4,6.4-1.3,9.1c-0.8,2.7-1.9,5.2-3.2,7.5
			c-1.3,2.3-2.6,4.5-4.1,6.5c-1.5,2-2.8,4.1-4.1,6.1c-1.3,2-2.3,4.1-3.2,6.3s-1.3,4.5-1.3,7.1v1h16.6v6.7h-22.2v-5.7
			c0-3.5,0.4-6.7,1.3-9.4c0.8-2.7,1.9-5.2,3.2-7.5c1.3-2.2,2.6-4.4,4.1-6.4c1.5-2,2.8-4,4.1-6.1c1.3-2.1,2.3-4.3,3.2-6.7
			c0.8-2.4,1.3-5.2,1.3-8.3c0-3.4-0.5-6-1.4-7.8c-0.9-1.8-2.4-2.7-4.5-2.7c-2.1,0-3.6,0.9-4.5,2.7c-0.9,1.8-1.4,4.1-1.4,7.1v5.9
			h-5.3V175c0-5.1,0.9-9.2,2.7-12.3C399.3,159.6,402.2,158.1,406.1,158.1z"/>
		<path class="st4" d="M433,170.8c-1,0.8-2,1.4-3.2,1.9c-1.2,0.5-2.4,0.8-3.8,1v-6.1c1.3-0.1,2.5-0.3,3.5-0.9c1-0.5,1.8-1.2,2.4-1.9
			c0.6-0.8,1.2-1.7,1.6-2.8c0.4-1,0.8-2.1,1.2-3.3h3.9v66.5H433V170.8z"/>
		<path class="st4" d="M458.4,158.1c3.9,0,6.8,1.5,8.7,4.6c1.8,3,2.7,7.1,2.7,12.3c0,3.4-0.4,6.4-1.3,9.1c-0.8,2.7-1.9,5.2-3.2,7.5
			c-1.3,2.3-2.6,4.5-4.1,6.5c-1.5,2-2.8,4.1-4.1,6.1c-1.3,2-2.3,4.1-3.2,6.3s-1.3,4.5-1.3,7.1v1h16.6v6.7h-22.2v-5.7
			c0-3.5,0.4-6.7,1.3-9.4c0.8-2.7,1.9-5.2,3.2-7.5c1.3-2.2,2.6-4.4,4.1-6.4c1.5-2,2.8-4,4.1-6.1c1.3-2.1,2.3-4.3,3.2-6.7
			c0.8-2.4,1.3-5.2,1.3-8.3c0-3.4-0.5-6-1.4-7.8c-0.9-1.8-2.4-2.7-4.5-2.7c-2.1,0-3.6,0.9-4.5,2.7c-0.9,1.8-1.4,4.1-1.4,7.1v5.9
			h-5.3V175c0-5.1,0.9-9.2,2.7-12.3C451.7,159.6,454.5,158.1,458.4,158.1z"/>
	</g>
	<g>
		<path class="st5" d="M311.5,283.6c0.2-0.7,0.3-1.4,0.4-2.1c0.3-1.7,0.4-3.4,0.3-5.2c0-1.7-0.2-3.3-0.5-4.9
			c-0.2-1.1-0.5-2.3-0.8-3.4c-0.6-1.8-1.3-3.5-2.2-5.2c-0.8-1.5-1.7-2.9-2.7-4.3c-0.9-1.2-1.9-2.4-3.1-3.5c-0.9-0.8-1.8-1.6-2.8-2.3
			c-1-0.8-2.1-1.5-3.3-2.2c-1.6-0.9-3.1-1.6-4.8-2.2c-1.1-0.4-2.1-0.7-3.2-1c-1.1-0.3-2.2-0.5-3.4-0.6c-1-0.1-2.1-0.2-3.1-0.2
			c-1.6-0.1-3.2,0.1-4.8,0.3c-1.5,0.1-2.9,0.5-4.3,0.9c-1.7,0.5-3.3,1.1-4.9,1.9c-1.2,0.6-2.4,1.2-3.5,2c-1.5,1-2.9,2.1-4.2,3.4
			c-0.8,0.7-1.4,1.5-2.1,2.3c-0.9,1-1.6,2.1-2.4,3.2c-0.8,1.2-1.5,2.5-2.1,3.8c-0.3,0.6-0.6,1.2-0.8,1.9c-0.5,1.3-0.9,2.7-1.3,4.1
			c-0.3,1.1-0.5,2.3-0.6,3.4c-0.2,2-0.3,4-0.1,6c0.1,1,0.2,2,0.4,3c0.3,1.6,0.7,3.1,1.3,4.6c0.5,1.3,1,2.5,1.6,3.7
			c0.5,0.9,1,1.8,1.5,2.7c0.2,0.3,0.4,0.7,0.7,1c0.9,1.1,1.7,2.3,2.7,3.3c0.8,0.9,1.7,1.7,2.6,2.4c1.1,0.8,2.1,1.7,3.2,2.4
			c1.8,1.1,3.6,2,5.6,2.8c1.5,0.6,3,1,4.5,1.3c1.7,0.3,3.5,0.6,5.3,0.6c1,0,2,0,3.1,0c0,0,0.1,0,0.1,0c0.4,0,0.5,0,0.4,0.4
			c-0.2,0.8-0.4,1.7-0.6,2.5c-0.1,0.6-0.3,1.3-0.4,2c-0.1,0.4-0.1,0.4-0.5,0.5c-1.1,0-2.2,0.1-3.2-0.1c-0.4,0-0.9,0-1.3-0.1
			c-1-0.1-2-0.2-3-0.4c-1.6-0.3-3.2-0.7-4.7-1.2c-1.8-0.6-3.4-1.3-5.1-2.1c-1.8-0.9-3.5-2-5.1-3.1c-0.9-0.6-1.7-1.3-2.5-2
			c-1-1-2.1-2-3-3c-1.3-1.5-2.5-3.1-3.6-4.8c-0.9-1.4-1.6-2.8-2.3-4.3c-0.8-1.7-1.4-3.5-1.9-5.3c-0.3-1.2-0.6-2.5-0.8-3.7
			c-0.2-1.1-0.2-2.1-0.3-3.2c-0.1-1.3-0.1-2.5-0.1-3.8c0.1-2.3,0.3-4.5,0.9-6.8c0.3-1.1,0.5-2.3,0.9-3.4c0.5-1.5,1.2-3,1.9-4.5
			c0.9-1.9,2.1-3.7,3.3-5.4c1.4-2,3.1-3.7,4.9-5.4c1.1-1.1,2.4-2,3.7-2.9c1.5-1.1,3.1-1.9,4.7-2.7c1.7-0.9,3.5-1.6,5.4-2.1
			c1.6-0.4,3.1-0.8,4.7-1c1-0.1,2-0.2,3-0.3c1.3-0.1,2.7-0.1,4-0.1c0.8,0,1.7,0.1,2.5,0.2c1.6,0.1,3.1,0.5,4.6,0.8
			c0.9,0.2,1.8,0.5,2.7,0.8c2,0.6,3.9,1.6,5.7,2.6c2,1,3.8,2.3,5.5,3.8c0.8,0.7,1.6,1.3,2.4,2.1c1.5,1.6,3,3.3,4.3,5.1
			c0.7,1,1.4,2.1,2,3.2c0.8,1.6,1.6,3.1,2.2,4.8c0.6,1.6,1.1,3.3,1.4,5c0.3,1.4,0.5,2.8,0.6,4.3c0.1,1.5,0.1,2.9,0.1,4.4
			c0,1.3-0.1,2.7-0.3,4c0,0.1,0,0.2,0,0.3c-0.1,0.6-0.2,1.2-0.3,1.9c-0.3,1.2-0.6,2.5-0.9,3.7c-0.2,0.4-0.3,0.8-0.5,1.2
			c-0.4,1-0.8,2.1-1.3,3c-0.6,1.1-1.1,2.2-1.8,3.3c-0.9,1.4-1.9,2.9-3,4.2c-0.8,1-1.7,1.9-2.6,2.8c-1.5,1.5-3.2,2.8-4.9,4
			c-1.1,0.7-2.2,1.4-3.3,2c-1.1,0.5-2.2,1.1-3.4,1.6c-0.5,0.2-1,0.4-1.6,0.6c0-0.4,0.2-0.8,0.3-1.1c0.4-1,0.7-2,1.2-3
			c0.5-0.9,0.8-1.8,1.3-2.7c0.2-0.3,0.4-0.5,0.7-0.7c1.4-0.8,2.7-1.7,3.9-2.7c1.3-1.1,2.6-2.2,3.7-3.5c0.5-0.6,1-1.2,1.5-1.8
			c1.2-1.6,2.3-3.2,3.1-5c0,0,0-0.1,0-0.2c0.1-0.1,0.2-0.2,0.2-0.4C310.3,287.7,311.1,285.7,311.5,283.6z"/>
		<path class="st6" d="M404.8,290.5c0.5,0.1,1,0.2,1.4,0.3c1.7,0.5,3.4,1.1,5,1.9c0.5,0.3,1,0.6,1.3,1.1c0.9,1.3,1.8,2.6,2.9,3.8
			c0.8,0.9,1.7,1.7,2.6,2.5c0.8,0.7,1.6,1.3,2.4,1.9c1.1,0.8,2.2,1.5,3.4,2.1c0.9,0.4,1.7,0.9,2.7,1.2c1.7,0.7,3.4,1.2,5.1,1.6
			c1.7,0.3,3.5,0.6,5.3,0.6c0.3,0,0.5,0,0.8,0.1c0.1,0,0.2,0,0.3,0c0.9-0.1,1.8-0.1,2.6-0.1c1-0.1,1.9-0.2,2.9-0.4
			c1.2-0.2,2.3-0.5,3.5-0.9c2.3-0.8,4.5-1.7,6.6-3c1.6-1,3-2,4.4-3.2c1.2-1,2.2-2.1,3.2-3.2c1-1.2,1.9-2.4,2.7-3.7
			c0.3-0.4,0.5-0.8,0.7-1.2c1.1-2,1.9-4,2.6-6.1c0.4-1.4,0.7-2.8,0.9-4.3c0.1-0.9,0.2-1.9,0.3-2.8c0-0.5,0.1-1.1,0.1-1.6
			c-0.1-1.4-0.1-2.8-0.3-4.1c-0.2-1.5-0.5-2.9-0.9-4.3c-0.5-1.8-1.2-3.5-2.1-5.2c-0.9-1.9-2.1-3.6-3.4-5.2c-1-1.2-2-2.4-3.2-3.4
			c-1-0.9-2-1.7-3.1-2.5c-0.7-0.5-1.5-1-2.2-1.5c-1.5-0.8-2.9-1.6-4.5-2.2c-1.3-0.5-2.7-0.9-4-1.2c-1.2-0.3-2.4-0.4-3.7-0.6
			c-1-0.1-2-0.1-3.1-0.2c-0.4,0-0.7,0-1.1,0c-1.7,0.1-3.4,0.2-5,0.6c-2.3,0.5-4.5,1.2-6.7,2.2c-1.4,0.7-2.8,1.4-4.1,2.2
			c-1.1,0.8-2.3,1.6-3.3,2.5c-0.7,0.6-1.4,1.3-2.1,2c-0.3,0.3-0.6,0.7-0.8,1c-0.6,0.7-1.1,1.5-1.7,2.2c-1.3,1.7-2.2,3.5-3.1,5.4
			c-0.7,1.5-1.2,3-1.6,4.6c-0.4,1.7-0.7,3.3-0.8,5.1c-0.1,0.8-0.1,1.7-0.1,2.5c0,0.9,0,1.7,0.1,2.6c0.1,0.5,0,1,0.1,1.5
			c0,0.2,0,0.2-0.2,0.2c-0.1,0-0.2,0-0.3,0c-1.5-0.4-3-0.6-4.5-0.7c-0.1,0-0.1,0-0.2,0c-0.2,0-0.3-0.1-0.3-0.3c0-0.5,0-1.1-0.1-1.6
			c-0.1-1.1-0.1-2.1,0-3.2c0.1-1.9,0.2-3.7,0.7-5.6c0.4-1.7,0.8-3.4,1.4-5c0.6-1.6,1.4-3.2,2.2-4.7c0.7-1.4,1.5-2.6,2.4-3.8
			c0.7-1,1.5-2,2.3-2.9c0.5-0.6,1.1-1.1,1.6-1.6c0.9-0.9,1.9-1.8,2.9-2.6c0.7-0.6,1.5-1.1,2.2-1.6c1.6-1.2,3.4-2.1,5.2-2.9
			c0.5-0.2,1-0.5,1.5-0.7c1.7-0.7,3.5-1.3,5.3-1.7c1-0.2,2.1-0.5,3.1-0.6c0.8-0.1,1.5-0.2,2.3-0.2c1.4-0.1,2.7-0.1,4.1-0.1
			c0.9,0,1.8,0.1,2.7,0.2c2.1,0.2,4.2,0.7,6.2,1.2c2,0.6,3.9,1.3,5.7,2.3c1,0.5,2,1,3,1.6c1.3,0.8,2.5,1.7,3.7,2.6
			c0.7,0.6,1.5,1.2,2.1,1.8c0.8,0.8,1.7,1.7,2.5,2.6c0.6,0.7,1.1,1.3,1.7,2.1c1.2,1.7,2.3,3.4,3.2,5.3c0.8,1.6,1.5,3.3,2,5
			c0.5,1.4,0.8,2.9,1.1,4.4c0.2,1.3,0.4,2.6,0.5,3.9c0.1,1.6,0.1,3.1,0,4.7c0,1.1-0.1,2.1-0.3,3.2c-0.3,1.8-0.7,3.7-1.2,5.4
			c-0.6,1.9-1.3,3.8-2.3,5.6c-0.3,0.6-0.6,1.3-1,1.9c-0.4,0.7-0.8,1.3-1.2,1.9c-0.4,0.6-0.8,1.3-1.3,1.8c-0.8,0.9-1.5,1.9-2.4,2.7
			c-0.6,0.6-1.1,1.2-1.8,1.8c-1.3,1.2-2.7,2.3-4.1,3.2c-1.5,1.1-3.2,2-4.9,2.8c-1.5,0.7-3,1.3-4.5,1.8c-1.4,0.5-2.8,0.7-4.1,1
			c-0.9,0.2-1.8,0.3-2.7,0.4c-1.7,0.1-3.3,0.2-5,0.2c-0.9,0-1.8-0.1-2.6-0.1c-0.3,0-0.6-0.1-0.9-0.1c-2.1-0.3-4.2-0.7-6.2-1.4
			c-1.5-0.5-3-1-4.4-1.8c-0.2-0.1-0.3-0.2-0.5-0.2c-1.7-0.8-3.3-1.8-4.9-2.9c-1.1-0.8-2.1-1.6-3.1-2.5c-0.8-0.7-1.4-1.4-2.2-2.1
			c-1.4-1.4-2.6-2.9-3.7-4.5c-1.2-1.7-2.1-3.6-3-5.4C405.1,291.2,404.9,290.9,404.8,290.5z"/>
		<path class="st7" d="M311.5,283.6c-0.4,2.1-1.2,4.2-2.1,6.2c-0.1,0.1-0.1,0.3-0.2,0.4c-0.7,0.2-1.3,0.5-1.9,0.8
			c-1.2,0.5-2.3,1.2-3.3,1.9c-1.9,1.3-3.8,2.8-5.4,4.5c-0.7,0.8-1.4,1.6-2.1,2.5c-0.3,0.4-0.6,0.8-0.8,1.2c-1,1.4-1.8,2.9-2.5,4.4
			c-0.7,1.6-1.3,3.2-1.8,4.8c-0.3,1.2-0.6,2.5-0.7,3.7c-0.1,1.1-0.2,2.2-0.3,3.4c-0.1,1.2,0,2.4,0.1,3.7c0.1,1.3,0.3,2.5,0.5,3.8
			c0.5,2.1,1.1,4.1,2,6c0.6,1.4,1.3,2.7,2.2,4c0.7,1.1,1.5,2.1,2.3,3.1c0.1,0.1,0.1,0.2,0.2,0.3c0.9,1.2,2,2.2,3.1,3.1
			c1,0.8,2,1.6,3.1,2.3c0.9,0.6,1.9,1.2,3,1.7c1.2,0.6,2.5,1.2,3.8,1.6c0.9,0.3,1.8,0.6,2.7,0.8c1,0.3,2,0.4,3,0.6
			c0.5,0.1,1,0.2,1.5,0.2c1.1,0,2.3,0.2,3.4,0.1c2-0.1,3.9-0.2,5.9-0.7c1.2-0.3,2.5-0.6,3.6-1.1c1.6-0.6,3.2-1.3,4.7-2.1
			c1.1-0.6,2.1-1.3,3.1-2c0.6-0.4,1.2-0.9,1.8-1.4c0.5-0.4,1-0.8,1.5-1.3c0.5-0.5,1.1-1.1,1.6-1.7c0.5-0.7,1.1-1.3,1.6-2
			c0.9-1.3,1.9-2.6,2.6-4.1c0.5-1,1-1.9,1.3-2.9c0.5-1.4,1-2.8,1.4-4.3c0.4-1.8,0.7-3.5,0.8-5.3c0-0.8,0.2-1.6,0.1-2.5
			c-0.1-1-0.1-2-0.2-2.9c0-0.1,0-0.2,0-0.3c-0.1-0.4,0-0.5,0.4-0.4c0.7,0.1,1.3,0.3,2,0.4c0.9,0.1,1.7,0.3,2.6,0.3
			c0.3,0,0.3,0.1,0.4,0.4c0.2,1.6,0.2,3.3,0.1,4.9c-0.1,1.4-0.2,2.8-0.4,4.1c-0.3,1.7-0.7,3.4-1.2,5c-0.5,1.6-1.1,3.2-1.9,4.7
			c-0.8,1.6-1.8,3.2-2.8,4.8c-0.8,1.2-1.7,2.3-2.7,3.4c-1.2,1.3-2.5,2.6-3.9,3.8c-1.1,0.9-2.2,1.7-3.4,2.5c-1,0.7-2.1,1.3-3.2,1.8
			c-1.8,0.9-3.6,1.7-5.5,2.3c-1.3,0.4-2.6,0.7-3.9,1c-0.8,0.2-1.6,0.3-2.4,0.4c-0.6,0.1-1.2,0.1-1.8,0.1c-1.3,0.1-2.5,0.2-3.8,0.1
			c-0.7-0.1-1.4-0.1-2.2-0.1c-1.2,0-2.4-0.3-3.6-0.5c-1.4-0.2-2.8-0.6-4.2-1c-1.5-0.5-3-1.1-4.5-1.8c-1.4-0.7-2.7-1.4-4-2.2
			c-0.7-0.4-1.4-1-2-1.5c-0.5-0.4-1-0.8-1.5-1.2c-1.3-1.1-2.5-2.3-3.7-3.5c-1.2-1.2-2.2-2.5-3.1-3.9c-0.8-1.3-1.6-2.6-2.3-4
			c-0.4-0.9-0.9-1.8-1.3-2.7c-0.5-1.2-0.9-2.5-1.3-3.7c-0.3-1-0.5-1.9-0.7-2.9c-0.1-0.7-0.3-1.5-0.3-2.2c-0.1-1.2-0.2-2.4-0.2-3.6
			c0-1,0-2,0.1-3c0.1-0.7,0.1-1.4,0.1-2c0.1-1.4,0.4-2.8,0.7-4.1c0.4-1.8,1-3.6,1.7-5.3c0.5-1.1,1.1-2.2,1.6-3.4
			c0.8-1.7,1.9-3.2,3.1-4.8c0.5-0.7,1.1-1.4,1.7-2c1.1-1.2,2.3-2.5,3.6-3.6c1.3-1.2,2.8-2.2,4.3-3.1c1.3-0.8,2.7-1.5,4.1-2.2
			c1.3-0.7,2.7-1.1,4.1-1.6C310.6,283.8,311.1,283.7,311.5,283.6z"/>
		<path class="st8" d="M387.2,284.4c0,0.3-0.1,0.5-0.1,0.7c-0.5,1.2-0.8,2.5-1.4,3.6c-0.4,0.9-0.9,1.8-1.4,2.6
			c-0.1,0.2-0.3,0.3-0.4,0.4c-0.6,0.4-1.2,0.7-1.8,1.1c-1,0.7-2,1.4-2.9,2.2c-1,0.8-1.8,1.7-2.7,2.6c-0.8,0.9-1.5,1.8-2.2,2.7
			c-1.2,1.6-2.2,3.5-3.1,5.3c-0.7,1.5-1.3,3.1-1.7,4.7c-0.4,1.4-0.7,2.9-0.8,4.3c-0.1,1-0.2,2-0.2,3c0,0.5,0,1,0,1.4
			c0.1,1.4,0.2,2.7,0.4,4.1c0,0.4,0.1,0.7,0.2,1.1c0.6,2.6,1.4,5.1,2.6,7.4c0.5,1,1,1.9,1.6,2.8c0.5,0.9,1.1,1.7,1.8,2.5
			c0.8,1,1.6,1.9,2.5,2.8c1.2,1.1,2.5,2.1,3.8,3.1c1.3,0.9,2.7,1.7,4.1,2.4c1.6,0.8,3.2,1.4,4.9,1.9c1.1,0.4,2.3,0.6,3.5,0.8
			c0.9,0.1,1.8,0.2,2.7,0.3c0.3,0,0.5,0,0.8,0c1.1,0,2.2,0,3.4,0c0.9,0,1.8-0.1,2.7-0.3c0.4-0.1,0.9-0.1,1.3-0.2
			c2.3-0.4,4.5-1.2,6.6-2.1c1.6-0.7,3.1-1.5,4.5-2.5c1.1-0.7,2.1-1.6,3.2-2.4c1.2-1,2.2-2.2,3.3-3.3c1.1-1.2,2-2.6,2.8-3.9
			c0.4-0.6,0.7-1.2,1-1.8c0.9-1.6,1.5-3.4,2.1-5.2c0.7-2.2,1.1-4.5,1.2-6.9c0-0.6,0.1-1.2,0.1-1.8c0-1.3-0.1-2.6-0.3-3.9
			c0-0.4,0-0.4,0.3-0.3c0.7,0.2,1.4,0.3,2.1,0.4c0.9,0.2,1.8,0.3,2.7,0.4c0.3,0,0.3,0.1,0.3,0.4c0.1,1.4,0.2,2.9,0.1,4.3
			c-0.1,1.6-0.2,3.2-0.5,4.7c-0.3,1.7-0.7,3.4-1.2,5c-0.9,2.8-2.1,5.5-3.7,7.9c-0.9,1.4-1.8,2.8-2.9,4c-0.9,1-1.8,2-2.7,2.9
			c-1,1-2.2,1.9-3.3,2.8c-1.3,0.9-2.6,1.8-3.9,2.6c-0.7,0.4-1.4,0.7-2.1,1.1c-1.9,0.9-3.9,1.6-5.9,2.2c-1.8,0.5-3.7,0.8-5.5,1.1
			c-0.1,0-0.3,0-0.4,0c-0.9,0-1.8,0.1-2.7,0.1c-0.6,0-1.3,0-1.9,0c-0.5,0-0.9-0.1-1.4-0.1c-1.4,0-2.8-0.2-4.2-0.5
			c-1.5-0.3-2.9-0.6-4.4-1.1c-1.6-0.5-3.3-1.2-4.8-2c-0.7-0.4-1.4-0.6-2-1c-1.4-0.8-2.8-1.8-4.1-2.8c-0.9-0.7-1.8-1.4-2.5-2.2
			c-0.4-0.4-0.8-0.8-1.2-1.2c-0.6-0.6-1.2-1.2-1.7-1.9c-0.9-1-1.6-2.1-2.4-3.1c-0.7-1-1.3-2.1-1.9-3.2c-0.5-0.9-1-1.9-1.4-2.8
			c-0.7-1.7-1.3-3.5-1.8-5.4c-0.3-1.2-0.6-2.5-0.7-3.8c-0.1-0.8-0.2-1.6-0.2-2.4c0-0.8-0.1-1.5-0.1-2.3c0.1-1.6,0.1-3.2,0.3-4.8
			c0.3-2.3,0.8-4.4,1.5-6.6c0.4-1.3,1-2.6,1.6-3.9c0.7-1.3,1.3-2.7,2.1-3.9c0.4-0.6,0.9-1.2,1.3-1.8c0.7-1,1.4-1.9,2.2-2.8
			c0.5-0.5,1-1,1.4-1.5c1-1,2-2,3.1-2.8c1.3-1,2.6-2,4-2.8c1.4-0.8,3-1.5,4.5-2.3C385.8,284.8,386.5,284.6,387.2,284.4z"/>
		<path class="st9" d="M371.7,310.7c0.1-0.3,0.2-0.7,0.3-1c0.6-1.7,1.3-3.3,2.1-4.9c0.2-0.4,0.4-0.7,0.6-1.1
			c0.1-0.2,0.3-0.3,0.4-0.4c1.1-0.6,2.2-1.3,3.2-2.1c1.2-0.9,2.4-1.9,3.4-3c0.9-1,1.8-2,2.6-3c1-1.3,1.9-2.7,2.6-4.2
			c0.9-1.8,1.6-3.6,2.2-5.4c0.4-1.4,0.7-2.8,0.9-4.2c0.2-1.1,0.2-2.3,0.3-3.4c0.1-0.7,0.1-1.5,0-2.2c-0.1-0.9-0.1-1.7-0.2-2.6
			c-0.3-2.7-1-5.3-2.1-7.8c-0.6-1.4-1.2-2.8-2-4.1c-0.8-1.3-1.7-2.5-2.6-3.7c-0.7-0.9-1.5-1.7-2.3-2.5c-0.4-0.4-0.9-0.8-1.4-1.2
			c-1.1-0.9-2.2-1.8-3.5-2.6c-1.6-1-3.4-1.9-5.2-2.7c-1.6-0.6-3.2-1.1-4.9-1.5c-0.9-0.2-1.8-0.3-2.7-0.4c-1.2-0.1-2.4-0.2-3.7-0.3
			c-0.4,0-0.7,0-1.1,0.1c-1,0.1-2.1,0.2-3.1,0.3c-1.7,0.2-3.4,0.6-5,1.1c-1.1,0.3-2.1,0.7-3.1,1.2c-0.4,0.2-0.9,0.4-1.3,0.6
			c-1.1,0.5-2.2,1.1-3.2,1.9c-1.1,0.8-2.2,1.6-3.3,2.5c-0.5,0.4-1,0.9-1.5,1.4c-0.6,0.5-1,1.1-1.5,1.7c-0.9,1-1.7,2.2-2.5,3.3
			c-0.8,1.1-1.4,2.3-1.9,3.5c-0.5,1-0.9,2.1-1.3,3.1c-0.4,1-0.6,2.1-0.9,3.2c-0.4,1.4-0.5,2.9-0.6,4.3c-0.1,0.6,0,1.2-0.1,1.9
			c-0.1,0.9,0,1.8,0,2.6c0,0.7,0.1,1.3,0.2,2c0,0.2,0,0.3-0.2,0.2c-1-0.2-1.9-0.4-2.9-0.6c-0.6-0.1-1.3-0.2-1.9-0.2
			c-0.3,0-0.3,0-0.3-0.3c0-0.6-0.1-1.2-0.1-1.9c0-0.5-0.1-1.1,0-1.6c0.1-1.1,0.1-2.2,0.2-3.4c0.1-0.8,0.1-1.5,0.3-2.3
			c0.2-1.2,0.5-2.3,0.8-3.5c0.4-1.6,0.9-3.1,1.6-4.6c0.8-1.9,1.7-3.7,2.8-5.4c0.5-0.7,1-1.4,1.5-2.1c1.2-1.7,2.6-3.1,4.1-4.6
			c1-1,2.1-1.9,3.3-2.7c0.4-0.2,0.7-0.5,1-0.8c1.5-1.1,3.2-2,4.9-2.8c1.7-0.8,3.4-1.5,5.3-2c1.9-0.5,3.8-1,5.7-1.1
			c1.5-0.1,3-0.3,4.6-0.2c1.3,0,2.6,0.1,3.9,0.2c2.3,0.2,4.4,0.7,6.6,1.4c1.9,0.6,3.7,1.3,5.4,2.2c1.1,0.6,2.2,1.2,3.3,1.9
			c1.3,0.9,2.5,1.8,3.7,2.8c1.3,1,2.4,2.2,3.5,3.4c1,1.1,1.9,2.3,2.8,3.6c1.5,2.1,2.6,4.3,3.6,6.7c0.5,1.1,0.9,2.3,1.2,3.5
			c0.4,1.6,0.9,3.3,1.1,4.9c0.1,0.9,0.2,1.8,0.3,2.7c0.1,1.4,0.1,2.7,0.1,4.1c-0.1,2.5-0.5,4.9-1.1,7.3c-0.5,2.1-1.2,4.1-2.1,6
			c-0.9,1.9-1.9,3.8-3.1,5.5c-0.8,1.2-1.8,2.4-2.7,3.5c-1.1,1.2-2.2,2.4-3.5,3.4c-1.3,1.1-2.6,2-4,2.9c-1.4,0.9-2.8,1.7-4.2,2.3
			c-0.9,0.4-1.8,0.8-2.7,1.1C372.1,310.6,371.9,310.7,371.7,310.7z"/>
		<path class="st7" d="M315.9,288c0.4-1.2,0.7-2.4,0.9-3.7c0.1-0.6,0.2-1.2,0.3-1.9c0.4,0.1,0.7,0,1.1,0c0.8,0,1.7-0.1,2.5-0.1
			c1.3,0,2.6,0.1,3.9,0.2c1.2,0.1,2.4,0.3,3.6,0.5c1.7,0.4,3.4,0.8,5.1,1.4c1.7,0.6,3.3,1.5,5,2.3c1.5,0.8,2.9,1.8,4.3,2.8
			c0.9,0.7,1.8,1.5,2.7,2.2c0.4,0.3,0.7,0.6,1,1c1,1,1.9,2,2.8,3.1c1.2,1.6,2.4,3.2,3.3,5c0.5,1,1.1,2,1.5,3.1
			c0,0.1,0.1,0.2,0.1,0.3c0.1,0.3,0,0.3-0.2,0.3c-0.9-0.2-1.8-0.4-2.7-0.8c-0.8-0.3-1.6-0.5-2.4-0.9c-0.6-0.3-1.2-0.6-1.7-0.9
			c-0.2-0.1-0.4-0.3-0.5-0.5c-0.5-0.8-1.1-1.6-1.7-2.4c-0.9-1.2-1.9-2.3-3-3.3c-1.2-1.1-2.4-2.1-3.8-3c-1.3-0.9-2.8-1.6-4.2-2.4
			c-1.2-0.6-2.4-1-3.7-1.5c-1.1-0.4-2.2-0.7-3.4-0.9c-2.3-0.4-4.6-0.6-7-0.5c-1.2,0.1-2.4,0.1-3.6,0.4
			C316.1,288.1,316,288.1,315.9,288z"/>
		<path class="st8" d="M396.3,287.8c0.1-0.4,0.2-0.9,0.3-1.3c0.3-1.1,0.5-2.1,0.7-3.2c0-0.2,0-0.3,0.1-0.5c0-0.2,0.1-0.3,0.4-0.3
			c1.2,0,2.4,0,3.6,0.1c1.2,0.1,2.3,0.2,3.5,0.4c1.2,0.2,2.4,0.5,3.5,0.8c1.3,0.3,2.5,0.8,3.8,1.2c1.1,0.4,2.1,1,3.2,1.5
			c1.1,0.6,2.2,1.2,3.3,1.9c1.3,0.9,2.6,1.8,3.8,2.9c1.1,1,2.2,2,3.2,3.1c0.8,0.9,1.6,1.8,2.3,2.8c0.5,0.8,1.1,1.6,1.7,2.4
			c0.6,1,1.1,2,1.7,3.1c0.3,0.5,0.5,1,0.8,1.6c0,0.1,0.1,0.2,0.1,0.3c0.1,0.3,0,0.3-0.2,0.3c-0.6-0.1-1.2-0.3-1.7-0.4
			c-1.7-0.6-3.4-1.2-5-2c-0.2-0.1-0.3-0.2-0.4-0.3c-0.6-0.8-1.1-1.6-1.7-2.3c-0.6-0.8-1.3-1.6-2-2.3c-1-1.1-2.1-2-3.3-2.9
			c-1.1-0.9-2.3-1.7-3.6-2.4c-1.7-1-3.5-1.8-5.3-2.4c-1.4-0.5-2.9-0.9-4.3-1.2c-0.8-0.2-1.7-0.3-2.6-0.3c-0.6,0-1.2-0.1-1.8-0.1
			c-0.9,0-1.8-0.1-2.6,0C397.2,287.8,396.8,287.8,396.3,287.8z"/>
		<path class="st9" d="M362.5,307.4c-0.2,0.8-0.4,1.7-0.6,2.5c-0.2,0.8-0.4,1.6-0.5,2.5c0,0.3,0,0.3-0.4,0.4c-0.8,0-1.5,0-2.3,0
			c-0.7-0.1-1.5,0-2.2-0.1c-1.3-0.1-2.5-0.3-3.8-0.5c-2.5-0.5-4.9-1.2-7.2-2.3c-1.7-0.8-3.3-1.6-4.8-2.6c-0.8-0.5-1.5-1.1-2.3-1.6
			c-0.8-0.6-1.6-1.3-2.4-1.9c-0.4-0.4-0.8-0.8-1.2-1.2c-1.3-1.2-2.5-2.6-3.6-4c-1.5-2-2.8-4.1-3.8-6.4c-0.2-0.5-0.5-0.9-0.7-1.4
			c0,0,0-0.1,0-0.1c0.3-0.1,0.5,0.1,0.7,0.1c2.2,0.6,4.3,1.3,6.3,2.4c0.2,0.1,0.3,0.2,0.4,0.4c0.9,1.3,1.8,2.6,2.9,3.8
			c1,1.1,2.1,2.2,3.3,3.1c1.5,1.2,3,2.3,4.7,3.3c1.3,0.7,2.6,1.3,3.9,1.8c0.8,0.3,1.6,0.6,2.4,0.8c1.4,0.4,2.8,0.7,4.2,0.9
			c1.2,0.2,2.5,0.2,3.7,0.3C360.3,307.5,361.4,307.3,362.5,307.4z"/>
	</g>
	<g>
		<rect x="6" y="234" class="st3" width="228" height="36"/>
		<path class="st4" d="M13.5,237.7c2.1,0,3.7,0.6,4.7,1.9c1,1.3,1.5,3,1.5,5.1v2.5h-2.9v-2.7c0-1.3-0.3-2.3-0.8-3
			c-0.5-0.7-1.3-1.1-2.5-1.1c-1.1,0-1.9,0.4-2.4,1.1c-0.5,0.7-0.8,1.7-0.8,3v14.8c0,1.3,0.3,2.3,0.8,3c0.5,0.7,1.3,1.1,2.4,1.1
			c1.1,0,1.9-0.4,2.5-1.1c0.5-0.7,0.8-1.7,0.8-3v-3.6h2.9v3.5c0,2.1-0.5,3.8-1.5,5.1c-1,1.3-2.6,1.9-4.7,1.9c-2.1,0-3.6-0.6-4.6-1.9
			c-1-1.3-1.5-3-1.5-5.1v-14.5c0-1.1,0.1-2,0.4-2.9c0.2-0.9,0.6-1.6,1.1-2.2c0.5-0.6,1.1-1.1,1.9-1.4
			C11.5,237.9,12.4,237.7,13.5,237.7z"/>
		<path class="st4" d="M22.2,244.8c0-2.2,0.5-3.9,1.5-5.1s2.6-1.9,4.7-1.9c2.1,0,3.7,0.6,4.7,1.9s1.6,3,1.6,5.1v14.5
			c0,2.1-0.5,3.8-1.6,5.1c-1,1.3-2.6,1.9-4.7,1.9c-2.1,0-3.7-0.6-4.7-1.9c-1-1.3-1.5-3-1.5-5.1V244.8z M25.2,259.4
			c0,1.3,0.3,2.3,0.8,3c0.5,0.7,1.4,1.1,2.4,1.1c1.1,0,1.9-0.4,2.5-1.1c0.5-0.7,0.8-1.7,0.8-3v-14.8c0-1.3-0.3-2.3-0.8-3
			c-0.5-0.7-1.3-1.1-2.5-1.1c-1.1,0-1.9,0.4-2.4,1.1c-0.5,0.7-0.8,1.7-0.8,3V259.4z"/>
		<path class="st4" d="M43.7,238c2.2,0,3.7,0.6,4.7,1.8c1,1.2,1.5,2.9,1.5,5v3.4c0,2.2-0.5,3.9-1.5,5.1c-1,1.1-2.6,1.7-4.8,1.7h-2.7
			v11h-3.1v-28H43.7z M43.5,252.2c1.2,0,2-0.3,2.5-0.9c0.5-0.6,0.8-1.5,0.8-2.9v-3.7c0-1.3-0.2-2.2-0.7-2.9c-0.5-0.6-1.3-1-2.4-1
			h-2.9v11.3H43.5z"/>
		<path class="st4" d="M62,250.4v2.8h-6.7v10h8.2v2.8H52.3v-28h11.3v2.8h-8.2v9.6H62z"/>
		<path class="st4" d="M72.5,238c2.1,0,3.7,0.5,4.6,1.5c0.9,1,1.4,2.6,1.4,4.7v1.3c0,1.5-0.2,2.7-0.7,3.6c-0.5,0.9-1.3,1.6-2.5,1.9
			c1.3,0.4,2.3,1.1,2.8,2.1c0.6,1,0.8,2.3,0.8,3.9v2.4c0,2.1-0.5,3.7-1.5,4.9c-1,1.1-2.6,1.7-4.7,1.7h-6.3v-28H72.5z M71.8,249.9
			c1.2,0,2.1-0.3,2.8-0.8c0.6-0.5,0.9-1.5,0.9-3v-1.6c0-1.3-0.2-2.2-0.7-2.8c-0.5-0.6-1.2-0.9-2.3-0.9h-3v9H71.8z M72.7,263.2
			c2.2,0,3.3-1.3,3.3-3.8v-2.5c0-1.6-0.3-2.7-0.9-3.3c-0.6-0.6-1.6-0.9-2.9-0.9h-2.7v10.4H72.7z"/>
		<path class="st4" d="M84.8,253.4V266h-3.1v-28h3.1v12.6h6.7V238h3.1v28h-3.1v-12.6H84.8z"/>
		<path class="st4" d="M97.5,244.8c0-2.2,0.5-3.9,1.5-5.1s2.6-1.9,4.7-1.9c2.1,0,3.7,0.6,4.7,1.9s1.6,3,1.6,5.1v14.5
			c0,2.1-0.5,3.8-1.6,5.1c-1,1.3-2.6,1.9-4.7,1.9c-2.1,0-3.7-0.6-4.7-1.9c-1-1.3-1.5-3-1.5-5.1V244.8z M100.5,259.4
			c0,1.3,0.3,2.3,0.8,3c0.5,0.7,1.4,1.1,2.4,1.1c1.1,0,1.9-0.4,2.5-1.1c0.5-0.7,0.8-1.7,0.8-3v-14.8c0-1.3-0.3-2.3-0.8-3
			c-0.5-0.7-1.3-1.1-2.5-1.1c-1.1,0-1.9,0.4-2.4,1.1c-0.5,0.7-0.8,1.7-0.8,3V259.4z"/>
		<path class="st4" d="M119.1,238c2.1,0,3.7,0.5,4.6,1.5c0.9,1,1.4,2.6,1.4,4.7v1.3c0,1.5-0.2,2.7-0.7,3.6c-0.5,0.9-1.3,1.6-2.5,1.9
			c1.3,0.4,2.3,1.1,2.8,2.1c0.6,1,0.8,2.3,0.8,3.9v2.4c0,2.1-0.5,3.7-1.5,4.9c-1,1.1-2.6,1.7-4.7,1.7H113v-28H119.1z M118.4,249.9
			c1.2,0,2.1-0.3,2.8-0.8c0.6-0.5,0.9-1.5,0.9-3v-1.6c0-1.3-0.2-2.2-0.7-2.8c-0.5-0.6-1.2-0.9-2.3-0.9h-3v9H118.4z M119.3,263.2
			c2.2,0,3.3-1.3,3.3-3.8v-2.5c0-1.6-0.3-2.7-0.9-3.3c-0.6-0.6-1.6-0.9-2.9-0.9H116v10.4H119.3z"/>
		<path class="st4" d="M131.4,260.4l-1.1,5.6h-2.8l5.3-28h4.4l5.3,28h-3.1l-1.1-5.6H131.4z M131.8,257.7h6.1l-3.1-16.2L131.8,257.7z
			"/>
		<path class="st4" d="M147.9,253.4V266h-3.1v-28h3.1v12.6h6.7V238h3.1v28h-3.1v-12.6H147.9z"/>
		<path class="st4" d="M168.1,253.1l-4,12.9h-3.2v-28h2.7v20.9l2.4-7.7l4.4-13.2h3.4v28h-2.7v-22.3L168.1,253.1z"/>
		<path class="st4" d="M184,254c-1.3,0-2.3,0.3-3,0.9c-0.7,0.6-1,1.7-1,3.3v4.4c0,0.9,0,1.6-0.1,2.1c-0.1,0.5-0.2,0.9-0.4,1.3h-3.1
			c0.2-0.5,0.4-1,0.5-1.6c0.1-0.6,0.1-1.2,0.1-1.8v-4.4c0-1.5,0.3-2.8,0.8-3.8c0.5-1,1.4-1.7,2.6-2.1c-2.2-0.7-3.4-2.7-3.4-5.8v-2.3
			c0-2.1,0.5-3.7,1.4-4.8c1-1.1,2.5-1.6,4.7-1.6h6.1v28h-3.1v-12H184z M183.2,240.8c-1.2,0-2,0.3-2.5,1s-0.7,1.6-0.7,2.9v2.7
			c0,1.5,0.3,2.5,1,3.1s1.6,0.8,2.8,0.8h2.3v-10.4H183.2z"/>
		<path class="st4" d="M201.5,240.8V266h-3.1v-28h12.9v28h-3.1v-25.2H201.5z"/>
		<path class="st4" d="M214.2,244.8c0-2.2,0.5-3.9,1.5-5.1s2.6-1.9,4.7-1.9c2.1,0,3.7,0.6,4.7,1.9s1.6,3,1.6,5.1v14.5
			c0,2.1-0.5,3.8-1.6,5.1c-1,1.3-2.6,1.9-4.7,1.9c-2.1,0-3.7-0.6-4.7-1.9c-1-1.3-1.5-3-1.5-5.1V244.8z M217.2,259.4
			c0,1.3,0.3,2.3,0.8,3c0.5,0.7,1.4,1.1,2.4,1.1c1.1,0,1.9-0.4,2.5-1.1c0.5-0.7,0.8-1.7,0.8-3v-14.8c0-1.3-0.3-2.3-0.8-3
			c-0.5-0.7-1.3-1.1-2.5-1.1c-1.1,0-1.9,0.4-2.4,1.1c-0.5,0.7-0.8,1.7-0.8,3V259.4z"/>
	</g>
	<g>
		<rect x="6" y="276" class="st3" width="234" height="36"/>
		<path class="st4" d="M10.7,308v-25.2H6.6V280h10.8v2.8h-4.1V308H10.7z"/>
		<path class="st4" d="M24.8,295.9L21,308h-2.4l4.5-14.4L18.9,280h2.6l3.5,11.2l3.5-11.2h2.3l-4.2,13.6l4.5,14.4h-2.6L24.8,295.9z"
			/>
		<path class="st4" d="M37.8,279.7c0.9,0,1.6,0.2,2.2,0.5c0.6,0.3,1.2,0.8,1.6,1.4s0.7,1.4,0.9,2.2c0.2,0.9,0.3,1.8,0.3,2.9v14.5
			c0,2.1-0.4,3.8-1.2,5.1c-0.8,1.3-2.1,1.9-3.8,1.9s-3-0.6-3.8-1.9c-0.8-1.3-1.2-3-1.2-5.1v-3h2.3v3.2c0,1.3,0.2,2.3,0.6,3
			c0.4,0.7,1.1,1.1,2,1.1c0.9,0,1.6-0.4,2-1.1c0.4-0.7,0.6-1.7,0.6-3v-6.5h-3.9v-2.8h3.9v-5.5c0-1.3-0.2-2.3-0.6-3s-1.1-1.1-2-1.1
			c-0.9,0-1.6,0.4-2,1.1s-0.6,1.7-0.6,3v2.2h-2.3v-2.1c0-1.1,0.1-2,0.3-2.9c0.2-0.9,0.5-1.6,0.9-2.2c0.4-0.6,0.9-1.1,1.6-1.4
			C36.2,279.9,37,279.7,37.8,279.7z"/>
		<path class="st4" d="M49.1,295.8l-1.3,2.8v9.4h-2.5v-28h2.5v13.5l6-13.5h2.5l-5.7,12.8l5.9,15.2h-2.6L49.1,295.8z"/>
		<path class="st4" d="M63.4,280c1.7,0,3,0.5,3.7,1.5s1.1,2.6,1.1,4.7v1.3c0,1.5-0.2,2.7-0.6,3.6s-1.1,1.6-2,1.9
			c1.1,0.4,1.9,1.1,2.3,2.1c0.5,1,0.7,2.3,0.7,3.9v2.4c0,2.1-0.4,3.7-1.2,4.9c-0.8,1.1-2.1,1.7-3.9,1.7h-5.2v-28H63.4z M62.8,291.9
			c1,0,1.8-0.3,2.3-0.8c0.5-0.5,0.8-1.5,0.8-3v-1.6c0-1.3-0.2-2.2-0.6-2.8s-1-0.9-1.9-0.9h-2.5v9H62.8z M63.5,305.2
			c1.8,0,2.7-1.3,2.7-3.8v-2.5c0-1.6-0.3-2.7-0.8-3.3s-1.3-0.9-2.4-0.9h-2.2v10.4H63.5z"/>
		<path class="st4" d="M70.7,286.8c0-2.2,0.4-3.9,1.3-5.1s2.1-1.9,3.9-1.9s3,0.6,3.9,1.9c0.9,1.3,1.3,3,1.3,5.1v14.5
			c0,2.1-0.4,3.8-1.3,5.1c-0.9,1.3-2.1,1.9-3.9,1.9s-3-0.6-3.9-1.9c-0.8-1.3-1.3-3-1.3-5.1V286.8z M73.2,301.4c0,1.3,0.2,2.3,0.7,3
			c0.4,0.7,1.1,1.1,2,1.1c0.9,0,1.6-0.4,2-1.1c0.4-0.7,0.6-1.7,0.6-3v-14.8c0-1.3-0.2-2.3-0.6-3s-1.1-1.1-2-1.1
			c-0.9,0-1.6,0.4-2,1.1c-0.4,0.7-0.7,1.7-0.7,3V301.4z"/>
		<path class="st4" d="M85.8,295.4V308h-2.5v-28h2.5v12.6h5.5V280h2.5v28h-2.5v-12.6H85.8z"/>
		<path class="st4" d="M107.4,311.8V308h-9.2v3.8h-2.4v-6.6h1.4c0.4-0.5,0.6-1.1,0.8-1.8c0.1-0.7,0.2-1.4,0.2-2.3l0.9-21.2h9v25.2
			h1.7v6.6H107.4z M100.8,301.1c0,1-0.1,1.8-0.3,2.5c-0.1,0.6-0.4,1.2-0.8,1.6h5.9v-22.4h-4.2L100.8,301.1z"/>
		<path class="st4" d="M111.9,286.8c0-2.2,0.4-3.9,1.3-5.1s2.1-1.9,3.9-1.9s3,0.6,3.9,1.9c0.9,1.3,1.3,3,1.3,5.1v14.5
			c0,2.1-0.4,3.8-1.3,5.1c-0.9,1.3-2.1,1.9-3.9,1.9s-3-0.6-3.9-1.9c-0.8-1.3-1.3-3-1.3-5.1V286.8z M114.3,301.4c0,1.3,0.2,2.3,0.7,3
			c0.4,0.7,1.1,1.1,2,1.1c0.9,0,1.6-0.4,2-1.1c0.4-0.7,0.6-1.7,0.6-3v-14.8c0-1.3-0.2-2.3-0.6-3s-1.1-1.1-2-1.1
			c-0.9,0-1.6,0.4-2,1.1c-0.4,0.7-0.7,1.7-0.7,3V301.4z"/>
		<path class="st4" d="M132,295.4V308h-2.5v-28h2.5v12.6h5.5V280h2.5v28h-2.5v-12.6H132z"/>
		<path class="st4" d="M145,302.4l-0.9,5.6h-2.3l4.3-28h3.6l4.3,28h-2.5l-0.9-5.6H145z M145.4,299.7h5l-2.5-16.2L145.4,299.7z"/>
		<path class="st4" d="M165.7,282.8l-0.5,18.2c0,1.1-0.1,2.1-0.3,3s-0.4,1.6-0.7,2.2s-0.8,1.1-1.4,1.4c-0.6,0.3-1.3,0.5-2.1,0.5
			h-0.4v-2.8c0.5,0,0.9-0.1,1.2-0.2c0.3-0.2,0.6-0.4,0.8-0.7c0.2-0.3,0.3-0.8,0.4-1.3c0.1-0.5,0.1-1.1,0.1-1.8l0.6-21.2h9.1v28H170
			v-25.2H165.7z"/>
		<path class="st4" d="M183.2,292.4v2.8h-5.5v10h6.7v2.8h-9.2v-28h9.2v2.8h-6.7v9.6H183.2z"/>
		<path class="st4" d="M190.1,308v-25.2H186V280h10.8v2.8h-4.1V308H190.1z"/>
		<path class="st4" d="M201.1,295.4V308h-2.5v-28h2.5v12.6h5.5V280h2.5v28h-2.5v-12.6H201.1z"/>
		<path class="st4" d="M217.5,295.1l-3.3,12.9h-2.6v-28h2.2v20.9l2-7.7l3.6-13.2h2.8v28H220v-22.3L217.5,295.1z"/>
		<path class="st4" d="M230.3,295.9l-3.7,12.1h-2.4l4.5-14.4l-4.2-13.6h2.6l3.5,11.2L234,280h2.3l-4.2,13.6l4.5,14.4H234
			L230.3,295.9z"/>
	</g>
	<g>
		<rect x="6" y="318" class="st3" width="270" height="36"/>
		<path class="st4" d="M7.3,328.8c0-2.2,0.5-3.9,1.5-5.1s2.6-1.9,4.7-1.9c2.1,0,3.7,0.6,4.7,1.9s1.6,3,1.6,5.1v14.5
			c0,2.1-0.5,3.8-1.6,5.1c-1,1.3-2.6,1.9-4.7,1.9c-2.1,0-3.7-0.6-4.7-1.9c-1-1.3-1.5-3-1.5-5.1V328.8z M10.4,343.4
			c0,1.3,0.3,2.3,0.8,3c0.5,0.7,1.4,1.1,2.4,1.1c1.1,0,1.9-0.4,2.5-1.1c0.5-0.7,0.8-1.7,0.8-3v-14.8c0-1.3-0.3-2.3-0.8-3
			s-1.3-1.1-2.5-1.1c-1.1,0-1.9,0.4-2.4,1.1c-0.5,0.7-0.8,1.7-0.8,3V343.4z"/>
		<path class="st4" d="M28.7,324.8L28,343c-0.1,1.1-0.2,2.1-0.4,3s-0.5,1.6-0.9,2.2c-0.4,0.6-1,1.1-1.7,1.4
			c-0.7,0.3-1.6,0.5-2.6,0.5H22v-2.8c0.6,0,1.1-0.1,1.5-0.2c0.4-0.2,0.7-0.4,0.9-0.7c0.2-0.3,0.4-0.8,0.5-1.3s0.1-1.1,0.2-1.8
			l0.7-21.2H37v28h-3.1v-25.2H28.7z"/>
		<path class="st4" d="M47.4,337.1l-4,12.9h-3.2v-28h2.7v20.9l2.4-7.7l4.4-13.2h3.4v28h-2.7v-22.3L47.4,337.1z"/>
		<path class="st4" d="M66.4,350h-2.9l-4.5-22.3V350h-2.7v-28h4.3l4.5,22.4l4.4-22.4h4.3v28h-2.9v-22.5L66.4,350z"/>
		<path class="st4" d="M79.8,324.8V350h-3.1v-28h12.9v28h-3.1v-25.2H79.8z"/>
		<path class="st4" d="M100,337.1l-4,12.9h-3.2v-28h2.7v20.9l2.4-7.7l4.4-13.2h3.4v28h-2.7v-22.3L100,337.1z"/>
		<path class="st4" d="M116.2,336.5L112,350h-3.2v-28h2.7v20.9l2.5-8.1l4.3-12.8h3.4v28H119v-22.3L116.2,336.5z M119.6,316.3
			c0,1.2-0.4,2.2-1.1,2.9c-0.7,0.7-1.8,1-3.1,1c-1.3,0-2.4-0.3-3.1-1s-1.1-1.7-1.2-2.9h1.9c0.1,0.8,0.3,1.3,0.7,1.6
			c0.4,0.3,1,0.4,1.6,0.4s1.2-0.1,1.6-0.4c0.4-0.3,0.7-0.8,0.7-1.6H119.6z"/>
		<path class="st4" d="M130.8,321.7c2.1,0,3.7,0.6,4.7,1.9c1,1.3,1.5,3,1.5,5.1v2.5h-2.9v-2.7c0-1.3-0.3-2.3-0.8-3s-1.3-1.1-2.5-1.1
			c-1.1,0-1.9,0.4-2.4,1.1s-0.8,1.7-0.8,3v14.8c0,1.3,0.3,2.3,0.8,3c0.5,0.7,1.3,1.1,2.4,1.1c1.1,0,1.9-0.4,2.5-1.1
			c0.5-0.7,0.8-1.7,0.8-3v-3.6h2.9v3.5c0,2.1-0.5,3.8-1.5,5.1c-1,1.3-2.6,1.9-4.7,1.9c-2.1,0-3.6-0.6-4.6-1.9c-1-1.3-1.5-3-1.5-5.1
			v-14.5c0-1.1,0.1-2,0.4-2.9c0.2-0.9,0.6-1.6,1.1-2.2s1.1-1.1,1.9-1.4C128.8,321.9,129.7,321.7,130.8,321.7z"/>
		<path class="st4" d="M144.4,337.8l-1.6,2.8v9.4h-3.1v-28h3.1v13.5l7.3-13.5h3.1l-6.9,12.8l7.2,15.2h-3.1L144.4,337.8z"/>
		<path class="st4" d="M163,337.1l-4,12.9h-3.2v-28h2.7v20.9l2.4-7.7l4.4-13.2h3.4v28H166v-22.3L163,337.1z"/>
		<path class="st4" d="M178.6,337.9L174,350h-2.9l5.5-14.4l-5.2-13.6h3.2l4.2,11.2l4.3-11.2h2.9l-5.1,13.6l5.5,14.4h-3.2
			L178.6,337.9z"/>
		<path class="st4" d="M202.2,337.1l-4,12.9h-3.2v-28h2.7v20.9l2.4-7.7l4.4-13.2h3.4v28h-2.7v-22.3L202.2,337.1z"/>
		<path class="st4" d="M214,324.8V350h-3v-28h10.9v2.8H214z"/>
		<path class="st4" d="M230.9,322c2.2,0,3.7,0.6,4.7,1.8s1.5,2.9,1.5,5v3.4c0,2.2-0.5,3.9-1.5,5.1c-1,1.1-2.6,1.7-4.8,1.7H228v11
			h-3.1v-28H230.9z M230.7,336.2c1.2,0,2-0.3,2.5-0.9c0.5-0.6,0.8-1.5,0.8-2.9v-3.7c0-1.3-0.2-2.2-0.7-2.9c-0.5-0.6-1.3-1-2.4-1H228
			v11.3H230.7z"/>
		<path class="st4" d="M242.6,344.4l-1.1,5.6h-2.8l5.3-28h4.4l5.3,28h-3.1l-1.1-5.6H242.6z M243,341.7h6.1l-3.1-16.2L243,341.7z"/>
		<path class="st4" d="M262.8,337.9l-4.6,12.1h-2.9l5.5-14.4l-5.2-13.6h3.2l4.2,11.2l4.3-11.2h2.9l-5.1,13.6l5.5,14.4h-3.2
			L262.8,337.9z"/>
	</g>
	<g>
		<rect x="6" y="360" class="st3" width="468" height="36"/>
		<path class="st4" d="M12.5,364c1.8,0,3.1,0.5,3.9,1.5c0.8,1,1.2,2.6,1.2,4.7v1.3c0,1.5-0.2,2.7-0.6,3.6s-1.1,1.6-2.1,1.9
			c1.1,0.4,1.9,1.1,2.4,2.1c0.5,1,0.7,2.3,0.7,3.9v2.4c0,2.1-0.4,3.7-1.3,4.9c-0.9,1.1-2.2,1.7-4,1.7H7.3v-28H12.5z M11.9,375.9
			c1,0,1.8-0.3,2.3-0.8c0.5-0.5,0.8-1.5,0.8-3v-1.6c0-1.3-0.2-2.2-0.6-2.8c-0.4-0.6-1-0.9-2-0.9H9.9v9H11.9z M12.7,389.2
			c1.8,0,2.8-1.3,2.8-3.8v-2.5c0-1.6-0.3-2.7-0.8-3.3c-0.5-0.6-1.3-0.9-2.5-0.9H9.9v10.4H12.7z"/>
		<path class="st4" d="M22.9,366.8V392h-2.6v-28h10.9v28h-2.6v-25.2H22.9z"/>
		<path class="st4" d="M42.2,376.4v2.8h-5.7v10h7v2.8h-9.6v-28h9.6v2.8h-7v9.6H42.2z"/>
		<path class="st4" d="M50.9,364c1.8,0,3.2,0.6,4,1.8c0.8,1.2,1.2,2.9,1.2,5v3.4c0,2.2-0.4,3.9-1.3,5.1c-0.9,1.1-2.2,1.7-4.1,1.7
			h-2.3v11h-2.6v-28H50.9z M50.7,378.2c1,0,1.7-0.3,2.2-0.9s0.7-1.5,0.7-2.9v-3.7c0-1.3-0.2-2.2-0.6-2.9s-1.1-1-2-1h-2.5v11.3H50.7z
			"/>
		<path class="st4" d="M63.4,364c1.8,0,3.1,0.5,3.9,1.5c0.8,1,1.2,2.6,1.2,4.7v1.3c0,1.5-0.2,2.7-0.6,3.6s-1.1,1.6-2.1,1.9
			c1.1,0.4,1.9,1.1,2.4,2.1c0.5,1,0.7,2.3,0.7,3.9v2.4c0,2.1-0.4,3.7-1.3,4.9c-0.9,1.1-2.2,1.7-4,1.7h-5.3v-28H63.4z M62.7,375.9
			c1,0,1.8-0.3,2.3-0.8c0.5-0.5,0.8-1.5,0.8-3v-1.6c0-1.3-0.2-2.2-0.6-2.8c-0.4-0.6-1-0.9-2-0.9h-2.6v9H62.7z M63.5,389.2
			c1.8,0,2.8-1.3,2.8-3.8v-2.5c0-1.6-0.3-2.7-0.8-3.3c-0.5-0.6-1.3-0.9-2.5-0.9h-2.3v10.4H63.5z"/>
		<path class="st4" d="M76,375c1.9,0,3.2,0.6,4.1,1.7c0.9,1.1,1.3,2.8,1.3,5.1v3.4c0,2.1-0.4,3.8-1.2,5c-0.8,1.2-2.2,1.8-4,1.8h-5.1
			v-28h2.6v11H76z M76.2,389.2c1,0,1.6-0.3,2-1s0.6-1.6,0.6-2.9v-3.7c0-1.4-0.2-2.3-0.7-2.9s-1.2-0.9-2.2-0.9h-2.3v11.3H76.2z
			 M86.2,364v28h-2.6v-28H86.2z"/>
		<path class="st4" d="M97.1,376.4v2.8h-5.7v10h7v2.8h-9.6v-28h9.6v2.8h-7v9.6H97.1z"/>
		<path class="st4" d="M108.5,366.8V392h-2.6v-28h10.9v28h-2.6v-25.2H108.5z"/>
		<path class="st4" d="M119.3,370.8c0-2.2,0.4-3.9,1.3-5.1c0.9-1.3,2.2-1.9,4-1.9c1.8,0,3.1,0.6,4,1.9c0.9,1.3,1.3,3,1.3,5.1v14.5
			c0,2.1-0.4,3.8-1.3,5.1c-0.9,1.3-2.2,1.9-4,1.9c-1.8,0-3.1-0.6-4-1.9c-0.9-1.3-1.3-3-1.3-5.1V370.8z M121.8,385.4
			c0,1.3,0.2,2.3,0.7,3c0.5,0.7,1.1,1.1,2.1,1.1c1,0,1.6-0.4,2.1-1.1c0.4-0.7,0.7-1.7,0.7-3v-14.8c0-1.3-0.2-2.3-0.7-3
			s-1.1-1.1-2.1-1.1c-0.9,0-1.6,0.4-2.1,1.1c-0.5,0.7-0.7,1.7-0.7,3V385.4z"/>
		<path class="st4" d="M138.4,380c-1.1,0-1.9,0.3-2.5,0.9c-0.6,0.6-0.9,1.7-0.9,3.3v4.4c0,0.9,0,1.6-0.1,2.1
			c-0.1,0.5-0.2,0.9-0.3,1.3H132c0.2-0.5,0.3-1,0.4-1.6c0.1-0.6,0.1-1.2,0.1-1.8v-4.4c0-1.5,0.2-2.8,0.6-3.8s1.2-1.7,2.2-2.1
			c-1.9-0.7-2.9-2.7-2.9-5.8v-2.3c0-2.1,0.4-3.7,1.2-4.8c0.8-1.1,2.1-1.6,4-1.6h5.2v28h-2.6v-12H138.4z M137.7,366.8
			c-1,0-1.7,0.3-2.1,1c-0.4,0.6-0.6,1.6-0.6,2.9v2.7c0,1.5,0.3,2.5,0.9,3.1c0.6,0.5,1.4,0.8,2.4,0.8h2v-10.4H137.7z"/>
		<path class="st4" d="M150.7,364c1.8,0,3.1,0.5,3.9,1.5c0.8,1,1.2,2.6,1.2,4.7v1.3c0,1.5-0.2,2.7-0.6,3.6s-1.1,1.6-2.1,1.9
			c1.1,0.4,1.9,1.1,2.4,2.1c0.5,1,0.7,2.3,0.7,3.9v2.4c0,2.1-0.4,3.7-1.3,4.9c-0.9,1.1-2.2,1.7-4,1.7h-5.3v-28H150.7z M150,375.9
			c1,0,1.8-0.3,2.3-0.8c0.5-0.5,0.8-1.5,0.8-3v-1.6c0-1.3-0.2-2.2-0.6-2.8c-0.4-0.6-1-0.9-2-0.9h-2.6v9H150z M150.8,389.2
			c1.8,0,2.8-1.3,2.8-3.8v-2.5c0-1.6-0.3-2.7-0.8-3.3c-0.5-0.6-1.3-0.9-2.5-0.9h-2.3v10.4H150.8z"/>
		<path class="st4" d="M164.6,379.1l-3.4,12.9h-2.7v-28h2.3v20.9l2.1-7.7l3.7-13.2h2.9v28h-2.3v-22.3L164.6,379.1z"/>
		<path class="st4" d="M177,366.8l-0.5,18.2c0,1.1-0.1,2.1-0.3,3c-0.2,0.9-0.4,1.6-0.8,2.2c-0.4,0.6-0.8,1.1-1.4,1.4
			c-0.6,0.3-1.3,0.5-2.2,0.5h-0.4v-2.8c0.5,0,1-0.1,1.3-0.2s0.6-0.4,0.8-0.7c0.2-0.3,0.3-0.8,0.4-1.3s0.1-1.1,0.1-1.8l0.6-21.2h9.5
			v28h-2.6v-25.2H177z"/>
		<path class="st4" d="M192.9,379.1l-3.4,12.9h-2.7v-28h2.3v20.9l2.1-7.7l3.7-13.2h2.9v28h-2.3v-22.3L192.9,379.1z"/>
		<path class="st4" d="M205.4,363.7c1.8,0,3.1,0.6,4,1.9c0.9,1.3,1.3,3,1.3,5.1v2.5h-2.5v-2.7c0-1.3-0.2-2.3-0.6-3s-1.1-1.1-2.1-1.1
			c-0.9,0-1.6,0.4-2.1,1.1c-0.4,0.7-0.7,1.7-0.7,3v14.8c0,1.3,0.2,2.3,0.7,3c0.4,0.7,1.1,1.1,2.1,1.1c1,0,1.6-0.4,2.1-1.1
			c0.4-0.7,0.6-1.7,0.6-3v-3.6h2.5v3.5c0,2.1-0.4,3.8-1.3,5.1c-0.9,1.3-2.2,1.9-4,1.9c-1.8,0-3.1-0.6-3.9-1.9
			c-0.9-1.3-1.3-3-1.3-5.1v-14.5c0-1.1,0.1-2,0.3-2.9c0.2-0.9,0.5-1.6,1-2.2s1-1.1,1.6-1.4C203.7,363.9,204.5,363.7,205.4,363.7z"/>
		<path class="st4" d="M217.9,375c1.9,0,3.2,0.6,4.1,1.7c0.9,1.1,1.3,2.8,1.3,5.1v3.4c0,2.1-0.4,3.8-1.2,5c-0.8,1.2-2.2,1.8-4,1.8
			H213v-28h2.6v11H217.9z M218.1,389.2c1,0,1.6-0.3,2-1s0.6-1.6,0.6-2.9v-3.7c0-1.4-0.2-2.3-0.7-2.9s-1.2-0.9-2.2-0.9h-2.3v11.3
			H218.1z"/>
		<path class="st4" d="M233.4,379.4V392h-2.6v-28h2.6v12.6h5.7V364h2.6v28h-2.6v-12.6H233.4z"/>
		<path class="st4" d="M247,386.4l-0.9,5.6h-2.4l4.4-28h3.8l4.4,28h-2.6l-0.9-5.6H247z M247.3,383.7h5.2l-2.6-16.2L247.3,383.7z"/>
		<path class="st4" d="M268.4,366.8l-0.5,18.2c0,1.1-0.1,2.1-0.3,3c-0.2,0.9-0.4,1.6-0.8,2.2c-0.4,0.6-0.8,1.1-1.4,1.4
			c-0.6,0.3-1.3,0.5-2.2,0.5h-0.4v-2.8c0.5,0,1-0.1,1.3-0.2s0.6-0.4,0.8-0.7c0.2-0.3,0.3-0.8,0.4-1.3s0.1-1.1,0.1-1.8L266,364h9.5
			v28h-2.6v-25.2H268.4z"/>
		<path class="st4" d="M286.5,376.4v2.8h-5.7v10h7v2.8h-9.6v-28h9.6v2.8h-7v9.6H286.5z"/>
		<path class="st4" d="M293.7,392v-25.2h-4.3V364h11.2v2.8h-4.3V392H293.7z"/>
		<path class="st4" d="M305.1,379.4V392h-2.6v-28h2.6v12.6h5.7V364h2.6v28h-2.6v-12.6H305.1z"/>
		<path class="st4" d="M324.3,376.4v2.8h-5.7v10h7v2.8h-9.6v-28h9.6v2.8h-7v9.6H324.3z"/>
		<path class="st4" d="M334.3,378.5l-3.6,13.5H328v-28h2.3v20.9l2.2-8.1l3.6-12.8h2.9v28h-2.3v-22.3L334.3,378.5z M337.2,358.3
			c0,1.2-0.3,2.2-0.9,2.9s-1.5,1-2.6,1s-2-0.3-2.6-1c-0.6-0.7-0.9-1.7-1-2.9h1.6c0,0.8,0.2,1.3,0.6,1.6c0.4,0.3,0.8,0.4,1.4,0.4
			c0.6,0,1-0.1,1.4-0.4c0.4-0.3,0.6-0.8,0.6-1.6H337.2z"/>
		<path class="st4" d="M346.6,370.8c0-2.2,0.4-3.9,1.3-5.1c0.9-1.3,2.2-1.9,4-1.9c1.8,0,3.1,0.6,4,1.9c0.9,1.3,1.3,3,1.3,5.1v14.5
			c0,2.1-0.4,3.8-1.3,5.1c-0.9,1.3-2.2,1.9-4,1.9c-1.8,0-3.1-0.6-4-1.9c-0.9-1.3-1.3-3-1.3-5.1V370.8z M349.1,385.4
			c0,1.3,0.2,2.3,0.7,3c0.5,0.7,1.1,1.1,2.1,1.1c1,0,1.6-0.4,2.1-1.1c0.4-0.7,0.7-1.7,0.7-3v-14.8c0-1.3-0.2-2.3-0.7-3
			s-1.1-1.1-2.1-1.1c-0.9,0-1.6,0.4-2.1,1.1c-0.5,0.7-0.7,1.7-0.7,3V385.4z"/>
		<path class="st4" d="M364.6,366.8l-0.5,18.2c0,1.1-0.1,2.1-0.3,3c-0.2,0.9-0.4,1.6-0.8,2.2c-0.4,0.6-0.8,1.1-1.4,1.4
			c-0.6,0.3-1.3,0.5-2.2,0.5H359v-2.8c0.5,0,1-0.1,1.3-0.2s0.6-0.4,0.8-0.7c0.2-0.3,0.3-0.8,0.4-1.3s0.1-1.1,0.1-1.8l0.6-21.2h9.5
			v28h-2.6v-25.2H364.6z"/>
		<path class="st4" d="M380.6,379.1l-3.4,12.9h-2.7v-28h2.3v20.9l2.1-7.7l3.7-13.2h2.9v28h-2.3v-22.3L380.6,379.1z"/>
		<path class="st4" d="M396.6,392h-2.5l-3.9-22.3V392H388v-28h3.6l3.8,22.4l3.7-22.4h3.6v28h-2.5v-22.5L396.6,392z"/>
		<path class="st4" d="M408,366.8V392h-2.6v-28h10.9v28h-2.6v-25.2H408z"/>
		<path class="st4" d="M425,379.1l-3.4,12.9h-2.7v-28h2.3v20.9l2.1-7.7L427,364h2.9v28h-2.3v-22.3L425,379.1z"/>
		<path class="st4" d="M435.1,386.4l-0.9,5.6h-2.4l4.4-28h3.8l4.4,28h-2.6l-0.9-5.6H435.1z M435.5,383.7h5.2l-2.6-16.2L435.5,383.7z
			"/>
		<path class="st4" d="M458,395.8V392h-9.5v3.8H446v-6.6h1.5c0.4-0.5,0.7-1.1,0.8-1.8c0.1-0.7,0.2-1.4,0.2-2.3l0.9-21.2h9.3v25.2
			h1.8v6.6H458z M451,385.1c0,1-0.1,1.8-0.3,2.5c-0.1,0.6-0.4,1.2-0.8,1.6h6.1v-22.4h-4.3L451,385.1z"/>
		<path class="st4" d="M471,376.4v2.8h-5.7v10h7v2.8h-9.6v-28h9.6v2.8h-7v9.6H471z"/>
	</g>
	<g>
		<rect x="6" y="402" class="st3" width="468" height="36"/>
		<path class="st4" d="M12.1,406c1.7,0,2.9,0.5,3.6,1.5s1.1,2.6,1.1,4.7v1.3c0,1.5-0.2,2.7-0.6,3.6c-0.4,0.9-1,1.6-2,1.9
			c1,0.4,1.8,1.1,2.2,2.1c0.4,1,0.7,2.3,0.7,3.9v2.4c0,2.1-0.4,3.7-1.2,4.9c-0.8,1.1-2,1.7-3.7,1.7h-5v-28H12.1z M11.5,417.9
			c1,0,1.7-0.3,2.2-0.8s0.7-1.5,0.7-3v-1.6c0-1.3-0.2-2.2-0.5-2.8c-0.4-0.6-1-0.9-1.8-0.9H9.6v9H11.5z M12.2,431.2
			c1.7,0,2.6-1.3,2.6-3.8v-2.5c0-1.6-0.2-2.7-0.7-3.3s-1.2-0.9-2.3-0.9H9.6v10.4H12.2z"/>
		<path class="st4" d="M28.9,405.7c1.7,0,2.9,0.6,3.7,1.9c0.8,1.3,1.2,3,1.2,5.2c0,1.4-0.2,2.7-0.5,3.8s-0.8,2.2-1.4,3.2
			c-0.5,1-1.1,1.9-1.8,2.7c-0.6,0.9-1.2,1.7-1.8,2.6s-1,1.7-1.4,2.7c-0.4,0.9-0.6,1.9-0.6,3v0.4h7.1v2.8h-9.5v-2.4
			c0-1.5,0.2-2.8,0.5-4c0.4-1.1,0.8-2.2,1.4-3.1c0.5-0.9,1.1-1.8,1.8-2.7c0.6-0.8,1.2-1.7,1.8-2.6c0.5-0.9,1-1.8,1.4-2.8
			s0.5-2.2,0.5-3.5c0-1.4-0.2-2.5-0.6-3.3c-0.4-0.7-1-1.1-1.9-1.1c-0.9,0-1.5,0.4-1.9,1.1c-0.4,0.7-0.6,1.7-0.6,3v2.5h-2.2v-2.3
			c0-2.2,0.4-3.9,1.2-5.2S27.3,405.7,28.9,405.7z"/>
		<path class="st4" d="M35.8,412.8c0-2.2,0.4-3.9,1.2-5.1c0.8-1.3,2-1.9,3.7-1.9c1.7,0,2.9,0.6,3.7,1.9s1.2,3,1.2,5.1v14.4
			c0,2.2-0.4,3.9-1.2,5.2c-0.8,1.3-2.1,1.9-3.7,1.9c-1.7,0-2.9-0.6-3.7-1.9c-0.8-1.3-1.2-3-1.2-5.2V412.8z M38.2,427.4
			c0,1.3,0.2,2.3,0.6,3c0.4,0.7,1.1,1.1,1.9,1.1c0.9,0,1.5-0.4,1.9-1.1c0.4-0.7,0.6-1.7,0.6-3v-14.8c0-1.3-0.2-2.3-0.6-3
			c-0.4-0.7-1.1-1.1-1.9-1.1c-0.9,0-1.5,0.4-1.9,1.1c-0.4,0.7-0.6,1.7-0.6,3V427.4z"/>
		<path class="st4" d="M47.8,412.8c0-2.2,0.4-3.9,1.2-5.1c0.8-1.3,2-1.9,3.7-1.9c1.7,0,2.9,0.6,3.7,1.9s1.2,3,1.2,5.1v14.4
			c0,2.2-0.4,3.9-1.2,5.2c-0.8,1.3-2.1,1.9-3.7,1.9c-1.7,0-2.9-0.6-3.7-1.9c-0.8-1.3-1.2-3-1.2-5.2V412.8z M50.2,427.4
			c0,1.3,0.2,2.3,0.6,3c0.4,0.7,1.1,1.1,1.9,1.1c0.9,0,1.5-0.4,1.9-1.1c0.4-0.7,0.6-1.7,0.6-3v-14.8c0-1.3-0.2-2.3-0.6-3
			c-0.4-0.7-1.1-1.1-1.9-1.1c-0.9,0-1.5,0.4-1.9,1.1c-0.4,0.7-0.6,1.7-0.6,3V427.4z"/>
		<path class="st4" d="M59.8,412.8c0-2.2,0.4-3.9,1.2-5.1c0.8-1.3,2-1.9,3.7-1.9c1.7,0,2.9,0.6,3.7,1.9s1.2,3,1.2,5.1v14.4
			c0,2.2-0.4,3.9-1.2,5.2c-0.8,1.3-2.1,1.9-3.7,1.9c-1.7,0-2.9-0.6-3.7-1.9c-0.8-1.3-1.2-3-1.2-5.2V412.8z M62.1,427.4
			c0,1.3,0.2,2.3,0.6,3c0.4,0.7,1.1,1.1,1.9,1.1c0.9,0,1.5-0.4,1.9-1.1c0.4-0.7,0.6-1.7,0.6-3v-14.8c0-1.3-0.2-2.3-0.6-3
			c-0.4-0.7-1.1-1.1-1.9-1.1c-0.9,0-1.5,0.4-1.9,1.1c-0.4,0.7-0.6,1.7-0.6,3V427.4z"/>
		<path class="st4" d="M79.1,408.8V434h-2.4v-28h8.6v2.8H79.1z"/>
		<path class="st4" d="M87.5,412.8c0-2.2,0.4-3.9,1.2-5.1c0.8-1.3,2-1.9,3.7-1.9c1.7,0,2.9,0.6,3.7,1.9s1.2,3,1.2,5.1v14.5
			c0,2.1-0.4,3.8-1.2,5.1c-0.8,1.3-2.1,1.9-3.7,1.9c-1.7,0-2.9-0.6-3.7-1.9c-0.8-1.3-1.2-3-1.2-5.1V412.8z M89.9,427.4
			c0,1.3,0.2,2.3,0.6,3c0.4,0.7,1.1,1.1,1.9,1.1c0.9,0,1.5-0.4,1.9-1.1c0.4-0.7,0.6-1.7,0.6-3v-14.8c0-1.3-0.2-2.3-0.6-3
			c-0.4-0.7-1.1-1.1-1.9-1.1c-0.9,0-1.5,0.4-1.9,1.1s-0.6,1.7-0.6,3V427.4z"/>
		<path class="st4" d="M110.3,437.8V434h-8.8v3.8h-2.3v-6.6h1.4c0.4-0.5,0.6-1.1,0.7-1.8c0.1-0.7,0.2-1.4,0.2-2.3l0.8-21.2h8.7v25.2
			h1.6v6.6H110.3z M103.9,427.1c0,1-0.1,1.8-0.3,2.5c-0.1,0.6-0.4,1.2-0.7,1.6h5.7v-22.4h-4L103.9,427.1z"/>
		<path class="st4" d="M121.2,427.8c-0.2,1-0.4,2-0.7,2.8c-0.3,0.8-0.6,1.5-1,2c-0.4,0.5-1,0.9-1.6,1.2c-0.6,0.2-1.5,0.3-2.4,0.3
			v-2.8c0.9,0.1,1.6-0.1,2.1-0.5s0.8-1.2,1-2.2l0.5-1.8l-5-20.6h2.4l2.2,9.7l1.5,7l1.3-7l1.9-9.7h2.5L121.2,427.8z"/>
		<path class="st4" d="M137.2,406c1.7,0,2.9,0.5,3.6,1.5s1.1,2.6,1.1,4.7v1.3c0,1.5-0.2,2.7-0.6,3.6c-0.4,0.9-1,1.6-2,1.9
			c1,0.4,1.8,1.1,2.2,2.1c0.4,1,0.7,2.3,0.7,3.9v2.4c0,2.1-0.4,3.7-1.2,4.9c-0.8,1.1-2,1.7-3.7,1.7h-5v-28H137.2z M136.6,417.9
			c1,0,1.7-0.3,2.2-0.8s0.7-1.5,0.7-3v-1.6c0-1.3-0.2-2.2-0.5-2.8c-0.4-0.6-1-0.9-1.8-0.9h-2.4v9H136.6z M137.3,431.2
			c1.7,0,2.6-1.3,2.6-3.8v-2.5c0-1.6-0.2-2.7-0.7-3.3s-1.2-0.9-2.3-0.9h-2.1v10.4H137.3z"/>
		<path class="st4" d="M153.8,405.7c1.7,0,2.9,0.6,3.7,1.9c0.8,1.3,1.2,3,1.2,5.1v2.5h-2.3v-2.7c0-1.3-0.2-2.3-0.6-3s-1-1.1-1.9-1.1
			c-0.9,0-1.5,0.4-1.9,1.1c-0.4,0.7-0.6,1.7-0.6,3v14.8c0,1.3,0.2,2.3,0.6,3c0.4,0.7,1,1.1,1.9,1.1c0.9,0,1.5-0.4,1.9-1.1
			c0.4-0.7,0.6-1.7,0.6-3v-3.6h2.3v3.5c0,2.1-0.4,3.8-1.2,5.1c-0.8,1.3-2,1.9-3.7,1.9c-1.6,0-2.9-0.6-3.6-1.9
			c-0.8-1.3-1.2-3-1.2-5.1v-14.5c0-1.1,0.1-2,0.3-2.9c0.2-0.9,0.5-1.6,0.9-2.2s0.9-1.1,1.5-1.4C152.3,405.9,153,405.7,153.8,405.7z"
			/>
		<path class="st4" d="M166.6,421.1l-3.2,12.9h-2.5v-28h2.1v20.9l1.9-7.7l3.5-13.2h2.7v28h-2.2v-22.3L166.6,421.1z"/>
		<path class="st4" d="M184.1,437.8V434h-8.8v3.8H173v-6.6h1.4c0.4-0.5,0.6-1.1,0.7-1.8c0.1-0.7,0.2-1.4,0.2-2.3l0.8-21.2h8.7v25.2
			h1.6v6.6H184.1z M177.7,427.1c0,1-0.1,1.8-0.3,2.5c-0.1,0.6-0.4,1.2-0.7,1.6h5.7v-22.4h-4L177.7,427.1z"/>
		<path class="st4" d="M191,421.4V434h-2.4v-28h2.4v12.6h5.3V406h2.4v28h-2.4v-12.6H191z"/>
		<path class="st4" d="M208.8,418.4v2.8h-5.3v10h6.5v2.8h-8.9v-28h8.9v2.8h-6.5v9.6H208.8z"/>
		<path class="st4" d="M219.9,418.4v2.8h-5.3v10h6.5v2.8h-8.9v-28h8.9v2.8h-6.5v9.6H219.9z"/>
		<path class="st4" d="M233.7,421.1l-3.2,12.9h-2.5v-28h2.1v20.9l1.9-7.7l3.5-13.2h2.7v28h-2.2v-22.3L233.7,421.1z"/>
		<path class="st4" d="M250.1,405.7c1.7,0,2.9,0.6,3.7,1.9c0.8,1.3,1.2,3,1.2,5.1v2.5h-2.3v-2.7c0-1.3-0.2-2.3-0.6-3s-1-1.1-1.9-1.1
			c-0.9,0-1.5,0.4-1.9,1.1c-0.4,0.7-0.6,1.7-0.6,3v14.8c0,1.3,0.2,2.3,0.6,3c0.4,0.7,1,1.1,1.9,1.1c0.9,0,1.5-0.4,1.9-1.1
			c0.4-0.7,0.6-1.7,0.6-3v-3.6h2.3v3.5c0,2.1-0.4,3.8-1.2,5.1c-0.8,1.3-2,1.9-3.7,1.9c-1.6,0-2.9-0.6-3.6-1.9
			c-0.8-1.3-1.2-3-1.2-5.1v-14.5c0-1.1,0.1-2,0.3-2.9c0.2-0.9,0.5-1.6,0.9-2.2s0.9-1.1,1.5-1.4C248.6,405.9,249.3,405.7,250.1,405.7
			z"/>
		<path class="st4" d="M265.2,434v-25.2h-4V406h10.3v2.8h-4V434H265.2z"/>
		<path class="st4" d="M281,418.4v2.8h-5.3v10h6.5v2.8h-8.9v-28h8.9v2.8h-6.5v9.6H281z"/>
		<path class="st4" d="M289.8,421.9l-3.6,12.1h-2.3l4.3-14.4l-4.1-13.6h2.5l3.3,11.2l3.4-11.2h2.2l-4,13.6l4.3,14.4h-2.5
			L289.8,421.9z"/>
		<path class="st4" d="M305,408.8V434h-2.4v-28h10.1v28h-2.4v-25.2H305z"/>
		<path class="st4" d="M315,412.8c0-2.2,0.4-3.9,1.2-5.1c0.8-1.3,2-1.9,3.7-1.9c1.7,0,2.9,0.6,3.7,1.9s1.2,3,1.2,5.1v14.5
			c0,2.1-0.4,3.8-1.2,5.1c-0.8,1.3-2.1,1.9-3.7,1.9c-1.7,0-2.9-0.6-3.7-1.9c-0.8-1.3-1.2-3-1.2-5.1V412.8z M317.4,427.4
			c0,1.3,0.2,2.3,0.6,3c0.4,0.7,1.1,1.1,1.9,1.1c0.9,0,1.5-0.4,1.9-1.1c0.4-0.7,0.6-1.7,0.6-3v-14.8c0-1.3-0.2-2.3-0.6-3
			c-0.4-0.7-1.1-1.1-1.9-1.1c-0.9,0-1.5,0.4-1.9,1.1s-0.6,1.7-0.6,3V427.4z"/>
		<path class="st4" d="M331.9,406c1.7,0,2.9,0.6,3.7,1.8c0.8,1.2,1.1,2.9,1.1,5v3.4c0,2.2-0.4,3.9-1.2,5.1c-0.8,1.1-2.1,1.7-3.8,1.7
			h-2.1v11h-2.4v-28H331.9z M331.7,420.2c0.9,0,1.6-0.3,2-0.9c0.4-0.6,0.6-1.5,0.6-2.9v-3.7c0-1.3-0.2-2.2-0.6-2.9
			c-0.4-0.6-1-1-1.9-1h-2.3v11.3H331.7z"/>
		<path class="st4" d="M348.2,406c1.7,0,2.9,0.5,3.6,1.5s1.1,2.6,1.1,4.7v1.3c0,1.5-0.2,2.7-0.6,3.6c-0.4,0.9-1,1.6-2,1.9
			c1,0.4,1.8,1.1,2.2,2.1c0.4,1,0.7,2.3,0.7,3.9v2.4c0,2.1-0.4,3.7-1.2,4.9c-0.8,1.1-2,1.7-3.7,1.7h-5v-28H348.2z M347.6,417.9
			c1,0,1.7-0.3,2.2-0.8s0.7-1.5,0.7-3v-1.6c0-1.3-0.2-2.2-0.5-2.8c-0.4-0.6-1-0.9-1.8-0.9h-2.4v9H347.6z M348.3,431.2
			c1.7,0,2.6-1.3,2.6-3.8v-2.5c0-1.6-0.2-2.7-0.7-3.3s-1.2-0.9-2.3-0.9h-2.1v10.4H348.3z"/>
		<path class="st4" d="M359.1,421.8l-1.3,2.8v9.4h-2.4v-28h2.4v13.5l5.7-13.5h2.4l-5.5,12.8l5.6,15.2h-2.5L359.1,421.8z"/>
		<path class="st4" d="M372.6,408.8l-0.5,18.2c0,1.1-0.1,2.1-0.3,3s-0.4,1.6-0.7,2.2c-0.3,0.6-0.8,1.1-1.3,1.4
			c-0.5,0.3-1.2,0.5-2,0.5h-0.4v-2.8c0.5,0,0.9-0.1,1.2-0.2c0.3-0.2,0.5-0.4,0.7-0.7c0.2-0.3,0.3-0.8,0.4-1.3s0.1-1.1,0.1-1.8
			l0.6-21.2h8.8v28h-2.4v-25.2H372.6z"/>
		<path class="st4" d="M392.2,405.7c1.7,0,2.9,0.6,3.7,1.9c0.8,1.3,1.2,3,1.2,5.1v14.5c0,2.1-0.4,3.8-1.2,5.1
			c-0.8,1.3-2,1.9-3.7,1.9s-2.9-0.6-3.7-1.9c-0.8-1.3-1.2-3-1.2-5.1v-5.8h-3.1V434h-2.4v-28h2.4v12.6h3.1v-5.8
			c0-2.2,0.4-3.9,1.2-5.1C389.3,406.4,390.5,405.7,392.2,405.7z M392.2,408.6c-0.9,0-1.5,0.4-1.9,1.1c-0.4,0.7-0.6,1.7-0.6,3v14.8
			c0,1.3,0.2,2.3,0.6,3c0.4,0.7,1.1,1.1,1.9,1.1c0.9,0,1.5-0.4,1.9-1.1c0.4-0.7,0.6-1.7,0.6-3v-14.8c0-1.3-0.2-2.3-0.6-3
			S393.1,408.6,392.2,408.6z"/>
		<path class="st4" d="M406.9,421.6c-0.4,0.7-0.9,1.3-1.5,1.6c-0.6,0.4-1.2,0.6-1.9,0.6c-0.7,0-1.4-0.2-1.9-0.5
			c-0.5-0.3-1-0.8-1.3-1.4c-0.3-0.6-0.6-1.3-0.8-2.1c-0.2-0.8-0.3-1.7-0.3-2.6V406h2.4v10.9c0,1.2,0.2,2.2,0.7,2.9
			c0.5,0.7,1.1,1.1,2,1.1c1.5,0,2.3-1.1,2.6-3.3V406h2.4v28h-2.4V421.6z"/>
		<path class="st4" d="M414.2,428.4l-0.8,5.6h-2.2l4.1-28h3.5l4.1,28h-2.4l-0.8-5.6H414.2z M414.5,425.7h4.8l-2.4-16.2L414.5,425.7z
			"/>
		<path class="st4" d="M429.4,408.8l-0.5,18.2c0,1.1-0.1,2.1-0.3,3s-0.4,1.6-0.7,2.2c-0.3,0.6-0.8,1.1-1.3,1.4
			c-0.5,0.3-1.2,0.5-2,0.5h-0.4v-2.8c0.5,0,0.9-0.1,1.2-0.2c0.3-0.2,0.5-0.4,0.7-0.7c0.2-0.3,0.3-0.8,0.4-1.3s0.1-1.1,0.1-1.8
			l0.6-21.2h8.8v28h-2.4v-25.2H429.4z"/>
		<path class="st4" d="M444.1,421.1L441,434h-2.5v-28h2.1v20.9l1.9-7.7l3.5-13.2h2.7v28h-2.2v-22.3L444.1,421.1z"/>
		<path class="st4" d="M455.7,405.7c1.7,0,2.9,0.6,3.7,1.9c0.8,1.3,1.2,3,1.2,5.1v2.5h-2.3v-2.7c0-1.3-0.2-2.3-0.6-3s-1-1.1-1.9-1.1
			c-0.9,0-1.5,0.4-1.9,1.1c-0.4,0.7-0.6,1.7-0.6,3v14.8c0,1.3,0.2,2.3,0.6,3c0.4,0.7,1,1.1,1.9,1.1c0.9,0,1.5-0.4,1.9-1.1
			c0.4-0.7,0.6-1.7,0.6-3v-3.6h2.3v3.5c0,2.1-0.4,3.8-1.2,5.1c-0.8,1.3-2,1.9-3.7,1.9c-1.6,0-2.9-0.6-3.6-1.9
			c-0.8-1.3-1.2-3-1.2-5.1v-14.5c0-1.1,0.1-2,0.3-2.9c0.2-0.9,0.5-1.6,0.9-2.2s0.9-1.1,1.5-1.4C454.2,405.9,454.9,405.7,455.7,405.7
			z"/>
		<path class="st4" d="M467.3,417c1.7,0,3,0.6,3.8,1.7c0.8,1.1,1.2,2.8,1.2,5.1v3.4c0,2.1-0.4,3.8-1.2,5c-0.8,1.2-2,1.8-3.7,1.8
			h-4.7v-28h2.4v11H467.3z M467.5,431.2c0.9,0,1.5-0.3,1.9-1c0.4-0.6,0.6-1.6,0.6-2.9v-3.7c0-1.4-0.2-2.3-0.6-2.9
			c-0.4-0.6-1.1-0.9-2-0.9h-2.1v11.3H467.5z"/>
	</g>
	<g>
		<rect x="6.3" y="444" class="st3" width="467.7" height="36"/>
		<path class="st4" d="M13,448c1.9,0,3.2,0.5,4,1.5c0.8,1,1.2,2.6,1.2,4.7v1.3c0,1.5-0.2,2.7-0.6,3.6s-1.1,1.6-2.2,1.9
			c1.2,0.4,2,1.1,2.5,2.1s0.7,2.3,0.7,3.9v2.4c0,2.1-0.4,3.7-1.3,4.9c-0.9,1.1-2.3,1.7-4.1,1.7H7.6v-28H13z M12.3,459.9
			c1.1,0,1.9-0.3,2.4-0.8c0.5-0.5,0.8-1.5,0.8-3v-1.6c0-1.3-0.2-2.2-0.6-2.8c-0.4-0.6-1.1-0.9-2-0.9h-2.6v9H12.3z M13.1,473.2
			c1.9,0,2.8-1.3,2.8-3.8v-2.5c0-1.6-0.3-2.7-0.8-3.3c-0.5-0.6-1.4-0.9-2.5-0.9h-2.3v10.4H13.1z"/>
		<path class="st4" d="M28.9,450.8V476h-2.7v-28h11.2v28h-2.7v-25.2H28.9z"/>
		<path class="st4" d="M45.3,448c1.9,0,3.2,0.6,4.1,1.8s1.3,2.9,1.3,5v3.4c0,2.2-0.4,3.9-1.3,5.1c-0.9,1.1-2.3,1.7-4.2,1.7h-2.3v11
			h-2.7v-28H45.3z M45.1,462.2c1,0,1.7-0.3,2.2-0.9c0.5-0.6,0.7-1.5,0.7-2.9v-3.7c0-1.3-0.2-2.2-0.6-2.9c-0.4-0.6-1.1-1-2.1-1h-2.5
			v11.3H45.1z"/>
		<path class="st4" d="M52.5,454.8c0-2.2,0.4-3.9,1.3-5.1s2.3-1.9,4.1-1.9s3.2,0.6,4.1,1.9c0.9,1.3,1.4,3,1.4,5.1v14.5
			c0,2.1-0.5,3.8-1.4,5.1c-0.9,1.3-2.3,1.9-4.1,1.9s-3.2-0.6-4.1-1.9c-0.9-1.3-1.3-3-1.3-5.1V454.8z M55.1,469.4
			c0,1.3,0.2,2.3,0.7,3c0.5,0.7,1.2,1.1,2.1,1.1c1,0,1.7-0.4,2.1-1.1c0.5-0.7,0.7-1.7,0.7-3v-14.8c0-1.3-0.2-2.3-0.7-3
			c-0.5-0.7-1.2-1.1-2.1-1.1c-1,0-1.7,0.4-2.1,1.1s-0.7,1.7-0.7,3V469.4z"/>
		<path class="st4" d="M68.6,450.8V476H66v-28h9.5v2.8H68.6z"/>
		<path class="st4" d="M83.2,448c1.9,0,3.2,0.6,4.1,1.8s1.3,2.9,1.3,5v3.4c0,2.2-0.4,3.9-1.3,5.1c-0.9,1.1-2.3,1.7-4.2,1.7h-2.3v11
			H78v-28H83.2z M83,462.2c1,0,1.7-0.3,2.2-0.9c0.5-0.6,0.7-1.5,0.7-2.9v-3.7c0-1.3-0.2-2.2-0.6-2.9c-0.4-0.6-1.1-1-2.1-1h-2.5v11.3
			H83z"/>
		<path class="st4" d="M93.3,470.4l-0.9,5.6H90l4.6-28h3.8l4.6,28h-2.7l-0.9-5.6H93.3z M93.7,467.7H99l-2.7-16.2L93.7,467.7z"/>
		<path class="st4" d="M113.8,476h-2.5l-3.9-22.3V476H105v-28h3.7l3.9,22.4l3.8-22.4h3.7v28h-2.5v-22.5L113.8,476z"/>
		<path class="st4" d="M131.6,476H129l-3.9-22.3V476h-2.3v-28h3.7l3.9,22.4l3.8-22.4h3.7v28h-2.5v-22.5L131.6,476z"/>
		<path class="st4" d="M147.7,469.8c-0.2,1-0.4,2-0.7,2.8c-0.3,0.8-0.7,1.5-1.1,2c-0.5,0.5-1.1,0.9-1.8,1.2s-1.6,0.3-2.7,0.3v-2.8
			c1,0.1,1.8-0.1,2.3-0.5c0.5-0.4,0.9-1.2,1.1-2.2l0.5-1.8l-5.5-20.6h2.7l2.4,9.7l1.6,7l1.4-7l2.1-9.7h2.8L147.7,469.8z"/>
		<path class="st4" d="M164.1,463.8l-1.4,2.8v9.4H160v-28h2.7v13.5L169,448h2.7l-6,12.8l6.2,15.2h-2.7L164.1,463.8z"/>
		<path class="st4" d="M176.6,470.4l-0.9,5.6h-2.4l4.6-28h3.8l4.6,28h-2.7l-0.9-5.6H176.6z M177,467.7h5.3l-2.7-16.2L177,467.7z"/>
		<path class="st4" d="M199.9,462.8l-1.3,2.6V476H196v-10.6l-1.2-2.7l-4.6,13.2h-2.7l5.4-16.1l-5.3-11.9h2.7l5.7,12.9V448h2.6v12.9
			l5.7-12.9h2.7l-5.3,11.8l5.4,16.2h-2.7L199.9,462.8z"/>
		<path class="st4" d="M220.8,479.8V476h-9.7v3.8h-2.5v-6.6h1.5c0.4-0.5,0.7-1.1,0.8-1.8c0.1-0.7,0.2-1.4,0.3-2.3l0.9-21.2h9.6v25.2
			h1.8v6.6H220.8z M213.7,469.1c0,1-0.1,1.8-0.3,2.5c-0.1,0.6-0.4,1.2-0.8,1.6h6.3v-22.4h-4.4L213.7,469.1z"/>
		<path class="st4" d="M230.7,459c1.9,0,3.3,0.6,4.2,1.7s1.3,2.8,1.3,5.1v3.4c0,2.1-0.4,3.8-1.3,5c-0.8,1.2-2.2,1.8-4.1,1.8h-5.2
			v-28h2.7v11H230.7z M230.9,473.2c1,0,1.7-0.3,2.1-1c0.4-0.6,0.6-1.6,0.6-2.9v-3.7c0-1.4-0.2-2.3-0.7-2.9c-0.5-0.6-1.2-0.9-2.2-0.9
			h-2.3v11.3H230.9z M241.1,448v28h-2.6v-28H241.1z"/>
		<path class="st4" d="M249.7,463.9l-4,12.1h-2.5l4.8-14.4l-4.5-13.6h2.8l3.7,11.2l3.7-11.2h2.5l-4.5,13.6l4.8,14.4h-2.8
			L249.7,463.9z"/>
		<path class="st4" d="M266.5,450.8V476h-2.7v-28H275v28h-2.7v-25.2H266.5z"/>
		<path class="st4" d="M277.6,454.8c0-2.2,0.4-3.9,1.3-5.1s2.3-1.9,4.1-1.9s3.2,0.6,4.1,1.9c0.9,1.3,1.4,3,1.4,5.1v14.5
			c0,2.1-0.5,3.8-1.4,5.1c-0.9,1.3-2.3,1.9-4.1,1.9s-3.2-0.6-4.1-1.9c-0.9-1.3-1.3-3-1.3-5.1V454.8z M280.2,469.4
			c0,1.3,0.2,2.3,0.7,3c0.5,0.7,1.2,1.1,2.1,1.1c1,0,1.7-0.4,2.1-1.1c0.5-0.7,0.7-1.7,0.7-3v-14.8c0-1.3-0.2-2.3-0.7-3
			c-0.5-0.7-1.2-1.1-2.1-1.1c-1,0-1.7,0.4-2.1,1.1s-0.7,1.7-0.7,3V469.4z"/>
		<path class="st4" d="M296.1,447.7c1.8,0,3.2,0.6,4.1,1.9c0.9,1.3,1.3,3,1.3,5.1v2.5H299v-2.7c0-1.3-0.2-2.3-0.7-3
			c-0.4-0.7-1.2-1.1-2.1-1.1c-1,0-1.7,0.4-2.1,1.1c-0.5,0.7-0.7,1.7-0.7,3v14.8c0,1.3,0.2,2.3,0.7,3c0.5,0.7,1.2,1.1,2.1,1.1
			c1,0,1.7-0.4,2.1-1.1c0.4-0.7,0.7-1.7,0.7-3v-3.6h2.5v3.5c0,2.1-0.4,3.8-1.3,5.1c-0.9,1.3-2.2,1.9-4.1,1.9c-1.8,0-3.2-0.6-4-1.9
			c-0.9-1.3-1.3-3-1.3-5.1v-14.5c0-1.1,0.1-2,0.3-2.9c0.2-0.9,0.5-1.6,1-2.2c0.4-0.6,1-1.1,1.7-1.4
			C294.4,447.9,295.2,447.7,296.1,447.7z"/>
		<path class="st4" d="M309,450.8l-0.5,18.2c0,1.1-0.1,2.1-0.3,3c-0.2,0.9-0.4,1.6-0.8,2.2s-0.8,1.1-1.4,1.4
			c-0.6,0.3-1.4,0.5-2.3,0.5h-0.4v-2.8c0.5,0,1-0.1,1.3-0.2s0.6-0.4,0.8-0.7c0.2-0.3,0.3-0.8,0.4-1.3s0.1-1.1,0.1-1.8l0.6-21.2h9.7
			v28h-2.7v-25.2H309z"/>
		<path class="st4" d="M327.5,460.4v2.8h-5.8v10h7.1v2.8H319v-28h9.8v2.8h-7.1v9.6H327.5z"/>
		<path class="st4" d="M343,479.8V476h-9.7v3.8h-2.5v-6.6h1.5c0.4-0.5,0.7-1.1,0.8-1.8c0.1-0.7,0.2-1.4,0.3-2.3l0.9-21.2h9.6v25.2
			h1.8v6.6H343z M335.9,469.1c0,1-0.1,1.8-0.3,2.5c-0.1,0.6-0.4,1.2-0.8,1.6h6.3v-22.4h-4.4L335.9,469.1z"/>
		<path class="st4" d="M355,469.8c-0.2,1-0.4,2-0.7,2.8c-0.3,0.8-0.7,1.5-1.1,2c-0.5,0.5-1.1,0.9-1.8,1.2s-1.6,0.3-2.7,0.3v-2.8
			c1,0.1,1.8-0.1,2.3-0.5c0.5-0.4,0.9-1.2,1.1-2.2l0.5-1.8l-5.5-20.6h2.7l2.4,9.7l1.6,7l1.4-7l2.1-9.7h2.8L355,469.8z"/>
		<path class="st4" d="M373.6,447.7c1.8,0,3.2,0.6,4.1,1.9s1.3,3,1.3,5.1v14.5c0,2.1-0.4,3.8-1.3,5.1c-0.9,1.3-2.3,1.9-4.1,1.9
			s-3.2-0.6-4.1-1.9c-0.9-1.3-1.4-3-1.4-5.1v-5.8h-3.4V476H362v-28h2.7v12.6h3.4v-5.8c0-2.2,0.5-3.9,1.4-5.1
			S371.8,447.7,373.6,447.7z M373.6,450.6c-1,0-1.7,0.4-2.1,1.1c-0.5,0.7-0.7,1.7-0.7,3v14.8c0,1.3,0.2,2.3,0.7,3
			c0.5,0.7,1.2,1.1,2.1,1.1c1,0,1.7-0.4,2.1-1.1c0.5-0.7,0.7-1.7,0.7-3v-14.8c0-1.3-0.2-2.3-0.7-3S374.6,450.6,373.6,450.6z"/>
		<path class="st4" d="M397.9,479.8V476h-16.3v-28h2.7v25.2h4.6V448h2.6v25.2h4.6V448h2.6v25.2h1.8v6.5H397.9z"/>
		<path class="st4" d="M409,463.1l-3.5,12.9h-2.8v-28h2.3v20.9l2.1-7.7L411,448h3v28h-2.4v-22.3L409,463.1z"/>
		<path class="st4" d="M422.6,463.9l-4,12.1h-2.5l4.8-14.4l-4.5-13.6h2.8l3.7,11.2l3.7-11.2h2.5l-4.5,13.6l4.8,14.4h-2.8
			L422.6,463.9z"/>
		<path class="st4" d="M443,463.1l-3.5,12.9h-2.8v-28h2.3v20.9l2.1-7.7L445,448h3v28h-2.4v-22.3L443,463.1z"/>
		<path class="st4" d="M453.3,450.8V476h-2.6v-28h9.5v2.8H453.3z"/>
		<path class="st4" d="M467.9,448c1.9,0,3.2,0.6,4.1,1.8s1.3,2.9,1.3,5v3.4c0,2.2-0.4,3.9-1.3,5.1c-0.9,1.1-2.3,1.7-4.2,1.7h-2.3v11
			h-2.7v-28H467.9z M467.7,462.2c1,0,1.7-0.3,2.2-0.9c0.5-0.6,0.7-1.5,0.7-2.9v-3.7c0-1.3-0.2-2.2-0.6-2.9c-0.4-0.6-1.1-1-2.1-1
			h-2.5v11.3H467.7z"/>
	</g>
</g>
<g id="Layer_2">
</g>
<g id="Layer_3">
</g>
<g id="Layer_4">
</g>
<g id="Layer_5">
	<g>
	</g>
	<g>
	</g>
	<g>
	</g>
	<g>
	</g>
	<g>
	</g>
	<g>
	</g>
	<g>
	</g>
	<g>
	</g>
	<g>
	</g>
	<g>
	</g>
	<g>
	</g>
	<g>
	</g>
	<g>
	</g>
	<g>
	</g>
	<g>
	</g>
</g>
</svg>
