<svg xmlns="http://www.w3.org/2000/svg" xml:space="preserve" id="Layer_1" x="0" y="0" version="1.1" viewBox="0 0 480 480"><style>.st0{fill:#255d98}.st1{fill:#fff}.st2{fill:#c0b1a8}</style><path d="M0 0h480v480H0V0z" class="st0"/><path d="M187.7 10c2.1 0 3.7.5 4.6 1.5 1 1.3 1.5 3 1.4 4.7v1.3c.1 1.2-.2 2.5-.7 3.6-.5 1-1.4 1.7-2.5 1.9 1.2.3 2.2 1 2.8 2.1.6 1.2.9 2.5.8 3.9v2.4c.1 1.8-.4 3.5-1.5 4.9-1.3 1.2-3 1.8-4.7 1.7h-6.3V10h6.1zm-.7 11.9c1 .1 2-.2 2.8-.8.7-.8 1.1-1.9.9-3v-1.6c.1-1-.2-1.9-.7-2.8-.6-.7-1.5-1-2.3-.9h-3v9l2.3.1zm.9 13.3c2.2 0 3.3-1.3 3.2-3.8v-2.5c.1-1.2-.2-2.3-.9-3.3-.8-.7-1.9-1-2.9-.9h-2.7v10.4h3.3zM209 10c2.2 0 3.7.6 4.7 1.8 1 1.5 1.6 3.2 1.4 5v3.4c.1 1.8-.4 3.6-1.6 5.1-1.3 1.2-3.1 1.9-4.8 1.7H206v11h-3V10h6zm-.2 14.2c.9.1 1.9-.2 2.6-.9.6-.8.9-1.9.8-2.9v-3.7c.1-1-.2-2-.7-2.9-.6-.7-1.5-1.1-2.4-1h-2.9v11.4h2.6zm18.5-1.8v2.8h-6.7v10h8.2V38h-11.3V10h11.3v2.8h-8.2v9.6h6.7zm14.1 0v2.8h-6.7v10h8.3V38h-11.3V10H243v2.8h-8.2v9.6h6.6zm10.3-12.7c1.8-.1 3.5.6 4.7 1.9 1.1 1.5 1.6 3.3 1.5 5.1v2.5H255v-2.7c.1-1.1-.2-2.1-.8-3-.6-.7-1.5-1.1-2.4-1.1-.9-.1-1.8.3-2.4 1.1-.6.9-.8 1.9-.8 3v14.8c-.1 1.1.2 2.1.8 3 .6.7 1.5 1.1 2.4 1.1.9.1 1.9-.3 2.4-1.1.6-.9.8-1.9.8-3v-3.6h2.9v3.5c.1 1.8-.4 3.6-1.5 5.1-2.6 2.6-6.7 2.6-9.3 0-1.1-1.5-1.6-3.3-1.5-5.1V16.8c0-1 .1-2 .4-2.9.2-.8.6-1.6 1.1-2.2.5-.6 1.2-1.1 1.9-1.4.9-.4 1.8-.6 2.7-.6zM264.9 38V12.8h-5.1V10H273v2.8h-5.1V38h-3zm16.5-28c2.1 0 3.7.5 4.6 1.5 1 1.3 1.5 3 1.4 4.7v1.3c0 1.2-.2 2.5-.7 3.6-.5 1-1.4 1.7-2.5 1.9 1.2.3 2.2 1 2.9 2.1.6 1.2.9 2.5.9 3.9v2.4c.1 1.8-.4 3.5-1.5 4.9-1.3 1.2-3 1.8-4.8 1.7h-6.3V10h6zm-.7 11.9c1 .1 2-.2 2.8-.8.7-.8 1.1-1.9.9-3v-1.6c.1-1-.2-2-.7-2.8-.6-.7-1.5-1-2.3-.9h-3v9l2.3.1zm.9 13.3c2.2 0 3.3-1.3 3.3-3.8v-2.5c.1-1.2-.2-2.3-.9-3.3-.8-.7-1.9-1-2.9-.9h-2.7v10.4h3.2zM302.9 10c2.1 0 3.7.5 4.6 1.5 1 1.3 1.5 3 1.4 4.7v1.3c0 1.2-.2 2.5-.7 3.6-.5 1-1.4 1.7-2.5 1.9 1.2.3 2.2 1 2.9 2.1.6 1.2.9 2.5.8 3.9v2.4c.1 1.8-.4 3.5-1.5 4.9-1.3 1.2-3 1.8-4.8 1.7h-6.3V10h6.1zm-.8 11.9c1 .1 2-.2 2.8-.8.7-.8 1.1-1.9.9-3v-1.6c.1-1-.2-2-.7-2.8-.6-.7-1.5-1-2.3-.9h-3v9l2.3.1zm.9 13.3c2.2 0 3.2-1.3 3.2-3.8v-2.5c.1-1.2-.2-2.3-.9-3.3-.8-.7-1.9-1-2.9-.9h-2.7v10.4h3.3zm16.3-10.1-4 12.9h-3.2V10h2.7v20.9l2.4-7.7 4.4-13.2h3.4v28h-2.8V15.7l-2.9 9.4zm22.3 16.7V38h-11.2v3.8h-2.9v-6.6h1.8c.5-.5.8-1.1.9-1.8.2-.8.3-1.5.3-2.3l1-21.2h11v25.2h2.1v6.6l-3 .1zm-8.2-10.7c0 .8-.1 1.7-.3 2.5-.2.6-.5 1.2-.9 1.6h7.2V12.8h-5.1l-.9 18.3zM347 16.8c-.1-1.8.4-3.7 1.5-5.1 2.6-2.5 6.8-2.5 9.5 0 1.1 1.5 1.7 3.3 1.6 5.1v14.5c.1 1.8-.5 3.7-1.6 5.1-2.6 2.6-6.8 2.6-9.5 0-1.1-1.5-1.6-3.3-1.5-5.1V16.8zm3 14.6c-.1 1.1.2 2.1.8 3 1.3 1.4 3.4 1.4 4.8.1l.1-.1c.6-.9.8-1.9.8-3V16.6c.1-1.1-.2-2.1-.8-3-1.3-1.4-3.4-1.4-4.8-.1l-.1.1c-.6.9-.9 1.9-.8 3v14.8zM368.7 10c2.1 0 3.7.5 4.6 1.5 1 1.3 1.5 3 1.4 4.7v1.3c.1 1.2-.2 2.5-.7 3.6-.5 1-1.4 1.7-2.5 1.9 1.2.3 2.2 1 2.8 2.1.6 1.2.9 2.5.8 3.9v2.4c.1 1.8-.4 3.5-1.5 4.9-1.3 1.2-3 1.8-4.8 1.7h-6.3V10h6.2zm-.8 11.9c1 .1 2-.2 2.8-.8.7-.8 1.1-1.9.9-3v-1.6c.1-1-.2-2-.7-2.8-.6-.7-1.5-1-2.3-.9h-3v9l2.3.1zm.9 13.3c2.2 0 3.3-1.3 3.3-3.8v-2.5c.1-1.2-.2-2.3-.9-3.3-.8-.7-1.9-1-2.9-.9h-2.7v10.4h3.2zm21.1-25.5c1.8-.1 3.5.6 4.7 1.9 1.1 1.5 1.6 3.3 1.5 5.1v2.5h-2.9v-2.7c.1-1.1-.2-2.1-.8-3-1.3-1.3-3.4-1.4-4.7-.2l-.2.2c-.6.9-.8 1.9-.8 3v14.8c-.1 1.1.2 2.1.8 3 1.3 1.3 3.4 1.4 4.7.2l.2-.2c.6-.9.8-1.9.8-3v-3.6h2.9v3.5c.1 1.8-.4 3.6-1.5 5.1-1.2 1.4-2.9 2.1-4.7 1.9-1.8.1-3.5-.6-4.6-1.9-1.1-1.5-1.6-3.3-1.5-5.1V16.8c0-1 .1-2 .4-2.9.2-.8.6-1.6 1.1-2.2.5-.6 1.2-1.1 1.9-1.4.8-.4 1.7-.6 2.7-.6zm12 3.1V38h-3.1V10h12.9v28h-3.1V12.8h-6.7zm12.7 4c-.1-1.8.4-3.7 1.5-5.1 2.6-2.5 6.8-2.5 9.5 0 1.1 1.5 1.7 3.3 1.6 5.1v14.5c.1 1.8-.5 3.7-1.6 5.1-2.6 2.6-6.8 2.6-9.5 0-1.1-1.5-1.6-3.3-1.5-5.1V16.8zm3 14.6c-.1 1.1.2 2.1.8 3 1.3 1.4 3.4 1.4 4.8.1l.1-.1c.6-.9.8-1.9.8-3V16.6c.1-1.1-.2-2.1-.8-3-1.3-1.4-3.4-1.4-4.8-.1l-.1.1c-.6.9-.9 1.9-.8 3v14.8zM436.1 10c2.2 0 3.7.6 4.7 1.8 1 1.5 1.6 3.2 1.5 5v3.4c.1 1.8-.4 3.6-1.5 5.1-1.3 1.2-3.1 1.9-4.8 1.7h-2.7v11h-3.1V10h5.9zm-.2 14.2c.9.1 1.9-.2 2.5-.9.6-.8.9-1.9.8-2.9v-3.7c.1-1-.2-2-.7-2.9-.6-.7-1.5-1.1-2.4-1h-2.9v11.4h2.7zM448.8 38V12.8h-5.1V10h13.2v2.8h-5V38h-3.1zm13.5-5.6-1.1 5.6h-2.8l5.2-28h4.4l5.3 28h-3.1l-1.1-5.6h-6.8zm.4-2.7h6.1l-3.1-16.2-3 16.2z" class="st1"/><path d="M174.6 101.2c-.1.1-.1.1-.2.1s0-.1.2-.1z" class="st2"/><path d="M205.7 58c2.1 0 3.7.5 4.6 1.5 1 1.3 1.5 3 1.4 4.7v1.3c.1 1.2-.2 2.5-.7 3.6-.5 1-1.4 1.7-2.5 1.9 1.2.3 2.2 1 2.8 2.1.6 1.2.9 2.5.8 3.9v2.4c.1 1.8-.4 3.5-1.5 4.9-1.3 1.2-3 1.8-4.7 1.7h-6.3V58h6.1zm-.7 11.9c1 .1 2-.2 2.8-.8.7-.8 1.1-1.9.9-3v-1.6c.1-1-.2-1.9-.7-2.8-.6-.7-1.5-1-2.3-.9h-3v9l2.3.1zm.9 13.3c2.2 0 3.3-1.3 3.2-3.8v-2.5c.1-1.2-.2-2.3-.9-3.3-.8-.7-1.9-1-2.9-.9h-2.7v10.4l3.3.1zm13.7-9.4-1.6 2.8V86h-3.1V58h3.1v13.5l7.3-13.5h3.1l-6.9 12.8 7.2 15.2h-3.1l-6-12.2zm17.2-13-.6 18.2c0 1-.2 2-.4 3-.2.8-.5 1.5-.9 2.2-.4.6-1 1.1-1.7 1.4-.8.3-1.7.5-2.6.5h-.5v-2.8c.5 0 1-.1 1.5-.2.4-.1.7-.4.9-.7.2-.4.4-.8.4-1.2.1-.6.1-1.2.2-1.8L234 58h11.2v28h-3.1V60.8h-5.3zm24.9-3.1c1.8-.1 3.5.6 4.7 1.9 1.1 1.5 1.7 3.3 1.6 5.1v14.5c.1 1.8-.5 3.6-1.5 5.1-2.6 2.6-6.8 2.6-9.5 0-1.1-1.5-1.7-3.3-1.6-5.1v-5.8h-4V86h-3.1V58h3.1v12.6h4v-5.8c-.1-1.8.5-3.7 1.6-5.1 1.2-1.4 2.9-2.1 4.7-2zm0 2.9c-.9-.1-1.9.3-2.5 1.1-.6.9-.8 1.9-.8 3v14.8c-.1 1.1.2 2.1.8 3 1.3 1.4 3.4 1.4 4.8.1l.1-.1c.6-.9.9-1.9.8-3V64.6c.1-1.1-.2-2.1-.8-3-.5-.7-1.5-1.1-2.4-1zm18.7 13c-.5.7-1.1 1.3-1.9 1.6-.7.4-1.6.6-2.4.6-.8 0-1.7-.2-2.4-.5s-1.3-.8-1.7-1.4c-.5-.6-.8-1.4-1-2.1-.2-.9-.3-1.7-.3-2.6V58h3.1v10.9c0 1 .3 2.1.9 2.9.6.8 1.5 1.2 2.5 1.2 1.9 0 3-1.1 3.3-3.3V58h3v28h-3l-.1-12.4zm16-3.2v2.8h-6.7v10h8.2V86h-11.3V58h11.3v2.8h-8.2v9.6h6.7zm7.4 3V86h-3.1V58h3.1v12.6h6.7V58h3.1v28h-3.1V73.4h-6.7zm18.7-4.4c1.8-.1 3.5.5 4.8 1.7 1.1 1.4 1.7 3.2 1.5 5.1v3.4c.1 1.8-.4 3.6-1.5 5-1.2 1.3-2.9 2-4.7 1.9h-6V58h3.1v11h2.8zm.2 14.1c.9.1 1.8-.3 2.4-1 .5-.9.8-1.9.7-2.9v-3.6c.1-1-.2-2.1-.8-2.9-.7-.6-1.6-.9-2.5-.9h-2.7v11.3h2.9zM334.5 58v28h-3V58h3zm15.3-.3c1.8-.2 3.5.6 4.7 1.9 1.1 1.5 1.6 3.3 1.5 5.2 0 1.3-.2 2.6-.7 3.8-.5 1.1-1 2.2-1.7 3.2s-1.4 1.9-2.2 2.7c-.8.8-1.5 1.7-2.2 2.6-.7.8-1.3 1.7-1.7 2.7-.5.9-.7 2-.7 3v.4h9V86h-12v-2.4c0-1.4.2-2.7.7-4 .4-1.1 1-2.2 1.7-3.1.7-.9 1.4-1.8 2.2-2.7.8-.8 1.5-1.7 2.2-2.6.7-.9 1.3-1.8 1.7-2.8.5-1.1.7-2.3.7-3.5.1-1.1-.2-2.3-.8-3.3-1.2-1.4-3.2-1.5-4.6-.3l-.3.3c-.5.9-.8 1.9-.8 3v2.5h-2.9v-2.2c-.1-1.8.4-3.7 1.5-5.2 1.2-1.4 2.9-2.1 4.7-2zm28.6 32.1V86h-11.2v3.8h-2.9v-6.6h1.8c.5-.5.8-1.1.9-1.8.2-.8.2-1.5.3-2.3l1.1-21.2h11v25.2h2.1v6.6h-3.1zm-8.2-10.7c0 .8-.1 1.7-.3 2.5-.2.6-.5 1.2-.9 1.6h7.2V60.8h-5.1l-.9 18.3zm21.1-6-4 12.9h-3.2V58h2.7v20.9l2.4-7.7 4.4-13.2h3.4v28h-2.8V63.7l-2.9 9.4zM406 57.7c1.8-.1 3.5.6 4.7 1.9 1.1 1.5 1.6 3.3 1.5 5.1v2.5h-2.9v-2.7c.1-1.1-.2-2.1-.8-3-1.3-1.3-3.4-1.4-4.7-.2l-.2.2c-.6.9-.8 1.9-.8 3v14.8c-.1 1.1.2 2.1.8 3 1.3 1.3 3.4 1.4 4.7.2l.2-.2c.6-.9.8-1.9.8-3v-3.6h2.9v3.5c.1 1.8-.4 3.6-1.5 5.1-1.2 1.4-2.9 2.1-4.7 1.9-1.8.1-3.5-.6-4.6-1.9-1.1-1.5-1.6-3.3-1.5-5.1V64.8c0-1 .1-2 .4-2.9.2-.8.6-1.6 1.1-2.2.5-.6 1.2-1.1 1.9-1.4.8-.4 1.8-.6 2.7-.6zm21.2 32.1V86h-12V58h3v25.2h6.8V58h3.1v25.2h2.1v6.5l-3 .1zm12.9-16.7L436 86h-3.2V58h2.7v20.9l2.5-7.7 4.4-13.2h3.4v28H443V63.7l-2.9 9.4zm11.8-12.3V86h-3V58h12.9v28h-3V60.8h-6.9zm12.9 9.8h7.5v2.8h-7.5v-2.8zm-277.4 38.2-.6 18.2c0 1-.2 2-.4 3-.1.8-.5 1.5-.9 2.2-.4.6-1 1.1-1.7 1.4-.8.3-1.7.5-2.6.5h-.5v-2.9c.5 0 1-.1 1.5-.2.4-.1.7-.4.9-.7.2-.4.4-.8.5-1.3.1-.6.1-1.2.1-1.8l.8-21.2h11.2v28h-3.1v-25.2h-5.2zm18.8 12.3-4 12.9H199v-28h2.7v20.9l2.4-7.7 4.4-13.2h3.4v28h-2.8v-22.3l-2.9 9.4zm11.9.3V134H215v-28h3.1v12.6h6.7V106h3.1v28h-3.1v-12.6h-6.7zm18.7-4.4c1.8-.2 3.5.5 4.8 1.7 1.1 1.4 1.7 3.2 1.6 5.1v3.4c.1 1.8-.4 3.6-1.5 5-1.2 1.3-2.9 2-4.7 1.9h-6v-28h3.1v11h2.7zm.2 14.1c.9.1 1.8-.3 2.4-1 .5-.9.8-1.9.7-2.9v-3.6c.1-1-.2-2.1-.8-2.9-.7-.6-1.6-.9-2.6-.9H234v11.3h3zm11.7-25.1v28h-3v-28h3zm6.1 8.9v3.9h-2.9v-3.9h2.9zm0 15.2v3.9h-2.9v-3.9h2.9zm12.3-21.3V134H264v-28h12.9v28h-3.1v-25.2h-6.7zm12.7 4c-.1-1.8.5-3.7 1.5-5.1 1.2-1.3 2.9-2 4.7-1.9 1.8-.1 3.5.6 4.8 1.9 1.1 1.5 1.7 3.3 1.6 5.1v14.5c.1 1.8-.5 3.6-1.6 5.1-1.2 1.3-3 2.1-4.8 1.9-1.8.1-3.5-.6-4.7-1.9-1.1-1.5-1.6-3.3-1.5-5.1v-14.5zm3 14.6c-.1 1.1.2 2.1.8 3 .6.7 1.5 1.1 2.5 1.1.9.1 1.9-.3 2.5-1.1.6-.9.9-1.9.8-3v-14.8c.1-1.1-.2-2.1-.8-3-.6-.7-1.5-1.1-2.5-1.1-.9-.1-1.9.3-2.5 1.1-.6.9-.9 1.9-.8 3v14.8zm22.2-9v2.8h-6.7v10h8.2v2.8h-11.3v-28h11.3v2.8h-8.2v9.6h6.7zm17.9 19.4V134h-11.2v3.8h-2.9v-6.6h1.8c.5-.5.8-1.1.9-1.8.2-.8.2-1.5.3-2.3l1.1-21.2h11v25.2h2.1v6.6h-3.1zm-8.2-10.7c0 .8-.1 1.7-.3 2.5-.2.6-.5 1.2-.9 1.6h7.3v-22.4h-5.1l-1 18.3zm21-6-4 12.9h-3.2v-28h2.7v20.9l2.4-7.7L338 106h3.4v28h-2.7v-22.3l-3 9.4zm11.9.3V134h-3.1v-28h3.1v12.6h6.7V106h3.1v28h-3.1v-12.6h-6.7zm17.6.4-1.6 2.8v9.4h-3.1v-28h3.1v13.5l7.3-13.5h3.1l-6.9 12.8 7.2 15.2h-3.1l-6-12.2zm18.6-.7-4 12.9h-3.2v-28h2.7v20.9l2.4-7.7 4.4-13.2h3.4v28h-2.7v-22.3l-3 9.4zM394 134h-1.1v-3.9h2.9v3.6l-1.5 3.8H393l1-3.5zm15.6-12.2-1.6 2.8v9.4h-3v-28h3v13.5l7.3-13.5h3.1l-6.9 12.8 7.2 15.2h-3.1l-6-12.2zm11.2-9c-.1-1.8.5-3.7 1.5-5.1 1.2-1.3 2.9-2 4.7-1.9 1.8-.1 3.5.6 4.8 1.9 1.1 1.5 1.7 3.3 1.6 5.1v14.5c.1 1.8-.5 3.6-1.6 5.1-1.2 1.3-3 2.1-4.8 1.9-1.8.1-3.5-.6-4.7-1.9-1.1-1.5-1.6-3.3-1.5-5.1v-14.5zm3 14.6c-.1 1.1.2 2.1.8 3 1.3 1.4 3.4 1.4 4.8.1l.1-.1c.6-.9.9-1.9.8-3v-14.8c.1-1.1-.2-2.1-.8-3-1.3-1.4-3.4-1.4-4.8-.1l-.1.1c-.6.9-.9 1.9-.8 3v14.8zm16.6 6.6v-25.2h-5.1V106h13.2v2.8h-5V134h-3.1zm10.2-21.2c-.1-1.8.5-3.7 1.5-5.1 1.2-1.3 2.9-2 4.7-1.9 1.8-.1 3.5.6 4.8 1.9 1.1 1.5 1.7 3.3 1.6 5.1v14.5c.1 1.8-.5 3.6-1.6 5.1-1.2 1.3-3 2.1-4.8 1.9-1.8.1-3.5-.6-4.7-1.9-1.1-1.5-1.6-3.3-1.5-5.1v-14.5zm3 14.6c-.1 1.1.2 2.1.8 3 1.3 1.4 3.4 1.4 4.8.1l.1-.1c.6-.9.9-1.9.8-3v-14.8c.1-1.1-.2-2.1-.8-3-1.3-1.4-3.4-1.4-4.8-.1l-.1.1c-.6.9-.9 1.9-.8 3v14.8zm12.4-8.8h7.5v2.8H466v-2.8zM13.6 154c2.2 0 3.7.6 4.7 1.8 1 1.5 1.6 3.2 1.5 5v3.4c.1 1.8-.4 3.6-1.5 5.1-1.3 1.2-3.1 1.9-4.8 1.7h-2.7v11H7.6v-28h6zm-.3 14.2c.9.1 1.9-.2 2.6-.9.6-.8.9-1.9.8-2.9v-3.7c.1-1-.2-2-.7-2.9-.6-.7-1.5-1.1-2.4-1h-3v11.3l2.7.1zm13.4-3.2c1.8-.2 3.5.5 4.8 1.7 1.1 1.4 1.7 3.2 1.5 5.1v3.4c.1 1.8-.4 3.6-1.5 5-1.2 1.3-2.9 2-4.7 1.9h-6v-28H24v11h2.7zm.2 14.1c.9.1 1.8-.3 2.4-1 .5-.9.8-1.9.7-2.9v-3.6c.1-1-.2-2.1-.8-2.9-.7-.6-1.6-.9-2.5-.9H24v11.3h2.9zM38.6 154v28h-3v-28h3zm11.7 12.4v2.8h-6.7v10h8.2v2.8H40.5v-28h11.3v2.8h-8.2v9.6h6.7zM64.4 154c2.1 0 3.7.5 4.6 1.5 1 1.3 1.5 3 1.4 4.7v1.3c0 1.2-.2 2.5-.7 3.6-.5 1-1.4 1.7-2.5 1.9 1.2.3 2.2 1.1 2.8 2.1.6 1.2.9 2.5.8 3.9v2.4c.1 1.8-.4 3.5-1.5 4.9-1.3 1.2-3 1.8-4.7 1.7h-6.3v-28h6.1zm-.7 11.9c1 .1 2-.2 2.8-.8.7-.8 1.1-1.9.9-3v-1.6c.1-1-.2-2-.7-2.8-.6-.7-1.5-1-2.3-.9h-3v9l2.3.1zm.9 13.3c2.2 0 3.3-1.3 3.3-3.8v-2.5c.1-1.2-.2-2.3-.9-3.3-.8-.7-1.9-1-2.9-.9h-2.7v10.4l3.2.1zm16.9 2.8v-25.2h-5.1V154h13.2v2.8h-5V182h-3.1zm16-12.1L92.9 182H90l5.5-14.4-5.1-13.6h3.2l4.2 11.2L102 154h2.9l-5.1 13.6 5.5 14.4H102l-4.5-12.1zm14.8-16.2c.9 0 1.9.2 2.7.5.7.3 1.4.8 1.9 1.4.5.7.9 1.4 1.1 2.2.3.9.4 1.9.4 2.9v14.5c.1 1.8-.4 3.6-1.5 5.1-2.6 2.6-6.7 2.6-9.3 0-1.1-1.5-1.6-3.3-1.5-5.1v-3h2.9v3.2c-.1 1.1.2 2.1.8 3 1.2 1.3 3.4 1.4 4.7.2l.2-.2c.6-.9.9-1.9.8-3V169h-4.8v-2.8h4.8v-5.6c.1-1.1-.2-2.1-.8-3-1.2-1.3-3.4-1.4-4.7-.2l-.2.2c-.6.9-.8 1.9-.8 3v2.2h-2.8v-2.1c0-1 .1-2 .4-2.9.2-.8.6-1.6 1.1-2.2.5-.6 1.2-1.1 1.9-1.4.8-.3 1.8-.5 2.7-.5zm12.5 16.1-1.6 2.8v9.4h-3.1v-28h3.1v13.5l7.3-13.5h3.1l-6.9 12.8 7.2 15.2h-3.1l-6-12.2zm16.4-15.8c2.1 0 3.7.5 4.6 1.5 1 1.3 1.5 3 1.4 4.7v1.3c0 1.2-.2 2.5-.7 3.6-.5 1-1.4 1.7-2.5 1.9 1.2.3 2.2 1 2.9 2.1.6 1.2.9 2.5.8 3.9v2.4c.1 1.8-.4 3.5-1.5 4.9-1.3 1.2-3 1.8-4.7 1.7H135v-28h6.2zm-.8 11.9c1 .1 2-.2 2.8-.8.7-.8 1.1-1.9.9-3v-1.6c.1-1-.2-2-.7-2.8-.6-.7-1.5-1-2.3-.9h-3v9l2.3.1zm.9 13.3c2.2 0 3.2-1.3 3.2-3.8v-2.5c.1-1.2-.2-2.3-.9-3.3-.8-.7-1.9-1-2.9-.9H138v10.4l3.3.1zm7.6-18.4c-.1-1.8.5-3.7 1.6-5.1 1.2-1.3 2.9-2 4.7-1.9 1.8-.1 3.5.6 4.8 1.9 1.1 1.5 1.7 3.3 1.6 5.1v14.5c.1 1.8-.5 3.6-1.6 5.1-1.2 1.3-3 2.1-4.8 1.9-1.8.1-3.5-.6-4.7-1.9-1.1-1.5-1.6-3.3-1.6-5.1v-14.5zm3 14.6c-.1 1.1.2 2.1.8 3 1.3 1.4 3.4 1.4 4.8.1l.1-.1c.6-.9.9-1.9.8-3v-14.8c.1-1.1-.2-2.1-.8-3-1.3-1.4-3.4-1.4-4.8-.1l-.1.1c-.6.9-.9 1.9-.8 3v14.8zm14.3-6V182h-3.1v-28h3.1v12.6h6.8V154h3.1v28H173v-12.6h-6.8zm25.3 16.4V182h-11.2v3.8h-2.9v-6.6h1.8c.5-.5.8-1.1.9-1.8.2-.8.3-1.5.3-2.3l1.1-21.2h11v25.2h2.1v6.6h-3.1zm-8.2-10.7c0 .8-.1 1.7-.3 2.5-.2.6-.5 1.2-.9 1.6h7.2v-22.4h-5.1l-.9 18.3zm12.4-14.3c-.1-1.8.4-3.7 1.5-5.1 2.6-2.5 6.8-2.5 9.5 0 1.1 1.5 1.7 3.3 1.6 5.1v14.5c.1 1.8-.5 3.7-1.6 5.1-2.6 2.6-6.8 2.6-9.5 0-1.1-1.5-1.6-3.3-1.5-5.1v-14.5zm3 14.6c-.1 1.1.2 2.1.8 3 1.3 1.4 3.4 1.4 4.8.1l.1-.1c.6-.9.8-1.9.8-3v-14.8c.1-1.1-.2-2.1-.8-3-1.3-1.4-3.4-1.4-4.8-.1l-.1.1c-.6.9-.9 1.9-.8 3v14.8zm19.2-6V182h-3.1v-28h3.1v12.6h6.7V154h3.1v28h-3.1v-12.6h-6.7zm14.8 7-1.1 5.6h-2.8l5.2-28h4.4l5.2 28h-3.1l-1.1-5.6h-6.7zm.4-2.7h6.1l-3.1-16.2-3 16.2zm17.8-20c1.8-.1 3.5.6 4.7 1.9 1.1 1.5 1.6 3.3 1.5 5.1v.7c0 1.3-.2 2.5-.8 3.7-.6 1-1.5 1.8-2.5 2.1 1.1.3 2 1.1 2.6 2.1.6 1.1.8 2.4.8 3.6v2.2c.1 1.8-.4 3.6-1.5 5.1-2.6 2.6-6.7 2.6-9.3 0-1.1-1.5-1.6-3.3-1.5-5.1v-2.7h2.9v2.9c-.1 1.1.2 2.1.8 3 1.2 1.3 3.3 1.4 4.7.2l.2-.2c.6-1 .8-2.1.8-3.2V173c0-2.8-1.2-4.2-3.5-4.2h-1.3V166h1.4c.9 0 1.8-.3 2.4-1 .7-.8 1-1.8.9-2.8v-1.3c.1-1.1-.2-2.3-.8-3.2-1.2-1.3-3.3-1.4-4.7-.2l-.2.2c-.6.9-.9 1.9-.8 3v1.9h-2.8v-1.8c-.1-1.8.4-3.6 1.5-5.1 1-1.4 2.8-2.1 4.5-2zm13.7 11.3c1.8-.1 3.5.5 4.8 1.7 1.1 1.4 1.7 3.3 1.5 5.1v3.4c.1 1.8-.4 3.6-1.5 5-1.2 1.3-2.9 2-4.7 1.8h-6v-28h3.1v11h2.8zm.3 14.1c.9.1 1.8-.3 2.4-1 .5-.9.8-1.9.7-2.9v-3.6c.1-1-.2-2.1-.8-2.9-.7-.6-1.6-.9-2.5-.9H262v11.3h2.9zm11.7-25.1v28h-3v-28h3zm8.1 0c2.1 0 3.7.5 4.6 1.5 1 1.3 1.5 3 1.4 4.7v1.3c0 1.2-.2 2.5-.7 3.6-.5 1-1.4 1.7-2.5 1.9 1.2.3 2.2 1 2.8 2.1.6 1.2.9 2.5.9 3.9v2.4c.1 1.8-.4 3.5-1.5 4.9-1.3 1.2-3 1.8-4.8 1.7h-6.3v-28h6.1zm-.8 11.9c1 .1 2-.2 2.8-.8.7-.8 1.1-1.9.9-3v-1.6c.1-1-.2-2-.7-2.8-.6-.7-1.5-1-2.3-.9h-3v9l2.3.1zm.9 13.3c2.2 0 3.3-1.3 3.3-3.8v-2.5c.1-1.2-.2-2.3-.9-3.3-.8-.7-1.9-1-2.9-.9h-2.7v10.4l3.2.1zm11-2.8-1.1 5.6h-2.8l5.2-28h4.4l5.2 28h-3l-1.1-5.6h-6.8zm.4-2.7h6.1l-3.1-16.2-3 16.2zm25.1-20c1.8-.1 3.5.6 4.7 1.9 1.1 1.5 1.6 3.3 1.5 5.1v14.5c.1 1.8-.5 3.6-1.5 5.1-2.6 2.6-6.8 2.6-9.5 0-1.1-1.5-1.7-3.3-1.6-5.1v-5.8h-4V182h-3v-28h3.1v12.6h4v-5.8c-.1-1.8.5-3.7 1.6-5.1 1.2-1.4 2.9-2.1 4.7-2zm0 2.9c-.9-.1-1.9.3-2.5 1.1-.6.9-.8 1.9-.8 3v14.8c-.1 1.1.2 2.1.8 3 1.3 1.4 3.4 1.4 4.8.1l.1-.1c.6-.9.9-1.9.8-3v-14.8c.1-1.1-.2-2.1-.8-3-.5-.8-1.4-1.2-2.4-1.1zm12.2 25.4v-25.2h-5.1V154h13.2v2.8h-5V182h-3.1zm15.1-28.3c1.8-.1 3.5.6 4.7 1.9 1.1 1.5 1.6 3.3 1.5 5.1v2.5h-2.9v-2.7c.1-1.1-.2-2.1-.8-3-1.3-1.3-3.4-1.4-4.7-.2l-.2.2c-.6.9-.8 1.9-.8 3v14.8c-.1 1.1.2 2.1.8 3 1.3 1.3 3.4 1.4 4.7.2l.2-.2c.6-.9.8-1.9.8-3v-3.6h2.9v3.5c.1 1.8-.4 3.6-1.5 5.1-1.2 1.4-2.9 2.1-4.7 1.9-1.8.1-3.5-.6-4.6-1.9-1.1-1.5-1.6-3.3-1.5-5.1v-14.5c0-1 .1-2 .4-2.9.2-.8.6-1.6 1.1-2.2.5-.6 1.2-1.1 1.9-1.4.8-.3 1.8-.5 2.7-.5zm14.9 16.3c-1.1-.1-2.1.2-3 .9-.8.9-1.1 2.1-1 3.3v4.4c0 .7 0 1.4-.1 2.1-.1.5-.2.9-.3 1.3H356c.2-.5.4-1 .5-1.6.1-.6.1-1.2.1-1.8v-4.4c0-1.3.2-2.6.8-3.8.5-1 1.5-1.8 2.6-2.1-2.2-.7-3.4-2.7-3.4-5.8v-2.3c-.1-1.7.4-3.4 1.4-4.8 1-1.1 2.5-1.6 4.7-1.6h6.1v28h-3.1v-12l-2.2.2zm-.9-13.2c-.9-.1-1.8.3-2.5 1-.5.9-.8 1.9-.7 2.9v2.7c0 1.5.3 2.5 1 3.1.8.6 1.8.8 2.8.8h2.3v-10.4l-2.9-.1zm14.3-2.8h1.3l-1 3.5h1.1v3.9h-2.9v-3.6l1.5-3.8zm4.4 0h1.3l-.9 3.5h1.1v3.9h-2.9v-3.6l1.4-3.8zm8.2 15.8-1.6 2.8v9.4h-3.1v-28h3.1v13.5l7.3-13.5h3.1l-6.9 12.8 7.2 15.2h-3.1l-6-12.2zm19.9-3.4v2.8h-6.7v10h8.3v2.8h-11.3v-28H411v2.8h-8.2v9.6h6.6zm9.2-12.4c2.2 0 3.7.6 4.7 1.8 1 1.5 1.5 3.2 1.5 5v3.4c.1 1.8-.4 3.6-1.5 5.1-1.3 1.2-3.1 1.8-4.8 1.7h-2.7v11h-3.1v-28h5.9zm-.3 14.2c.9.1 1.8-.2 2.5-.9.6-.8.9-1.9.8-2.9v-3.7c.1-1-.2-2-.7-2.9-.6-.7-1.5-1.1-2.4-1h-2.9v11.3l2.7.1zm15.8 7.6c-.2.9-.5 1.9-.8 2.8-.3.8-.7 1.4-1.3 2-.6.5-1.3.9-2.1 1.2-1 .3-2.1.4-3.1.3v-2.8c.9.1 1.8-.1 2.6-.5.7-.6 1.1-1.4 1.3-2.2l.6-1.8L425 154h3.1l2.8 9.7 1.9 7 1.6-7 2.5-9.7h3.2l-6 21.8zm10-19V182h-3v-28H452v2.8h-7.9zM461 169l-4 13h-3.2v-28h2.7v20.9l2.8-8.9 4-12h3.4v28H464v-22.3l-3 9.3zm9-7.6h-1.2l.9-3.5h-1.1V154h2.9v3.6l-1.5 3.8zm4.4 0h-1.3l1-3.5H473V154h2.9v3.6l-1.5 3.8zM14.8 217.1l-4 12.9H7.6v-28h2.7v20.9l2.4-7.7 4.4-13.2h3.4v28h-2.7v-22.3l-3 9.4zM33.3 230v-25.2h-5V202h13.2v2.8h-5.1V230h-3.1zm19.9-15.6v2.8h-6.7v10h8.2v2.8H43.4v-28h11.3v2.8h-8.2v9.6h6.7zm10.9 3.5L59.5 230h-2.9l5.5-14.4L57 202h3.2l4.2 11.2 4.2-11.2h2.9l-5.1 13.6 5.5 14.4h-3.2l-4.6-12.1zm13-.5V230H74v-28h3.1v12.6h6.7V202h3.1v28h-3.1v-12.6h-6.7zm19.9-.3L93 230h-3.2v-28h2.7v20.9l2.4-7.7 4.4-13.2h3.4v28H100v-22.3l-3 9.4zm18.1.5c-.5.7-1.1 1.3-1.9 1.6-.7.4-1.6.6-2.4.6-.8 0-1.7-.2-2.4-.5s-1.3-.8-1.7-1.4c-.5-.6-.8-1.4-1-2.1-.2-.9-.3-1.7-.3-2.6V202h3.1v10.9c-.1 1 .3 2.1.9 2.9.6.8 1.5 1.2 2.5 1.1 1.9 0 3-1.1 3.3-3.3V202h3v28h-3v-12.4zm15.6-3.2v2.8H124v10h8.2v2.8H121v-28h11.3v2.8H124v9.6h6.7zm10-12.7c1.8-.1 3.5.6 4.7 1.9 1.1 1.5 1.6 3.3 1.5 5.1v2.5H144v-2.7c.1-1.1-.2-2.1-.8-3-.6-.7-1.5-1.1-2.4-1.1-.9-.1-1.8.3-2.4 1.1-.6.9-.8 1.9-.8 3v14.8c-.1 1.1.2 2.1.8 3 .6.7 1.5 1.1 2.4 1.1.9.1 1.9-.3 2.4-1.1.6-.9.8-1.9.8-3v-3.6h2.9v3.5c.1 1.8-.4 3.6-1.5 5.1-2.6 2.6-6.7 2.6-9.3 0-1.1-1.5-1.6-3.3-1.5-5.1v-14.5c0-1 .1-2 .4-2.9.2-.8.6-1.6 1.1-2.2.5-.6 1.2-1.1 1.9-1.4.9-.3 1.8-.5 2.7-.5zm13.4 16.1-1.6 2.8v9.4h-3.1v-28h3.1v13.5l7.3-13.5h3.1l-6.9 12.8 7.2 15.2H160l-5.9-12.2zm18.3-.7-4 12.9h-3.2v-28h2.7v20.9l2.4-7.7 4.4-13.2h3.4v28h-2.7v-22.3l-3 9.4zm16-.6-4.3 13.5h-3.2v-28h2.7v20.9l2.6-8.1 4.3-12.8h3.4v28h-2.7v-22.3l-2.8 8.8zm3.4-20.2c.1 1.1-.3 2.1-1.1 2.9-.9.7-2 1.1-3.1 1-1.1.1-2.2-.3-3.1-1-.8-.8-1.2-1.8-1.2-2.9h1.9c0 .6.2 1.2.7 1.6.5.3 1 .5 1.6.4.6 0 1.1-.1 1.6-.4.5-.4.7-1 .7-1.6h2zm15.4 21.5-1.6 2.8v9.4h-3.1v-28h3.1v13.5l7.3-13.5h3.1l-6.9 12.8 7.2 15.2h-3.1l-6-12.2zm10.9-9c-.1-1.8.4-3.7 1.5-5.1 2.6-2.5 6.8-2.5 9.5 0 1.1 1.5 1.7 3.3 1.6 5.1v14.5c.1 1.8-.5 3.6-1.6 5.1-2.6 2.6-6.8 2.6-9.5 0-1.1-1.5-1.6-3.3-1.5-5.1v-14.5zm3 14.6c-.1 1.1.2 2.1.8 3 1.3 1.4 3.4 1.4 4.8.1l.1-.1c.6-.9.8-1.9.8-3v-14.8c.1-1.1-.2-2.1-.8-3-1.3-1.4-3.4-1.4-4.8-.1l-.1.1c-.6.9-.9 1.9-.8 3v14.8zm22.3 6.6h-2.9l-4.6-22.3V230h-2.7v-28h4.3l4.5 22.4 4.4-22.4h4.3v28h-2.9v-22.5l-4.4 22.5zm13.2-25.2V230h-3.1v-28h12.9v28h-3.1v-25.2h-6.7zm18.5 0-.6 18.2c0 1-.2 2-.4 3-.1.8-.5 1.5-.9 2.2-.4.6-1 1.1-1.7 1.4-.8.3-1.7.5-2.6.5h-.5v-2.9c.5 0 1-.1 1.5-.2.4-.1.7-.4.9-.7.2-.4.4-.8.5-1.3.1-.6.1-1.2.1-1.8l.8-21.2h11.2v28h-3.1v-25.2h-5.2zm21 9.6v2.8h-6.7v10h8.2v2.8h-11.3v-28h11.3v2.8h-8.2v9.6h6.7zm8.8 3.4-1.6 2.8v9.4h-3v-28h3v13.5l7.3-13.5h3.1l-6.9 12.8L314 230h-3.1l-6-12.2zm17-16.1c1.8-.1 3.5.6 4.7 1.9 1.1 1.5 1.6 3.3 1.5 5.1v2.5h-2.9v-2.7c.1-1.1-.2-2.1-.8-3-1.3-1.3-3.4-1.4-4.7-.2l-.2.2c-.6.9-.8 1.9-.8 3v14.8c-.1 1.1.2 2.1.8 3 1.3 1.3 3.4 1.4 4.7.2l.2-.2c.6-.9.8-1.9.8-3v-3.6h2.9v3.5c.1 1.8-.4 3.6-1.5 5.1-1.2 1.4-2.9 2.1-4.7 1.9-1.8.1-3.5-.6-4.6-1.9-1.1-1.5-1.6-3.3-1.5-5.1v-14.5c0-1 .1-2 .4-2.9.2-.8.6-1.6 1.1-2.2.5-.6 1.2-1.1 1.9-1.4.8-.3 1.7-.5 2.7-.5zm14.3 12.9h7.5v2.8h-7.5v-2.8zm17.6-12.6h1.3l-1 3.5h1.1v3.9h-2.9v-3.6l1.5-3.8zm4.4 0h1.3l-.9 3.5h1.1v3.9h-2.9v-3.6l1.4-3.8zm7.5 2.8V230h-3.1v-28h12.9v28h-3.1v-25.2h-6.7zm19.5 13.1-4.6 12.1h-2.9l5.5-14.4L378 202h3.2l4.2 11.2 4.3-11.2h2.9l-5.1 13.6L393 230h-3.2l-4.6-12.1zm18.2 5.9c-.2.9-.5 1.9-.8 2.8-.3.8-.7 1.4-1.3 2-.6.6-1.3.9-2.1 1.2-1 .2-2.1.3-3.1.2v-2.8c.9.1 1.8-.1 2.6-.5.7-.6 1.1-1.3 1.3-2.2l.6-1.8-6.3-20.6h3.1l2.8 9.7 1.9 7 1.6-7 2.5-9.7h3.2l-6 21.7zm17.9 6.2h-2.9l-4.5-22.3V230h-2.7v-28h4.3l4.5 22.4 4.4-22.4h4.3v28h-2.9v-22.5l-4.5 22.5zm16-28.3c1.8-.1 3.5.6 4.7 1.9 1.1 1.5 1.6 3.3 1.5 5.1v2.5h-2.9v-2.7c.1-1.1-.2-2.1-.8-3-1.3-1.3-3.4-1.4-4.7-.2l-.2.2c-.6.9-.8 1.9-.8 3v14.8c-.1 1.1.2 2.1.8 3 1.3 1.3 3.4 1.4 4.7.2l.2-.2c.6-.9.8-1.9.8-3v-3.6h2.9v3.5c.1 1.8-.4 3.6-1.5 5.1-1.2 1.4-2.9 2.1-4.7 1.9-1.8.1-3.5-.6-4.6-1.9-1.1-1.5-1.6-3.3-1.5-5.1v-14.5c0-1 .1-2 .4-2.9.2-.8.6-1.6 1.1-2.2.5-.6 1.2-1.1 1.9-1.4.9-.3 1.8-.5 2.7-.5zm14.6 0c.9 0 1.9.2 2.7.5.7.3 1.4.8 1.9 1.4.5.7.9 1.4 1.1 2.2.3.9.4 1.9.4 2.9v14.5c.1 1.8-.4 3.6-1.5 5.1-2.6 2.6-6.7 2.6-9.3 0-1.1-1.5-1.6-3.3-1.5-5.1v-3h2.9v3.2c-.1 1.1.2 2.1.8 3 1.2 1.3 3.4 1.4 4.7.2l.2-.2c.6-.9.8-1.9.8-3V217h-4.8v-2.8h4.8v-5.6c.1-1.1-.2-2.1-.8-3-1.2-1.3-3.4-1.4-4.7-.2l-.2.2c-.6.9-.9 1.9-.8 3v2.2h-2.8v-2.1c0-1 .1-2 .4-2.9.2-.8.6-1.6 1.1-2.2.5-.6 1.2-1.1 1.9-1.4.8-.3 1.7-.5 2.7-.5zm10.2 7.7h-1.3l.9-3.5h-1.1V202h2.9v3.6l-1.4 3.8zm4.4 0h-1.3l1-3.5H465V202h3v3.6l-1.5 3.8zm7.5 16.7v3.9h-3v-3.9h3zM7.3 256.8c-.1-1.8.5-3.7 1.6-5.1 1.2-1.3 2.9-2 4.7-1.9 1.8-.1 3.5.6 4.8 1.9 1.1 1.5 1.7 3.3 1.6 5.1v14.5c.1 1.8-.5 3.6-1.6 5.1-1.2 1.3-3 2.1-4.8 1.9-1.8.1-3.5-.6-4.7-1.9-1.1-1.5-1.6-3.3-1.6-5.1v-14.5zm3 14.6c-.1 1.1.2 2.1.8 3 .6.7 1.5 1.1 2.4 1.1.9.1 1.9-.3 2.5-1.1.6-.9.9-1.9.8-3v-14.8c.1-1.1-.2-2.1-.8-3-.6-.7-1.5-1.1-2.5-1.1-.9-.1-1.9.3-2.4 1.1-.6.9-.9 1.9-.8 3v14.8zm18.8-9.8c1.8-.1 3.5.4 4.8 1.6 1.1 1 1.6 2.7 1.6 5v3.1c.1 1.8-.4 3.6-1.5 5-1.2 1.3-3 1.9-4.8 1.8h-6.4v-28h11.6v2.8h-8.5v8.7h3.2zm.1 13.6c.9.1 1.8-.3 2.5-.9.6-.8.9-1.8.8-2.9v-3.5c.1-1-.2-2-.9-2.8-.7-.6-1.6-.8-2.5-.8h-3.2v10.8h3.3zm12.4-2.8-1.1 5.6h-2.8l5.2-28h4.4l5.3 28h-3.1l-1.1-5.6h-6.8zm.4-2.7h6.1L45 253.5l-3 16.2zm22.2-4.3V278h-3.1v-28h3.1v12.6H71V250h3v28h-3v-12.6h-6.8zm16 7-1.1 5.6h-2.8l5.3-28H86l5.3 28h-3l-1.1-5.6h-7zm.4-2.7h6.1l-3.1-16.2-3 16.2zm16.2-16.9V278h-3.1v-28h12.9v28h-3.1v-25.2h-6.7zm18.9-2.8c2.2 0 3.7.6 4.7 1.8 1 1.5 1.6 3.2 1.4 5v3.4c.1 1.8-.4 3.6-1.5 5.1-1.3 1.2-3.1 1.9-4.8 1.7h-2.7v11h-3.1v-28h6zm-.3 14.2c.9.1 1.9-.2 2.6-.9.6-.8.9-1.9.8-2.9v-3.7c.1-1-.2-2-.7-2.9-.6-.7-1.5-1.1-2.4-1h-2.9v11.3l2.6.1zm11.9 8.2-1.1 5.6h-2.8l5.2-28h4.4l5.3 28h-3.1l-1.1-5.6h-6.8zm.4-2.7h6.1l-3.1-16.2-3 16.2zm19.2-19.7c2.1 0 3.7.5 4.6 1.5 1 1.3 1.5 3 1.4 4.7v1.3c0 1.2-.2 2.5-.7 3.6-.5 1-1.4 1.7-2.5 1.9 1.2.3 2.2 1 2.8 2.1.6 1.2.9 2.5.8 3.9v2.4c.1 1.8-.4 3.5-1.5 4.9-1.3 1.2-3 1.8-4.7 1.7h-6.3v-28h6.1zm-.7 11.9c1 .1 2-.2 2.8-.8.7-.8 1.1-1.9.9-3v-1.6c.1-1-.2-2-.7-2.8-.6-.7-1.5-1-2.3-.9h-3v9l2.3.1zm.9 13.3c2.2 0 3.2-1.3 3.2-3.8v-2.5c.1-1.2-.2-2.3-.9-3.3-.8-.7-1.9-1-2.9-.9h-2.7v10.4h3.3zm14.9-22.4-.6 18.2c0 1-.2 2-.4 3-.1.8-.5 1.5-.9 2.2-.4.6-1 1.1-1.7 1.4-.8.3-1.7.5-2.6.5h-.5v-2.9c.5 0 1-.1 1.5-.2.4-.1.7-.4.9-.7.2-.4.4-.8.4-1.3.1-.6.1-1.2.2-1.8l.7-21.2h11.2v28h-3.1v-25.2H162zm21.3 9.6v2.8h-6.7v10h8.2v2.8h-11.3v-28h11.3v2.8h-8.2v9.6h6.7zm7.4 3V278h-3.1v-28h3.1v12.6h6.7V250h3.1v28h-3.1v-12.6h-6.7zm20.2-.3-4 12.9h-3.2v-28h2.7v20.9l2.4-7.7 4.4-13.2h3.4v28h-2.8v-22.3l-2.9 9.4zm15.9.9c-1.1-.1-2.1.2-3 .9-.8.9-1.1 2.1-1 3.3v4.4c0 .7 0 1.4-.1 2.1-.1.4-.2.9-.4 1.3h-3.1c.2-.5.4-1 .4-1.6.1-.6.1-1.2.1-1.8v-4.4c0-1.3.2-2.6.8-3.8.5-1 1.5-1.8 2.6-2.1-2.2-.8-3.4-2.7-3.4-5.8v-2.2c-.1-1.7.4-3.4 1.4-4.8 1-1.1 2.5-1.6 4.7-1.6h6.1v28h-3.1v-12l-2 .1zm-.9-13.2c-.9-.1-1.8.3-2.4 1-.5.9-.8 1.9-.7 2.9v2.7c0 1.5.3 2.5 1 3.1.8.6 1.8.8 2.8.8h2.3v-10.4l-3-.1zm21.5-2.8c2.1 0 3.7.5 4.6 1.5 1 1.3 1.5 3 1.4 4.7v1.3c0 1.2-.2 2.5-.7 3.6-.5 1-1.4 1.7-2.5 1.9 1.2.3 2.2 1 2.8 2.1.6 1.2.9 2.5.9 3.9v2.4c.1 1.8-.4 3.5-1.5 4.9-1.3 1.2-3 1.8-4.8 1.7h-6.3v-28h6.1zm-.8 11.9c1 .1 2-.2 2.8-.8.7-.8 1.1-1.9.9-3v-1.6c.1-1-.2-2-.7-2.8-.6-.7-1.5-1-2.3-.9h-3v9l2.3.1zm.9 13.3c2.2 0 3.3-1.3 3.3-3.8v-2.5c.1-1.2-.2-2.3-.9-3.3-.8-.7-1.9-1-2.9-.9h-2.7v10.4h3.2zm13.7-9.4-1.6 2.8v9.4h-3.1v-28h3.1v13.5l7.3-13.5h3.1l-6.9 12.8 7.2 15.2h-3.1l-6-12.2zm17.2-13-.6 18.2c0 1-.2 2-.4 3-.1.8-.5 1.5-.9 2.2-.4.6-1 1.1-1.7 1.4-.8.3-1.7.5-2.6.5h-.5v-2.9c.5 0 1-.1 1.5-.2.4-.1.7-.4.9-.7.2-.4.4-.8.5-1.3.1-.6.1-1.2.2-1.8l.7-21.2h11.2v28h-3v-25.2h-5.3zm24.9-3.1c1.8-.1 3.5.6 4.7 1.9 1.1 1.5 1.6 3.3 1.5 5.1v14.5c.1 1.8-.5 3.6-1.5 5.1-1.2 1.3-2.9 2.1-4.7 1.9-1.8.1-3.6-.6-4.8-1.9-1.1-1.5-1.7-3.3-1.6-5.1v-5.8h-4V278h-3v-28h3v12.6h4v-5.8c-.1-1.8.5-3.7 1.6-5.1 1.3-1.4 3.1-2.1 4.8-2zm0 2.9c-.9-.1-1.9.3-2.5 1.1-.6.9-.9 1.9-.8 3v14.8c-.1 1.1.2 2.1.8 3 1.3 1.4 3.4 1.4 4.8.1.1 0 .1-.1.1-.1.6-.9.9-1.9.8-3v-14.8c.1-1.1-.2-2.1-.8-3-.5-.8-1.4-1.2-2.4-1.1zm18.8 13c-.5.7-1.1 1.3-1.9 1.6-.7.4-1.6.6-2.4.6-.8 0-1.7-.2-2.4-.5s-1.3-.8-1.7-1.4c-.5-.6-.8-1.4-1-2.1-.2-.9-.3-1.7-.3-2.6V250h3.1v10.9c0 1 .3 2.1.9 2.9.6.8 1.5 1.2 2.5 1.1 1.9 0 3-1.1 3.3-3.3V250h3v28h-3v-12.4zm15.9-3.2v2.8h-6.7v10h8.2v2.8h-11.3v-28h11.3v2.8h-8.2v9.6h6.7zm7.4 3V278h-3v-28h3v12.6h6.8V250h3v28h-3v-12.6h-6.8zm18.7-4.4c1.8-.2 3.5.5 4.8 1.7 1.1 1.4 1.7 3.2 1.5 5.1v3.4c.1 1.8-.4 3.6-1.5 5-1.2 1.3-2.9 2-4.7 1.8h-6v-28h3.1v11h2.8zm.3 14.1c.9.1 1.8-.3 2.4-1 .5-.9.8-1.9.7-2.9v-3.6c.1-1-.2-2.1-.8-2.9-.7-.6-1.6-.9-2.5-.9h-2.7v11.3h2.9zm11.7-25.1v28h-3v-28h3zm15.4 0c2.1 0 3.7.5 4.6 1.5 1 1.3 1.5 3 1.4 4.7v1.3c.1 1.2-.2 2.5-.7 3.6-.5 1-1.4 1.7-2.5 1.9 1.2.3 2.2 1.1 2.8 2.1.6 1.2.9 2.5.8 3.9v2.4c.1 1.8-.4 3.5-1.5 4.9-1.3 1.2-3 1.8-4.7 1.7h-6.3v-28h6.1zm-.8 11.9c1 .1 2-.2 2.8-.8.6-.5.9-1.5.9-3v-1.6c.1-1-.2-2-.7-2.8-.6-.7-1.5-1-2.3-.9h-3v9l2.3.1zm.9 13.3c2.2 0 3.3-1.3 3.3-3.8v-2.5c.1-1.2-.2-2.3-.9-3.3-.8-.7-1.9-1-2.9-.9h-2.7v10.4h3.2zm24.9-12.8v2.8h-6.7v10h8.2v2.8h-11.3v-28H418v2.8h-8.2v9.6h6.7zM427 250c2.1 0 3.7.5 4.6 1.5 1 1.3 1.5 3 1.4 4.7v1.3c0 1.2-.2 2.5-.7 3.6-.5 1-1.4 1.7-2.5 1.9 1.2.3 2.2 1 2.8 2.1.6 1.2.9 2.5.9 3.9v2.4c.1 1.8-.4 3.5-1.5 4.9-1.3 1.2-3 1.8-4.7 1.7H421v-28h6zm-.8 11.9c1 .1 2-.2 2.8-.8.7-.8 1.1-1.9.9-3v-1.6c.1-1-.2-2-.7-2.8-.6-.7-1.5-1-2.3-.9h-3v9l2.3.1zm1 13.3c2.2 0 3.2-1.3 3.2-3.8v-2.5c.1-1.2-.2-2.3-.9-3.3-.8-.7-1.9-1-2.9-.9h-2.7v10.4h3.3zm14.9-25.5c1.8-.1 3.5.6 4.7 1.9 1.1 1.5 1.6 3.3 1.5 5.1v2.5h-2.9v-2.7c.1-1.1-.2-2.1-.8-3-1.3-1.3-3.4-1.4-4.7-.2l-.2.2c-.6.9-.9 1.9-.8 3v14.8c-.1 1.1.2 2.1.8 3 1.3 1.3 3.4 1.4 4.7.2l.2-.2c.6-.9.8-1.9.8-3v-3.6h2.9v3.5c.1 1.8-.4 3.6-1.5 5.1-2.6 2.6-6.7 2.6-9.3 0-1.1-1.5-1.6-3.3-1.5-5.1v-14.5c0-1 .1-2 .4-2.9.2-.8.6-1.6 1.1-2.2.5-.6 1.2-1.1 1.9-1.4.9-.3 1.8-.5 2.7-.5zm13.7 16.1-1.6 2.8v9.4h-3v-28h3v13.5l7.3-13.5h3.1l-6.9 12.8 7.2 15.2h-3.1l-6-12.2zm12.7 12.2h-1.1v-3.9h2.9v3.6l-1.5 3.8h-1.3l1-3.5zM17.1 313.6c-.5.7-1.1 1.3-1.9 1.6-.7.4-1.6.6-2.4.6-.8 0-1.7-.2-2.4-.5s-1.3-.8-1.7-1.4c-.5-.6-.8-1.4-1-2.1-.2-.9-.3-1.7-.3-2.6V298h3.1v10.9c0 1 .3 2.1.9 2.9.6.8 1.5 1.2 2.5 1.2 1.9 0 3-1.1 3.3-3.3V298h3v28h-3v-12.4zm9.4 12.4v-25.2h-5.1V298h13.2v2.8h-5.1V326h-3zm9.2-21.2c-.1-1.8.5-3.7 1.5-5.1 1.2-1.3 2.9-2 4.7-1.9 1.8-.1 3.5.6 4.7 1.9 1.1 1.5 1.7 3.3 1.6 5.1v14.5c.1 1.8-.5 3.6-1.6 5.1-1.2 1.3-2.9 2-4.7 1.9-1.8.1-3.5-.6-4.7-1.9-1.1-1.5-1.6-3.3-1.5-5.1v-14.5zm3 14.6c-.1 1.1.2 2.1.8 3 .6.8 1.6 1.1 2.5 1 .9.1 1.9-.3 2.5-1.1.6-.9.8-1.9.8-3v-14.8c.1-1.1-.2-2.1-.8-3-.6-.7-1.5-1.1-2.5-1-.9-.1-1.9.3-2.5 1.1-.6.9-.9 1.9-.8 3v14.8zm19.6-18.6V326h-3.1v-28h12.9v28H65v-25.2h-6.7zm11.8 4c-.1-1.8.5-3.7 1.6-5.1 1.2-1.3 2.9-2 4.7-1.9 1.8-.1 3.5.6 4.8 1.9 1.1 1.5 1.7 3.3 1.6 5.1v14.5c.1 1.8-.5 3.6-1.6 5.1-1.2 1.3-3 2.1-4.8 1.9-1.8.1-3.5-.6-4.7-1.9-1.1-1.5-1.6-3.3-1.6-5.1v-14.5zm3 14.6c-.1 1.1.2 2.1.8 3 1.3 1.4 3.4 1.4 4.8.1l.1-.1c.6-.9.9-1.9.8-3v-14.8c.1-1.1-.2-2.1-.8-3-1.3-1.4-3.4-1.4-4.8-.1l-.1.1c-.6.9-.9 1.9-.8 3v14.8zm17.5-21.7c1.8-.1 3.5.6 4.7 1.9 1.1 1.5 1.6 3.3 1.5 5.1v.7c0 1.3-.3 2.5-.8 3.7-.6 1-1.5 1.8-2.5 2.1 1.1.3 2 1.1 2.6 2.1.6 1.1.8 2.4.8 3.6v2.2c.1 1.8-.4 3.6-1.5 5.1-1.2 1.4-2.9 2.1-4.7 1.9-1.8.1-3.5-.6-4.6-1.9-1.1-1.5-1.6-3.3-1.5-5.1v-2.7h2.9v2.9c-.1 1.1.2 2.1.8 3 .6.7 1.5 1.1 2.4 1.1.9.1 1.9-.3 2.4-1.1.6-1 .8-2.1.8-3.2V317c0-2.8-1.2-4.2-3.5-4.2h-1.3V310h1.4c.9 0 1.8-.3 2.4-1 .7-.8 1-1.8.9-2.8v-1.3c.1-1.1-.2-2.3-.8-3.2-.6-.8-1.5-1.2-2.4-1.1-.9-.1-1.9.3-2.5 1.1-.6.9-.8 1.9-.8 3v1.9h-2.8v-1.8c-.1-1.8.4-3.6 1.5-5.1 1.1-1.4 2.8-2.1 4.6-2zm14.3.3c2.1 0 3.7.5 4.6 1.5 1 1.3 1.5 3 1.4 4.7v1.3c0 1.2-.2 2.5-.7 3.6-.5 1-1.4 1.7-2.5 1.9 1.2.3 2.2 1 2.8 2.1.6 1.2.9 2.5.8 3.9v2.4c.1 1.8-.4 3.5-1.5 4.9-1.3 1.2-3 1.8-4.8 1.7h-6.3v-28h6.2zm-.7 11.9c1 .1 2-.2 2.8-.8.7-.8 1.1-1.9.9-3v-1.6c.1-1-.2-2-.7-2.8-.6-.7-1.5-1-2.3-.9h-3v9l2.3.1zm.9 13.3c2.2 0 3.3-1.3 3.3-3.8v-2.5c.1-1.2-.2-2.3-.9-3.3-.8-.7-1.9-1-2.9-.9h-2.7v10.4h3.2zm7.8-18.4c-.1-1.8.4-3.7 1.5-5.1 2.6-2.5 6.8-2.5 9.5 0 1.1 1.5 1.7 3.3 1.6 5.1v14.5c.1 1.8-.5 3.7-1.6 5.1-2.6 2.6-6.8 2.6-9.5 0-1.1-1.5-1.6-3.3-1.5-5.1v-14.5zm3 14.6c-.1 1.1.2 2.1.8 3 1.3 1.4 3.4 1.4 4.8.1l.1-.1c.6-.9.8-1.9.8-3v-14.8c.1-1.1-.2-2.1-.8-3-1.3-1.4-3.4-1.4-4.8-.1l-.1.1c-.6.9-.9 1.9-.8 3v14.8zm17.3-18.6-.6 18.2c0 1-.2 2-.4 3-.1.8-.5 1.5-.9 2.2-.4.6-1 1.1-1.7 1.4-.8.3-1.7.5-2.6.5h-.5v-2.9c.5 0 1-.1 1.5-.2.4-.1.7-.4.9-.7.2-.4.4-.8.5-1.3.1-.6.1-1.2.1-1.8l.8-21.2h11.2v28h-3.1v-25.2h-5.2zm17.7 13.2c-1.1-.1-2.1.2-3 .9-.8.9-1.1 2.1-1 3.3v4.4c0 .7 0 1.4-.1 2.1-.1.4-.2.9-.4 1.3h-3.1c.2-.5.4-1 .4-1.6.1-.6.1-1.2.1-1.8v-4.4c0-1.3.2-2.6.8-3.8.5-1 1.5-1.8 2.6-2.1-2.2-.7-3.4-2.7-3.4-5.8v-2.2c-.1-1.7.4-3.4 1.4-4.8 1-1.1 2.5-1.6 4.7-1.6h6.1v28h-3.1v-12h-2zm-.8-13.2c-.9-.1-1.8.3-2.4 1-.5.9-.8 1.9-.7 2.9v2.7c0 1.5.3 2.5 1 3.1.8.6 1.8.8 2.8.8h2.3v-10.4l-3-.1zm18 9.6v2.8h-6.7v10h8.2v2.8h-11.3v-28h11.3v2.8h-8.2v9.6h6.7zm7.5 15.6v-25.2h-5.1V298h13.2v2.8h-5.1V326h-3zm17.6-25.2V326h-3v-28H203v28h-3.1v-25.2h-6.7zm11.7 4c-.1-1.8.5-3.7 1.6-5.1 1.2-1.3 2.9-2 4.7-1.9 1.8-.1 3.5.6 4.7 1.9 1.1 1.5 1.7 3.3 1.6 5.1v14.5c.1 1.8-.5 3.6-1.6 5.1-1.2 1.3-2.9 2.1-4.7 1.9-1.8.1-3.5-.6-4.7-1.9-1.1-1.5-1.6-3.3-1.6-5.1v-14.5zm3 14.6c-.1 1.1.2 2.1.8 3 1.3 1.4 3.4 1.4 4.8.1l.1-.1c.6-.9.8-1.9.8-3v-14.8c.1-1.1-.2-2.1-.8-3-1.3-1.4-3.4-1.4-4.8-.1l-.1.1c-.6.9-.9 1.9-.8 3v14.8zm17.3-18.6-.6 18.2c0 1-.2 2-.4 3-.1.8-.5 1.5-.9 2.2-.4.6-1 1.1-1.7 1.4-.8.3-1.7.5-2.6.5h-.5v-2.9c.5 0 1-.1 1.5-.2.4-.1.7-.4.9-.7.2-.4.4-.8.5-1.3.1-.6.1-1.2.1-1.8l.8-21.2h11.2v28h-3.1v-25.2h-5.2zm18.9 19c-.2.9-.5 1.9-.8 2.8-.3.8-.7 1.4-1.3 2-.6.5-1.3.9-2.1 1.2-1 .3-2.1.4-3.1.3v-2.8c.9.1 1.8-.1 2.6-.5.7-.6 1.1-1.4 1.3-2.2l.6-1.8L235 298h3l2.8 9.7 1.9 7 1.6-7 2.5-9.7h3.2l-5.9 21.8zm16.6-6.2c-.5.7-1.1 1.3-1.9 1.6-.7.4-1.6.6-2.4.6-.8 0-1.7-.2-2.4-.5s-1.3-.8-1.7-1.4c-.5-.6-.8-1.4-1-2.1-.2-.9-.3-1.7-.3-2.6V298h3.1v10.9c0 1 .3 2.1.9 2.9.6.8 1.5 1.2 2.5 1.1 1.9 0 3-1.1 3.3-3.3V298h3v28h-3v-12.4zm8.3 6.8-1 5.6h-2.8l5.3-28h4.4l5.2 28H277l-1-5.6h-7zm.4-2.7h6.1l-3.1-16.2-3 16.2zm16.3 8.3v-25.2h-5V298h13.2v2.8h-5.1V326h-3.1zm15.2-17c1.8-.2 3.5.5 4.8 1.7 1.1 1.4 1.7 3.2 1.5 5.1v3.4c.1 1.8-.4 3.6-1.5 5-1.2 1.3-2.9 2-4.7 1.8h-6v-28h3.1v11h2.8zm.2 14.1c.9.1 1.8-.3 2.4-1 .5-.9.8-1.9.7-2.9v-3.6c.1-1-.2-2.1-.8-2.9-.7-.6-1.6-.9-2.5-.9h-2.7v11.3h2.9zM17.7 374h-2.9l-4.6-22.3V374H7.5v-28h4.3l4.5 22.4 4.3-22.4h4.3v28H22v-22.5L17.7 374zm13.5-5.6-1.1 5.6h-2.8l5.2-28H37l5.2 28h-3.1l-1.1-5.6h-6.8zm.4-2.7h6.1l-3.1-16.2-3 16.2zm18.9-20c1.8-.1 3.5.6 4.7 1.9 1.1 1.5 1.6 3.3 1.5 5.1v2.5h-2.9v-2.7c.1-1.1-.2-2.1-.8-3-1.3-1.3-3.4-1.4-4.7-.2l-.2.2c-.6.9-.9 1.9-.8 3v14.8c-.1 1.1.2 2.1.8 3 1.3 1.3 3.4 1.4 4.7.2l.2-.2c.6-.9.8-1.9.8-3v-3.6h2.9v3.5c.1 1.8-.4 3.6-1.5 5.1-1.2 1.4-2.9 2.1-4.7 1.9-1.8.1-3.5-.6-4.7-1.9-1.1-1.5-1.6-3.3-1.5-5.1v-14.5c0-1 .1-2 .4-2.9.2-.8.6-1.6 1.1-2.2.5-.6 1.2-1.1 1.9-1.4 1-.3 1.9-.5 2.8-.5zm14.9 0c1.8-.1 3.5.6 4.7 1.9 1.1 1.5 1.6 3.3 1.5 5.1v2.5h-2.9v-2.7c.1-1.1-.2-2.1-.8-3-.6-.7-1.5-1.1-2.4-1.1-.9-.1-1.8.3-2.4 1.1-.6.9-.8 1.9-.8 3v14.8c-.1 1.1.2 2.1.8 3 .6.7 1.5 1.1 2.4 1.1 1 .1 1.9-.3 2.5-1.1.6-.9.8-1.9.8-3v-3.6h2.9v3.5c.1 1.8-.4 3.6-1.5 5.1-1.2 1.3-2.9 2.1-4.7 1.9-1.8.1-3.5-.6-4.7-1.9-1.1-1.5-1.6-3.3-1.5-5.1v-14.5c0-1 .1-2 .4-2.9.2-.8.6-1.6 1.1-2.2.5-.6 1.2-1.1 1.9-1.4.9-.3 1.8-.5 2.7-.5zm8.8 7.1c-.1-1.8.4-3.7 1.5-5.1 1.2-1.3 2.9-2 4.7-1.9 1.8-.1 3.5.6 4.7 1.9 1.1 1.5 1.7 3.3 1.6 5.1v14.5c.1 1.8-.5 3.7-1.6 5.1-1.2 1.3-2.9 2.1-4.7 1.9-1.8.1-3.5-.6-4.7-1.9-1.1-1.5-1.6-3.3-1.5-5.1v-14.5zm3 14.6c-.1 1.1.2 2.1.8 3 1.3 1.4 3.4 1.4 4.8.1l.1-.1c.6-.9.8-1.9.8-3v-14.8c.1-1.1-.2-2.1-.8-3-1.3-1.4-3.4-1.4-4.8-.1l-.1.1c-.6.9-.9 1.9-.8 3v14.8zM95.8 346c2.2 0 3.7.5 4.6 1.5 1 1.3 1.5 3 1.4 4.7v1.3c.1 1.2-.2 2.5-.7 3.6-.5 1-1.4 1.7-2.5 1.9 1.2.3 2.2 1 2.8 2.1.6 1.2.9 2.5.8 3.9v2.4c.1 1.8-.4 3.5-1.5 4.9-1.2 1.2-3 1.8-4.7 1.7h-6.3v-28h6.1zm-.7 11.9c1 .1 2-.2 2.8-.8.6-.5.9-1.5.9-3v-1.6c.1-1-.2-2-.7-2.8-.6-.7-1.5-1-2.3-.9h-3v9l2.3.1zm.9 13.3c2.2 0 3.3-1.3 3.2-3.8v-2.5c.1-1.2-.2-2.3-.9-3.3-.8-.7-1.9-1-2.9-.9h-2.7v10.4H96zm14.8-14.2c1.8-.2 3.5.5 4.8 1.7 1.1 1.4 1.7 3.2 1.6 5.1v3.4c.1 1.8-.4 3.6-1.5 5-1.2 1.3-2.9 2-4.7 1.9h-6v-28h3v11h2.8zm.2 14.1c.9.1 1.8-.3 2.4-1 .5-.9.8-1.9.7-2.9v-3.6c.1-1-.2-2.1-.8-2.9-.7-.6-1.6-.9-2.6-.9H108v11.3h3zm11.7-25.1v28h-3v-28h3zm12.9 12.4v2.8h-6.7v10h8.2v2.8h-11.3v-28h11.3v2.8h-8.2v9.6h6.7zm16.5-12.4c2.2 0 3.7.6 4.7 1.8 1 1.5 1.6 3.2 1.4 5v3.4c.1 1.8-.4 3.6-1.6 5.1-1.3 1.2-3.1 1.9-4.8 1.7h-2.7v11H146v-28h6.1zm-.3 14.2c.9.1 1.9-.2 2.6-.9.6-.8.9-1.9.8-2.9v-3.7c.1-1-.2-2-.7-2.9-.6-.7-1.5-1.1-2.4-1h-2.9v11.3l2.6.1zm11.9 8.2-1.1 5.6h-2.8l5.2-28h4.4l5.2 28h-3.1l-1.1-5.6h-6.7zm.4-2.7h6.1l-3.1-16.2-3 16.2zm19-20c1.8-.1 3.5.6 4.7 1.9 1.1 1.5 1.6 3.3 1.5 5.1v.7c0 1.3-.2 2.5-.8 3.7-.6 1-1.5 1.8-2.5 2.1 1.1.3 2 1.1 2.6 2.1.6 1.1.8 2.4.8 3.6v2.2c.1 1.8-.4 3.6-1.5 5.1-1.2 1.4-2.9 2.1-4.7 1.9-1.8.1-3.5-.6-4.6-1.9-1.1-1.5-1.6-3.3-1.5-5.1v-2.7h2.9v2.9c-.1 1.1.2 2.1.8 3 1.2 1.3 3.3 1.4 4.7.2l.2-.2c.6-1 .8-2.1.8-3.2V365c0-2.8-1.2-4.2-3.5-4.2h-1.3V358h1.4c.9 0 1.8-.3 2.4-1 .7-.8 1-1.8.9-2.8v-1.3c.1-1.1-.2-2.3-.8-3.2-1.2-1.3-3.3-1.4-4.7-.2l-.2.2c-.6.9-.8 1.9-.8 3v1.9H177v-1.8c-.1-1.8.4-3.6 1.5-5.1 1.1-1.4 2.9-2.1 4.6-2zm15.2.3c2.2 0 3.7.6 4.7 1.8 1 1.5 1.6 3.2 1.4 5v3.4c.1 1.8-.4 3.6-1.5 5.1-1.3 1.2-3.1 1.8-4.8 1.7h-2.7v11h-3.1v-28h6zm-.2 14.2c.9.1 1.8-.2 2.5-.9.6-.8.9-1.9.8-2.9v-3.7c.1-1-.2-2-.7-2.9-.6-.7-1.5-1.1-2.4-1h-2.9v11.3l2.7.1zM214 362c-1.1-.1-2.1.2-3 .9-.8.9-1.1 2.1-1 3.3v4.4c0 .7 0 1.4-.1 2.1-.1.5-.2.9-.4 1.3h-3.1c.2-.5.4-1 .4-1.6.1-.6.1-1.2.1-1.8v-4.4c0-1.3.2-2.6.8-3.8.5-1 1.5-1.8 2.6-2.1-2.2-.7-3.4-2.7-3.4-5.8v-2.2c-.1-1.7.4-3.4 1.4-4.8.9-1.1 2.5-1.6 4.7-1.6h6.1v28H216v-12h-2zm-.8-13.2c-.9-.1-1.8.3-2.4 1-.5.9-.8 1.9-.7 2.9v2.7c0 1.5.3 2.5 1 3.1.8.6 1.8.8 2.8.8h2.3v-10.4l-3-.1zm22.6 29V374h-11.2v3.8h-2.9v-6.6h1.8c.5-.5.8-1.1.9-1.8.2-.8.2-1.5.3-2.3l1.1-21.2h11v25.2h2.1v6.6h-3.1zm-8.2-10.7c0 .8-.1 1.7-.3 2.5-.2.6-.5 1.2-.9 1.6h7.2v-22.4h-5.1l-.9 18.3zm19.6-10.1c1.8-.2 3.5.5 4.8 1.7 1.1 1.4 1.7 3.2 1.6 5.1v3.4c.1 1.8-.4 3.6-1.5 5-1.2 1.3-2.9 2-4.7 1.8h-6v-28h3.1v11h2.7zm.3 14.1c.9.1 1.8-.3 2.4-1 .5-.9.8-1.9.7-2.9v-3.6c.1-1-.2-2.1-.8-2.9-.7-.6-1.6-.9-2.6-.9h-2.7v11.3h3zm11.7-25.1v28h-3v-28h3zm16.4 15.1-4 12.9h-3.2v-28h2.7v20.9l2.4-7.7 4.4-13.2h3.4v28h-2.8v-22.3l-2.9 9.4zm-265 35.7V422h-3v-28h12.9v28h-3.1v-25.2h-6.8zm12.7 4c-.1-1.8.4-3.7 1.5-5.1 1.2-1.3 2.9-2 4.7-1.9 1.8-.1 3.5.6 4.7 1.9 1.1 1.5 1.7 3.3 1.6 5.1v14.5c.1 1.8-.5 3.7-1.6 5.1-1.2 1.3-2.9 2.1-4.7 1.9-1.8.1-3.5-.6-4.7-1.9-1.1-1.5-1.6-3.3-1.5-5.1v-14.5zm3 14.6c-.1 1.1.2 2.1.8 3 .6.7 1.5 1.1 2.5 1.1.9.1 1.9-.3 2.5-1.1.6-.9.8-1.9.8-3v-14.8c.1-1.1-.2-2.1-.8-3-.6-.7-1.5-1.1-2.5-1.1-.9-.1-1.9.3-2.5 1.1-.6.9-.9 1.9-.8 3v14.8zm22-5.8c-.5.7-1.1 1.3-1.9 1.6-.7.4-1.6.6-2.4.6-.8 0-1.7-.2-2.4-.5s-1.3-.8-1.7-1.4c-.5-.6-.8-1.4-1-2.1-.2-.9-.3-1.7-.3-2.6V394h3.1v10.9c0 1 .3 2.1.9 2.9.6.8 1.5 1.2 2.5 1.2 1.9 0 3-1.1 3.3-3.3V394h3v28h-3l-.1-12.4zm16-3.2v2.8h-6.7v10h8.2v2.8H54.5v-28h11.3v2.8h-8.2v9.6h6.7zm8.5 15.6v-25.2h-5V394H81v2.8h-5.1V422h-3.1zm13.5-12.6V422h-3.1v-28h3.1v12.6H93V394h3.1v28H93v-12.6h-6.7zM105 405c1.8-.2 3.5.5 4.8 1.7 1.1 1.4 1.7 3.2 1.6 5.1v3.4c.1 1.8-.4 3.6-1.5 5-1.2 1.3-2.9 2-4.7 1.8h-6v-28h3.1v11h2.7zm.2 14.1c.9.1 1.8-.3 2.4-1 .5-.9.8-1.9.7-2.9v-3.6c.1-1-.2-2.1-.8-2.9-.7-.6-1.6-.9-2.5-.9h-2.7v11.3h2.9zm11.7-25.1v28h-3v-28h3zm12.9 12.4v2.8h-6.7v10h8.2v2.8H120v-28h11.3v2.8h-8.2v9.6h6.7zm16.4-12.7c1.8-.1 3.5.6 4.7 1.9 1.1 1.5 1.6 3.3 1.5 5.1v2.5h-2.9v-2.7c.1-1.1-.2-2.1-.8-3-.6-.7-1.5-1.1-2.4-1.1-.9-.1-1.8.3-2.4 1.1-.6.9-.8 1.9-.8 3v14.8c-.1 1.1.2 2.1.8 3 .6.7 1.5 1.1 2.4 1.1.9.1 1.9-.3 2.4-1.1.6-.9.8-1.9.8-3v-3.6h2.9v3.5c.1 1.8-.4 3.6-1.5 5.1-2.6 2.6-6.7 2.6-9.3 0-1.1-1.5-1.6-3.3-1.5-5.1v-14.5c0-1 .1-2 .4-2.9.2-.8.6-1.6 1.1-2.2.5-.6 1.2-1.1 1.9-1.4.8-.3 1.7-.5 2.7-.5zm12 3.1V422h-3.1v-28H168v28h-3v-25.2h-6.8zm12.7 4c-.1-1.8.5-3.7 1.6-5.1 2.6-2.5 6.8-2.5 9.5 0 1.1 1.5 1.7 3.3 1.6 5.1v14.5c.1 1.8-.5 3.7-1.6 5.1-2.6 2.6-6.8 2.6-9.5 0-1.1-1.5-1.6-3.3-1.6-5.1v-14.5zm3 14.6c-.1 1.1.2 2.1.8 3 1.3 1.4 3.4 1.4 4.8.1l.1-.1c.6-.9.9-1.9.8-3v-14.8c.1-1.1-.2-2.1-.8-3-1.3-1.4-3.4-1.4-4.8-.1l-.1.1c-.6.9-.9 1.9-.8 3v14.8zm18.5-21.4c2.2 0 3.7.6 4.7 1.8 1 1.5 1.6 3.2 1.4 5v3.4c.1 1.8-.4 3.6-1.5 5.1-1.3 1.2-3.1 1.8-4.8 1.7h-2.7v11h-3.1v-28h6zm-.2 14.2c.9.1 1.8-.2 2.5-.9.6-.8.9-1.9.8-2.9v-3.7c.1-1-.2-2-.7-2.9-.6-.7-1.5-1.1-2.4-1h-2.9v11.3l2.7.1zm12.9 13.8v-25.2H200V394h13.2v2.8h-5.1V422h-3zm17.6-12.9-4 12.9h-3.2v-28h2.7v20.9l2.4-7.7L225 394h3.4v28h-2.7v-22.3l-3 9.4zm15-15.1c2.1 0 3.7.5 4.6 1.5 1 1.3 1.5 3 1.4 4.7v1.3c.1 1.2-.2 2.5-.7 3.6-.5 1-1.4 1.7-2.5 1.9 1.2.3 2.2 1 2.8 2.1.6 1.2.9 2.5.8 3.9v2.4c.1 1.8-.4 3.5-1.5 4.9-1.3 1.2-3 1.8-4.7 1.7h-6.3v-28h6.1zm-.7 11.9c1 .1 2-.2 2.8-.8.6-.5.9-1.5.9-3v-1.6c.1-1-.2-2-.7-2.8-.6-.7-1.5-1-2.3-.9h-3v9l2.3.1zm.9 13.3c2.2 0 3.3-1.3 3.3-3.8v-2.5c.1-1.2-.2-2.3-.9-3.3-.8-.7-1.9-1-2.9-.9h-2.7v10.4h3.2zm12.1-9.8V422h-3.1v-28h3.1v12.6h6.8V394h3v28h-3v-12.6H250zm18.7-4.4c1.8-.2 3.5.5 4.8 1.7 1.1 1.4 1.7 3.2 1.5 5.1v3.4c.1 1.8-.4 3.6-1.5 5-1.2 1.3-2.9 2-4.7 1.8h-6v-28h3.1v11h2.8zm.2 14.1c.9.1 1.8-.3 2.4-1 .5-.9.8-1.9.7-2.9v-3.6c.1-1-.2-2.1-.8-2.9-.7-.6-1.6-.9-2.5-.9H266v11.3h2.9zm11.7-25.1v28h-3v-28h3zm12.9 12.4v2.8h-6.7v10h8.2v2.8h-11.3v-28H295v2.8h-8.2v9.6h6.7zM13.6 441.7c1.8-.1 3.5.6 4.7 1.9 1.1 1.5 1.6 3.3 1.5 5.1v.7c0 1.3-.2 2.5-.8 3.7-.6 1-1.5 1.8-2.5 2.1 1.1.3 2.1 1.1 2.6 2.1.6 1.1.8 2.4.8 3.6v2.2c.1 1.8-.4 3.6-1.5 5.1-1.2 1.3-2.9 2.1-4.7 1.9-1.8.1-3.5-.6-4.6-1.9-1.1-1.5-1.6-3.3-1.5-5.1v-2.7h2.9v2.9c-.1 1.1.2 2.1.8 3 .6.7 1.5 1.1 2.4 1.1.9.1 1.9-.3 2.4-1.1.6-1 .8-2.1.8-3.2V461c0-2.8-1.2-4.2-3.5-4.2h-1.3V454h1.4c.9 0 1.8-.3 2.4-1 .7-.8 1-1.8.9-2.8v-1.3c.1-1.1-.2-2.3-.8-3.2-.6-.8-1.5-1.2-2.4-1.1-.9-.1-1.8.3-2.4 1.1-.6.9-.9 1.9-.8 3v1.9h-3v-1.8c-.1-1.8.4-3.6 1.5-5.1 1.2-1.4 2.9-2.1 4.7-2zm15.3.3c2.1 0 3.7.5 4.6 1.5 1 1.3 1.5 3 1.4 4.7v1.3c.1 1.2-.2 2.5-.7 3.6-.5 1-1.4 1.7-2.5 1.9 1.2.3 2.2 1 2.8 2.1.6 1.2.9 2.5.8 3.9v2.4c.1 1.8-.4 3.5-1.5 4.9-1.3 1.2-3 1.8-4.7 1.7h-6.3v-28h6.1zm-.8 11.9c1 .1 2-.2 2.8-.8.7-.8 1.1-1.9.9-3v-1.6c.1-1-.2-1.9-.7-2.8-.6-.7-1.5-1-2.3-.9h-3v9l2.3.1zm.9 13.3c2.2 0 3.2-1.3 3.2-3.8v-2.5c.1-1.2-.2-2.3-.9-3.3-.8-.7-1.9-1-2.9-.9h-2.7v10.4H29zm12.2-2.8-1.1 5.6h-2.8l5.2-28H47l5.2 28h-3l-1.1-5.6h-6.9zm.4-2.7h6.1l-3.1-16.2-3 16.2zm16.1-4.3V470h-3v-28h3v12.6h6.7V442h3v28h-3v-12.6h-6.7zm20.1-.3-4 12.9h-3.2v-28h2.7v20.9l2.4-7.7 4.4-13.2h3.4v28h-2.8v-22.3l-2.9 9.4zm16 .9c-1.1-.1-2.1.2-3 .9-.8.9-1.1 2.1-1 3.3v4.4c0 .7 0 1.4-.1 2.1-.1.4-.2.9-.4 1.3h-3.1c.2-.5.4-1 .4-1.6.1-.6.1-1.2.1-1.8v-4.4c0-1.3.2-2.6.8-3.8.5-1 1.5-1.8 2.6-2.1-2.2-.7-3.4-2.7-3.4-5.8v-2.2c-.1-1.7.4-3.4 1.4-4.8.9-1.1 2.5-1.6 4.7-1.6H99v28h-3.1v-12h-2.1zm-.9-13.2c-.9-.1-1.8.3-2.4 1-.5.9-.8 1.9-.7 2.9v2.7c0 1.5.3 2.5 1 3.1.8.6 1.8.8 2.8.8h2.3v-10.4l-3-.1zm12.2 21.3v3.9h-2.9v-3.9h2.9z" class="st1"/></svg>