<?xml version="1.0" encoding="utf-8"?>
<!-- Generator: Adobe Illustrator 26.0.2, SVG Export Plug-In . SVG Version: 6.00 Build 0)  -->
<svg version="1.1" id="Layer_1" xmlns="http://www.w3.org/2000/svg" xmlns:xlink="http://www.w3.org/1999/xlink" x="0px" y="0px"
	 viewBox="0 0 480 480" style="enable-background:new 0 0 480 480;" xml:space="preserve">
<style type="text/css">
	.st0{fill:#255D98;}
	.st1{fill:#FFFDFD;}
	.st2{fill:#FFFFFF;}
	.st3{fill:#FCFCFC;}
</style>
<path class="st0" d="M0,0h480v480H0V0z"/>
<path class="st1" d="M11.8,38V12.8h-5V10h13.1v2.8h-5.1V38H11.8z M29,25.9L24.4,38h-2.9L27,23.6L21.8,10H25l4.2,11.2L33.5,10h2.9
	l-5.1,13.6L36.7,38h-3.2L29,25.9z M45,9.7c0.9,0,1.9,0.1,2.7,0.5c0.7,0.3,1.4,0.8,1.9,1.4c0.5,0.7,0.9,1.4,1.1,2.2
	c0.3,0.9,0.4,1.9,0.4,2.9v14.5c0.1,1.8-0.4,3.6-1.5,5.1c-1.2,1.3-2.9,2.1-4.6,1.9c-1.8,0.1-3.5-0.6-4.6-1.9
	c-1.1-1.5-1.6-3.3-1.5-5.1v-3h2.9v3.2c-0.1,1.1,0.2,2.1,0.8,3c1.3,1.3,3.4,1.4,4.7,0.2c0.1-0.1,0.1-0.1,0.2-0.2
	c0.6-0.9,0.8-1.9,0.8-3v-6.5h-4.8v-2.8h4.8v-5.5c0.1-1.1-0.2-2.1-0.8-3c-1.3-1.3-3.4-1.4-4.7-0.2c-0.1,0.1-0.1,0.1-0.2,0.2
	c-0.6,0.9-0.8,1.9-0.8,3v2.2h-2.8v-2.1c0-1,0.1-2,0.4-2.9c0.2-0.8,0.6-1.6,1.1-2.2c0.5-0.6,1.2-1.1,1.9-1.4
	C43.1,9.9,44.1,9.7,45,9.7z M58.8,25.8l-1.6,2.8V38h-3V10h3v13.5L64.4,10h3.1l-6.9,12.8L67.8,38h-3.1L58.8,25.8z M76.3,10
	c2.2,0,3.7,0.5,4.6,1.5c1,1.3,1.5,3,1.4,4.7v1.3c0.1,1.2-0.2,2.5-0.7,3.6c-0.5,1-1.5,1.7-2.5,1.9c1.2,0.3,2.2,1,2.8,2.1
	c0.6,1.2,0.9,2.5,0.8,3.9v2.4c0.1,1.8-0.4,3.5-1.5,4.9c-1.3,1.2-3,1.8-4.7,1.7h-6.3V10H76.3z M75.5,21.9c1,0.1,2-0.2,2.8-0.8
	c0.6-0.5,0.9-1.5,0.9-3v-1.6c0.1-1-0.2-2-0.7-2.8c-0.6-0.7-1.5-1-2.3-0.9h-3v9L75.5,21.9z M76.4,35.2c2.2,0,3.2-1.3,3.2-3.8v-2.5
	c0.1-1.2-0.2-2.3-0.9-3.3c-0.8-0.7-1.9-1-2.9-0.9h-2.7v10.4H76.4z M85.3,16.8c-0.1-1.8,0.5-3.7,1.6-5.1c1.2-1.3,2.9-2,4.7-1.9
	c1.8-0.1,3.5,0.6,4.8,1.9c1.1,1.5,1.7,3.3,1.6,5.1v14.5c0.1,1.8-0.5,3.6-1.6,5.1c-1.2,1.3-3,2.1-4.8,1.9c-1.8,0.1-3.5-0.6-4.7-1.9
	c-1.1-1.5-1.6-3.3-1.6-5.1V16.8z M88.3,31.4c-0.1,1.1,0.2,2.1,0.8,3c0.6,0.7,1.5,1.1,2.4,1.1c1,0.1,1.9-0.3,2.5-1.1
	c0.6-0.9,0.9-1.9,0.8-3V16.6c0.1-1.1-0.2-2.1-0.8-3c-0.6-0.7-1.5-1.1-2.5-1.1c-0.9-0.1-1.9,0.3-2.4,1.1c-0.6,0.9-0.9,1.9-0.8,3
	L88.3,31.4z M103.8,25.4V38h-3V10h3v12.6h6.7V10h3.1v28h-3.1V25.4H103.8z M130.3,41.8V38H119v3.8h-2.9v-6.6h1.8
	c0.5-0.5,0.8-1.1,0.9-1.8c0.2-0.8,0.2-1.5,0.3-2.3l1.1-21.2h11v25.2h2.1v6.6L130.3,41.8z M122.1,31.1c0,0.8-0.1,1.7-0.3,2.5
	c-0.2,0.6-0.5,1.2-0.9,1.6h7.3V12.8H123L122.1,31.1z M135.7,16.8c-0.1-1.8,0.5-3.7,1.6-5.1c1.2-1.3,2.9-2,4.7-1.9
	c1.8-0.1,3.5,0.6,4.8,1.9c1.1,1.5,1.7,3.3,1.6,5.1v14.5c0.1,1.8-0.5,3.6-1.6,5.1c-1.2,1.3-3,2.1-4.8,1.9c-1.8,0.1-3.5-0.6-4.7-1.9
	c-1.1-1.5-1.6-3.3-1.6-5.1V16.8z M138.7,31.4c-0.1,1.1,0.2,2.1,0.8,3c0.6,0.7,1.5,1.1,2.4,1.1c0.9,0.1,1.9-0.3,2.5-1.1
	c0.6-0.9,0.9-1.9,0.8-3V16.6c0.1-1.1-0.2-2.1-0.8-3c-0.6-0.7-1.5-1.1-2.5-1.1c-0.9-0.1-1.9,0.3-2.4,1.1c-0.6,0.9-0.9,1.9-0.8,3V31.4
	z M157.1,22.6h7.5v2.8h-7.5V22.6z M179.5,9.7c0.9,0,1.9,0.2,2.7,0.5c0.7,0.3,1.4,0.8,1.9,1.4c0.5,0.7,0.9,1.4,1.1,2.2
	c0.3,0.9,0.4,1.9,0.4,2.9v14.5c0.1,1.8-0.4,3.6-1.5,5.1c-2.6,2.6-6.7,2.6-9.3,0c-1.1-1.5-1.6-3.3-1.5-5.1v-3h2.9v3.2
	c-0.1,1.1,0.2,2.1,0.8,3c1.2,1.3,3.4,1.4,4.7,0.2c0.1-0.1,0.1-0.1,0.2-0.2c0.6-0.9,0.8-1.9,0.8-3v-6.5h-4.8v-2.8h4.8v-5.5
	c0.1-1.1-0.2-2.1-0.8-3c-1.2-1.3-3.4-1.4-4.7-0.2c-0.1,0.1-0.1,0.1-0.2,0.2c-0.6,0.9-0.9,1.9-0.8,3v2.2h-2.8v-2.1c0-1,0.1-2,0.4-2.9
	c0.2-0.8,0.6-1.6,1.1-2.2c0.5-0.6,1.2-1.1,1.9-1.4C177.6,9.9,178.6,9.7,179.5,9.7L179.5,9.7z M192.8,38V12.8h-5.1V10h13.2v2.8h-5.1
	V38H192.8z M202.9,16.8c-0.1-1.8,0.4-3.7,1.6-5.1c2.6-2.5,6.8-2.5,9.5,0c1.1,1.5,1.7,3.3,1.6,5.1v14.5c0.1,1.8-0.4,3.6-1.5,5.1
	c-2.6,2.6-6.8,2.6-9.5,0c-1.1-1.5-1.6-3.3-1.6-5.1L202.9,16.8z M205.9,31.4c-0.1,1.1,0.2,2.1,0.8,3c1.3,1.4,3.4,1.4,4.8,0.1
	c0,0,0.1-0.1,0.1-0.1c0.6-0.9,0.8-1.9,0.8-3V16.6c0.1-1.1-0.2-2.1-0.8-3c-1.3-1.4-3.4-1.4-4.8-0.1c0,0-0.1,0.1-0.1,0.1
	c-0.6,0.9-0.9,1.9-0.8,3V31.4z"/>
<path class="st2" d="M13.8,69.6c1.8-0.1,3.5,0.4,4.8,1.6c1.1,1.1,1.6,2.7,1.6,5v3.1c0.1,1.8-0.4,3.6-1.5,5c-1.2,1.3-3,1.9-4.8,1.8
	H7.6V58h11.6v2.8h-8.5v8.7H13.8z M14,83.2c0.9,0.1,1.8-0.3,2.5-0.9c0.6-0.8,0.9-1.8,0.8-2.9v-3.5c0.1-1-0.2-2-0.9-2.8
	c-0.7-0.6-1.6-0.8-2.6-0.8h-3.2v10.8L14,83.2z M32.3,70.4v2.8h-6.7v10h8.2V86H22.6V58h11.3v2.8h-8.2v9.6H32.3z M42,57.7
	c1.8-0.1,3.5,0.6,4.7,1.9c1.1,1.5,1.6,3.3,1.5,5.1v0.7c0,1.3-0.2,2.5-0.8,3.7c-0.6,1-1.5,1.8-2.5,2.1c1.1,0.3,2,1.1,2.6,2.1
	c0.6,1.1,0.8,2.4,0.8,3.6v2.2c0.1,1.8-0.4,3.6-1.5,5.1c-1.2,1.4-2.9,2.1-4.7,2c-1.8,0.1-3.5-0.6-4.6-1.9c-1.1-1.5-1.6-3.3-1.5-5.1
	v-2.7h2.9v2.9c-0.1,1.1,0.2,2.1,0.8,3c0.6,0.7,1.5,1.1,2.4,1.1c0.9,0.1,1.9-0.3,2.5-1.1c0.6-1,0.8-2.1,0.8-3.2V77
	c0-2.8-1.2-4.2-3.5-4.2h-1.3V70h1.5c0.9,0,1.8-0.3,2.5-1c0.7-0.8,1-1.8,0.9-2.8v-1.3c0.1-1.1-0.2-2.3-0.8-3.2
	c-0.6-0.8-1.5-1.2-2.5-1.1c-0.9-0.1-1.8,0.3-2.4,1.1c-0.6,0.9-0.9,1.9-0.8,3v1.9h-2.8v-1.8c-0.1-1.8,0.4-3.6,1.5-5.1
	C38.5,58.3,40.2,57.6,42,57.7z M50.2,64.8c-0.1-1.8,0.4-3.7,1.5-5.1c1.2-1.3,2.9-2,4.7-1.9c1.8-0.1,3.5,0.6,4.7,1.9
	c1.1,1.5,1.7,3.3,1.6,5.1v14.5c0.1,1.8-0.5,3.7-1.6,5.1c-1.2,1.3-2.9,2.1-4.7,1.9c-1.8,0.1-3.5-0.6-4.7-1.9
	c-1.1-1.5-1.6-3.3-1.5-5.1L50.2,64.8z M53.2,79.4c-0.1,1.1,0.2,2.1,0.8,3c1.3,1.4,3.4,1.4,4.8,0.1c0,0,0.1-0.1,0.1-0.1
	c0.6-0.9,0.8-1.9,0.8-3V64.6c0.1-1.1-0.2-2.1-0.8-3c-1.3-1.4-3.4-1.4-4.8-0.1c0,0-0.1,0.1-0.1,0.1c-0.6,0.9-0.9,1.9-0.8,3L53.2,79.4
	z M68.1,60.8V86H65V58h12.8v28h-3.1V60.8H68.1z M83.4,80.4L82.3,86h-2.8l5.2-28h4.4l5.2,28h-3.1l-1.1-5.6H83.4z M83.8,77.7h6.1
	l-3.1-16.2L83.8,77.7z M102,57.7c1.8-0.1,3.5,0.6,4.7,1.9c1.1,1.5,1.6,3.3,1.5,5.1v2.5h-2.9v-2.7c0.1-1.1-0.2-2.1-0.8-3
	c-1.3-1.3-3.4-1.4-4.7-0.2c-0.1,0.1-0.1,0.1-0.2,0.2c-0.6,0.9-0.9,1.9-0.8,3v14.8c-0.1,1.1,0.2,2.1,0.8,3c1.3,1.3,3.4,1.4,4.7,0.2
	c0.1-0.1,0.1-0.1,0.2-0.2c0.6-0.9,0.8-1.9,0.8-3v-3.6h2.9v3.5c0.1,1.8-0.4,3.6-1.5,5.1c-2.6,2.6-6.7,2.6-9.3,0
	c-1.1-1.5-1.6-3.3-1.5-5.1V64.8c0-1,0.1-2,0.4-2.9c0.2-0.8,0.6-1.6,1.1-2.2c0.5-0.6,1.2-1.1,1.9-1.4C100.1,57.9,101.1,57.7,102,57.7
	z M113.4,73.4V86h-3.1V58h3.1v12.6h6.7V58h3.1v28h-3.1V73.4H113.4z M125.4,64.8c-0.1-1.8,0.5-3.7,1.6-5.1c1.2-1.3,2.9-2,4.7-1.9
	c1.8-0.1,3.5,0.6,4.8,1.9c1.1,1.5,1.7,3.3,1.6,5.1v14.5c0.1,1.8-0.5,3.6-1.6,5.1c-1.2,1.3-3,2.1-4.8,1.9c-1.8,0.1-3.5-0.6-4.7-1.9
	c-1.1-1.5-1.6-3.3-1.6-5.1V64.8z M128.4,79.4c-0.1,1.1,0.2,2.1,0.8,3c0.6,0.7,1.5,1.1,2.4,1.1c0.9,0.1,1.9-0.3,2.5-1.1
	c0.6-0.9,0.9-1.9,0.8-3V64.6c0.1-1.1-0.2-2.1-0.8-3c-0.6-0.7-1.5-1.1-2.5-1.1c-0.9-0.1-1.9,0.3-2.4,1.1c-0.6,0.9-0.9,1.9-0.8,3V79.4
	z M146.1,57.7c1.8-0.1,3.5,0.6,4.7,1.9c1.1,1.5,1.6,3.3,1.5,5.1v2.5h-2.9v-2.7c0.1-1.1-0.2-2.1-0.8-3c-1.3-1.3-3.4-1.4-4.7-0.2
	c-0.1,0.1-0.1,0.1-0.2,0.2c-0.6,0.9-0.9,1.9-0.8,3v14.8c-0.1,1.1,0.2,2.1,0.8,3c1.3,1.3,3.4,1.4,4.7,0.2c0.1-0.1,0.1-0.1,0.2-0.2
	c0.6-0.9,0.8-1.9,0.8-3v-3.6h2.9v3.5c0.1,1.8-0.4,3.6-1.5,5.1c-2.6,2.6-6.7,2.6-9.3,0c-1.1-1.5-1.6-3.3-1.5-5.1V64.8
	c0-1,0.1-2,0.4-2.9c0.2-0.8,0.6-1.6,1.1-2.2c0.5-0.6,1.2-1.1,1.9-1.4C144.2,57.9,145.1,57.7,146.1,57.7z M158.5,86V60.8h-5.1V58
	h13.2v2.8h-5.1V86H158.5z M174,69c1.8-0.2,3.5,0.5,4.8,1.7c1.1,1.4,1.7,3.2,1.6,5.1v3.4c0.1,1.8-0.4,3.6-1.5,5
	c-1.2,1.3-2.9,2-4.7,1.9h-6V58h3v11H174z M174.2,83.1c0.9,0.1,1.8-0.3,2.4-1c0.5-0.9,0.8-1.9,0.7-2.9v-3.6c0.1-1-0.2-2.1-0.8-2.9
	c-0.7-0.6-1.6-0.9-2.5-0.9h-2.7v11.3L174.2,83.1z M185.4,82.1V86h-2.9v-3.9H185.4z M196.2,73.4V86h-3V58h3v12.6h6.8V58h3v28h-3V73.4
	H196.2z M211.6,80.4l-1.1,5.6h-2.8l5.2-28h4.4l5.2,28h-3.1l-1.1-5.6H211.6z M211.9,77.7h6.1L215,61.5L211.9,77.7z M13.5,105.7
	c1.8-0.1,3.5,0.6,4.7,1.9c1.1,1.5,1.6,3.3,1.5,5.1v2.5h-2.9v-2.7c0.1-1.1-0.2-2.1-0.8-3c-0.6-0.7-1.5-1.1-2.4-1.1
	c-0.9-0.1-1.8,0.3-2.4,1.1c-0.6,0.9-0.9,1.9-0.8,3v14.8c-0.1,1.1,0.2,2.1,0.8,3c0.6,0.7,1.5,1.1,2.4,1.1c0.9,0.1,1.9-0.3,2.4-1.1
	c0.6-0.9,0.8-1.9,0.8-3v-3.6h2.9v3.5c0.1,1.8-0.4,3.6-1.5,5.1c-1.2,1.4-2.9,2.1-4.7,1.9c-1.8,0.1-3.5-0.6-4.6-1.9
	c-1.1-1.5-1.6-3.3-1.5-5.1v-14.5c0-1,0.1-2,0.4-2.9c0.2-0.8,0.6-1.6,1.1-2.2c0.5-0.6,1.2-1.1,1.9-1.4
	C11.6,105.9,12.5,105.7,13.5,105.7z M22.2,112.8c-0.1-1.8,0.4-3.7,1.5-5.1c1.2-1.3,2.9-2,4.7-1.9c1.8-0.1,3.5,0.6,4.7,1.9
	c1.1,1.5,1.7,3.3,1.6,5.1v14.5c0.1,1.8-0.5,3.7-1.6,5.1c-1.2,1.3-2.9,2.1-4.7,1.9c-1.8,0.1-3.5-0.6-4.7-1.9
	c-1.1-1.5-1.6-3.3-1.5-5.1V112.8z M25.2,127.4c-0.1,1.1,0.2,2.1,0.8,3c0.6,0.7,1.5,1.1,2.5,1.1c1,0.1,1.9-0.3,2.5-1.1
	c0.6-0.9,0.8-1.9,0.8-3v-14.8c0.1-1.1-0.2-2.1-0.8-3c-0.6-0.7-1.5-1.1-2.5-1.1c-0.9-0.1-1.9,0.3-2.5,1.1c-0.6,0.9-0.9,1.9-0.8,3
	L25.2,127.4z M43.7,106c2.2,0,3.7,0.6,4.7,1.8c1,1.5,1.6,3.2,1.5,5v3.4c0.1,1.8-0.4,3.6-1.5,5.1c-1.3,1.2-3.1,1.9-4.8,1.7h-2.7v11
	h-3.1V106H43.7z M43.5,120.2c0.9,0.1,1.8-0.2,2.5-0.9c0.6-0.8,0.9-1.9,0.8-2.9v-3.7c0.1-1-0.2-2-0.7-2.9c-0.6-0.7-1.5-1.1-2.4-1
	h-2.9v11.3L43.5,120.2z M62,118.4v2.8h-6.7v10h8.2v2.8H52.2v-28h11.3v2.8h-8.2v9.6L62,118.4z M72.5,106c2.1,0,3.7,0.5,4.6,1.5
	c1,1.3,1.5,3,1.4,4.7v1.3c0,1.2-0.2,2.5-0.7,3.6c-0.5,1-1.4,1.7-2.5,1.9c1.2,0.3,2.2,1,2.8,2.1c0.6,1.2,0.9,2.5,0.8,3.9v2.4
	c0.1,1.8-0.4,3.5-1.5,4.9c-1.3,1.2-3,1.8-4.7,1.7h-6.3v-28H72.5z M71.8,117.9c1,0.1,2-0.2,2.8-0.8c0.7-0.8,1.1-1.9,0.9-3v-1.6
	c0.1-1-0.2-2-0.7-2.8c-0.6-0.7-1.5-1-2.3-0.9h-3v9L71.8,117.9z M72.7,131.2c2.2,0,3.2-1.3,3.2-3.8v-2.5c0.1-1.2-0.2-2.3-0.9-3.3
	c-0.8-0.7-1.9-1-2.9-0.9h-2.7v10.4L72.7,131.2z M84.8,121.4V134h-3.1v-28h3.1v12.6h6.7V106h3.1v28h-3.1v-12.6H84.8z M97.5,112.8
	c-0.1-1.8,0.4-3.7,1.5-5.1c2.6-2.5,6.8-2.5,9.5,0c1.1,1.5,1.7,3.3,1.6,5.1v14.5c0.1,1.8-0.5,3.7-1.6,5.1c-2.6,2.6-6.8,2.6-9.5,0
	c-1.1-1.5-1.6-3.3-1.6-5.1L97.5,112.8z M100.5,127.4c-0.1,1.1,0.2,2.1,0.8,3c1.3,1.4,3.4,1.4,4.8,0.1c0,0,0.1-0.1,0.1-0.1
	c0.6-0.9,0.9-1.9,0.8-3v-14.8c0.1-1.1-0.2-2.1-0.8-3c-1.3-1.4-3.4-1.4-4.8-0.1c0,0-0.1,0.1-0.1,0.1c-0.6,0.9-0.9,1.9-0.8,3V127.4z
	 M119.1,106c2.1,0,3.7,0.5,4.6,1.5c1,1.3,1.5,3,1.4,4.7v1.3c0,1.2-0.2,2.5-0.7,3.6c-0.5,1-1.4,1.7-2.5,1.9c1.2,0.3,2.2,1,2.8,2.1
	c0.6,1.2,0.9,2.5,0.8,3.9v2.4c0.1,1.8-0.4,3.5-1.6,4.9c-1.3,1.2-3,1.8-4.8,1.7H113v-28H119.1z M118.4,117.9c1,0.1,2-0.2,2.8-0.8
	c0.7-0.8,1.1-1.9,0.9-3v-1.6c0.1-1-0.2-2-0.7-2.8c-0.6-0.7-1.5-1-2.3-0.9h-3v9L118.4,117.9z M119.3,131.2c2.2,0,3.3-1.3,3.3-3.8
	v-2.5c0.1-1.2-0.2-2.3-0.9-3.3c-0.8-0.7-1.9-1-2.9-0.9H116v10.4L119.3,131.2z M131.4,128.4l-1.1,5.6h-2.8l5.2-28h4.4l5.2,28h-3.1
	l-1.1-5.6H131.4z M131.8,125.7h6.1l-3.1-16.2L131.8,125.7z M147.9,121.4V134h-3.1v-28h3.1v12.6h6.7V106h3.1v28h-3.1v-12.6H147.9z
	 M168.1,121.1l-4,12.9h-3.2v-28h2.7v20.9l2.4-7.7l4.4-13.2h3.4v28h-2.7v-22.3L168.1,121.1z M184,122c-1.1-0.1-2.1,0.2-3,0.9
	c-0.8,0.9-1.1,2.1-1,3.3v4.4c0,0.7,0,1.4-0.1,2.1c-0.1,0.4-0.2,0.9-0.4,1.3h-3.1c0.2-0.5,0.4-1,0.4-1.6c0.1-0.6,0.1-1.2,0.1-1.8
	v-4.4c0-1.3,0.2-2.6,0.8-3.8c0.5-1,1.5-1.8,2.6-2.1c-2.2-0.7-3.4-2.7-3.4-5.8v-2.2c-0.1-1.7,0.4-3.4,1.4-4.8c1-1.1,2.5-1.6,4.7-1.6
	h6.1v28h-3.1v-12H184z M183.2,108.8c-0.9-0.1-1.8,0.3-2.4,1c-0.5,0.9-0.8,1.9-0.7,2.9v2.7c0,1.5,0.3,2.5,1,3.1
	c0.8,0.6,1.8,0.8,2.8,0.8h2.3v-10.4L183.2,108.8z M199.2,121.9l-4.6,12.1h-2.9l5.5-14.4L192,106h3.2l4.2,11.2l4.3-11.2h2.9
	l-5.1,13.6l5.5,14.4h-3.2L199.2,121.9z M7.3,160.8c-0.1-1.8,0.5-3.7,1.6-5.1c1.2-1.3,2.9-2,4.7-1.9c1.8-0.1,3.5,0.6,4.8,1.9
	c1.1,1.5,1.7,3.3,1.6,5.1v14.5c0.1,1.8-0.5,3.6-1.6,5.1c-1.2,1.3-3,2.1-4.8,1.9c-1.8,0.1-3.5-0.6-4.7-1.9c-1.1-1.5-1.6-3.3-1.6-5.1
	L7.3,160.8z M10.3,175.4c-0.1,1.1,0.2,2.1,0.8,3c0.6,0.7,1.5,1.1,2.4,1.1c0.9,0.1,1.9-0.3,2.5-1.1c0.6-0.9,0.9-1.9,0.8-3v-14.8
	c0.1-1.1-0.2-2.1-0.8-3c-0.6-0.7-1.5-1.1-2.5-1.1c-0.9-0.1-1.9,0.3-2.4,1.1c-0.6,0.9-0.9,1.9-0.8,3L10.3,175.4z M29.1,165.6
	c1.8-0.1,3.5,0.4,4.8,1.6c1.1,1.1,1.6,2.7,1.6,5v3.1c0.1,1.8-0.4,3.6-1.5,5c-1.2,1.3-3,1.9-4.8,1.8h-6.4v-28h11.6v2.8h-8.5v8.7H29.1
	z M29.2,179.2c0.9,0.1,1.8-0.3,2.5-0.9c0.6-0.8,0.9-1.8,0.8-2.9v-3.5c0.1-1-0.2-2-0.9-2.8c-0.7-0.6-1.6-0.8-2.5-0.8h-3.2v10.8
	L29.2,179.2z M45.6,170c-1.1-0.1-2.1,0.2-3,0.9c-0.8,0.9-1.1,2.1-1,3.3v4.4c0,0.7,0,1.4-0.1,2.1c-0.1,0.5-0.2,0.9-0.4,1.3H38
	c0.2-0.5,0.4-1,0.5-1.6c0.1-0.6,0.1-1.2,0.1-1.8v-4.4c0-1.3,0.2-2.6,0.8-3.8c0.6-1,1.5-1.8,2.7-2c-2.2-0.8-3.4-2.7-3.4-5.8v-2.3
	c-0.1-1.7,0.3-3.4,1.4-4.8c1-1.1,2.6-1.6,4.7-1.6h6.1v28h-3v-12H45.6z M44.8,156.8c-0.9-0.1-1.8,0.3-2.5,1c-0.5,0.9-0.8,1.9-0.7,2.9
	v2.7c0,1.5,0.3,2.5,1,3.1c0.8,0.6,1.8,0.8,2.8,0.8h2.3v-10.4L44.8,156.8z M60,153.7c1.8-0.1,3.5,0.6,4.7,1.9
	c1.1,1.5,1.6,3.3,1.5,5.1v0.7c0,1.3-0.2,2.5-0.8,3.7c-0.6,1-1.5,1.8-2.5,2.1c1.1,0.3,2,1.1,2.6,2.1c0.6,1.1,0.8,2.4,0.8,3.6v2.2
	c0.1,1.8-0.4,3.6-1.5,5.1c-1.2,1.4-2.9,2.1-4.7,1.9c-1.8,0.1-3.5-0.6-4.7-1.9c-1.1-1.5-1.6-3.3-1.5-5.1v-2.7h2.9v2.9
	c-0.1,1.1,0.2,2.1,0.8,3c1.2,1.3,3.3,1.4,4.7,0.2c0.1-0.1,0.1-0.1,0.2-0.2c0.6-1,0.8-2.1,0.8-3.2V173c0-2.8-1.2-4.2-3.5-4.2h-1.3
	V166h1.5c0.9,0,1.8-0.3,2.5-1c0.7-0.8,1-1.8,0.9-2.8v-1.3c0.1-1.1-0.2-2.3-0.8-3.2c-1.2-1.3-3.3-1.4-4.7-0.2
	c-0.1,0.1-0.1,0.1-0.2,0.2c-0.6,0.9-0.8,1.9-0.8,3v1.9h-2.8v-1.8c-0.1-1.8,0.4-3.6,1.5-5.1C56.5,154.3,58.2,153.6,60,153.7L60,153.7
	z M72.2,176.4l-1.1,5.6h-2.8l5.2-28h4.4l5.2,28h-3.1l-1-5.6H72.2z M72.6,173.7h6.1l-3.1-16.2L72.6,173.7z M89.9,182v-25.2h-5.1V154
	H98v2.8h-5.1V182H89.9z M110,166.4v2.8h-6.7v10h8.2v2.8h-11.2v-28h11.3v2.8h-8.2v9.6H110z M120.2,156.8l-0.6,18.2c0,1-0.2,2-0.3,3
	c-0.2,0.8-0.5,1.5-0.9,2.2c-0.4,0.6-1,1.1-1.7,1.4c-0.8,0.3-1.7,0.5-2.6,0.5h-0.5v-2.8c0.5,0,1-0.1,1.5-0.2c0.4-0.1,0.7-0.4,0.9-0.7
	c0.2-0.4,0.4-0.8,0.4-1.3c0.1-0.6,0.1-1.2,0.2-1.8l0.8-21.2h11.2v28h-3.1v-25.2H120.2z M137.6,165c1.8-0.2,3.5,0.5,4.8,1.7
	c1.1,1.4,1.7,3.2,1.6,5.1v3.4c0.1,1.8-0.4,3.6-1.5,5c-1.2,1.3-2.9,2-4.7,1.8h-6V154h3.1v11H137.6z M137.8,179.1
	c0.9,0.1,1.8-0.3,2.4-1c0.5-0.9,0.8-1.9,0.7-2.9v-3.6c0.1-1-0.2-2.1-0.8-2.9c-0.7-0.6-1.6-0.9-2.6-0.9h-2.7v11.3L137.8,179.1z
	 M149.8,169.4V182h-3.1v-28h3.1v12.6h6.8V154h3.1v28h-3.1v-12.6H149.8z M162.5,160.8c-0.1-1.8,0.5-3.7,1.6-5.1
	c1.2-1.3,2.9-2,4.7-1.9c1.8-0.1,3.5,0.6,4.7,1.9c1.1,1.5,1.7,3.3,1.6,5.1v14.5c0.1,1.8-0.5,3.6-1.6,5.1c-1.2,1.3-2.9,2.1-4.7,1.9
	c-1.8,0.1-3.5-0.6-4.7-1.9c-1.1-1.5-1.6-3.3-1.6-5.1V160.8z M165.5,175.4c-0.1,1.1,0.2,2.1,0.8,3c1.3,1.4,3.4,1.4,4.8,0.1
	c0,0,0.1-0.1,0.1-0.1c0.6-0.9,0.8-1.9,0.8-3v-14.8c0.1-1.1-0.2-2.1-0.8-3c-1.3-1.4-3.4-1.4-4.8-0.1c0,0-0.1,0.1-0.1,0.1
	c-0.6,0.9-0.9,1.9-0.8,3V175.4z M14.8,217.1l-4,12.9H7.6v-28h2.7v20.9l2.4-7.7l4.4-13.2h3.4v28h-2.7v-22.3L14.8,217.1z M29.5,201.7
	c1.8-0.1,3.5,0.6,4.7,1.9c1.1,1.5,1.6,3.3,1.5,5.1v2.5h-2.9v-2.7c0.1-1.1-0.2-2.1-0.8-3c-0.6-0.7-1.5-1.1-2.5-1.1
	c-0.9-0.1-1.8,0.3-2.4,1.1c-0.6,0.9-0.9,1.9-0.8,3v14.8c-0.1,1.1,0.2,2.1,0.8,3c0.6,0.7,1.5,1.1,2.4,1.1c0.9,0.1,1.9-0.3,2.5-1.1
	c0.6-0.9,0.8-1.9,0.8-3v-3.6h2.9v3.5c0.1,1.8-0.4,3.6-1.5,5.1c-1.2,1.4-2.9,2.1-4.7,1.9c-1.8,0.1-3.5-0.6-4.6-1.9
	c-1.1-1.5-1.6-3.3-1.5-5.1v-14.5c0-1,0.1-2,0.4-2.9c0.2-0.8,0.6-1.6,1.1-2.2c0.5-0.6,1.2-1.1,1.9-1.4
	C27.7,201.9,28.6,201.7,29.5,201.7L29.5,201.7z M41.5,204.8V230h-3v-28h12.8v28h-3v-25.2H41.5z M54.2,208.8
	c-0.1-1.8,0.5-3.7,1.5-5.1c1.2-1.3,2.9-2,4.7-1.9c1.8-0.1,3.5,0.6,4.7,1.9c1.1,1.5,1.7,3.3,1.6,5.1v14.5c0.1,1.8-0.5,3.6-1.6,5.1
	c-1.2,1.3-2.9,2.1-4.7,1.9c-1.8,0.1-3.5-0.6-4.7-1.9c-1.1-1.5-1.6-3.3-1.5-5.1V208.8z M57.2,223.4c-0.1,1.1,0.2,2.1,0.8,3
	c1.3,1.4,3.4,1.4,4.8,0.1c0,0,0.1-0.1,0.1-0.1c0.6-0.9,0.8-1.9,0.8-3v-14.8c0.1-1.1-0.2-2.1-0.8-3c-1.3-1.4-3.4-1.4-4.8-0.1
	c0,0-0.1,0.1-0.1,0.1c-0.6,0.9-0.9,1.9-0.8,3L57.2,223.4z M75.6,204.8L75,223c0,1-0.2,2-0.3,3c-0.2,0.8-0.5,1.5-0.9,2.2
	c-0.4,0.6-1.1,1.1-1.8,1.4c-0.8,0.3-1.7,0.5-2.6,0.5h-0.5v-2.8c0.5,0,1-0.1,1.5-0.2c0.4-0.1,0.7-0.4,0.9-0.7
	c0.2-0.4,0.4-0.8,0.5-1.3c0.1-0.6,0.2-1.2,0.2-1.8l0.8-21.2h11.1v28h-3.1v-25.2H75.6z M92.9,213c1.8-0.2,3.5,0.5,4.8,1.7
	c1.1,1.4,1.7,3.2,1.5,5.1v3.4c0.1,1.8-0.4,3.6-1.5,5c-1.2,1.3-2.9,2-4.7,1.9h-6v-28h3.1v11H92.9z M93.1,227.1c0.9,0.1,1.8-0.3,2.4-1
	c0.5-0.9,0.8-1.9,0.7-2.9v-3.6c0.1-1-0.2-2.1-0.8-2.9c-0.7-0.6-1.6-0.9-2.6-0.9h-2.7v11.3L93.1,227.1z M108.1,201.7
	c1.8-0.1,3.5,0.6,4.7,1.9c1.1,1.5,1.6,3.3,1.5,5.1v0.7c0,1.3-0.2,2.5-0.8,3.7c-0.6,1-1.5,1.8-2.5,2.1c1.1,0.3,2,1.1,2.6,2.1
	c0.6,1.1,0.8,2.4,0.8,3.6v2.2c0.1,1.8-0.4,3.6-1.5,5.1c-2.6,2.6-6.7,2.6-9.3,0c-1.1-1.5-1.6-3.3-1.5-5.1v-2.7h2.9v2.9
	c-0.1,1.1,0.2,2.1,0.8,3c1.2,1.3,3.3,1.4,4.7,0.2c0.1-0.1,0.1-0.1,0.2-0.2c0.6-1,0.8-2.1,0.8-3.2V221c0-2.8-1.2-4.2-3.5-4.2h-1.3
	V214h1.4c0.9,0,1.8-0.3,2.4-1c0.7-0.8,1-1.8,0.9-2.8v-1.3c0.1-1.1-0.2-2.3-0.8-3.2c-1.2-1.3-3.3-1.4-4.7-0.2
	c-0.1,0.1-0.1,0.1-0.2,0.2c-0.6,0.9-0.9,1.9-0.8,3v1.9H102v-1.8c-0.1-1.8,0.4-3.6,1.5-5.1C104.6,202.3,106.3,201.6,108.1,201.7
	L108.1,201.7z M117,208.8c-0.1-1.8,0.5-3.7,1.6-5.1c1.2-1.3,2.9-2,4.7-1.9c1.8-0.1,3.5,0.6,4.8,1.9c1.1,1.5,1.7,3.3,1.6,5.1v14.5
	c0.1,1.8-0.5,3.6-1.6,5.1c-1.2,1.3-3,2.1-4.8,1.9c-1.8,0.1-3.5-0.6-4.7-1.9c-1.1-1.5-1.6-3.3-1.6-5.1V208.8z M120,223.4
	c-0.1,1.1,0.2,2.1,0.8,3c0.6,0.7,1.5,1.1,2.4,1.1c0.9,0.1,1.9-0.3,2.5-1.1c0.6-0.9,0.9-1.9,0.8-3v-14.8c0.1-1.1-0.2-2.1-0.8-3
	c-0.6-0.7-1.5-1.1-2.5-1.1c-0.9-0.1-1.9,0.3-2.4,1.1c-0.6,0.9-0.9,1.9-0.8,3V223.4z M138.6,202c2.1,0,3.7,0.5,4.6,1.5
	c1,1.3,1.5,3,1.4,4.7v1.3c0,1.2-0.2,2.5-0.7,3.6c-0.5,1-1.4,1.7-2.5,1.9c1.2,0.3,2.2,1,2.9,2.1c0.6,1.2,0.9,2.5,0.8,3.9v2.4
	c0.1,1.8-0.4,3.5-1.5,4.9c-1.3,1.2-3,1.8-4.7,1.7h-6.3v-28H138.6z M137.9,213.9c1,0.1,2-0.2,2.8-0.8c0.7-0.8,1.1-1.9,0.9-3v-1.6
	c0.1-1-0.2-2-0.7-2.8c-0.6-0.7-1.5-1-2.3-0.9h-3v9L137.9,213.9z M138.8,227.2c2.2,0,3.2-1.3,3.2-3.8v-2.5c0.1-1.2-0.2-2.3-0.9-3.3
	c-0.8-0.7-1.9-1-2.9-0.9h-2.7v10.4L138.8,227.2z M151,224.4l-1.1,5.6h-2.8l5.2-28h4.4l5.2,28h-3l-1.1-5.6H151z M151.4,221.7h6.1
	l-3.1-16.2L151.4,221.7z M167.5,217.4V230h-3.1v-28h3.1v12.6h6.7V202h3.1v28h-3.1v-12.6H167.5z M187.6,217.1l-4,12.9h-3.2v-28h2.7
	v20.9l2.4-7.7l4.4-13.2h3.4v28h-2.7v-22.3L187.6,217.1z M206.2,214.4v2.8h-6.7v10h8.2v2.8h-11.3v-28h11.3v2.8h-8.2v9.6H206.2z
	 M13.6,249.7c1.8-0.1,3.5,0.6,4.7,1.9c1.1,1.5,1.6,3.3,1.5,5.1v0.7c0,1.3-0.2,2.5-0.8,3.7c-0.6,1-1.5,1.8-2.5,2.1
	c1.1,0.3,2.1,1.1,2.6,2.1c0.6,1.1,0.8,2.4,0.8,3.6v2.2c0.1,1.8-0.4,3.6-1.5,5.1c-1.2,1.3-2.9,2.1-4.7,1.9c-1.8,0.1-3.5-0.6-4.6-1.9
	c-1.1-1.5-1.6-3.3-1.5-5.1v-2.7h2.9v2.9c-0.1,1.1,0.2,2.1,0.8,3c0.6,0.7,1.5,1.1,2.4,1.1c0.9,0.1,1.9-0.3,2.4-1.1
	c0.6-1,0.8-2.1,0.8-3.2V269c0-2.8-1.2-4.2-3.5-4.2h-1.3V262h1.4c0.9,0,1.8-0.3,2.4-1c0.7-0.8,1-1.8,0.9-2.8v-1.3
	c0.1-1.1-0.2-2.3-0.8-3.2c-0.6-0.8-1.5-1.2-2.4-1.1c-0.9-0.1-1.8,0.3-2.4,1.1c-0.6,0.9-0.9,1.9-0.8,3v1.9H7.4v-1.8
	c-0.1-1.8,0.4-3.6,1.5-5.1C10.1,250.3,11.8,249.6,13.6,249.7z M25.1,272.4l-1.1,5.6h-2.8l5.2-28h4.4l5.2,28h-3l-1.1-5.6H25.1z
	 M25.5,269.7h6.1l-3.1-16.2L25.5,269.7z M56.7,281.8V278H37.9v-28h3.1v25.2h5.2V250h3v25.2h5.3V250h3v25.2h2.1v6.5L56.7,281.8z
	 M68.8,265.1l-4,12.9h-3.2v-28h2.7v20.9l2.4-7.7l4.4-13.2h3.4v28h-2.7v-22.3L68.8,265.1z M81.1,278v-25.2H76V250h13.2v2.8h-5.1V278
	H81.1z M93.8,265.4V278h-3.1v-28h3.1v12.6h6.7V250h3.1v28h-3.1v-12.6H93.8z M105.8,256.8c-0.1-1.8,0.5-3.7,1.6-5.1
	c1.2-1.3,2.9-2,4.7-1.9c1.8-0.1,3.5,0.6,4.8,1.9c1.1,1.5,1.7,3.3,1.6,5.1v14.5c0.1,1.8-0.5,3.6-1.6,5.1c-1.2,1.3-3,2.1-4.8,1.9
	c-1.8,0.1-3.5-0.6-4.7-1.9c-1.1-1.5-1.6-3.3-1.6-5.1V256.8z M108.8,271.4c-0.1,1.1,0.2,2.1,0.8,3c0.6,0.7,1.5,1.1,2.4,1.1
	c0.9,0.1,1.9-0.3,2.5-1.1c0.6-0.9,0.9-1.9,0.8-3v-14.8c0.1-1.1-0.2-2.1-0.8-3c-0.6-0.7-1.5-1.1-2.5-1.1c-0.9-0.1-1.9,0.3-2.4,1.1
	c-0.6,0.9-0.9,1.9-0.8,3V271.4z M128,264.5l-4.2,13.5h-3.2v-28h2.7v20.9l2.6-8.1l4.3-12.8h3.4v28h-2.8v-22.3L128,264.5z
	 M131.4,244.3c0.1,1.1-0.3,2.1-1.1,2.9c-0.9,0.7-2,1.1-3.1,1c-1.1,0.1-2.2-0.3-3.1-1c-0.8-0.8-1.2-1.8-1.2-2.9h1.9
	c0,0.6,0.2,1.2,0.7,1.6c0.5,0.3,1,0.5,1.6,0.4c0.6,0,1.1-0.1,1.6-0.4c0.5-0.4,0.7-1,0.7-1.6H131.4z M147.1,249.7
	c0.9,0,1.9,0.2,2.7,0.5c0.7,0.3,1.4,0.8,1.9,1.4c0.5,0.7,0.9,1.4,1.1,2.2c0.3,0.9,0.4,1.9,0.4,2.9v14.5c0.1,1.8-0.4,3.6-1.5,5.1
	c-2.6,2.6-6.7,2.6-9.3,0c-1.1-1.5-1.6-3.3-1.5-5.1v-3h2.9v3.2c-0.1,1.1,0.2,2.1,0.8,3c1.2,1.3,3.4,1.4,4.7,0.2
	c0.1-0.1,0.1-0.1,0.2-0.2c0.6-0.9,0.8-1.9,0.8-3V265h-4.8v-2.8h4.8v-5.6c0.1-1.1-0.2-2.1-0.8-3c-1.2-1.3-3.4-1.4-4.7-0.2
	c-0.1,0.1-0.1,0.1-0.2,0.2c-0.6,0.9-0.8,1.9-0.8,3v2.2H141v-2.1c0-1,0.1-2,0.4-2.9c0.2-0.8,0.6-1.6,1.1-2.2c0.5-0.6,1.2-1.1,1.9-1.4
	C145.3,249.9,146.2,249.7,147.1,249.7L147.1,249.7z M160.2,265.8l-1.6,2.8v9.4h-3.1v-28h3.1v13.5l7.3-13.5h3.1l-7,12.8l7.2,15.2
	h-3.1L160.2,265.8z M178.1,265.1L174,278h-3.2v-28h2.7v20.9l2.4-7.7l4.4-13.2h3.4v28H181v-22.3L178.1,265.1z M189.2,252.8V278h-3.1
	v-28H199v28h-3v-25.2H189.2z M208.7,265.1l-4,12.9h-3.2v-28h2.7v20.9l2.4-7.7L211,250h3.4v28h-2.7v-22.3L208.7,265.1z M222.8,250
	c2.2,0,3.7,0.6,4.7,1.8c1,1.5,1.5,3.2,1.4,5v3.4c0.1,1.8-0.4,3.6-1.6,5.1c-1.3,1.2-3.1,1.8-4.8,1.7h-2.7v11h-3.1V250H222.8z
	 M222.5,264.2c0.9,0.1,1.8-0.2,2.5-0.9c0.6-0.8,0.9-1.9,0.8-2.9v-3.7c0.1-1-0.2-2-0.7-2.9c-0.6-0.7-1.5-1.1-2.4-1h-2.9v11.3
	L222.5,264.2z M230.4,256.8c-0.1-1.8,0.4-3.7,1.5-5.1c2.6-2.5,6.8-2.5,9.5,0c1.1,1.5,1.7,3.3,1.6,5.1v14.5c0.1,1.8-0.5,3.7-1.6,5.1
	c-2.6,2.6-6.8,2.6-9.5,0c-1.1-1.5-1.6-3.3-1.5-5.1V256.8z M233.4,271.4c-0.1,1.1,0.2,2.1,0.8,3c1.3,1.4,3.4,1.4,4.8,0.1
	c0,0,0.1-0.1,0.1-0.1c0.6-0.9,0.8-1.9,0.8-3v-14.8c0.1-1.1-0.2-2.1-0.8-3c-1.3-1.4-3.4-1.4-4.8-0.1c0,0-0.1,0.1-0.1,0.1
	c-0.6,0.9-0.9,1.9-0.8,3V271.4z M251.3,250c2.1,0,3.7,0.5,4.6,1.5c1,1.3,1.5,3,1.4,4.7v1.3c0,1.2-0.2,2.5-0.7,3.6
	c-0.5,1-1.4,1.7-2.5,1.9c1.2,0.3,2.2,1,2.8,2.1c0.6,1.2,0.9,2.5,0.9,3.9v2.4c0.1,1.8-0.4,3.5-1.5,4.9c-1.3,1.2-3,1.8-4.8,1.7h-6.3
	v-28L251.3,250z M250.6,261.9c1,0.1,2-0.2,2.8-0.8c0.7-0.8,1.1-1.9,0.9-3v-1.6c0.1-1-0.2-2-0.7-2.8c-0.6-0.7-1.5-1-2.3-0.9h-3v9
	L250.6,261.9z M251.5,275.2c2.2,0,3.3-1.3,3.3-3.8v-2.5c0.1-1.2-0.2-2.3-0.9-3.3c-0.8-0.7-1.9-1-2.9-0.9h-2.7v10.4H251.5z
	 M264.5,265.8l-1.6,2.8v9.4h-3.1v-28h3.1v13.5l7.3-13.5h3.1l-6.9,12.8l7.2,15.2h-3.1L264.5,265.8z M282.4,265.1l-4,12.9h-3.2v-28
	h2.7v20.9l2.4-7.7l4.4-13.2h3.4v28h-2.8v-22.3L282.4,265.1z M291.8,278h-1.1v-3.9h2.9v3.6l-1.5,3.8h-1.2L291.8,278z M307.6,250
	c2.1,0,3.7,0.5,4.6,1.5c1,1.3,1.5,3,1.4,4.7v1.3c0,1.2-0.2,2.5-0.7,3.6c-0.5,1-1.4,1.7-2.5,1.9c1.2,0.3,2.2,1,2.8,2.1
	c0.6,1.2,0.9,2.5,0.9,3.9v2.4c0.1,1.8-0.4,3.5-1.5,4.9c-1.3,1.2-3,1.8-4.8,1.7h-6.3v-28L307.6,250z M306.8,261.9
	c1,0.1,2-0.2,2.8-0.8c0.7-0.8,1.1-1.9,0.9-3v-1.6c0.1-1-0.2-2-0.7-2.8c-0.6-0.7-1.5-1-2.3-0.9h-3v9L306.8,261.9z M307.7,275.2
	c2.2,0,3.3-1.3,3.3-3.8v-2.5c0.1-1.2-0.2-2.3-0.9-3.3c-0.8-0.7-1.9-1-2.9-0.9h-2.7v10.4H307.7z M320.7,265.8l-1.6,2.8v9.4h-3.1v-28
	h3.1v13.5l7.3-13.5h3.1l-6.9,12.8l7.2,15.2h-3.1L320.7,265.8z M337.2,252.8l-0.6,18.2c0,1-0.2,2-0.4,3c-0.1,0.8-0.5,1.5-0.9,2.2
	c-0.4,0.6-1,1.1-1.7,1.4c-0.8,0.3-1.7,0.5-2.6,0.5h-0.5v-2.8c0.5,0,1-0.1,1.5-0.2c0.4-0.1,0.7-0.4,0.9-0.7c0.2-0.4,0.4-0.8,0.5-1.3
	c0.1-0.6,0.1-1.2,0.2-1.8l0.7-21.2h11.2v28h-3.1v-25.2H337.2z M361.4,249.7c1.8-0.1,3.5,0.6,4.7,1.9c1.1,1.5,1.6,3.3,1.5,5.1v14.5
	c0.1,1.8-0.5,3.6-1.5,5.1c-1.2,1.3-2.9,2.1-4.7,1.9c-1.8,0.1-3.6-0.6-4.8-1.9c-1.1-1.5-1.7-3.3-1.6-5.1v-5.8h-4V278h-3.1v-28h3.1
	v12.6h4v-5.8c-0.1-1.8,0.5-3.7,1.6-5.1C357.9,250.3,359.6,249.6,361.4,249.7L361.4,249.7z M361.4,252.6c-0.9-0.1-1.9,0.3-2.5,1.1
	c-0.6,0.9-0.9,1.9-0.8,3v14.8c-0.1,1.1,0.2,2.1,0.8,3c0.6,0.7,1.5,1.1,2.5,1.1c0.9,0.1,1.9-0.3,2.5-1.1c0.6-0.9,0.9-1.9,0.8-3v-14.8
	c0.1-1.1-0.2-2.1-0.8-3C363.3,252.9,362.4,252.5,361.4,252.6L361.4,252.6z M379.5,265.6c-0.5,0.7-1.1,1.3-1.9,1.6
	c-0.7,0.4-1.6,0.6-2.4,0.6c-0.8,0-1.7-0.2-2.4-0.5c-0.7-0.3-1.3-0.8-1.7-1.4c-0.5-0.6-0.8-1.4-1-2.1c-0.2-0.9-0.3-1.7-0.3-2.6V250
	h3.1v10.9c-0.1,1,0.3,2.1,0.9,2.9c0.6,0.8,1.5,1.2,2.5,1.1c1.9,0,3-1.1,3.3-3.3V250h3v28h-3V265.6z M388,272.4l-1,5.6h-2.8l5.3-28
	h4.4l5.2,28H396l-1-5.6H388z M388.4,269.7h6.1l-3.1-16.2L388.4,269.7z M414.1,249.7c1.8-0.1,3.5,0.6,4.7,1.9
	c1.1,1.5,1.6,3.3,1.5,5.1v14.5c0.1,1.8-0.4,3.6-1.5,5.1c-2.6,2.6-6.8,2.6-9.5,0c-1.1-1.5-1.7-3.3-1.6-5.1v-5.8h-4V278h-3.1v-28h3.1
	v12.6h4v-5.8c-0.1-1.8,0.5-3.7,1.6-5.1C410.6,250.3,412.3,249.6,414.1,249.7L414.1,249.7z M414.1,252.6c-0.9-0.1-1.9,0.3-2.5,1.1
	c-0.6,0.9-0.8,1.9-0.8,3v14.8c-0.1,1.1,0.2,2.1,0.8,3c1.3,1.4,3.4,1.4,4.8,0.1c0,0,0.1-0.1,0.1-0.1c0.6-0.9,0.9-1.9,0.8-3v-14.8
	c0.1-1.1-0.2-2.1-0.8-3C416,252.9,415,252.5,414.1,252.6L414.1,252.6z M441.4,281.8V278h-18.8v-28h3.1v25.2h5.2V250h3v25.2h5.3V250
	h3v25.2h2.1v6.5L441.4,281.8z M456,262.4v2.8h-6.7v10h8.2v2.8h-11.3v-28h11.3v2.8h-8.2v9.6L456,262.4z M467,264.8l-4.1,13.2h-3.2
	v-28h2.7v20.9l2.6-8.2l4.2-12.7h3.4v28h-2.8v-22.3L467,264.8z M470.5,244.2c0.1,1.1-0.3,2.1-1.1,2.9c-0.9,0.7-2,1.1-3.1,1
	c-1.1,0.1-2.2-0.3-3.1-1c-0.8-0.8-1.2-1.8-1.2-2.9h1.9c0,0.6,0.2,1.2,0.7,1.6c0.5,0.3,1,0.5,1.6,0.4c0.6,0,1.1-0.1,1.6-0.4
	c0.5-0.4,0.7-1,0.7-1.6H470.5z M13.6,297.7c1.8-0.1,3.5,0.6,4.7,1.9c1.1,1.5,1.6,3.3,1.5,5.1v0.7c0,1.3-0.2,2.5-0.8,3.7
	c-0.6,1-1.5,1.8-2.5,2.1c1.1,0.3,2.1,1.1,2.6,2.1c0.6,1.1,0.8,2.4,0.8,3.6v2.2c0.1,1.8-0.4,3.6-1.5,5.1c-1.2,1.3-2.9,2.1-4.7,1.9
	c-1.8,0.1-3.5-0.6-4.6-1.9c-1.1-1.5-1.6-3.3-1.5-5.1v-2.7h2.9v2.9c-0.1,1.1,0.2,2.1,0.8,3c0.6,0.7,1.5,1.1,2.4,1.1
	c0.9,0.1,1.9-0.3,2.4-1.1c0.6-1,0.8-2.1,0.8-3.2V317c0-2.8-1.2-4.2-3.5-4.2h-1.3V310h1.4c0.9,0,1.8-0.3,2.4-1c0.7-0.8,1-1.8,0.9-2.8
	v-1.3c0.1-1.1-0.2-2.3-0.8-3.2c-0.6-0.8-1.5-1.2-2.4-1.1c-0.9-0.1-1.8,0.3-2.4,1.1c-0.6,0.9-0.9,1.9-0.8,3v1.9H7.4v-1.8
	c-0.1-1.8,0.4-3.6,1.5-5.1C10.1,298.3,11.8,297.6,13.6,297.7L13.6,297.7z M25.8,320.4l-1,5.6H22l5.3-28h4.4l5.3,28h-3.1l-1.1-5.6
	H25.8z M26.2,317.7h6.1l-3.1-16.2L26.2,317.7z M58.1,329.8V326H39.3v-28h3.1v25.2h5.2V298h3v25.2h5.3V298h3v25.2H61v6.5L58.1,329.8z
	 M70.9,313.1l-4,12.9h-3.2v-28h2.7v20.9l2.4-7.7l4.4-13.2h3.4v28h-2.8v-22.3L70.9,313.1z M83.9,326v-25.2h-5.1V298H92v2.8h-5V326
	H83.9z M102.5,319.8c-0.2,0.9-0.5,1.9-0.8,2.8c-0.3,0.8-0.7,1.4-1.3,2c-0.6,0.6-1.3,0.9-2.1,1.2c-1,0.3-2.1,0.4-3.1,0.3v-2.8
	c0.9,0.1,1.8-0.1,2.6-0.5c0.7-0.6,1.1-1.3,1.3-2.2l0.6-1.8L93.4,298h3l2.8,9.7l1.9,7l1.6-7l2.5-9.7h3.2L102.5,319.8z M122.6,297.7
	c1.8-0.1,3.5,0.6,4.7,1.9c1.1,1.5,1.6,3.3,1.5,5.1v2.5h-2.9v-2.7c0.1-1.1-0.2-2.1-0.8-3c-1.3-1.3-3.4-1.4-4.7-0.2
	c-0.1,0.1-0.1,0.1-0.2,0.2c-0.6,0.9-0.9,1.9-0.8,3v14.8c-0.1,1.1,0.2,2.1,0.8,3c1.3,1.3,3.4,1.4,4.7,0.2c0.1-0.1,0.1-0.1,0.2-0.2
	c0.6-0.9,0.8-1.9,0.8-3v-3.6h2.9v3.5c0.1,1.8-0.4,3.6-1.5,5.1c-2.6,2.6-6.7,2.6-9.3,0c-1.1-1.5-1.6-3.3-1.5-5.1v-14.5
	c0-1,0.1-2,0.4-2.9c0.2-0.8,0.6-1.6,1.1-2.2c0.5-0.6,1.2-1.1,1.9-1.4C120.8,297.9,121.7,297.7,122.6,297.7L122.6,297.7z M135.8,326
	v-25.2h-5.1V298h13.2v2.8h-5.1V326H135.8z M145.9,304.8c-0.1-1.8,0.5-3.7,1.6-5.1c1.2-1.3,2.9-2,4.7-1.9c1.8-0.1,3.5,0.6,4.8,1.9
	c1.1,1.5,1.7,3.3,1.6,5.1v14.5c0.1,1.8-0.5,3.6-1.6,5.1c-1.2,1.3-3,2.1-4.8,1.9c-1.8,0.1-3.5-0.6-4.7-1.9c-1.1-1.5-1.6-3.3-1.6-5.1
	V304.8z M148.9,319.4c-0.1,1.1,0.2,2.1,0.8,3c0.6,0.7,1.5,1.1,2.4,1.1c0.9,0.1,1.9-0.3,2.5-1.1c0.6-0.9,0.9-1.9,0.8-3v-14.8
	c0.1-1.1-0.2-2.1-0.8-3c-0.6-0.7-1.5-1.1-2.5-1.1c-0.9-0.1-1.9,0.3-2.4,1.1c-0.6,0.9-0.9,1.9-0.8,3V319.4z M164.5,300.8V326h-3v-28
	h12.9v28h-3.1v-25.2H164.5z M183.2,309c1.8-0.2,3.5,0.5,4.8,1.7c1.1,1.4,1.7,3.2,1.6,5.1v3.4c0.1,1.8-0.4,3.6-1.5,5
	c-1.2,1.3-2.9,2-4.7,1.8h-6V298h3.1v11H183.2z M183.4,323.1c0.9,0.1,1.8-0.3,2.4-1c0.5-0.9,0.8-1.9,0.7-2.9v-3.6
	c0.1-1-0.2-2.1-0.8-2.9c-0.7-0.6-1.6-0.9-2.6-0.9h-2.7v11.3L183.4,323.1z M195.1,298v28h-3v-28H195.1z M199.6,326h-1.1v-3.9h2.9v3.6
	l-1.5,3.8h-1.2L199.6,326z M213.7,300.8V326h-3v-28h10.9v2.8H213.7z M224.3,304.8c-0.1-1.8,0.5-3.7,1.6-5.1c1.2-1.3,2.9-2,4.7-1.9
	c1.8-0.1,3.5,0.6,4.8,1.9c1.1,1.5,1.7,3.3,1.6,5.1v14.5c0.1,1.8-0.5,3.6-1.6,5.1c-1.2,1.3-3,2.1-4.8,1.9c-1.8,0.1-3.5-0.6-4.7-1.9
	c-1.1-1.5-1.6-3.3-1.6-5.1V304.8z M227.3,319.4c-0.1,1.1,0.2,2.1,0.8,3c1.3,1.4,3.4,1.4,4.8,0.1c0,0,0.1-0.1,0.1-0.1
	c0.6-0.9,0.9-1.9,0.8-3v-14.8c0.1-1.1-0.2-2.1-0.8-3c-1.3-1.4-3.4-1.4-4.8-0.1c0,0-0.1,0.1-0.1,0.1c-0.6,0.9-0.9,1.9-0.8,3V319.4z
	 M245.7,300.8L245,319c0,1-0.2,2-0.4,3c-0.1,0.8-0.5,1.5-0.9,2.2c-0.4,0.6-1,1.1-1.7,1.4c-0.8,0.3-1.7,0.5-2.6,0.5H239v-2.8
	c0.5,0,1-0.1,1.5-0.2c0.4-0.1,0.7-0.4,0.9-0.7c0.2-0.4,0.4-0.8,0.4-1.3c0.1-0.6,0.1-1.2,0.2-1.8l0.7-21.2H254v28h-3.1v-25.2H245.7z
	 M267,310.4v2.8h-6.7v10h8.2v2.8h-11.3v-28h11.3v2.8h-8.2v9.6L267,310.4z M274.4,313.4V326h-3.1v-28h3.1v12.6h6.7V298h3.1v28h-3.1
	v-12.6H274.4z M294.6,313l-4.1,13h-3.2v-28h2.7v20.9l2.8-8.8l4-12h3.4v28h-2.8v-22.3L294.6,313z M304.7,326h-1.1v-3.9h2.9v3.6
	l-1.5,3.8h-1.2L304.7,326z M318.8,300.8V326h-3.1v-28h12.9v28h-3.1v-25.2H318.8z M337.7,298c2.2,0,3.7,0.6,4.7,1.8
	c1,1.5,1.5,3.2,1.5,5v3.4c0.1,1.8-0.4,3.6-1.5,5.1c-1.3,1.2-3.1,1.9-4.8,1.7h-2.7v11h-3V298H337.7z M337.5,312.2
	c0.9,0.1,1.9-0.2,2.5-0.9c0.6-0.8,0.9-1.9,0.8-2.9v-3.7c0.1-1-0.2-2-0.7-2.9c-0.6-0.7-1.5-1.1-2.4-1h-2.9v11.3L337.5,312.2z
	 M356,310.4v2.8h-6.7v10h8.2v2.8h-11.3v-28h11.3v2.8h-8.2v9.6L356,310.4z M373.9,329.8V326h-11.2v3.8h-2.9v-6.6h1.8
	c0.5-0.5,0.8-1.1,0.9-1.8c0.2-0.8,0.2-1.5,0.3-2.3l1.1-21.2h11v25.2h2.1v6.6H373.9z M365.7,319.1c0,0.8-0.1,1.7-0.3,2.5
	c-0.2,0.6-0.5,1.2-0.9,1.6h7.2v-22.4h-5.1L365.7,319.1z M382.6,300.8V326h-3.1v-28h12.9v28h-3.1v-25.2H382.6z M401.4,300.8
	l-0.6,18.2c0,1-0.2,2-0.4,3c-0.1,0.8-0.5,1.5-0.9,2.2c-0.4,0.6-1,1.1-1.7,1.4c-0.8,0.3-1.7,0.5-2.6,0.5h-0.5v-2.9
	c0.5,0,1-0.1,1.5-0.2c0.4-0.1,0.7-0.4,0.9-0.7c0.2-0.4,0.4-0.8,0.5-1.3c0.1-0.6,0.1-1.2,0.2-1.8l0.7-21.2h11.2v28h-3v-25.2H401.4z
	 M422.7,310.4v2.8H416v10h8.2v2.8h-11.3v-28h11.3v2.8H416v9.6L422.7,310.4z M436.6,313.6c-0.5,0.7-1.1,1.3-1.9,1.6
	c-0.7,0.4-1.6,0.6-2.4,0.6c-0.8,0-1.7-0.2-2.4-0.5c-0.7-0.3-1.3-0.8-1.7-1.4c-0.5-0.6-0.8-1.4-1-2.1c-0.2-0.9-0.3-1.7-0.3-2.6V298
	h3.1v10.9c0,1,0.3,2.1,0.9,2.9c0.6,0.8,1.5,1.2,2.5,1.1c1.9,0,3-1.1,3.3-3.3V298h3v28h-3V313.6z M448.5,309c1.8-0.2,3.5,0.5,4.8,1.7
	c1.1,1.4,1.7,3.2,1.5,5.1v3.4c0.1,1.8-0.4,3.6-1.5,5c-1.2,1.3-2.9,2-4.7,1.8h-6V298h3v11H448.5z M448.8,323.1c0.9,0.1,1.8-0.3,2.4-1
	c0.5-0.9,0.8-1.9,0.7-2.9v-3.6c0.1-1-0.2-2.1-0.8-2.9c-0.7-0.6-1.6-0.9-2.5-0.9h-2.7v11.3L448.8,323.1z M464.8,314
	c-1.1-0.1-2.1,0.2-3,0.9c-0.8,0.9-1.1,2.1-1,3.3v4.4c0,0.7,0,1.4-0.1,2.1c-0.1,0.4-0.2,0.9-0.4,1.3h-3.1c0.2-0.5,0.4-1,0.5-1.6
	c0.1-0.6,0.1-1.2,0.1-1.8v-4.4c0-1.3,0.2-2.6,0.8-3.8c0.5-1,1.5-1.8,2.6-2.1c-2.2-0.7-3.4-2.7-3.4-5.8v-2.2
	c-0.1-1.7,0.4-3.4,1.4-4.8c1-1.1,2.5-1.6,4.7-1.6h6.1v28h-3.1v-12H464.8z M464,300.8c-0.9-0.1-1.8,0.3-2.5,1
	c-0.5,0.9-0.8,1.9-0.7,2.9v2.7c0,1.5,0.3,2.5,1,3.1c0.8,0.6,1.8,0.8,2.8,0.8h2.3v-10.4L464,300.8z M474.5,326h-1.1v-3.9h2.9v3.6
	l-1.5,3.8h-1.2L474.5,326z"/>
<path class="st3" d="M12.2,361.8l-1.6,2.8v9.4H7.6v-28h3.1v13.5l7.3-13.5H21l-6.9,12.8l7.2,15.2h-3.1L12.2,361.8z M30.3,361l-4.1,13
	h-3.2v-28h2.7v20.9l2.8-8.9l4-12H36v28h-2.7v-22.3L30.3,361z M44.5,345.7c1.8-0.1,3.5,0.6,4.7,1.9c1.1,1.5,1.6,3.3,1.5,5.1v2.5h-2.9
	v-2.7c0.1-1.1-0.2-2.1-0.8-3c-0.6-0.7-1.5-1.1-2.5-1.1c-0.9-0.1-1.8,0.3-2.4,1.1c-0.6,0.9-0.8,1.9-0.8,3v14.8
	c-0.1,1.1,0.2,2.1,0.8,3c0.6,0.7,1.5,1.1,2.4,1.1c0.9,0.1,1.9-0.3,2.5-1.1c0.6-0.9,0.8-1.9,0.8-3v-3.6h2.9v3.5
	c0.1,1.8-0.4,3.6-1.5,5.1c-1.2,1.4-2.9,2.1-4.7,1.9c-1.8,0.1-3.5-0.6-4.6-1.9c-1.1-1.5-1.6-3.3-1.5-5.1v-14.5c0-1,0.1-2,0.4-2.9
	c0.2-0.8,0.6-1.6,1.1-2.2c0.5-0.6,1.2-1.1,1.9-1.4C42.7,345.9,43.6,345.7,44.5,345.7L44.5,345.7z M57.2,374v-25.2h-5V346h13.1v2.8
	h-5.1V374H57.2z M74.3,361l-4.1,13h-3.2v-28h2.7v20.9l2.8-8.9l4-12H80v28h-2.7v-22.3L74.3,361z M83.9,374h-1.1v-3.9h2.9v3.6
	l-1.5,3.8H83L83.9,374z M97,348.8V374h-3.1v-28h12.9v28h-3.1v-25.2H97z M112.5,368.4l-1,5.6h-2.8l5.3-28h4.4l5.2,28h-3.1l-1.1-5.6
	H112.5z M112.9,365.7h6.1l-3.1-16.2L112.9,365.7z M132.3,361.9l-4.6,12.1h-2.9l5.5-14.4l-5.2-13.6h3.2l4.2,11.2l4.3-11.2h2.9
	l-5.1,13.6L140,374h-3.2L132.3,361.9z M145.1,368.4L144,374h-2.8l5.2-28h4.4l5.2,28h-3l-1.1-5.6H145.1z M145.5,365.7h6.1l-3.1-16.2
	L145.5,365.7z M159.4,374h-1.1v-3.9h2.9v3.6l-1.5,3.8h-1.2L159.4,374z M174,361.8l-1.6,2.8v9.4h-3.1v-28h3.1v13.5l7.3-13.5h3.1
	l-6.9,12.8L183,374h-3.1L174,361.8z M184.6,352.8c-0.1-1.8,0.5-3.7,1.6-5.1c1.2-1.3,2.9-2,4.7-1.9c1.8-0.1,3.5,0.6,4.8,1.9
	c1.1,1.5,1.7,3.3,1.6,5.1v14.5c0.1,1.8-0.5,3.6-1.6,5.1c-1.2,1.3-3,2.1-4.8,1.9c-1.8,0.1-3.5-0.6-4.7-1.9c-1.1-1.5-1.6-3.3-1.6-5.1
	V352.8z M187.6,367.4c-0.1,1.1,0.2,2.1,0.8,3c1.3,1.4,3.4,1.4,4.8,0.1c0,0,0.1-0.1,0.1-0.1c0.6-0.9,0.9-1.9,0.8-3v-14.8
	c0.1-1.1-0.2-2.1-0.8-3c-1.3-1.4-3.4-1.4-4.8-0.1c0,0-0.1,0.1-0.1,0.1c-0.6,0.9-0.9,1.9-0.8,3V367.4z M205.6,346
	c2.2,0,3.7,0.6,4.7,1.8c1,1.5,1.5,3.2,1.4,5v3.4c0.1,1.8-0.4,3.6-1.6,5.1c-1.3,1.2-3.1,1.9-4.8,1.7h-2.7v11h-3V346H205.6z
	 M205.4,360.2c0.9,0.1,1.9-0.2,2.6-0.9c0.6-0.8,0.9-1.9,0.8-2.9v-3.7c0.1-1-0.2-2-0.7-2.9c-0.6-0.7-1.5-1.1-2.4-1h-2.9v11.3
	L205.4,360.2z M216.7,348.8V374h-3.1v-28h12.9v28h-3.1v-25.2H216.7z M237.4,367.8c-0.2,0.9-0.5,1.9-0.8,2.8c-0.3,0.8-0.7,1.4-1.3,2
	c-0.6,0.5-1.3,0.9-2.1,1.2c-1,0.2-2.1,0.3-3.1,0.2v-2.8c0.9,0.1,1.8-0.1,2.6-0.5c0.7-0.6,1.1-1.4,1.3-2.2l0.6-1.8l-6.3-20.6h3.1
	l2.8,9.7l1.9,7l1.6-7l2.5-9.7h3.2L237.4,367.8z M250.9,345.7c1.8-0.1,3.5,0.6,4.7,1.9c1.1,1.5,1.6,3.3,1.5,5.1v2.5h-2.9v-2.7
	c0.1-1.1-0.2-2.1-0.8-3c-0.6-0.7-1.5-1.1-2.4-1.1c-0.9-0.1-1.9,0.3-2.4,1.1c-0.6,0.9-0.8,1.9-0.8,3v14.8c-0.1,1.1,0.2,2.1,0.8,3
	c0.6,0.7,1.5,1.1,2.4,1.1c0.9,0.1,1.9-0.3,2.4-1.1c0.6-0.9,0.8-1.9,0.8-3v-3.6h2.9v3.5c0.1,1.8-0.4,3.6-1.5,5.1
	c-2.6,2.6-6.7,2.6-9.3,0c-1.1-1.5-1.6-3.3-1.5-5.1v-14.5c0-1,0.1-2,0.4-2.9c0.2-0.8,0.6-1.6,1.1-2.2c0.5-0.6,1.2-1.1,1.9-1.4
	C249,345.9,249.9,345.7,250.9,345.7L250.9,345.7z M262.4,368.4l-1.1,5.6h-2.8l5.2-28h4.4l5.2,28h-3l-1.1-5.6H262.4z M262.8,365.7
	h6.2l-3.1-16.2L262.8,365.7z M276.7,374h-1.1v-3.9h2.9v3.6l-1.5,3.8h-1.2L276.7,374z M289.8,348.8V374h-3v-28h10.9v2.8H289.8z
	 M299.9,352.8c-0.1-1.8,0.4-3.7,1.5-5.1c2.6-2.5,6.8-2.5,9.5,0c1.1,1.5,1.7,3.3,1.6,5.1v14.5c0.1,1.8-0.5,3.6-1.6,5.1
	c-2.6,2.6-6.8,2.6-9.5,0c-1.1-1.5-1.6-3.3-1.5-5.1V352.8z M302.9,367.4c-0.1,1.1,0.2,2.1,0.8,3c1.3,1.4,3.4,1.4,4.8,0.1
	c0,0,0.1-0.1,0.1-0.1c0.6-0.9,0.8-1.9,0.8-3v-14.8c0.1-1.1-0.2-2.1-0.8-3c-1.3-1.4-3.4-1.4-4.8-0.1c0,0-0.1,0.1-0.1,0.1
	c-0.6,0.9-0.9,1.9-0.8,3V367.4z M320.7,348.8l-0.6,18.2c0,1-0.2,2-0.4,3c-0.1,0.8-0.5,1.5-0.9,2.2c-0.4,0.6-1,1.1-1.7,1.4
	c-0.8,0.3-1.7,0.5-2.6,0.5h-0.5v-2.8c0.5,0,1-0.1,1.5-0.2c0.4-0.1,0.7-0.4,0.9-0.7c0.3-0.4,0.4-0.8,0.5-1.2c0.1-0.6,0.1-1.2,0.1-1.8
	l0.8-21.2H329v28h-3v-25.2L320.7,348.8z M331.5,352.8c-0.1-1.8,0.4-3.7,1.5-5.1c2.6-2.5,6.8-2.5,9.5,0c1.1,1.5,1.7,3.3,1.6,5.1v14.5
	c0.1,1.8-0.5,3.7-1.6,5.1c-2.6,2.6-6.8,2.6-9.5,0c-1.1-1.5-1.6-3.3-1.5-5.1V352.8z M334.5,367.4c-0.1,1.1,0.2,2.1,0.8,3
	c1.3,1.4,3.4,1.4,4.8,0.1c0,0,0.1-0.1,0.1-0.1c0.6-0.9,0.8-1.9,0.8-3v-14.8c0.1-1.1-0.2-2.1-0.8-3c-1.3-1.4-3.4-1.4-4.8-0.1
	c0,0-0.1,0.1-0.1,0.1c-0.6,0.9-0.9,1.9-0.8,3V367.4z M352.7,346c2.1,0,3.7,0.5,4.6,1.5c1,1.3,1.5,3,1.4,4.7v1.3
	c0.1,1.2-0.2,2.5-0.7,3.6c-0.5,1-1.4,1.7-2.5,1.9c1.2,0.3,2.2,1,2.8,2.1c0.6,1.2,0.9,2.5,0.8,3.9v2.4c0.1,1.8-0.4,3.5-1.5,4.9
	c-1.3,1.2-3,1.8-4.8,1.7h-6.3v-28H352.7z M351.9,357.9c1,0.1,2-0.2,2.8-0.8c0.7-0.8,1.1-1.9,0.9-3v-1.6c0.1-1-0.2-2-0.7-2.8
	c-0.6-0.7-1.5-1-2.3-0.9h-3v9L351.9,357.9z M352.8,371.2c2.2,0,3.3-1.3,3.3-3.8v-2.5c0.1-1.2-0.2-2.3-0.9-3.3
	c-0.8-0.7-1.9-1-2.9-0.9h-2.7v10.4H352.8z M367.1,357c1.8-0.2,3.5,0.5,4.8,1.7c1.1,1.4,1.7,3.2,1.5,5.1v3.4c0.1,1.8-0.4,3.6-1.5,5
	c-1.2,1.3-2.9,2-4.7,1.8h-6V346h3.1v11H367.1z M367.4,371.1c0.9,0.1,1.8-0.3,2.4-1c0.5-0.9,0.8-1.9,0.7-2.9v-3.6
	c0.1-1-0.2-2.1-0.8-2.9c-0.7-0.6-1.6-0.9-2.5-0.9h-2.7v11.3L367.4,371.1z M379.1,346v28h-3v-28H379.1z M384.7,370.1v3.9h-2.9v-3.9
	H384.7z M397,374v-25.2h-5V346h13.2v2.8h-5.1V374H397z M410,368.4l-1,5.6h-2.8l5.3-28h4.4l5.2,28H418l-1-5.6H410z M410.4,365.7h6.1
	l-3.1-16.2L410.4,365.7z M427.6,361.8l-1.6,2.8v9.4h-3v-28h3v13.5l7.3-13.5h3.1l-6.9,12.8l7.2,15.2h-3.1L427.6,361.8z M451.9,360.8
	l-1.5,2.6V374h-3v-10.6l-1.4-2.7l-5.2,13.2h-3.1l6.3-16.1l-6.1-11.9h3.1l6.6,12.9V346h3v12.9l6.6-12.9h3.1l-6.1,11.8l6.2,16.2h-3.1
	L451.9,360.8z M471.8,358.4v2.8h-6.7v10h8.2v2.8H462v-28h11.3v2.8h-8.2v9.6L471.8,358.4z"/>
<path class="st2" d="M7.3,400.8c-0.1-1.8,0.5-3.7,1.6-5.1c1.2-1.3,2.9-2,4.7-1.9c1.8-0.1,3.5,0.6,4.8,1.9c1.1,1.5,1.7,3.3,1.6,5.1
	v14.5c0.1,1.8-0.5,3.6-1.6,5.1c-1.2,1.3-3,2.1-4.8,1.9c-1.8,0.1-3.5-0.6-4.7-1.9c-1.1-1.5-1.6-3.3-1.6-5.1L7.3,400.8z M10.3,415.4
	c-0.1,1.1,0.2,2.1,0.8,3c0.6,0.7,1.5,1.1,2.4,1.1c0.9,0.1,1.9-0.3,2.5-1.1c0.6-0.9,0.9-1.9,0.8-3v-14.8c0.1-1.1-0.2-2.1-0.8-3
	c-0.6-0.7-1.5-1.1-2.5-1.1c-0.9-0.1-1.9,0.3-2.4,1.1c-0.6,0.9-0.9,1.9-0.8,3L10.3,415.4z M29.1,405.6c1.8-0.1,3.5,0.4,4.8,1.6
	c1.1,1,1.6,2.7,1.6,5v3.1c0.1,1.8-0.4,3.6-1.5,5c-1.2,1.3-3,1.9-4.8,1.8h-6.4v-28h11.6v2.8h-8.5v8.7L29.1,405.6z M29.2,419.2
	c0.9,0.1,1.8-0.3,2.5-0.9c0.6-0.8,0.9-1.8,0.8-2.9v-3.5c0.1-1-0.2-2-0.9-2.8c-0.7-0.6-1.6-0.8-2.5-0.8h-3.2v10.8H29.2z M45.6,410
	c-1.1-0.1-2.1,0.2-3,0.9c-0.8,0.9-1.1,2.1-1,3.3v4.4c0,0.7,0,1.4-0.1,2.1c-0.1,0.5-0.2,0.9-0.4,1.3H38c0.2-0.5,0.4-1,0.5-1.6
	c0.1-0.6,0.1-1.2,0.1-1.8v-4.4c0-1.3,0.2-2.6,0.8-3.8c0.6-1,1.5-1.8,2.7-2c-2.2-0.8-3.4-2.7-3.4-5.8v-2.3c-0.1-1.7,0.3-3.4,1.4-4.8
	c1-1.1,2.6-1.6,4.7-1.6h6.1v28h-3v-12H45.6z M44.8,396.8c-0.9-0.1-1.8,0.3-2.5,1c-0.5,0.9-0.8,1.9-0.7,2.9v2.7c0,1.5,0.3,2.5,1,3.1
	c0.8,0.6,1.8,0.8,2.8,0.8h2.3v-10.4L44.8,396.8z M60,393.7c1.8-0.1,3.5,0.6,4.7,1.9c1.1,1.5,1.6,3.3,1.5,5.1v0.7
	c0,1.3-0.2,2.5-0.8,3.7c-0.6,1-1.5,1.8-2.5,2.1c1.1,0.3,2,1.1,2.6,2.1c0.6,1.1,0.8,2.4,0.8,3.6v2.2c0.1,1.8-0.4,3.6-1.5,5.1
	c-1.2,1.4-2.9,2.1-4.7,1.9c-1.8,0.1-3.5-0.6-4.7-1.9c-1.1-1.5-1.6-3.3-1.5-5.1v-2.7h2.9v2.9c-0.1,1.1,0.2,2.1,0.8,3
	c1.2,1.3,3.3,1.4,4.7,0.2c0.1-0.1,0.1-0.1,0.2-0.2c0.6-1,0.8-2.1,0.8-3.2V413c0-2.8-1.2-4.2-3.5-4.2h-1.3V406h1.5
	c0.9,0,1.8-0.3,2.5-1c0.7-0.8,1-1.8,0.9-2.8v-1.3c0.1-1.1-0.2-2.3-0.8-3.2c-1.2-1.3-3.3-1.4-4.7-0.2c-0.1,0.1-0.1,0.1-0.2,0.2
	c-0.6,0.9-0.8,1.9-0.8,3v1.9h-2.8v-1.8c-0.1-1.8,0.4-3.6,1.5-5.1C56.5,394.3,58.2,393.6,60,393.7z M72.2,416.4l-1.1,5.6h-2.8l5.2-28
	h4.4l5.2,28h-3.1l-1-5.6H72.2z M72.6,413.7h6.1l-3.1-16.2L72.6,413.7z M89.9,422v-25.2h-5.1V394H98v2.8h-5.1V422H89.9z M110,406.4
	v2.8h-6.7v10h8.2v2.8h-11.2v-28h11.3v2.8h-8.2v9.6L110,406.4z M120.2,396.8l-0.6,18.2c0,1-0.2,2-0.3,3c-0.2,0.8-0.5,1.5-0.9,2.2
	c-0.4,0.6-1,1.1-1.7,1.4c-0.8,0.3-1.7,0.5-2.6,0.5h-0.5v-2.8c0.5,0,1-0.1,1.5-0.2c0.4-0.1,0.7-0.4,0.9-0.7c0.2-0.4,0.4-0.8,0.4-1.3
	c0.1-0.6,0.1-1.2,0.2-1.8l0.8-21.2h11.2v28h-3.1v-25.2H120.2z M137.6,405c1.8-0.2,3.5,0.5,4.8,1.7c1.1,1.4,1.7,3.2,1.6,5.1v3.4
	c0.1,1.8-0.4,3.6-1.5,5c-1.2,1.3-2.9,2-4.7,1.8h-6V394h3.1v11H137.6z M137.8,419.1c0.9,0.1,1.8-0.3,2.4-1c0.5-0.9,0.8-1.9,0.7-2.9
	v-3.6c0.1-1-0.2-2.1-0.8-2.9c-0.7-0.6-1.6-0.9-2.6-0.9h-2.7v11.3L137.8,419.1z M149.8,409.4V422h-3.1v-28h3.1v12.6h6.8V394h3.1v28
	h-3.1v-12.6H149.8z M162.5,400.8c-0.1-1.8,0.5-3.7,1.6-5.1c1.2-1.3,2.9-2,4.7-1.9c1.8-0.1,3.5,0.6,4.7,1.9c1.1,1.5,1.7,3.3,1.6,5.1
	v14.5c0.1,1.8-0.5,3.6-1.6,5.1c-1.2,1.3-2.9,2.1-4.7,1.9c-1.8,0.1-3.5-0.6-4.7-1.9c-1.1-1.5-1.6-3.3-1.6-5.1V400.8z M165.5,415.4
	c-0.1,1.1,0.2,2.1,0.8,3c1.3,1.4,3.4,1.4,4.8,0.1c0,0,0.1-0.1,0.1-0.1c0.6-0.9,0.8-1.9,0.8-3v-14.8c0.1-1.1-0.2-2.1-0.8-3
	c-1.3-1.4-3.4-1.4-4.8-0.1c0,0-0.1,0.1-0.1,0.1c-0.6,0.9-0.9,1.9-0.8,3V415.4z M194.8,409l-4.1,13h-3.2v-28h2.7v20.9l2.8-8.8l4-12
	h3.4v28h-2.8v-22.3L194.8,409z M209.5,393.7c1.8-0.1,3.5,0.6,4.7,1.9c1.1,1.5,1.6,3.3,1.5,5.1v2.5h-2.9v-2.7c0.1-1.1-0.2-2.1-0.8-3
	c-1.3-1.3-3.4-1.4-4.7-0.2c-0.1,0.1-0.1,0.1-0.2,0.2c-0.6,0.9-0.8,1.9-0.8,3v14.8c-0.1,1.1,0.2,2.1,0.8,3c1.3,1.3,3.4,1.4,4.7,0.2
	c0.1-0.1,0.1-0.1,0.2-0.2c0.6-0.9,0.8-1.9,0.8-3v-3.6h2.9v3.5c0.1,1.8-0.4,3.6-1.5,5.1c-1.2,1.4-2.9,2.1-4.7,1.9
	c-1.8,0.1-3.5-0.6-4.6-1.9c-1.1-1.5-1.6-3.3-1.5-5.1v-14.5c0-1,0.1-2,0.4-2.9c0.2-0.8,0.6-1.6,1.1-2.2c0.5-0.6,1.2-1.1,1.9-1.4
	C207.6,393.9,208.5,393.7,209.5,393.7L209.5,393.7z M221.5,396.8V422h-3.1v-28h12.9v28h-3.1v-25.2H221.5z M234.2,400.8
	c-0.1-1.8,0.4-3.7,1.6-5.1c2.6-2.5,6.8-2.5,9.5,0c1.1,1.5,1.7,3.3,1.6,5.1v14.5c0.1,1.8-0.5,3.7-1.6,5.1c-2.6,2.6-6.8,2.6-9.5,0
	c-1.1-1.5-1.6-3.3-1.6-5.1V400.8z M237.2,415.4c-0.1,1.1,0.2,2.1,0.8,3c1.3,1.4,3.4,1.4,4.8,0.1c0,0,0.1-0.1,0.1-0.1
	c0.6-0.9,0.8-1.9,0.8-3v-14.8c0.1-1.1-0.2-2.1-0.8-3c-1.3-1.4-3.4-1.4-4.8-0.1c0,0-0.1,0.1-0.1,0.1c-0.6,0.9-0.9,1.9-0.8,3V415.4z
	 M255.5,396.8l-0.6,18.2c0,1-0.2,2-0.4,3c-0.1,0.8-0.5,1.5-0.9,2.2c-0.4,0.6-1,1.1-1.7,1.4c-0.8,0.3-1.7,0.5-2.6,0.5h-0.5v-2.9
	c0.5,0,1-0.1,1.5-0.2c0.4-0.1,0.7-0.4,0.9-0.7c0.2-0.4,0.4-0.8,0.4-1.3c0.1-0.6,0.1-1.2,0.2-1.8l0.7-21.2h11.2v28h-3.1v-25.2H255.5z
	 M272.9,405c1.8-0.2,3.5,0.5,4.8,1.7c1.1,1.4,1.7,3.2,1.5,5.1v3.4c0.1,1.8-0.4,3.6-1.5,5c-1.2,1.3-2.9,2-4.7,1.9h-6v-28h3v11H272.9z
	 M273.1,419.1c0.9,0.1,1.8-0.3,2.4-1c0.5-0.9,0.8-1.9,0.7-2.9v-3.6c0.1-1-0.2-2.1-0.8-2.9c-0.7-0.6-1.6-0.9-2.5-0.9h-2.7v11.3
	L273.1,419.1z M288,393.7c1.8-0.1,3.5,0.6,4.7,1.9c1.1,1.5,1.6,3.3,1.5,5.1v0.7c0,1.3-0.2,2.5-0.8,3.7c-0.6,1-1.5,1.8-2.5,2.1
	c1.1,0.3,2,1.1,2.6,2.1c0.6,1.1,0.8,2.4,0.8,3.6v2.2c0.1,1.8-0.4,3.6-1.5,5.1c-2.6,2.6-6.7,2.6-9.3,0c-1.1-1.5-1.6-3.3-1.5-5.1v-2.7
	h2.9v2.9c-0.1,1.1,0.2,2.1,0.8,3c1.2,1.3,3.3,1.4,4.7,0.2c0.1-0.1,0.1-0.1,0.2-0.2c0.6-1,0.8-2.1,0.8-3.2V413c0-2.8-1.2-4.2-3.5-4.2
	h-1.3V406h1.5c0.9,0,1.8-0.3,2.5-1c0.7-0.8,1-1.8,0.9-2.8v-1.3c0.1-1.1-0.2-2.3-0.8-3.2c-1.2-1.3-3.3-1.4-4.7-0.2
	c-0.1,0.1-0.1,0.1-0.2,0.2c-0.6,0.9-0.8,1.9-0.8,3v1.9h-2.8v-1.8c-0.1-1.8,0.4-3.6,1.5-5.1C284.5,394.3,286.2,393.6,288,393.7
	L288,393.7z M297,400.8c-0.1-1.8,0.4-3.7,1.5-5.1c2.6-2.5,6.8-2.5,9.5,0c1.1,1.5,1.7,3.3,1.6,5.1v14.5c0.1,1.8-0.5,3.7-1.6,5.1
	c-2.6,2.6-6.8,2.6-9.5,0c-1.1-1.5-1.6-3.3-1.5-5.1V400.8z M300,415.4c-0.1,1.1,0.2,2.1,0.8,3c1.3,1.4,3.4,1.4,4.8,0.1
	c0,0,0.1-0.1,0.1-0.1c0.6-0.9,0.8-1.9,0.8-3v-14.8c0.1-1.1-0.2-2.1-0.8-3c-1.3-1.4-3.4-1.4-4.8-0.1c0,0-0.1,0.1-0.1,0.1
	c-0.6,0.9-0.9,1.9-0.8,3V415.4z M318.6,394c2.1,0,3.7,0.5,4.6,1.5c1,1.3,1.5,3,1.4,4.7v1.3c0.1,1.2-0.2,2.5-0.7,3.6
	c-0.5,1-1.4,1.7-2.5,1.9c1.2,0.3,2.2,1,2.8,2.1c0.6,1.2,0.9,2.5,0.8,3.9v2.4c0.1,1.8-0.4,3.5-1.5,4.9c-1.3,1.2-3,1.8-4.7,1.7h-6.3
	v-28H318.6z M317.9,405.9c1,0.1,2-0.2,2.8-0.8c0.6-0.5,0.9-1.5,0.9-3v-1.6c0.1-1-0.2-2-0.7-2.8c-0.6-0.7-1.5-1-2.3-0.9h-3v9
	L317.9,405.9z M318.8,419.2c2.2,0,3.2-1.3,3.2-3.8v-2.5c0.1-1.2-0.2-2.3-0.9-3.3c-0.8-0.7-1.9-1-2.9-0.9h-2.7v10.4H318.8z
	 M330.9,416.4l-1.1,5.6H327l5.2-28h4.4l5.3,28h-3.1l-1.1-5.6H330.9z M331.3,413.7h6.1l-3.1-16.2L331.3,413.7z M347.4,409.4V422h-3.1
	v-28h3.1v12.6h6.7V394h3.1v28h-3.1v-12.6H347.4z M367.6,409l-4.1,13h-3.2v-28h2.7v20.9l2.8-8.8l4-12h3.4v28h-2.8v-22.3L367.6,409z
	 M386.1,406.4v2.8h-6.7v10h8.2v2.8h-11.3v-28h11.3v2.8h-8.2v9.6L386.1,406.4z M404.7,409.8l-1.6,2.8v9.4h-3.1v-28h3.1v13.5l7.3-13.5
	h3.1l-6.9,12.8l7.2,15.2h-3.1L404.7,409.8z M419.2,416.4l-1.1,5.6h-2.8l5.2-28h4.4l5.2,28h-3.1l-1-5.6H419.2z M419.6,413.7h6.1
	l-3.1-16.2L419.6,413.7z M435.7,396.8V422h-3.1v-28h12.9v28h-3.1v-25.2H435.7z M454.4,405c1.8-0.2,3.5,0.5,4.8,1.7
	c1.1,1.4,1.7,3.2,1.5,5.1v3.4c0.1,1.8-0.4,3.6-1.5,5c-1.2,1.3-2.9,2-4.7,1.8h-6V394h3v11H454.4z M454.6,419.1c0.9,0.1,1.8-0.3,2.4-1
	c0.5-0.9,0.8-1.9,0.7-2.9v-3.6c0.1-1-0.2-2.1-0.8-2.9c-0.7-0.6-1.6-0.9-2.5-0.9h-2.7v11.3L454.6,419.1z M466.4,394v28h-3v-28H466.4z
	 M472.4,418.1v3.9h-2.9v-3.9H472.4z M10.7,464.4L9.6,470H6.8l5.2-28h4.4l5.2,28h-3l-1.1-5.6H10.7z M11.1,461.7h6.1l-3.1-16.2
	L11.1,461.7z M47.9,473.8V470H36.7v3.8h-2.9v-6.6h1.8c0.5-0.5,0.8-1.1,0.9-1.8c0.2-0.8,0.2-1.5,0.3-2.3l1.1-21.2h11v25.2h2.1v6.6
	H47.9z M39.7,463.1c0,0.8-0.1,1.7-0.3,2.5c-0.2,0.6-0.5,1.2-0.9,1.6h7.2v-22.4h-5.1L39.7,463.1z M59.3,444.8L58.7,463
	c0,1-0.2,2-0.3,3c-0.1,0.8-0.5,1.5-0.9,2.2c-0.4,0.6-1,1.1-1.7,1.4c-0.8,0.3-1.7,0.5-2.6,0.5h-0.5v-2.8c0.5,0,1-0.1,1.5-0.2
	c0.4-0.1,0.7-0.4,0.9-0.7c0.2-0.4,0.4-0.8,0.5-1.3c0.1-0.6,0.1-1.2,0.2-1.8l0.8-21.2h11.2v28h-3.1v-25.2H59.3z M78,458
	c-1.1-0.1-2.1,0.2-3,0.9c-0.8,0.9-1.1,2.1-1,3.3v4.4c0,0.7,0,1.4-0.1,2.1c-0.1,0.4-0.2,0.9-0.4,1.3h-3.1c0.2-0.5,0.4-1,0.4-1.6
	c0.1-0.6,0.1-1.2,0.1-1.8v-4.4c0-1.3,0.2-2.6,0.8-3.8c0.5-1,1.5-1.8,2.6-2.1c-2.2-0.8-3.4-2.7-3.4-5.8v-2.2
	c-0.1-1.7,0.4-3.4,1.4-4.8c1-1.1,2.5-1.6,4.7-1.6h6.1v28h-3v-12H78z M77.2,444.8c-0.9-0.1-1.8,0.3-2.4,1c-0.5,0.9-0.8,1.9-0.7,2.9
	v2.7c0,1.5,0.3,2.5,1,3.1c0.8,0.6,1.8,0.8,2.8,0.8h2.3v-10.4L77.2,444.8z M109.9,441.7c1.8-0.1,3.5,0.6,4.7,1.9
	c1.1,1.5,1.6,3.3,1.6,5.1v14.5c0.1,1.8-0.5,3.6-1.6,5.1c-2.6,2.6-6.8,2.6-9.5,0c-1.1-1.5-1.7-3.3-1.6-5.1v-5.8h-4V470h-3v-28h3.1
	v12.6h4v-5.8c-0.1-1.8,0.5-3.7,1.6-5.1C106.4,442.3,108.1,441.6,109.9,441.7z M109.9,444.6c-0.9-0.1-1.9,0.3-2.5,1.1
	c-0.6,0.9-0.8,1.9-0.8,3v14.8c-0.1,1.1,0.2,2.1,0.8,3c1.3,1.4,3.4,1.4,4.8,0.1c0,0,0.1-0.1,0.1-0.1c0.6-0.9,0.9-1.9,0.8-3v-14.8
	c0.1-1.1-0.2-2.1-0.8-3C111.8,444.9,110.9,444.5,109.9,444.6z M122.2,457.4V470h-3.1v-28h3.1v12.6h6.7V442h3.1v28h-3.1v-12.6H122.2z
	 M140.9,453c1.8-0.1,3.5,0.5,4.8,1.7c1.1,1.4,1.7,3.2,1.6,5.1v3.4c0.1,1.8-0.4,3.6-1.5,5c-1.2,1.3-2.9,2-4.7,1.8h-6V442h3.1v11
	H140.9z M141.1,467.1c0.9,0.1,1.8-0.3,2.4-1c0.5-0.9,0.8-1.9,0.7-2.9v-3.6c0.1-1-0.2-2.1-0.8-2.9c-0.7-0.6-1.6-0.9-2.5-0.9h-2.7
	v11.3L141.1,467.1z M152.8,442v28h-3v-28H152.8z M162.8,457.9l-4.6,12.1h-2.9l5.5-14.4l-5.2-13.6h3.2l4.2,11.2l4.3-11.2h2.9
	l-5.1,13.6l5.5,14.4h-3.2L162.8,457.9z M189.2,441.7c1.8-0.1,3.5,0.6,4.7,1.9c1.1,1.5,1.6,3.3,1.5,5.1v2.5h-2.9v-2.7
	c0.1-1.1-0.2-2.1-0.8-3c-1.3-1.3-3.4-1.4-4.7-0.2c-0.1,0.1-0.1,0.1-0.2,0.2c-0.6,0.9-0.9,1.9-0.8,3v14.8c-0.1,1.1,0.2,2.1,0.8,3
	c1.3,1.3,3.4,1.4,4.7,0.2c0.1-0.1,0.1-0.1,0.2-0.2c0.6-0.9,0.8-1.9,0.8-3v-3.6h2.9v3.5c0.1,1.8-0.4,3.6-1.5,5.1
	c-1.2,1.4-2.9,2.1-4.7,1.9c-1.8,0.1-3.5-0.6-4.6-1.9c-1.1-1.5-1.6-3.3-1.5-5.1v-14.5c0-1,0.1-2,0.4-2.9c0.2-0.8,0.6-1.6,1.1-2.2
	c0.5-0.6,1.2-1.1,1.9-1.4C187.3,441.9,188.2,441.7,189.2,441.7L189.2,441.7z M201.2,444.8V470h-3.1v-28H211v28h-3v-25.2H201.2z
	 M213.9,448.8c-0.1-1.8,0.4-3.7,1.5-5.1c2.6-2.5,6.8-2.5,9.5,0c1.1,1.5,1.7,3.3,1.6,5.1v14.5c0.1,1.8-0.5,3.6-1.6,5.1
	c-2.6,2.6-6.8,2.6-9.5,0c-1.1-1.5-1.6-3.3-1.5-5.1V448.8z M216.9,463.4c-0.1,1.1,0.2,2.1,0.8,3c1.3,1.4,3.4,1.4,4.8,0.1
	c0,0,0.1-0.1,0.1-0.1c0.6-0.9,0.8-1.9,0.8-3v-14.8c0.1-1.1-0.2-2.1-0.8-3c-1.3-1.4-3.4-1.4-4.8-0.1c0,0-0.1,0.1-0.1,0.1
	c-0.6,0.9-0.9,1.9-0.8,3V463.4z M235.4,442c2.2,0,3.7,0.6,4.7,1.8c1,1.5,1.6,3.2,1.4,5v3.4c0.1,1.8-0.4,3.6-1.6,5.1
	c-1.3,1.2-3.1,1.9-4.8,1.7h-2.7v11h-3.1V442H235.4z M235.2,456.2c0.9,0.1,1.9-0.2,2.6-0.9c0.6-0.8,0.9-1.9,0.8-2.9v-3.7
	c0.1-1-0.2-2-0.7-2.9c-0.6-0.7-1.5-1.1-2.4-1h-2.9v11.3L235.2,456.2z M248.1,470v-25.2h-5.1V442h13.2v2.8h-5.1V470H248.1z
	 M264.4,441.7c1.8-0.1,3.5,0.6,4.7,1.9c1.1,1.5,1.6,3.3,1.5,5.1v2.5h-2.9v-2.7c0.1-1.1-0.2-2.1-0.8-3c-1.3-1.3-3.4-1.4-4.7-0.2
	c-0.1,0.1-0.1,0.1-0.2,0.2c-0.6,0.9-0.8,1.9-0.8,3v14.8c-0.1,1.1,0.2,2.1,0.8,3c1.3,1.3,3.4,1.4,4.7,0.2c0.1-0.1,0.1-0.1,0.2-0.2
	c0.6-0.9,0.8-1.9,0.8-3v-3.6h2.9v3.5c0.1,1.8-0.4,3.6-1.5,5.1c-1.2,1.4-2.9,2.1-4.7,1.9c-1.8,0.1-3.5-0.6-4.6-1.9
	c-1.1-1.5-1.6-3.3-1.5-5.1v-14.5c0-1,0.1-2,0.4-2.9c0.2-0.8,0.6-1.6,1.1-2.2c0.5-0.6,1.2-1.1,1.9-1.4
	C262.6,441.9,263.5,441.7,264.4,441.7L264.4,441.7z M283.5,470h-2.9l-4.6-22.3V470h-2.7v-28h4.3l4.5,22.4l4.4-22.4h4.3v28h-2.9
	v-22.5L283.5,470z M303.7,454.4v2.8H297v10h8.2v2.8h-11.3v-28h11.3v2.8H297v9.6L303.7,454.4z M311.1,457.4V470H308v-28h3.1v12.6h6.7
	V442h3.1v28h-3.1v-12.6H311.1z M323.8,448.8c-0.1-1.8,0.4-3.7,1.5-5.1c2.6-2.5,6.8-2.5,9.5,0c1.1,1.5,1.7,3.3,1.6,5.1v14.5
	c0.1,1.8-0.5,3.7-1.6,5.1c-2.6,2.6-6.8,2.6-9.5,0c-1.1-1.5-1.6-3.3-1.5-5.1V448.8z M326.8,463.4c-0.1,1.1,0.2,2.1,0.8,3
	c1.3,1.4,3.4,1.4,4.8,0.1c0,0,0.1-0.1,0.1-0.1c0.6-0.9,0.8-1.9,0.8-3v-14.8c0.1-1.1-0.2-2.1-0.8-3c-1.3-1.4-3.4-1.4-4.8-0.1
	c0,0-0.1,0.1-0.1,0.1c-0.6,0.9-0.9,1.9-0.8,3V463.4z M345.4,442c2.1,0,3.7,0.5,4.6,1.5c1,1.3,1.5,3,1.4,4.7v1.3
	c0.1,1.2-0.2,2.5-0.7,3.6c-0.5,1-1.4,1.7-2.5,1.9c1.2,0.3,2.2,1,2.8,2.1c0.6,1.2,0.9,2.5,0.9,3.9v2.4c0.1,1.8-0.4,3.5-1.5,4.9
	c-1.3,1.2-3,1.8-4.8,1.7h-6.3v-28H345.4z M344.7,453.9c1,0.1,2-0.2,2.8-0.8c0.7-0.8,1.1-1.9,0.9-3v-1.6c0.1-1-0.2-2-0.7-2.8
	c-0.6-0.7-1.5-1-2.3-0.9h-3v9L344.7,453.9z M345.6,467.2c2.2,0,3.3-1.3,3.3-3.8v-2.5c0.1-1.2-0.2-2.3-0.9-3.3
	c-0.8-0.7-1.9-1-2.9-0.9h-2.7v10.4H345.6z M364.8,454.6h7.5v2.8h-7.5V454.6z M395.6,470h-2.9l-4.5-22.3V470h-2.7v-28h4.3l4.5,22.4
	l4.4-22.4h4.3v28H400v-22.5L395.6,470z M409.1,464.4L408,470h-2.8l5.2-28h4.4l5.2,28H417l-1-5.6H409.1z M409.5,461.7h6.1l-3.1-16.2
	L409.5,461.7z M428.5,441.7c1.8-0.1,3.5,0.6,4.7,1.9c1.1,1.5,1.6,3.3,1.5,5.1v2.5h-2.9v-2.7c0.1-1.1-0.2-2.1-0.8-3
	c-1.3-1.3-3.4-1.4-4.7-0.2c-0.1,0.1-0.1,0.1-0.2,0.2c-0.6,0.9-0.8,1.9-0.8,3v14.8c-0.1,1.1,0.2,2.1,0.8,3c1.3,1.3,3.4,1.4,4.7,0.2
	c0.1-0.1,0.1-0.1,0.2-0.2c0.6-0.9,0.8-1.9,0.8-3v-3.6h2.9v3.5c0.1,1.8-0.4,3.6-1.5,5.1c-1.2,1.4-2.9,2.1-4.7,1.9
	c-1.8,0.1-3.5-0.6-4.6-1.9c-1.1-1.5-1.6-3.3-1.5-5.1v-14.5c0-1,0.1-2,0.4-2.9c0.2-0.8,0.6-1.6,1.1-2.2c0.5-0.6,1.2-1.1,1.9-1.4
	C426.6,441.9,427.5,441.7,428.5,441.7L428.5,441.7z M442.1,457.8l-1.6,2.8v9.4h-3.1v-28h3.1v13.5l7.3-13.5h3.1l-6.9,12.8l7.2,15.2
	H448L442.1,457.8z M460.7,457l-4.1,13h-3.2v-28h2.7v20.9l2.8-8.9l4-12h3.4v28h-2.8v-22.3L460.7,457z M472.4,466.1v3.9h-2.9v-3.9
	H472.4z"/>
</svg>
