<?xml version="1.0" encoding="utf-8"?>
<!-- Generator: Adobe Illustrator 26.0.2, SVG Export Plug-In . SVG Version: 6.00 Build 0)  -->
<svg version="1.1" id="Layer_1" xmlns="http://www.w3.org/2000/svg" xmlns:xlink="http://www.w3.org/1999/xlink" x="0px" y="0px"
	 viewBox="0 0 800 800" style="enable-background:new 0 0 800 800;" xml:space="preserve">
<style type="text/css">
	.st0{fill:none;stroke:#255D98;stroke-width:33;stroke-linecap:round;stroke-linejoin:round;stroke-miterlimit:6.25;}
</style>
<path class="st0" d="M50,250v462.5c0,6.9,5.6,12.5,12.5,12.5H275V250c0-13.8-11.2-25-25-25H75C61.2,225,50,236.2,50,250z"/>
<path class="st0" d="M500,75H300c-13.8,0-25,11.2-25,25v625h250V100C525,86.2,513.8,75,500,75z"/>
<path class="st0" d="M725,325H550c-13.8,0-25,11.2-25,25v375h212.5c6.9,0,12.5-5.6,12.5-12.5V350C750,336.2,738.8,325,725,325z"/>
</svg>
