<svg xmlns="http://www.w3.org/2000/svg" xmlns:xlink="http://www.w3.org/1999/xlink" xml:space="preserve" id="Layer_1" x="0" y="0" version="1.1" viewBox="0 0 2463 951"><style>.st0{fill:none}.st1{enable-background:new}.st2{fill:#f3f9fb}</style><path d="M631.7 270.4h1851.1v373.2H631.7z" class="st0"/><g class="st1"><path d="M647.3 614.8 690 289.5h51l-17.3 133.7 129.5-133.7h63.3L764.1 443.3l132 171.5h-62.4L718.2 461.5l-20 153.3h-50.9zM921.7 614.8l42.7-325.3h52L973 614.8h-51.3zM1047.6 614.8l42.7-325.3h69.1c36 0 62.7 2.3 80 6.8 17.3 4.5 33 12.1 47.1 22.8 17.5 13.3 30.9 30.5 40.2 51.4 9.3 21 14 44.5 14 70.5 0 23-3.7 44.9-11 65.8s-17.8 39.1-31.4 54.7c-9.6 11.1-20.5 20.5-32.5 28.1-12.1 7.6-25.2 13.4-39.4 17.4-9.5 2.7-19.6 4.6-30.3 5.9-10.7 1.3-24.1 1.9-40.1 1.9H1047.6zm56.9-46.4h18.7c36.6 0 62.5-1.7 77.8-5.1 15.3-3.4 28.4-9.1 39.5-17.1 15-10.8 26.6-25.2 34.9-43.3 8.3-18.1 12.4-37.9 12.4-59.5 0-18.7-3.3-35.4-10-50.3-6.7-14.9-16.2-27.1-28.7-36.5-9.6-7.4-20.5-12.7-32.7-15.8-12.1-3.1-32.1-4.7-59.8-4.7h-21.8l-30.3 232.3zM1358.4 558.8l35.8-29.5c8.9 17.8 18.4 30.6 28.7 38.5 10.2 7.9 22.2 11.9 36 11.9 17.2 0 31.1-5 41.8-15.1 10.7-10.1 16-23.2 16-39.3 0-11.4-2.8-21.1-8.4-29-5.6-7.9-15.6-16-29.8-24.3-3-1.8-7.3-4.3-13.1-7.6-24.3-13.5-40.7-24.9-49.1-34.2-6.1-6.7-10.6-14.4-13.7-23.1-3-8.7-4.6-18.2-4.6-28.4 0-28.6 9.2-51.9 27.5-69.9 18.4-18 42.4-27 72-27 20 0 37.5 4.1 52.5 12.2s27.4 20.3 37.2 36.4l-31.1 28.7c-7.3-11.8-15.3-20.7-24.2-26.4s-18.8-8.7-29.8-8.7c-16 0-29 4.7-38.9 14-9.9 9.3-14.9 21.4-14.9 36.2 0 17.8 14.3 34.4 42.9 49.8 7.1 3.7 12.5 6.7 16.2 8.9 21.9 12.7 37.4 26 46.5 39.7 9.1 13.7 13.7 30.5 13.7 50.3 0 30.8-9.9 55.3-29.8 73.4-19.8 18.1-46.8 27.2-80.9 27.2-23.1 0-42.8-5.3-59.2-16-16.2-10.7-29.3-26.9-39.3-48.7zM1665.9 614.8l36.9-278.4H1615l6.2-46.9h222.2l-6.4 46.9h-82.9l-36.9 278.4h-51.3zM1846.1 614.8l42.7-325.3h51.1l-17.3 133.7L2052 289.6h63.3L1963 443.3l132 171.5h-62.4L1917 461.5l-20 153.3h-50.9zM2120 614.8l42.7-325.3h69.1c36 0 62.7 2.3 80 6.8 17.3 4.5 33 12.1 47.1 22.8 17.5 13.3 30.9 30.5 40.2 51.4 9.3 21 14 44.5 14 70.5 0 23-3.7 44.9-11 65.8s-17.8 39.1-31.4 54.7c-9.6 11.1-20.5 20.5-32.5 28.1-12.1 7.6-25.2 13.4-39.4 17.4-9.5 2.7-19.6 4.6-30.3 5.9-10.7 1.3-24.1 1.9-40.1 1.9H2120zm56.9-46.4h18.7c36.6 0 62.5-1.7 77.8-5.1 15.3-3.4 28.4-9.1 39.5-17.1 15-10.8 26.6-25.2 34.9-43.3 8.3-18.1 12.4-37.9 12.4-59.5 0-18.7-3.3-35.4-10-50.3-6.7-14.9-16.2-27.1-28.7-36.5-9.6-7.4-20.5-12.7-32.7-15.8-12.1-3.1-32.1-4.7-59.8-4.7h-21.8l-30.3 232.3z" class="st2"/></g><path d="M616.3 659.1h1861.8v278.3H616.3z" class="st0"/><g class="st1"><path d="m645.7 810.5 16.2-122.4h-38.6l2.7-20.6h97.7l-2.8 20.6h-36.4l-16.2 122.4h-22.6zM692.4 810.5l82.8-148.6 52.2 148.6h-23.2l-11.6-33.8h-56.9l-18.8 33.8h-24.5zm52.3-52.8h41.8l-11-35.4c-.5-1.7-1.1-3.9-1.7-6.7-.6-2.8-1.3-6.5-2.1-11-1.4 3.4-2.8 6.6-4.2 9.6-1.4 3-2.8 5.9-4.2 8.5l-18.6 35zM834.9 810.5l18.8-143H934l-2.5 20.2h-58.1l-4.6 35.9h57.9l-2.6 20H866l-6 46.2h58l-2.8 20.6h-80.3zM943.7 810.5l18.8-143H985l-7.6 58.8 56.9-58.8h27.8l-67 67.6 58 75.4h-27.4l-50.8-67.4-8.8 67.4h-22.4z" class="st2"/><path d="M1053.2 667.5h23.1l19 85c.6 2.9 1.1 5.5 1.4 7.7.4 2.2.6 4.2.7 6.1 1.2-3.1 2.4-5.8 3.5-8.3 1.1-2.5 1.9-4.2 2.4-5.3l45.6-90.8 24.6 92c.3 1 .5 2.5.8 4.3s.7 4.5 1.1 8.1c.9-3.1 1.8-5.8 2.6-8.3.8-2.5 1.5-4.4 2-5.7l36.6-84.8h25.2L1171.2 816l-25.2-93.2c-.1-.5-.5-2.3-1.1-5.6-.5-3-1-5.5-1.4-7.4-1 3.3-2 6.1-2.9 8.5-.9 2.4-1.7 4.2-2.2 5.4l-47.8 92.2-37.4-148.4zM1322.1 664.1c21.7 0 39 6.3 51.9 19 12.9 12.7 19.3 29.6 19.3 50.8 0 11.4-2.1 22.1-6.3 32.2-4.2 10.1-10.2 18.8-17.9 26.2-7.5 7-16.1 12.4-26 16.2-9.8 3.7-20.3 5.6-31.4 5.6-20.8 0-37.5-6.4-50.3-19.1-12.8-12.8-19.1-29.5-19.1-50.3 0-11.6 2-22.4 6.1-32.6 4.1-10.1 10-18.9 17.7-26.2 7.3-7 15.8-12.3 25.5-16.1 9.7-3.8 19.9-5.7 30.5-5.7zm48.8 70.2c0-15-4.6-27.2-13.7-36.4s-21.2-13.8-36.2-13.8c-7.4 0-14.5 1.4-21.2 4.2-6.7 2.8-12.6 6.8-17.5 12-5.7 5.9-10.1 12.5-13.1 20s-4.5 15.3-4.5 23.5c0 14.9 4.5 27 13.5 36.3s20.7 13.9 35.2 13.9c16.3 0 30-5.7 41-17.1s16.5-25.6 16.5-42.6zM1409.8 810.5l19.3-148.6 78 89.5c2.8 3.3 5.3 6.3 7.6 9.3s4.4 5.8 6.3 8.7c0-3 .1-6.2.4-9.5.3-3.4.8-7.6 1.4-12.6l10.7-79.6h21l-19.3 148.5-78.2-89.4c-3.5-4-6.3-7.4-8.4-10.2-2.1-2.8-4-5.4-5.5-8-.1 4.4-.8 11.2-2 20.3-.1.9-.2 1.6-.3 2.1l-10.2 79.6h-20.8zM1568.4 810.5l18.8-143h30.4c15.8 0 27.5 1 35.2 3 7.6 2 14.5 5.3 20.7 10 7.7 5.9 13.6 13.4 17.7 22.6 4.1 9.2 6.2 19.5 6.2 31 0 10.1-1.6 19.7-4.8 28.9s-7.8 17.2-13.8 24c-4.2 4.9-9 9-14.3 12.4-5.3 3.4-11.1 5.9-17.3 7.7-4.2 1.2-8.6 2-13.3 2.6-4.7.6-10.6.8-17.6.8H1568.4zm25-20.4h8.2c16.1 0 27.5-.7 34.2-2.2 6.7-1.5 12.5-4 17.4-7.5 6.6-4.8 11.7-11.1 15.3-19 3.6-7.9 5.5-16.7 5.5-26.2 0-8.2-1.5-15.6-4.4-22.1s-7.1-11.9-12.6-16.1c-4.2-3.3-9-5.6-14.4-6.9s-14.1-2.1-26.3-2.1h-9.6l-13.3 102.1zM1796.1 664.1c21.7 0 39 6.3 51.9 19 12.9 12.7 19.3 29.6 19.3 50.8 0 11.4-2.1 22.1-6.3 32.2-4.2 10.1-10.2 18.8-17.9 26.2-7.5 7-16.1 12.4-26 16.2-9.8 3.7-20.3 5.6-31.4 5.6-20.8 0-37.5-6.4-50.3-19.1-12.8-12.8-19.1-29.5-19.1-50.3 0-11.6 2-22.4 6.1-32.6 4.1-10.1 10-18.9 17.7-26.2 7.3-7 15.8-12.3 25.5-16.1 9.7-3.8 19.9-5.7 30.5-5.7zm48.8 70.2c0-15-4.6-27.2-13.7-36.4s-21.2-13.8-36.2-13.8c-7.4 0-14.5 1.4-21.2 4.2-6.7 2.8-12.6 6.8-17.5 12-5.7 5.9-10.1 12.5-13.1 20s-4.5 15.3-4.5 23.5c0 14.9 4.5 27 13.5 36.3 9 9.3 20.7 13.9 35.2 13.9 16.3 0 30-5.7 41-17.1s16.5-25.6 16.5-42.6zM1965.4 810.5l16.2-122.4H1943l2.7-20.6h97.7l-2.8 20.6h-36.4L1988 810.5h-22.6zM2044.6 810.5l18.8-143h80.3l-2.5 20.2H2083l-4.6 35.9h57.9l-2.6 20h-58.1l-6 46.2h58.1l-2.8 20.6h-80.3zM2135.5 810.5l82.8-148.6 52.2 148.6h-23.2l-11.6-33.8h-56.9l-18.8 33.8h-24.5zm52.3-52.8h41.8l-11-35.4c-.5-1.7-1.1-3.9-1.7-6.7-.6-2.8-1.3-6.5-2.1-11-1.4 3.4-2.8 6.6-4.2 9.6s-2.8 5.9-4.2 8.5l-18.6 35z" class="st2"/><path d="M2411.4 737.7v-3.4c0-2.9.1-5.6.2-8.3.1-2.7.3-5.4.6-8.1-.8 2.6-2 5.3-3.5 8s-3.6 6.2-6.4 10.4l-51.6 80-29.6-79.8c-.7-1.8-1.5-4.1-2.3-6.9-.8-2.8-2-6.7-3.4-11.7-.3 4-1.6 10.4-4.1 18.9l-.1.4-21.5 73.2H2267l47-149 34.7 92.6c1.8 4.6 3.2 8.5 4.2 11.8 1.1 3.3 2 6.5 2.9 9.7 1.7-3.7 3.5-7.4 5.5-11 2-3.6 4.2-7.3 6.5-10.8l60.3-92.2 6.5 149h-22.2l-1-72.8z" class="st2"/></g><defs><path id="SVGID_1_" d="M28.2 27h1087v894H28.2z"/></defs><clipPath id="SVGID_00000057145116051087555850000006696857339773277060_"><use xlink:href="#SVGID_1_" overflow="visible"/></clipPath><g clip-path="url(#SVGID_00000057145116051087555850000006696857339773277060_)"><defs><path id="SVGID_00000070821135576380308720000001730898619666241694_" d="M28.2 27h1087v894H28.2z"/></defs><clipPath id="SVGID_00000146482359591484016130000015619218082379182780_"><use xlink:href="#SVGID_00000070821135576380308720000001730898619666241694_" overflow="visible"/></clipPath><path fill="#274496" d="M1114.6 38.5c-6.5 7.2-16.2 6.7-24.3 9.9-10.9 4.2-22.2 7.3-33.3 11-17.2 5.7-34.3 11.3-51.4 17.2-16.7 5.8-33.3 11.8-49.9 17.8-20.6 7.4-41.3 14.8-61.9 22.4-25.8 9.5-51.6 19.1-77.3 29-27.5 10.6-54.8 21.8-82.4 32.2-13.6 5.1-27.8 8.9-41.7 13.4-.8.2-1.5.7-2.2 1.1-9.4 2.1-18.9 4.4-28.3 6.4-18.3 3.9-36.5 8.3-55 11.3-10.4 1.7-20.8 3.4-31.3 4.4-17.7 1.8-35.4 4.4-53.3 4.7-23.9.3-47.9 1-71.8-.7-13.4-1-26.7-2.6-40-4.5-19.8-2.7-39.3-7.2-58.7-12.1-3.4-.9-8.7-1.2-9-7s.8-6.9 8.2-8.2c2.9.4 5.6-.8 8.2-1.7 44.9-14.7 89.1-31.6 134.4-45.2 22.9-6.9 46-12.9 69.2-18.7 25.4-6.4 50.8-12.7 76.4-18.4 42.8-9.6 85.7-18.3 128.8-26 22.1-3.9 44.2-7.3 66.3-11.2 20.3-3.6 40.7-6.4 61-9.5 13.4-2.1 27-3.6 40.4-5.6 13.9-2.1 27.9-3.9 41.7-6.1 11.8-1.8 23.7-3.6 35.6-4.6 7.5-.6 15-1.9 22.5-2.9 9.4-1.3 18.7-2.7 28.1-4 10.6-1.5 21.1-3.4 31.8-3.1 2 0 4 .1 5.3-1.8h3c3.7 0 8.8-1.4 10.6.4 1.7 1.4.3 6.5.3 10.1" clip-path="url(#SVGID_00000146482359591484016130000015619218082379182780_)"/><defs><path id="SVGID_00000008867901408589617660000010422074360420090803_" d="M28.2 27h1087v894H28.2z"/></defs><clipPath id="SVGID_00000141436617435222334230000010516469066457644430_"><use xlink:href="#SVGID_00000008867901408589617660000010422074360420090803_" overflow="visible"/></clipPath><path fill="#d82329" d="M351 186.7c-7.5 1.3-8.5 2.4-8.2 8.2.3 5.9 5.6 6.1 9 7 19.4 4.9 38.9 9.4 58.7 12.1 13.3 1.8 26.6 3.5 40 4.5 23.9 1.7 47.9 1.1 71.8.7 17.9-.2 35.6-2.8 53.3-4.7 10.5-1.1 20.9-2.8 31.3-4.4 18.5-2.9 36.7-7.4 55-11.3 9.5-2 18.9-4.2 28.3-6.4-.8 4.4-3.1 7.5-7.5 8.9-16.6 5.3-31.9 13.8-47.9 20.5-17.4 7.3-34.6 15.1-51.9 22.6-2.7 1.2-5.4 2.6-8 3.9-.8.2-1.7.1-2.4.5-14.8 8-29.7 16-44.4 24.2-29.6 16.6-60.2 31.4-90.6 46.5-11.7 5.8-23.7 10.9-34.9 17.5-8.3.3-15.1 4.4-22.1 8.2-5.5 3-10.7 6.5-16.6 8.8-2.7-.1-5.6-.5-7.5 1.7-1.8 2.1-3.8 2.3-6.1 2.3-2 0-4 .1-5.9.6-10.5 2.3-20.3 7-30.5 10.4-18.7 6.3-37.4 12.3-56.4 17.7-17.6 5-35.4 9.6-53.4 13.1-12.2 2.4-24.3 5.4-36.5 7.1-15.1 2.2-30.2 4.2-45.3 5.7-15.2 1.5-30.4 2.7-45.7 2.5-2.1-21.8 1.2-43 7.6-63.8 10.4-33.6 29.5-62.1 52.7-88.1 27.6-31.1 59.5-57.2 94.1-79.9 26.8-17.5 55-32.7 84-46.5 32.8-15.6 66.2-29.8 100.4-42.2 2.5-.9 5-1.6 7.8-1.5 2.7 0 4.8.5 6.1 3.2 1.3 2.8.8 5.3-.9 7.4-1.9 2.3-4 4.5-6.1 6.6-20 20.2-40.1 40.3-60.1 60.5-2.9 2.9-5.5 6.1-8.8 8.7-2.2 1.9-4 4.1-2.4 7.2" clip-path="url(#SVGID_00000141436617435222334230000010516469066457644430_)"/><defs><path id="SVGID_00000177474385422359328990000002229000106001068684_" d="M28.2 27h1087v894H28.2z"/></defs><clipPath id="SVGID_00000071521290612891386960000005048345746921998752_"><use xlink:href="#SVGID_00000177474385422359328990000002229000106001068684_" overflow="visible"/></clipPath><path fill="#070808" d="M522.7 397.3c1.4 6.7-.7 12.9-3.7 18.7-15.5 30-31.2 59.9-47.7 89.4-21.2 37.7-43.1 74.9-65.9 111.5-15.2 24.5-30.7 48.7-46.4 72.8-17.3 26.5-34.9 52.7-53.2 78.5-16.9 23.9-33.4 48.2-50.4 72.1-16.4 23.1-33.2 45.8-49.8 68.7-1.7 2.4-3.2 5-4.7 7.6-1.9 3.2-4.6 4.2-8 2.9-3.3-1.3-4.3-4-3.7-7.3.3-1.5.7-2.9 1.2-4.3 8.9-23.3 17.9-46.6 26.8-69.9 11.5-30.5 22.8-61.2 34.3-91.7 12.4-32.8 25-65.5 37.4-98.3 12.2-32.2 24.2-64.5 36.3-96.8.4-.9.8-1.8 1.2-2.8 4.3.8 3.9-4.1 6.5-5.6 36.1-20.7 70.9-43.3 103.5-69.1 25.2-19.9 49.3-41 71.2-64.6 4.3-4.7 7.2-11.5 15.1-11.8" clip-path="url(#SVGID_00000071521290612891386960000005048345746921998752_)"/><defs><path id="SVGID_00000163774889548715452140000002319996189417367428_" d="M28.2 27h1087v894H28.2z"/></defs><clipPath id="SVGID_00000133496483763566887290000005564764981600165778_"><use xlink:href="#SVGID_00000163774889548715452140000002319996189417367428_" overflow="visible"/></clipPath><path fill="#f7af34" d="M522.7 397.3c-7.9.3-10.8 7.2-15.1 11.8-21.9 23.5-46 44.7-71.2 64.6-32.6 25.8-67.5 48.4-103.5 69.1-2.6 1.5-2.2 6.3-6.5 5.6 0-.3-.2-.8 0-1 6.7-8.1 6.6-18.7 9.7-28 5.7-17.4 12.8-34.2 19.5-51.1 6.5-16.5 11.9-33.4 18.1-50 9.3-24.8 18-49.9 27-74.8.7-2 1.2-4.1 1.8-6.2 11.3-6.6 23.3-11.7 34.9-17.5 30.4-15.2 61-29.9 90.6-46.5 14.7-8.2 29.6-16.2 44.4-24.2.7-.4 1.6-.3 2.4-.5-2.2 15.9-3.6 31.9-7.7 47.5-5.4 20.5-12.4 40.4-21.7 59.6-6.9 14.1-14.9 27.8-22.7 41.6" clip-path="url(#SVGID_00000133496483763566887290000005564764981600165778_)"/><defs><path id="SVGID_00000004523629159611572150000008902476565961525392_" d="M28.2 27h1087v894H28.2z"/></defs><clipPath id="SVGID_00000051341429190550970090000006155901230507770512_"><use xlink:href="#SVGID_00000004523629159611572150000008902476565961525392_" overflow="visible"/></clipPath><path fill="#f7af34" d="M76.5 415.3c15.3.2 30.5-.9 45.7-2.5 15.2-1.5 30.3-3.6 45.3-5.7 12.3-1.8 24.3-4.8 36.5-7.1 18-3.5 35.8-8.1 53.4-13.1 18.9-5.4 37.7-11.4 56.4-17.7 10.2-3.4 20-8.1 30.5-10.4 1.9-.4 3.9-.6 5.9-.6 2.4 0 4.4-.2 6.1-2.3 1.9-2.3 4.8-1.8 7.5-1.7-.4 1.6-1.6 2.6-3 3.1-12.4 4.1-21.8 13-32.5 19.8-23.2 14.8-46.4 29.6-68.7 45.8-28.2 20.5-54 43.6-77.5 69.1-10.1 11-18.6 23.3-25.9 36.4-.2.4-.4.9-.7 1.3-7.1 12.6-15.1 13.3-24.9 2.6-14-15.3-27.5-31.1-37.6-49.3-11.6-21-18.2-43.4-16.5-67.7" clip-path="url(#SVGID_00000051341429190550970090000006155901230507770512_)"/><defs><path id="SVGID_00000161597429611875484730000011682787988114268309_" d="M28.2 27h1087v894H28.2z"/></defs><clipPath id="SVGID_00000166673287168497676870000006544348288408987277_"><use xlink:href="#SVGID_00000161597429611875484730000011682787988114268309_" overflow="visible"/></clipPath><path fill="#2ca459" d="M29.5 157.2c-.4-20 5.2-40 17.8-57.8 15.4-21.6 41.4-30 64.9-20.4 13.6 5.5 23.5 15.4 30.9 27.8 9.8 16.3 14.4 34.2 13.7 53.2-1 25.7-9.5 48.2-28.8 66.1-21.5 20-56.1 18.4-75.5-3.8-15.7-18.2-23.6-39.3-23-65.1" clip-path="url(#SVGID_00000166673287168497676870000006544348288408987277_)"/></g></svg>