<svg xmlns="http://www.w3.org/2000/svg" xml:space="preserve" id="Layer_1" x="0" y="0" version="1.1" viewBox="0 0 200 200"><style>.st0{fill:#255d98}</style><path d="M123.3 42.5c-4.6-3.1-9.4-5.8-14.4-8.3 1-.6 1.8-.8 2.8 0 1.5 1.2 3.3.9 5.1 1 .4 0 .5-.4.3-.7l-.6-.9c-.3-.4-.6-.8-.2-1.3.4-.4.8-.2 1.2 0 1.1.6 2.3 1 3.6 1.3.4.1.8.2 1.3 0-.5-1.3-1.5-2-2.7-2.5-.9-.3-1.7-.5-2.6-.8-1.1-.4-1.2-.9-.6-1.8.3-.5.5-.8 0-1.3-.1-.1-.1-.4-.1-.5.1-.3.3-.2.6-.1 1.4.3 2.8.6 4.2.8 1 .2 2 .2 3-.1-2.6-1.7-5.2-3.2-8-4.5-1.5-.7-2.6-1.8-3.5-3.2-.3-.4-.6-.6-1-.7-6.8-1.4-13.6-1.8-20.4-1-11.2 1.3-21.7 4.5-31.8 9.5-7.9 3.9-14.9 9.1-21.3 15.1-1.3 1.3-2.5 2.7-3.5 4.3-.6 1-.9 1.1-2.3.9 5.4-9.6 12.7-17.2 22.4-22.6-.9-.5-1.7-.6-2.5-.1-1.7 1.1-3.6 1.8-5.4 2.6-1.7.7-3.3 1.5-4.7 2.7-.9.7-1.8.7-2.7.2-.9-.6-1.8-.6-2.8-.2-1.4.5-2.6 1.2-3.7 2.3C22.2 43.3 14.6 56 10 70.4 7.5 78 5.9 85.8 5.4 93.7c-.3 4.2-1.2 8.4-1 12.7.2 5.9.8 11.8 3.2 17.3 1.2 2.9 1.8 6 2 9.2.3 4.6 2.2 8.7 4.1 12.7 3.2 6.8 7 13.3 12 18.9 2.4 2.8 4.8 5.6 7.1 8.5.8 1 1.9 1.8 2.8 2.7.4.3.8.6 1.3.6 1 0 1.7.6 2.2 1.4 1.3 2.1 3.4 3 5.5 3.9 1.1.5 2.1.9 2.4 2.2.1.5.6.7 1 .8 1.4.5 2.8.9 3.2 2.6.1.5.7.6 1.2.6 1.9 0 3.5.8 5.1 1.6 5.1 2.4 10.3 4.3 15.8 5.5h.2c.4 0 .9.2 1.1-.2.2-.5-.4-.7-.7-.9-1.1-.7-2.3-1.1-3.5-1.3-.8-.2-1.1-.4-.5-1.2.6-.8-.2-1-.7-1.2-2-1.1-4.1-2-6.1-3.1-6.2-3.2-12-7-17.5-11.4-.7-.6-1.3-1.3-1.1-2.3.1-.7-.3-1.1-.9-1.5-1.3-.9-2.6-1.9-3.6-3.1-.2-.2-.6-.5-.4-.8.2-.4.6-.2 1-.1 1 .1 1.7.7 2 1.6.2.5.4.7 1 .9 3.4.9 6.3 2.5 8.8 4.9 1.1 1 2.5 1.5 4 1.6 2.6 0 4.9.9 7 2.4 1.8 1.3 3.8 2.2 6.2 1.9 1.5-.2 2.8.5 4 1.1 1.1.5 2.3.9 3.6 1.1-.7-1.9-2-3.1-3.5-4.3-2.1-1.6-4.5-2.6-6.7-3.9-2.4-1.5-4.8-3.1-7.3-5 .8.1 1.2.3 1.6.5 3.2 1.8 6.4 3.5 10.1 4.1.9.2 1.8.2 2.8.4-.6-1.2-1.5-1.8-2.4-2.4-1.4-.9-2.8-1.7-4.2-2.6-.7-.5-1.4-1.1-1.8-1.9.5-.3.8 0 1.1.1 1.5.5 2.9 1.2 4.2 2.2 1 .9 2.3 1 3.5 1.3.4.1.6-.1.7-.4.1-.3-.2-.4-.4-.6-1.4-1.4-3.2-2.4-4.9-3.4-.8-.5-1.6-1.1-2.4-2 1.6-.2 2.9.1 4.2.7 1.4.6 2.7 1.5 3.9 2.3.5.4 1 .9 1.6 0-4.5-2.6-8.4-5.9-11.9-9.6-3.1-3.3-6.6-6.1-9.6-9.5-7.9-8.9-14.3-18.6-17.3-30.3-1.2-4.5-1.8-9.1-2.1-13.7-.7-10.9.7-21.5 4.5-31.7 2.4-6.4 5-12.7 9.1-18.3 3.4-4.6 7.8-8.1 12.5-11.3 7.4-4.9 15.6-7.4 24.3-8.4 6.9-.8 13.8-.4 20.6 1.3 3 .8 5.7 2.4 8.7 3.3 2 .6 3.9 1.3 5.6 2.5.7.5 1.1.3 1.6-.2zM93.7 22.4c-6.7 1.3-13 4.2-19.9 4.5 0-.2-.1-.4-.1-.5 6.2-3.7 13-4.2 20-4zM54.6 36.2c3.1-4 7.2-6.5 12.1-7.6-3.2 3.8-8 5.1-12.1 7.6zm-2.5 147.5c1.7-.2 2.9.4 3.2 1.6.2.6 0 .7-.6.6-1.1-.4-2.1-1-2.6-2.2zm8.1 4.1c-1.2.4-3.3-.3-3.8-1.3-.3-.5.1-.5.4-.5 1.5-.2 2.4.8 3.4 1.8zM144.5 140.9c2.8.1 5.1-1 7.2-2.8 2-1.7 3.5-4 5-6.1.2-.3.4-.5.6-.8.8-1.1 1.4-1 2.1.1.8 1.2 1 1.2 1.7-.1.4-.8.7-1.7 1.5-2.3.3-.2.7-.6 1.1-.4.3.2.2.6.1 1-.1 1.3-.9 2.4-1.6 3.4-.6.8-1.1 1.6-1.4 2.6-.1.3-.2.5-.4.6-2 1-3.3 2.8-4.2 4.8-2 4.2-5.3 6.9-9.5 8.6-1.1.5-2.1 1-3.2 1.4-1.1.5-2.1 1-2.9 1.8-.6.6-1.3.8-2 .2-.9-.8-1.8-.6-2.7 0-1.6 1.2-3.4 1.8-5.4 2-.3 0-.6.1-.9.2-.7.3-1.2.2-1.6-.5-.2-.4-.5-.6-.9-.3-1.9 1.2-4.1 1.4-6.2 1.8-2.1.3-3.7 1.3-5.3 2.6-3.7 3.1-6.4 6.9-8.4 11.2-1 2.1-.8 4.2.1 6.2 1.5 3.2 3.4 6.2 5.9 8.8 1.5 1.5 3.4 2.4 5.4 3.2.9.4 1.9.3 2.8 0 1-.4 2-.3 2.9.2 5.9 2.7 11.6 1.9 16.8-1.5 4.4-2.9 8.7-5.9 13.1-8.7 1.2-.8 2-1.8 2.9-2.9 3-3.3 6.3-6.2 9.6-9.1 10.4-9.1 18.5-19.8 23.5-32.8 1-2.6 2-5.1 2.9-7.7.2-.7.4-1.5 0-2.2-.2-.4-.1-.7 0-1 1.9-3.8 2.4-7.9 2.4-12.1 0-3.1.2-6.2 0-9.3 0-.3 0-.7-.3-1-1 3.5-.6 7.2-1.5 10.9-.5-.5-.4-1-.4-1.4 0-4.6.1-9.2-.1-13.8-.2-4-.6-8-1.7-11.8-.2-.7-.5-1.4-.9-2.1-.5-1-.8-2-.9-3.1-.1-1.5-.5-2.9-1.3-4.1-1-1.5-1.4-3.1-1.5-4.8-.1-1.3-.4-2.5-1.1-3.6-.8-1.2-.8-2.7-1.9-3.8-.3-.3.1-1.1-.3-1.6-1.1-1.8-1.4-4.2-3.9-4.9-.4-.1-.5-1-1.1-.7-.5.3-.1.9-.1 1.4 0 1.1.6 2.1 1 3 .4.9 1 1.9.7 3-.1.3-.2.7-.6.4-1.5-1.1-3.5-1.1-4.7-2.6 1.4 6.8 5.2 12.9 5.6 20-.7-.2-.7-.8-.9-1.2-1.2-2.9-2.1-5.8-3-8.8-.2-.6-.4-1.1-1.1-1.4-1.3-.5-1.8-1.7-2.4-2.9-.7 1.6 1.1 2.9.3 4.5-1.2-1.9-3.3-2.8-3.9-5.1a.8.8 0 0 0-1.1-.6c-.5.2-.6.5-.5 1.1.2.9.6 1.7.5 2.9-3.2-3.7-4.9-7.9-6.6-12.3 1.3.1 1.9.8 2.3 1.7.4 1 .8 1.9 1.1 2.9.1.5.2.9.8.8.7-.2.5-.7.4-1.2-.6-1.9-1.6-3.5-2.9-4.9-.3-.3-.5-.6-.8-.9-.5-.6-.9-1.3-1.5-.1-.2.4-.6.3-.8-.1-1.6-2.4-3.6-4.5-5.7-6.5-.6-.6-.7-1.2-.3-2 .6-1.3 0-2.8-1.5-3-1.2-.2-2-.8-2.7-1.7-3.3-4-7.5-6.7-12-9-3.5-1.8-7-3.4-10.7-4.6-.5-.2-1-.5-1.4.1-.4.6 0 1.1.3 1.6 1.8 2.2 4 4 6.7 5.2 2.9 1.2 5.2 3.4 7.3 5.8.3.3.4.7.6 1 .4.6.3 1-.5 1.1-.2 0-.4.1-.6.2-1.2.4-1.4.7-.6 1.8.4.6.3.8-.4.8-.3 0-.8-.1-.9.4-.2.5.2.8.5 1.1 2.5 3.7 6.1 6.5 8.8 10.1 1.6 2.2 2.6 4.6 4 6.9.6 1.1 1.2 2.1 1.8 3.2.3.6.7.9 1.4.8.7-.1 1.2.3 1.4.9.3.6.5 1.3.6 2 .3 1.2.8 2.2 1.7 3.1 1.4 1.3 1.7 3.1 2.1 4.9.4 2 1.2 3.9 1.5 5.9.1.4.1.8.1 1.2-.1 1.1.2 2.1 1 2.9.3.3.5.6.6 1 .1.5 0 .9-.4 1.1-.5.3-.7-.1-.9-.5-.4-.9-.8-.6-1.3 0s-.8 1.2-.6 2c.3 1.4.2 2.8.1 4.2-.2 1.6-.2 3.2-.2 4.9 0 .6.2 1.1.9 1.1.9.1 1.1.7.9 1.4-1 3.5-1.1 7.1-2 10.7-.3 1.1-.7 2.1-1.3 3-.4.6-.5 1.2-.1 1.8.3.4.3.9-.1 1.3-3.1 2.3-4.7 5.6-6.6 8.8-.3.5-.8.8-1.2 1.2-.3.3-.6.6-.4 1.1.1.4.6.1.8.3.6.2 1.2.1 1.9-.1-.8 2.1-2.4 3.5-3.9 4.8-1.6 1.4-3.5 2.6-4.7 4.5l.1-.7zm44.7-13.6c.4-2.6.6-5.2 2.2-7.5.1 2.8-.6 5.3-2.2 7.5z" class="st0"/><path d="M154.5 77.9c.3-1.7-.1-3.2-.6-4.6-1.8-5.2-4.8-9.8-8.1-14.2-2.8-3.7-5.8-7.2-9.6-10-.7-.5-1.4-1-2.2-1.3-.4-.2-.7-.2-.7.4 0 .7.1 1.4.9 1.7.2.1.5.2.6.4 3.1 3.3 6.9 5.8 9.4 9.6.4.7.9 1.2 1.9 1.1.4-.1.7.1.9.5 1.3 3.6 3.5 6.8 4.5 10.5.5 2.1 1.3 4.1 3 5.9zM102.9 8.3c-3.6-2.1-7.3-3.7-11.6-3.2-.8.1-1.6.4-2.4.6-.8.1-1 .4-.9 1.3.1 1.1.5 1.1 1.4 1.1 4.3-.1 8.7 0 13 .5.2 0 .3-.1.5-.3zM147.9 27.2c3.1 2.9 5.9 6 9.3 8.5 1.2.9 1.8 2.1 2.7 3.3.2.3.3.7.8.6.4-.1.6-.4.7-.8.1-.5-.3-.6-.6-.7-1.9-.9-3.1-2.6-4.3-4.2-1.2-1.5-2.4-2.9-4.1-3.8-.7-.4-1.2-1.1-1.7-1.7-.9-.7-1.7-1.1-2.8-1.2zM94.8 11.9h2.5c.4 0 .7 0 .8-.5.1-.4-.2-.7-.5-.9-.3-.2-.8-.3-1.1-.3-1.3-.1-2.5-.1-3.7-.5-.3-.1-.7 0-1.1.1-.5.1-.9.4-.9 1s.4.8.9.9c1 .3 2 .2 3.1.2zM165.2 34.9c0-1-.6-1.7-1.4-2.1-.8-.3-1.2.6-1.9.8-.4.1 0 .7.1 1 .3.9 1.1 1.5 1.8 2.1.4.4.7.3 1-.2.2-.6.4-1.1.4-1.6zM128.7 44.3c-.4 0-.8 0-1 .4-.2.5.2.7.4 1 .5.6 1.2 1 1.9 1.3.3.1.6.2.8-.1.2-.3.5-.6.2-1-.5-.7-1.1-1.5-2.3-1.6zM144.4 140.8c0 .1-.1.1-.1.2.1 0 .2 0 .2-.1l-.1-.1zM49.9 138.3z" class="st0"/></svg>