<?xml version="1.0" encoding="utf-8"?>
<!-- Generator: Adobe Illustrator 26.0.2, SVG Export Plug-In . SVG Version: 6.00 Build 0)  -->
<svg version="1.1" id="Layer_1" xmlns="http://www.w3.org/2000/svg" xmlns:xlink="http://www.w3.org/1999/xlink" x="0px" y="0px"
	 viewBox="0 0 1141.8 1119.8" style="enable-background:new 0 0 1141.8 1119.8;" xml:space="preserve">
<style type="text/css">
	.st0{fill:#251E36;}
	.st1{fill:#5891A0;}
	.st2{fill:#FEFEFE;}
	.st3{fill:#3D7E88;}
	.st4{fill:#C4C7C5;}
	.st5{fill:#93E5E7;}
</style>
<path class="st0" d="M809.2,100.9c0,4.1-0.3,8-1.4,11.8c-6.6,23-13,46.1-19.7,69.1c-0.9,3.2-1.2,6.1,0.6,9.1c6.1,10.2,6,20.6,3.5,32
	c-5.5,24.3-9.6,49-14.5,73.5c-0.8,4.1,0.3,4.8,4.1,4.4c5.4-0.7,10.5-1.8,14.9-5.1c1.1-0.9,2.2-2.4,3.9-1.5c1.7,0.9,1,2.7,1,4.1
	c-0.3,11.3-0.6,22.7-1.1,34c-0.1,3,0.6,4.8,3.3,6.4c14.1,8.5,28.1,17.1,42.1,25.9c2.9,1.9,3.7,0.9,4.9-1.7c7.9-16.7,16-33.3,23.9-50
	c1.7-3.5,3.5-5.3,7.7-5.5c17-0.8,33.9-2,50.9-3.2c2.8-0.2,4.2,1.3,5.7,3.2c7.8,9.6,15.7,19,23.3,28.7c2.1,2.6,4.5,4.2,7.6,5.3
	c14.4,5.1,28.8,10.5,43.2,15.5c3,1,4.6,2.6,5.7,5.6c5.1,14.1,10.6,28,15.7,42.1c1,2.7,2.3,4.8,4.8,6c13.7,7,22,18.2,27.5,32.5
	c5.8,15,13.5,29.3,19.9,44.1c2.5,5.9,7,9.8,11.8,13.2c8.7,6.1,13.3,14.1,15.2,24.5c1.7,9.6,4.6,19.1,7.3,28.5c0.9,3.3,0.6,6-1,9
	c-13,25.1-25.9,50.3-38.8,75.5c-0.8,1.5-1.5,2.5-3.3,2.2c-14.6-2.4-26.3,5.5-38.6,11.1c-7,3.2-13.7,7.3-21.9,11.7
	c2.9,0.2,4.5,0.4,6,0.4c7.3,0,14.7-0.3,22,0.1c27.9,1.6,55.1-1.7,82-8.9c3.2-0.9,6.5-1.5,9.8-2.1c1.5-0.3,3.4-1.5,4.4,0.6
	c0.9,1.7-0.7,2.7-1.6,3.8c-9.2,11-18.4,22-27.6,32.9c-7.4,8.8-14.7,17.7-22.2,26.4c-1.8,2.1-2.7,4.3-2.7,7.2
	c0.1,108.5,0.1,217,0,325.4c0,2.9,1.1,5,2.8,7.1c16.4,19.5,32.8,39,49.1,58.6c1.1,1.3,3.3,2.6,2,4.6c-1.2,2-3.3,0.6-5,0.2
	c-17.3-3.7-34.5-7.4-51.8-11c-3.1-0.6-6.3-0.8-9.4-0.8c-25.8-0.1-51.7-0.1-77.5,0.1c-3.6,0-5.8-1-7.8-3.9
	c-3.6-5.2-7.6-10.1-11.3-15.2c-1.7-2.3-3.6-3.8-6.7-3.3c-0.2,0-0.3,0-0.5,0c-17.5-3.2-30.9,4.3-42.3,16.6c-4.4,4.7-9.6,6-16,6
	c-38.7-0.3-77.3-0.2-116,0c-3.9,0-6.3-1.2-8.7-4.3c-2.9-3.6-4.3-8.7-10.9-8.9c-8.6-0.3-15.7,1-20.4,8.9c-2.1,3.5-5.4,4.2-9.4,4.2
	c-32.2-0.2-64.3-0.1-96.5,0c-3.5,0-5.9-0.9-8.2-3.6c-6.7-7.8-13.8-15.3-20.6-23.1c-1.8-2.1-3.8-2.9-6.5-2.8
	c-15.2,0.4-30.3,0.7-45.5,0.8c-2.8,0-4.6,1-6.3,3.1c-6.3,7.5-12.8,14.9-19.1,22.5c-1.9,2.3-3.8,3.1-6.7,3.1
	c-52.5-0.1-105-0.1-157.5,0c-3.1,0-4.8-0.9-6.1-3.7c-2.3-5-5-9.8-7.3-14.7c-1.2-2.4-2.8-3.2-5.5-3.3c-17.3-0.4-17.6-0.7-26.9,13.8
	c-3.9,6-8,8.3-15.2,8.1c-17.8-0.6-35.7-0.3-53.5-0.1c-2.9,0-4.5-0.7-5.6-3.5c-2-4.9-4.5-9.7-6.5-14.6c-1.1-2.7-2.9-3.2-5.7-3.7
	c-12.7-2.1-22.2,2.2-28.8,13.1c-4.5,7.4-11,8.9-19.3,8.8c-36.3-0.5-72.7,0.3-109-0.4c-21.4-0.4-42.1,2-62.8,7.1
	c-7.9,1.9-15.9,3.5-23.9,5.2c-1.5,0.3-3.4,1.3-4.5-0.7c-1-1.8,0.8-2.7,1.7-3.7c17.6-21.1,35.2-42.2,53-63.2c2.1-2.5,3-4.9,3-8.1
	c-0.1-105.3-0.1-210.6,0-315.9c0-3-0.7-5.3-2.7-7.6c-17.4-20.6-34.7-41.3-52-62c-0.6-0.8-1.3-1.5-1.9-2.3c-0.7-0.9-1.8-1.7-1-3
	c0.9-1.6,2.3-1.1,3.5-0.8c8.3,1.8,16.7,3.3,24.9,5.4c17.4,4.4,34.8,6.7,52.8,5.9c13.6-0.6,27.2-0.1,41.7-0.1
	c-2.6-2.6-5.2-3.3-7.5-4.2c-15.9-6-31.6-12.5-47.8-17.4c-6.9-2.1-9.8-5.8-12.6-11.5c-11-22.4-22.4-44.7-33.8-66.9
	c-1.9-3.7-2.2-7-1.1-10.9c3.6-12.7,6.8-25.4,10-38.1c0.7-2.8,1.8-5,4.1-6.5c13.1-9.1,21.4-21.6,27.3-36.4
	c6-15.1,13.5-29.7,20.2-44.5c1.3-2.9,3.3-4.8,5.9-6.5c17.7-12,17.6-12.1,24.9-32.1c3.1-8.6,6.5-17.1,9.6-25.7c1-2.9,2.7-4.5,5.7-5.6
	c14.8-5.1,29.4-10.6,44.2-15.8c2.6-0.9,4.6-2.4,6.3-4.6c7.9-9.9,16-19.6,24-29.5c1.6-2,3.3-2.9,5.9-2.7c17.1,1.2,34.2,2.4,51.4,3.3
	c3.4,0.2,4.9,1.5,6.2,4.4c8,17,16.3,33.9,24.3,50.9c1.5,3.1,2.5,3.3,5.3,1.5c13.8-8.7,27.7-17.2,41.7-25.6c2.6-1.6,3.5-3.4,3.4-6.4
	c-0.5-11.3-0.8-22.6-1.1-34c0-1.4-0.7-3.2,0.9-4.1c1.7-1,2.8,0.6,3.9,1.5c4.7,3.6,10.2,4.5,15.9,5.3c4.4,0.6,3.6-1.8,3.1-4.4
	c-3.4-17.6-6.8-35.3-10.3-52.9c-2.1-11-4.1-21.9-6.4-32.8c-1-4.5,0.5-8.4,2.6-11.9c5-8.5,4.5-16.8,1.3-26
	c-6.3-18.1-11.4-36.5-17.1-54.8c-0.9-3-1.8-6-1.5-9.3c2.1-0.2,3.5,1.3,5,2.1c7,3.6,14.1,4,21.2,0.7c10.1-4.7,20-9.9,30.1-14.6
	c2.3-1.1,2.9-3,3.7-5c2-4.9,2-11.6,6.1-14.4c4.3-2.9,10.7-0.7,16.1-0.5c3.9,0.1,6.9-0.9,9.9-3.4c23.4-19,46.9-37.9,70.3-56.8
	c2.1-1.7,4.4-2.4,6.8-2.9c19.3-4.4,38.7-8.4,57.9-13.2c7.4-1.8,14.2-0.1,21.2,1.3c19.4,3.8,38.8,7.9,58.3,11.7
	c3.9,0.8,7.1,2.3,10.2,4.8c22.9,18.6,45.9,37,68.8,55.6c2.8,2.3,5.5,3.6,9.1,2.9c0.8-0.2,1.7-0.1,2.5-0.1c4.7,0,9.9-1.4,13.8,0.4
	c3.8,1.8,3.7,7.8,5.3,11.9c0.9,2.1,2.3,3.1,4.2,3.8c7.1,2.9,14.2,5.8,21.2,8.8C785.6,107.1,797.3,106.8,809.2,100.9z M761.6,726.6
	L761.6,726.6c0-0.6-0.2-1-1-1l0.1,0c-1-2.8-3.5-4.4-5.5-6.3c-14.2-13.3-31.4-19.6-50.5-21.2c-27.3-2.2-51.9,3.9-71.4,24.5
	c-7,7.1-11.7,15.6-15.7,24.6c-8.4,18.4-8.4,38.3-8.6,57.8c-0.6,43.6-0.3,87.3-0.3,130.9c0,24.5,0.8,48.9,6,73
	c4,18.5,13.2,33.7,29,44.4c20.1,13.6,42.6,16.4,66,13.5c37.8-4.7,66-34.1,70.1-72.1c2.5-23.7,3.1-47.5,3.1-71.3c0-4-1.2-5-5.1-5
	c-21,0.2-42,0.2-63,0c-4.5-0.1-5.6,1.3-5.5,5.6c0.2,20.3,0.3,40.6-0.6,60.9c-0.3,5.5-0.7,10.9-2.6,16.2c-1.5,4-4.2,6.2-8.5,6.5
	c-8.4,0.7-12.4-3-13.9-12.6c-1.5-9.7-1.5-19.6-1.5-29.4c-0.3-55.3-0.3-110.6,0-165.9c0.1-10.6-0.3-21.3,2.1-31.8
	c1.6-7.1,6.1-10.5,12.7-10.2c6.2,0.3,9.5,3.6,10.7,10.9c1.8,10.6,1.3,21.3,1.6,31.9c0.4,18.3,0.2,36.6,0.1,55c0,3.1,0.7,4.4,4.1,4.4
	c21.8-0.1,43.6-0.1,65.5,0c2.7,0,3.8-0.7,3.8-3.6c-0.2-28.8,0.9-57.6-3.2-86.2c-2.2-15.5-6.1-30.3-16.9-42.3
	C762.2,727.3,761.9,727,761.6,726.6z M387.6,492.6c-0.9,0.4-1.1,1.2-1,2.1l0-0.1c-6.6,11.3-12.5,22.9-18.1,34.7
	c-0.4,0.8,0.2,3.6-2.5,2.2c2.5-11,4.7-22.1,7.5-33.1c1-4.1-0.1-6.4-3.4-8.7c-6.6-4.5-13.4-8.9-19.2-14.3c-6.4-5.9-12.4-6-19.7-2.4
	c-3.2,1.6-4.2,3-3.5,6.4c2.3,11.3,4.6,22.5,6.5,33.8c1.9,11.1,5.2,22,5.4,33.5c-1,0-1.5,0.5-1.8,1.3c-9.1,21.7-18.2,43.5-27.5,65.2
	c-1.4,3.3-0.1,4.4,2.7,5.4c31.9,11.3,63.7,23,95.8,33.8c12.3,4.1,23.6,8.8,30.7,20.4c0.6,1.1,1.5,2.3,3.2,1.9
	c2.6-0.6,7.6-9.3,6.7-11.8c-0.9-2.4-0.7-4.3,1.4-5.7c4.8-3.3,9.5-6.7,14.5-9.8c3-1.9,5.1-0.8,5.9,2.6c0.3,1.4,0.4,3,0.5,4.4
	c0.7,8.8,0.8,8.9,9.7,8.6c3.2-0.1,3.6-1.1,2.6-3.9c-8.4-21.9-16.7-43.8-25.1-65.7c0.3-0.2,0.6-0.4,0.9-0.6c0.8,1.3,1.6,2.5,2.3,3.8
	c10,19.8,20.1,39.6,29.9,59.6c2.3,4.8,4.7,8.3,10.7,6.4c2.7,0.5,5.4,0.6,8.1,0.1c11.3,0.1,22.6,0.2,33.9,0.1c3.2,0,5.7,0.8,8.1,3.1
	c5.5,5.3,11.3,10.3,17,15.4c1.4,1.2,3,4.2,4.8,0.3c1.3-1.1,2.7-2.2,4-3.3c6-3.3,10.4-8.6,15.7-12.8c2.2-1.8,4.4-2.6,7.2-2.6
	c12.9,0.1,25.9,0,38.8-0.1l0.3,0.2c0.3,0.6,0.8,0.6,1.3,0.2c2.2-0.4,4.6,0.5,6.7-0.8c1.8,0.1,3.6,0.4,5.4,0.4
	c14.9,0,29.9-0.1,44.8,0c5.9,0,12,0.8,16.2-4.9c0.6-0.8,2-1.1,3-1.6c5.9-2.3,11.7-4.6,17.6-6.8c1.6-0.4,3.2-0.8,4.8-1.3
	c28.9-10.5,57.8-21,86.7-31.5c2.8-1,3.5-2,2.3-4.9c-7.8-18.2-15.3-36.5-23.1-54.6c-1.3-3-1.4-6.9-5.1-8.6c0.3-3.1,0.4-6.3,0.9-9.4
	c3.4-18.5,6.9-36.9,10.4-55.4c1.7-9.1,1.6-8.8-7.1-12.5c-4.6-2-7.9-1.4-11.7,1.7c-7.2,5.8-14.8,11.4-22.5,16.6
	c-3.6,2.4-4.5,4.9-3.5,9.1c2.9,12.3,5.4,24.6,8.1,37c-1.7-0.9-1.7-2.7-2.4-4.1c-3.5-6.7-6.1-13.9-10.5-20.1
	c-3.9-9.9-9.2-19.1-13.8-28.7c-0.9-1.8-2-3.5,0.1-5.3c3.2-2.9,6.1-6.2,9.4-8.9c15.6-12.6,31.3-25.1,47-37.7c3.4-2.7,6.7-5.5,10.2-8
	c2.8-2,2.6-3.2,0.1-5.3c-14-12.2-27.9-24.6-41.8-37c-1.4-1.2-2.9-2.3-4.8-2.6c-5.2-0.9-10.5-1.7-15.7-2.5c1-4.1,3.9-7.3,5.7-11
	c0.5-1.1,1.2-2.2-0.1-3.1c-1-0.6-1.9,0.2-2.7,0.8c-0.7,0.5-1.3,1.1-1.9,1.6C694.5,414.5,634.3,465.2,574.2,516
	c-2.6,2.2-4,2.2-6.5,0.1c-14.3-12.2-28.7-24.3-43.3-36.2c-11.6-9.5-22.6-19.6-34.7-28.4l0,0.2c0.2-0.9-0.5-1.2-1.1-1.5
	c-0.1-0.1-0.1-0.3-0.2-0.4c-34.7-29-69.4-57.9-104.1-86.8c-1.1-0.9-2.3-2.5-3.8-1.4c-1.7,1.3,0,2.7,0.6,3.9c3.7,7,8.3,13.6,11.2,21
	c-16.9-0.2-33.8-0.5-50.8-0.7c-1.8,0-3.2,0.7-4.5,1.8c-6.4,5.6-12.8,11.1-19.2,16.7c-1,0.8-2.7,1.7-1.9,3.1
	c3.1,6.1,3.6,14.1,11.6,16.9c0.2,0.4,0.3,1,0.6,1.3c20.4,16.6,40.8,33.3,61.3,49.7c3.3,2.6,3.9,5,2,8.4c-0.7,1.3-1.2,2.7-1.9,4.1
	C388.8,489.3,387.6,490.8,387.6,492.6L387.6,492.6z M200.7,827.6c-2.7-1.2-5.4-0.9-8.2-0.5c-0.6,0-1.2-0.1-1.8-0.1
	c-6.5-0.9-12.9-0.6-19.4-0.2c-3.5,0.2-5-0.5-5-4.5c0.2-17,0.2-33.9,0-50.9c-0.1-4.1,1.4-4.9,5.2-4.9c20.3,0.2,40.6,0,60.8,0.2
	c3.1,0,4.5-0.6,4.4-4c-0.2-16.3-0.1-32.6-0.2-48.9c0.6-8.8,0.6-8.8-8.2-8.8c-42.6,0-85.2,0-127.9,0c-8.5,0-8.5,0-7.8,8.6
	c-0.1,0.5-0.2,1-0.2,1.5c0,113.6,0,227.3-0.1,340.9c0,4.1,2.1,4.7,5.3,4.6c39.3-0.6,78.6,1.2,117.9-1.8c25.1-2,37.7-12.3,44.4-36.3
	c4-14.2,3.9-28.7,4.2-43.1c0.6-24.3,0.4-48.7,0-73c-0.2-11.6-0.7-23.2-3.2-34.7c-0.5-2.1-0.9-4.2-1.4-6.3
	c-5.2-18.9-16.5-31.3-36.4-35C215.9,829,208.3,828,200.7,827.6z M559.7,709.7c0.3-1-0.5-0.7-0.9-0.8c-7.4-1.9-15-3-22.7-3.1
	c-27.3-0.2-54.6-0.2-82-0.2c-6.7,0-6.7,0-6.7,6.8c0,105.9,0,211.9,0,317.8c0,8.8,0,17.7,0,26.5c0,2.5,0.3,4,3.5,4
	c22-0.2,44-0.2,65.9-0.3c4.2,1.2,4.1-1.4,4.1-4.3c-0.1-26.6,0-53.3,0-79.9c0-19.1-0.1-38.3-0.2-57.4c1.9-2,4.4-1.1,6.6-1.1
	c13.9,0,27.9,0.4,41.4-3.9c14.2-4.5,25.4-12.5,30.9-27.1c2.5-4.4,3.5-9.4,4-14.3c4.2-36.8,3.2-73.7,0.5-110.5
	c-0.9-12.9-4.9-25.2-13.5-35.3C582.4,717,572.2,710.9,559.7,709.7L559.7,709.7z M1011.5,655.7c14.2-8.2,27.5-18,41.4-26.8
	c1.4-0.9,1.5-2.5,1.9-3.9c2.8-10.4,5.8-20.8,8.4-31.3c0.4-1.8,2-3.5,0.7-5.8c-7.5,1.7-14.9,3.5-22.3,5.2c-2.2,0.5-3.2,1.8-4.2,3.7
	c-8.6,17.3-15.9,35.1-23.9,52.7c-0.9,2-2.8,3.7-1.9,6.3c-0.3-0.4-0.5-0.4-0.7,0c-0.1,0.1,0,0.3,0.1,0.5
	C1011.1,656.1,1011.3,655.9,1011.5,655.7z M116.8,437.7c-0.9-1.2-1.6-2.5-2.6-3.7c-3.4-4.3-3.4-4.3-5.8,0.7
	c-5.4,11.2-10.8,22.4-16.4,33.5c-1.4,2.7-1.4,4.6,0.7,7c6.5,7.5,12.8,15.2,19.1,23c1.1,1.3,3,2.3,2.7,4.5c-3-0.1-6-0.3-8.9-0.4
	c-5.3-0.2-5.6,0.2-3.9,5.3c4.9,14.4,9.8,28.8,14.7,43.2c-0.3-0.1-0.7-0.1-1-0.3c-15.1-13-30.1-26-45.2-39c-2.2-1.9-4.1-2.1-7.1-1.1
	c-9.7,3.2-13.8,10.7-16.6,19.5c-2.6,2.7-3.3,6.5-5.3,9.5c-1.8,2.9-1.6,5.3,0.3,8.2c4.1,6.6,8.3,13.3,11.7,20.3
	c4.3,9,12.6,12.9,20.8,16c9.7,3.6,20.3,5,30.5,7.3c4,2.1,6.3,1.7,7.5-3.5c1.7-7.9,4.5-15.6,6.7-23.4c0.3-0.9,0.9-1.3,1.8-1.5
	c2.4,6.7,4.8,13.4,7,20.2c0.9,2.9,2.4,4.8,5,6.5c11.3,7.3,22.7,14.5,33.7,22.3c3.4,2.4,5.5,1.4,8.4-0.3c3.1-1.8,1.1-4.2,0.7-6.1
	c-5.8-24.6-11.8-49.1-17.6-73.7c-0.6-2.5-1.8-4.1-3.9-5.4c-5.5-3.4-10.9-7-16.3-10.5c1-1.9,2.1-3.8,3-5.8
	c3.2-7.7,6.6-15.3,14.8-19.2c2.8-1.3,0.5-3-0.5-4.4C142.1,470.1,129.4,453.9,116.8,437.7z M434,963.8c0.1-0.1,0.3-0.3,0.2-0.4
	c-0.1-0.3-0.2-0.6-0.4-0.8c-4.5-38.3-9-76.7-13.5-115c-5.2-44.1-10.5-88.2-15.7-132.3c-1.3-10.8-1.6-11.2-12.8-9.4
	c-12.8-0.1-25.6-0.3-38.4-0.3c-16.3,0-32.6,0.2-48.9,0.3c-7.7-1.2-7.8-1.2-8.6,6.2c-2.8,25.8-5.5,51.6-8.2,77.4
	c-4.6,43.3-9.1,86.7-13.7,130c-4.8,45.2-9.6,90.3-14.3,135.5c-0.6,5.9-0.5,6,5.6,5.2c0.5,0.1,1,0.3,1.5,0.3c21.8,0,43.6,0,65.4,0.1
	c3.2,0,3.3-1.7,3.4-4.1c1.2-18.7,2.7-37.5,3.9-56.2c0.2-2.8,1-3.8,3.8-3.7c6.5,0.1,13,0.2,19.5,0c2.7-0.1,3.7,0.8,3.8,3.6
	c0.9,18.4,2.2,36.8,2.9,55.3c0.2,4.3,1.8,5.2,5.7,5.2c18.8-0.2,37.6-0.1,56.5-0.1c4.3,0,10.1,1.4,12.5-0.8c2.6-2.3-0.2-8-0.5-12.2
	c0-0.2,0-0.3,0-0.5c-3.2-26.9-6.4-53.8-9.6-80.7C434.1,965.5,434,964.6,434,963.8z M1024.6,435.7c-1.7,2-3.5,4-5.1,6.1
	c-11.2,14.4-22.4,28.8-33.7,43.2c-2.5,3.1-2.9,5.4,1.1,7.3c1.8,0.8,3.3,2.1,4.6,3.7c5.2,6.1,7.7,13.5,11.1,20.5
	c-5.2,3.3-10.3,6.7-15.6,9.9c-1.8,1.1-2.9,2.4-3.4,4.6c-6.5,27.4-13.1,54.7-19.7,82c-0.3,1.4-1.2,3.1,0.3,4.2
	c1.5,1.1,2.7-0.6,3.9-1.3c13.6-8.9,27.2-17.9,40.9-26.8c2.3-1.5,3.5-3.2,4.4-5.7c2.2-6.6,4.6-13.1,7-19.7c0.9,0.6,0.9,1.7,1.2,2.6
	c2.2,7.6,4.4,15.3,6.6,22.9c0.6,2,1.1,3.9,3.9,3.2c9.1-2.2,18.3-4.4,27.4-6.6c12.5-1.9,20.2-10.8,27.5-19.6
	c4.7-5.7,7.5-12.9,11.4-19.2c1.7-2.7,1.5-4.7,0.1-7.3c-3.2-6-6.4-12-9-18.3c-2.2-5.3-5.8-8.3-11.1-9.6c-3.6-3.4-6.9-2-10,0.7
	c-9.9,8.5-19.7,17.2-29.8,25.6c-4,3.3-7.2,7.9-12.4,9.6c-0.6-1.7,0.4-3.2,1-4.7c3.9-11.6,7.9-23.2,11.9-34.8c1.9-5.6,1.6-6-4.1-5.8
	c-3.2,0.1-6.3,0.3-9.5,0.4c-0.5-2.2,1.1-3.3,2.3-4.6c5.9-7.1,11.7-14.2,17.6-21.3c3.7-3,3.8-6,1.5-10.2c-3.9-7.1-7.1-14.6-10.7-22
	c-2.3-4.7-4.7-9.3-7.1-14.1C1026.9,432.1,1025.6,433.8,1024.6,435.7z M538.9,449.6l-0.1-0.1c-0.3-1.1-0.4-2.3-0.9-3.3
	c-5.6-11.5-11.2-23-16.9-34.5c-5.3-10.5-10.2-21.2-15.9-31.6c-6.1-11.2-11.3-22.8-16.3-34.5c-5.2-12.1-13.6-22.8-13.8-36.9
	c-0.2-11.3-1.5-22.5-2.3-33.8c-0.3-3.9,1.4-4.6,4.8-3.5c3,1,5.9,2.4,9.1,2.5c0.4,0.2,0.7,0.5,1.1,0.7c0,0,0.2-0.2,0.3-0.3
	c-0.4-0.1-0.8-0.3-1.3-0.4c-0.3-3-2.9-4.4-4.7-6.1c-9.2-8.9-17.6-18.6-27.5-26.8c-2.7-2.2-5.4-5.1-2.7-9c3.8-5.5,6-11.9,8.8-17.9
	c6.1-13.1,11.9-26.4,17.8-39.6c1.1-2.4,1.6-4.4-1.1-6.5c-14.6-11.9-29.1-24-43.7-36.1c6.3,0.8,11.4,4.4,17.1,6.6
	c5.7,2.2,11.3,4.9,16.9,7.4c5.8,2.5,11.5,5.4,17.4,7.5c5.6,1.9,11.4,3,17.2,4.5c0.2-0.4,0.3-0.8,0.5-1.2
	c-22.3-19.2-44.6-38.5-66.9-57.7c-2.7-3.6-6.2-4.6-10.5-3.7c-1.8,0.4-3.7,0.7-5.4,0.5c-4.7-0.5-6.6,2.1-8.2,6.1
	c-12.8,31-25.4,62.2-39,92.9c-4.2,9.5-3,17.9,0,26.8c-0.4,2.4,0.6,4.6,1.2,6.8c4.5,19.2,9.1,38.4,13.7,57.6
	c0.5,6.3,2.6,12.3,3.8,18.5c0.4,2.2,1.4,3.9,2.9,5.6c35,38,70,76.1,105,114.2c8.4,9.2,16.3,19,25.4,27.4c9.3,8.7,22.8,9.6,33.7,15.4
	c8.9,4.8,17.1,4.8,25.3-1c3-1.3,6-2.7,9-4c6-2.9,12-5.8,18-8.7c2.3-1.1,4.4-2.3,6.3-4c43.2-39.8,86.5-79.7,129.7-119.5
	c1.9-1.8,3.2-3.7,3.7-6.3c7.8-37,15.5-74,23.4-110.9c0.6-2.9,0.3-5.4-0.7-8.2c-12.7-32.9-25.4-65.9-37.7-98.9
	c-1.9-5.2-4.6-6.7-9.5-5.3c-4.9-0.2-9.5-2.1-14.5,1.9c-15.9,12.6-32.4,24.5-48.6,36.7c-8.2,6.2-16.4,12.3-24.6,18.5
	c24.3-4,45.1-17.2,69-25.6c-13.8,11.5-26.7,22.2-39.4,33c-7,5.9-6.9,6-3,14.2c8.3,17.5,16.5,34.9,24.6,52.4
	c2.7,5.8,2.2,7.2-3.1,10.7c-5,3.3-10.1,6.5-15.1,9.7c-9.5,6-15,15.6-21.9,24c5-1,9.8-2.2,14.5-3.8c4.1-1.4,5.4-0.4,5.1,3.9
	c-0.8,9.4-1,18.9-2.2,28.3c-0.7,5.9,0.5,12.1-2.2,17.7c-18.1,37.1-36.3,74.1-54.2,111.3c-2.9,5.9-6.5,11.6-8.2,18.1
	c-2.2,3.6-4.6,7-9.1,7.9c-7.3,0.5-14.1,3.1-21,5c-7-0.1-13.3-3.4-20-4.7c-5.5-1-10-2.9-12-8.6C539.4,450.2,539.1,449.9,538.9,449.6z
	 M853.5,424.3c1.4,2.6,3.6,4.3,6.3,5.4c-0.2,2-0.2,4-0.5,5.9c-3.1,18.7-6.2,37.4-9.3,56c-2.3,13.9-4.6,27.9-6.8,41.8
	c-0.2,1.4-1.2,3.2,0.6,4c1.8,0.7,2.4-1.3,3.4-2.3c0.2-0.2,0.4-0.5,0.6-0.8c15.1-18.8,30.1-37.7,45.3-56.3c2.7-3.3,3.8-6.7,4.4-10.8
	c2-13.8,3-27.8,6.1-41.4c1.9-0.2,2.1-2,2.6-3.3c9.6-21.4,18.9-42.9,29-64c4-8.3,5.4-15-3.3-20.8c-1.1-0.7-1.8-1.9-2.7-2.9
	c-4.3-4.6-7.8-10.7-13.1-13.5c-5.6-2.9-12.6,0.8-19,1.2c-2,0.1-4,0.6-5.9,0.7c-2.6,0.1-3.7,1.5-4.7,3.7
	c-12.6,28.6-25.2,57.2-37.8,85.9C845.8,419.8,846.2,420.6,853.5,424.3z M162.6,365.6c-5.1,1.5-10.2,3-15.4,4.3
	c-2.6,0.6-3.9,1.9-4.6,4.5c-2.3,8.5-4.7,17-7.4,25.4c-1,3.2-0.5,5.6,1.3,8.3c5.6,8.3,10.8,16.8,16.3,25.1
	c5.9,8.6,10.8,17.9,17.4,26.1c0.8,1.9,0.9,3.9,0.9,5.9c0.1,13,0.3,26,0.4,39c0,2.6,0.5,4.8,2.4,6.8c19.4,20.6,38.7,41.3,58.1,61.9
	c0.9,1,1.8,2.9,3.6,1.9c1.8-0.9,0.8-2.7,0.6-4c-5.1-30.9-10.4-61.7-15.4-92.6c-0.4-2.6-1.6-4-3.7-5.4c-5.4-3.5-11.2-6.5-16.2-10.7
	c6.5-3.5,11.9-8.4,17.8-12.6c2.2-1.6,2.1-3.3,1-5.6c-4.4-9.6-8.7-19.4-13-29c-7.7-17.1-15.4-34.2-23.2-51.3c-0.8-1.9-1.9-3-4.2-2.3
	C173.8,362.6,168.2,364,162.6,365.6z M236.4,321.9c-2.9-0.4-5.9,0-8.8-1.2c-2.3-0.9-4.3,0-6.1,2c-6.4,7.2-13,14.3-19.7,21.2
	c-2.1,2.2-2.2,3.8-1,6.5c6.1,13.3,12,26.7,18.1,40c6.5,14.2,13,28.3,19.5,42.5c2.6,11.7,3.4,23.7,5.2,35.5c0.4,2.6,0.7,5.2,2.5,7.4
	c16,19.8,31.9,39.7,47.8,59.5c0.8,1,1.4,3.1,3.4,2c1.5-0.8,0.7-2.4,0.5-3.6c-2.9-17.9-5.9-35.8-8.8-53.6
	c-2.8-17.1-5.4-34.1-8.1-51.2c4.4-1.8,7.4-5.5,10.8-8.6c1.6-1.4,1.3-2.6,0.6-4.4c-3.9-8.6-7.7-17.2-11.5-25.8
	c-8-18.2-16.4-36.2-24-54.6c-3.3-7.9-6.4-14.5-16.6-12.9C239.1,322.8,237.7,322.2,236.4,321.9z M996.8,373.6
	c-0.2-2.5-2.1-3.1-4.1-3.7c-10.4-2.9-20.9-5.7-31.2-8.9c-3.4-1-4.5-0.1-5.8,2.9c-11,24.8-22.2,49.5-33.3,74.2
	c-4.7,10.4-4.6,10.7,6.1,16c2.7,3.8,7.7,4.9,10.3,8.8c-4.8,3.2-9.6,6.5-14.6,9.5c-2.3,1.4-3.5,2.9-3.9,5.7
	c-5,30.7-10.2,61.3-15.4,92c-0.3,1.5-1.4,3.6,0.6,4.4c1.9,0.8,2.9-1.3,3.9-2.4c15.1-16.1,29.5-33.1,45.6-48.2
	c11.6-10.9,16.4-22.4,14.8-38c-1-9.3-0.7-18.9,0.6-28.4c0.5-0.4,1.2-0.7,1.6-1.2c10.5-16.2,21-32.5,31.6-48.8c1.6-2.4,1.8-4.7,1-7.4
	C1001.9,391.4,999.4,382.5,996.8,373.6z M474.4,208.5c-2.9,6.5-5.8,13-8.8,19.5c-1.8,3.8-0.9,6.6,2.6,9c5.6,3.9,11.1,8,16.6,12
	c7.5,5.4,15.7,10.3,20,19.1c6,12.3,16,18.9,29.3,20.9c0.3,0,0.6,0.2,0.9,0.3c2.3,0.9,4.4,0.8,6.8-0.2c7.1-2.9,14.3-5.6,21.4-8.4
	c6.4-2.5,7.3-5.3,3.2-10.9c-7.8-10.6-15.7-21.1-23.6-31.6c-1.2-1.6-2.6-3.1-1.9-5.3c2.6-4.7,3.5-10,5.5-14.9
	c0.5-1.1,0.2-2.2-0.2-3.4c-4.6-11.2-8.9-22.6-15.3-33c-1.9-3.1-4.3-4.4-7.8-4.2c-10.8,0.8-21.6,1.5-32.4,2.1
	c-2.9,0.2-4.6,1.7-5.7,4.2C481.4,192,477.9,200.3,474.4,208.5z M592.2,247.7c-5.8,7.9-11.6,15.7-17.2,23.8c-2.7,3.8-1.6,6.8,2.8,8.6
	c7.7,3.1,15.4,6.1,23.1,9.2c1.5,0.6,2.9,0.8,4.4,0.3c6.8-2.1,13.6-4.3,20.4-6.4c1.3-0.4,2.4-1.2,3.2-2.3c4.3-6.5,8.6-13,12.9-19.4
	c2.4-2,4.7-4.2,7.2-6.1c8.3-6.1,16.6-12.3,25-18.2c3.6-2.5,4.5-5.2,2.7-9.3c-6.4-14.4-12.7-28.9-19-43.4c-1.3-3.1-3.2-4.7-6.7-4.9
	c-10.5-0.5-20.9-1.3-31.4-2.1c-3.6-0.3-5.7,1.2-7.9,4c-7.1,9-11,19.7-15.7,29.9c-1.5,3.3-1.9,6.3-0.2,9.5c5.2,9.4,5.1,18.1-3.1,25.9
	C592.4,247,592.3,247.4,592.2,247.7z M447.5,97.3c0.4,0.5,0.6,1.2,1.1,1.6c21.4,18.5,42.7,37.1,64.2,55.6
	c10.1,8.7,20.6,16.9,31.6,24.4c4.1,3,8.1,6,12.2,9l0,0c-6.3,0.2-11.6-3.7-17.8-4.2c-0.2-0.4-0.5-0.7-0.9-0.2c0,0,0.3,0.3,0.5,0.5
	c8.5,11.1,18.1,21.2,27.4,31.7c1.5,1.8,3.6,2.2,5.9,1.9c13.8-1.5,13.8-1.5,20.9-13.8c0.3-0.6,0.7-1.1,1.1-1.7
	c4-6.8,8-13.6,12.7-21.5c-9,3.2-16.6,6.4-24.9,7.8c13.1-8.9,24.9-19.3,37.8-28.2c18.5-12.7,36.2-26.5,54.1-40
	c8.2-6.2,16.9-11.8,24.3-18.9c3-1.1,5.2-3.5,7.9-5.2c3.1-1.9,3.2-3.2,0.3-5.7c-16.1-14-32-28.1-47.9-42.2c-1.8-1.6-3.8-2.6-6.1-3.3
	c-23.1-7.4-46.2-14.9-69.3-22.4c-2.5-0.8-4.8-1-7.4-0.6c-19.7,3-39.4,6-59.2,9c-2.2,0.3-4,1.2-5.8,2.6c-21.5,17.9-43,35.7-64.5,53.6
	c-6.3,5.2-6.2,5.3,0.7,9.9C446.8,97.2,447.2,97.2,447.5,97.3z M1054.6,705c-21.6-0.1-43.3,0.1-64.9-0.3c-5.2-0.1-6.2,1.4-6.2,6.3
	c0.1,114.3,0.1,228.6,0.1,342.9c0,1,0.1,2,0,3c-0.3,2.9,1.1,3.7,3.8,3.6c5.5-0.1,11,0,16.5,0c16.3-0.1,32.6-0.2,48.9-0.4
	c5.4,1.7,4.7-2,4.7-5.2c0-114.9,0-229.8,0-344.6c0-1.2,0-2.3,0-3.5C1057.4,704.9,1056,704.9,1054.6,705z M795.4,1060.3
	c1.5,0.1,3,0.3,4.5,0.3c26.7,0,53.3,0.3,80-0.1c12.8-0.2,25.6-0.8,38.3-2.8c16-2.5,27.2-10.9,33.2-26c5.9-15,6.8-30.8,7.1-46.6
	c0.4-27.8,0.4-55.6,0-83.5c-0.2-12.6-1.3-25.2-4.9-37.5c-5.3-18.2-16.7-29.7-35.7-33.5c-16.9-3.4-34-3.8-51.2-3.6
	c-5.2,0.1-6.2-1.5-6.2-6.4c0.2-36,0-72,0-107.9c0.4-9.5,0.6-7.6-6.9-7.6c-20.3-0.1-40.6,0.1-60.9-0.2c-4.7-0.1-6,1-6,5.9
	c0.2,113.9,0.2,227.7,0.2,341.6C786.6,1061,786.6,1061,795.4,1060.3z M802.7,662.1c0,0.3,0,0.6,0,0.9c0.6,0,1.3,0.1,1.9,0.1
	c19.5,0,39,0.1,58.5,0c3,0,5.1,0.6,7.1,3.3c4.5,6.2,9.5,12,14.1,18.1c1.6,2.1,3.2,2.9,5.8,2.9c23.8-0.1,47.7-0.1,71.5,0
	c2.4,0,3.9-0.6,5.2-2.9c6.5-12,13-24,19.7-35.9c1.5-2.6,0.8-3.2-1.7-4.1c-9.6-3.3-19.1-6.8-28.6-10.3c-3.7-1.4-7.3-2-11.2-2
	c-19.7,0.1-39.3-0.1-59,0c-2.6,0-5.3,0-7.9,1C853,642.9,827.9,652.5,802.7,662.1z M370.3,663.1c0-0.4,0-0.7,0-1.1
	c-25.7-9-51.3-18.1-77-27.1c-4.7-1.6-9.3-3.4-14.3-4.1c-28.7-4.1-57.5-3.4-86.3-2.7c-1.9,0-3.6,0.2-5.2,1.4
	c-5.7,4.4-11.3,8.8-17.1,13c-1.7,1.2-1.9,2.2-0.9,4.1c2.3,4.3,4.4,8.6,6.3,13c1.1,2.7,2.8,3.6,5.7,3.6c14-0.1,28,0,42-0.1
	c2.9,0,5,0.7,7,2.9c5.2,5.4,10.6,10.6,15.8,16c1.9,2,3.8,2.8,6.6,2.8c8.8-0.1,17.7,0,26.5,0.3c2.5,0.1,4.4-0.6,6.1-2.5
	c4.4-4.8,9.2-9.2,13.4-14.1c3.4-4,7.2-5.4,12.5-5.3C331,663.3,350.6,663.1,370.3,663.1z M76.2,587.7c3,11.3,6,21.9,8.7,32.4
	c0.8,3.1,2.3,5.2,5,6.9c10.3,6.5,20.4,13.2,30.6,19.7c1.3,0.8,2.6,2.8,4.3,1.7c2-1.4,0.5-3.3-0.2-4.9c-6.1-15.3-12.2-30.6-18.2-45.9
	c-0.9-2.2-2-3.5-4.5-4C93.7,591.9,85.5,589.9,76.2,587.7z M533.6,344.1c0.4-1,0.7-1.4,0.7-1.8c1.3-15.2,2.9-30.4,8.8-44.7
	c0.8-2,0.1-2.6-1.7-3.1c-4.8-1.4-9.5-2.9-14.2-4.5c-2-0.7-2.6-0.1-2.6,2C525.4,309.6,528.3,326.7,533.6,344.1z M607.4,343.2
	c5.4-17.4,8.8-35.1,9-53.8c-5.8,1.8-11.1,3.5-16.5,5c-2.1,0.6-2.6,1.4-1.7,3.5C604,312.4,605.6,327.7,607.4,343.2z M544.3,390
	c-5.1,12.1-9,23.3-7.2,35.8c2.2,15.3-1,12.2,14.9,11.5c3.3-0.1,3.4-1.4,2.2-4c-5-11.1-8.8-22.5-8.8-35
	C545.5,395.9,546,393.4,544.3,390z M598.3,390.7c-1.6,1.4-1.4,2.5-1.4,3.4c0.4,13.2-2.7,25.7-8.2,37.7c-2.3,5-2.1,5.1,3.7,5.5
	c11.3,0.9,11.2,0.9,12.7-10.3C607,414.2,603.5,402.5,598.3,390.7z"/>
<path class="st1" d="M236.7,713.7c0,16.3,0,32.6,0.2,48.9c0,3.5-1.4,4.1-4.4,4c-20.3-0.1-40.6,0-60.8-0.2c-3.8,0-5.2,0.8-5.2,4.9
	c0.2,17,0.2,33.9,0,50.9c-0.1,4,1.5,4.7,5,4.5c6.5-0.4,12.9-0.7,19.4,0.2c-3.6,1.4-7.6-0.3-12,1.1c3.5,0.6,6.2,1,9,1.5
	c15.3,2.4,30.5,5,44.6,11.9c10.1,5,18.5,11.6,23.9,21.7c1.5,2.8,2,6.4,5,8.4c2.4,11.4,3,23.1,3.2,34.7c0.3,24.3,0.5,48.7,0,73
	c-0.3,14.4-0.2,28.9-4.2,43.1c-6.7,24.1-19.3,34.4-44.4,36.3c-39.3,3.1-78.6,1.3-117.9,1.8c-3.2,0-5.3-0.5-5.3-4.6
	c0.1-113.6,0.1-227.3,0.1-340.9c0-0.5,0.1-1,0.2-1.5C140.8,713.6,188.7,713.7,236.7,713.7z M166.5,940.6c0,16.5-0.1,33,0,49.4
	c0.1,10.7-2.4,10.3,10.3,8.5c6.7-1,11.2-4.5,12.3-11.8c0.9-6.4,1.5-12.9,1.5-19.4c-0.1-17.1,0-34.3,0-51.4c0-6.2-0.3-12.3-0.9-18.4
	c-1.1-9.6-3.4-12.3-13-14c-1.8-0.3-3.6-0.5-5.4-0.8c-3.7-0.7-4.9,0.7-4.8,4.5C166.6,905,166.5,922.8,166.5,940.6z"/>
<path class="st1" d="M762.5,727.7c10.8,12,14.7,26.9,16.9,42.3c4.1,28.6,3,57.5,3.2,86.2c0,2.9-1.1,3.7-3.8,3.6
	c-21.8-0.1-43.6-0.1-65.5,0c-3.4,0-4.2-1.3-4.1-4.4c0.1-18.3,0.4-36.7-0.1-55c-0.3-10.6,0.2-21.3-1.6-31.9
	c-1.2-7.3-4.5-10.6-10.7-10.9c-6.7-0.3-11.1,3.1-12.7,10.2c-2.4,10.5-2.1,21.2-2.1,31.8c-0.3,55.3-0.3,110.6,0,165.9
	c0,9.8,0,19.6,1.5,29.4c1.5,9.6,5.5,13.3,13.9,12.6c4.3-0.4,7-2.5,8.5-6.5c1.9-5.2,2.4-10.7,2.6-16.2c0.9-20.3,0.8-40.6,0.6-60.9
	c0-4.3,1-5.7,5.5-5.6c21,0.2,42,0.2,63,0c3.9,0,5.1,1,5.1,5c0,23.8-0.6,47.6-3.1,71.3c-4.1,38-32.2,67.5-70.1,72.1
	c-23.4,2.9-45.9,0.1-66-13.5c-15.9-10.7-25-25.9-29-44.4c-5.2-24-6-48.5-6-73c0-43.6-0.3-87.3,0.3-130.9c0.2-19.6,0.2-39.4,8.6-57.8
	c4.1-8.9,8.8-17.5,15.7-24.6c8.8-2.1,16.6-6.7,24.8-10.1c32.5-13.3,63.3-9.6,93.1,7.9c3.1,1.8,5.7,4.6,9.5,5.2c0,0-0.1,0-0.1,0
	c0,0.7,0.4,1,1.1,1.1c0,0-0.1-0.1-0.1-0.1C761.9,727,762.2,727.3,762.5,727.7z"/>
<path class="st1" d="M304.5,705.8c16.3-0.1,32.6-0.3,48.9-0.3c12.8,0,25.6,0.2,38.4,0.3c0.3,0.8,0.8,1.5,0.9,2.3
	c4,26.1,8,52.2,12,78.3c3.2,21.3,6.4,42.7,9.6,64c2.5,16.4,5,32.8,7.5,49.2c3.1,20.3,6.1,40.7,9.3,61c0.3,2.1,0.3,4.8,3.2,5.7
	c3.2,26.9,6.4,53.8,9.6,80.7c0,0.2,0,0.3,0,0.5c0.3,4.2,3.2,9.9,0.5,12.2c-2.5,2.2-8.2,0.7-12.5,0.8c-18.8,0-37.6-0.1-56.5,0.1
	c-3.9,0-5.5-0.8-5.7-5.2c-0.8-18.4-2-36.9-2.9-55.3c-0.1-2.9-1.1-3.7-3.8-3.6c-6.5,0.1-13,0.1-19.5,0c-2.8-0.1-3.7,1-3.8,3.7
	c-1.2,18.7-2.6,37.5-3.9,56.2c-0.2,2.4-0.2,4.1-3.4,4.1c-21.8-0.1-43.6-0.1-65.4-0.1c-0.5,0-1-0.2-1.5-0.3c0.4-4.6,0.7-9.3,1.2-13.9
	c1.9-17.5,3.8-35,5.7-52.5c2.1-19,4.1-38,6.2-56.9c1.8-16.7,3.6-33.3,5.5-50c1.8-16.2,3.7-32.3,5.5-48.5c1.9-17,3.5-34,5.4-51
	c2.2-20.3,4.4-40.6,6.8-60.9C302.5,719.6,302.8,712.6,304.5,705.8z M353.3,787.8c-0.1,0-0.3,0-0.4-0.1c-0.4,2.8-0.9,5.5-1.1,8.3
	c-1.8,17.8-3.4,35.7-5.4,53.6c-2.7,23.6-4.6,47.3-6.5,71c-0.3,4.2-1.8,10,0.2,12.4c2.3,2.6,8.1,0.8,12.4,0.8
	c12.4,0.1,12.1,0.1,11-12.3c-2.8-29.6-5.2-59.3-7-89C355.5,817.5,354.4,802.7,353.3,787.8z"/>
<path class="st1" d="M860.4,712.6c0.1,36,0.2,72,0,107.9c0,4.9,1,6.5,6.2,6.4c17.1-0.2,34.2,0.2,51.2,3.6
	c19,3.8,30.4,15.3,35.7,33.5c3.6,12.3,4.7,24.9,4.9,37.5c0.3,27.8,0.4,55.6,0,83.5c-0.2,15.8-1.2,31.6-7.1,46.6
	c-6,15.1-17.1,23.6-33.2,26c-12.7,1.9-25.5,2.6-38.3,2.8c-26.6,0.4-53.3,0.1-80,0.1c-1.5,0-3-0.2-4.5-0.3
	c-0.3-17.8-0.4-35.6-0.5-53.4c-0.6-96.4-0.1-192.8-1.3-289.3c-0.1-4.6,1.3-6.2,5.9-5.9C819.7,713,840.1,712.7,860.4,712.6z
	 M860.5,940.9c0,18,0,36,0,53.9c0,1.9-1,4.9,2.7,4.6c13.7-1.2,19.3-2.7,20.4-16.4c2.1-27.6,1.3-55.2,0.5-82.8
	c-0.4-13.2-4.8-16.5-18.1-17.4c-0.3,0-0.7,0-1,0c-3.4-0.6-4.6,0.7-4.5,4.3C860.6,904.9,860.5,922.9,860.5,940.9z"/>
<path class="st1" d="M516.8,1060.3c-22,0.1-44,0.1-65.9,0.3c-3.1,0-3.5-1.5-3.5-4c0.1-8.8,0-17.7,0-26.5c0-105.9,0-211.9,0-317.8
	c0-6.8,0-6.8,6.7-6.8c27.3,0.1,54.6,0,82,0.2c7.7,0.1,15.2,1.2,22.7,3.1c0.3,0.3,0.6,0.6,0.9,0.8c0,0-0.1-0.1-0.1-0.1
	c5.2,4.1,10.4,8.2,15.6,12.4c10.8,8.7,18.1,19.6,21.7,33.2c2.6,10,1.5,20.2,1.9,30.3c1.2,29.1,1,58.2,0.1,87.3
	c-0.1,4.6-1,9.2,0.6,13.8c-5.4,14.6-16.7,22.6-30.9,27.1c-13.5,4.3-27.5,3.9-41.4,3.9c-2.2,0-4.7-0.9-6.6,1.1
	c-3.4,1.4-2.9,4.5-2.9,7.2c-0.1,9.6-0.2,19.3-0.1,28.9C517.9,989.9,516.1,1025.1,516.8,1060.3z M520.7,810.9
	c0,13.8,0.1,27.7-0.1,41.5c0,3.3,0.9,4.3,4.2,4.3c12.1,0.2,17.5-4.4,18.6-17.1c1.7-18.6,1.6-37.2,0.2-55.8c-1-12.5-5.2-16.5-17.7-18
	c-3.6-0.4-5.4,0.1-5.3,4.6C520.9,783.9,520.8,797.4,520.7,810.9z"/>
<path class="st1" d="M1052.8,1060.2c-16.3,0.1-32.6,0.3-48.9,0.4c-5.5,0-11-0.1-16.5,0c-2.7,0.1-4.1-0.7-3.8-3.6c0.1-1,0-2,0-3
	c0-114.3,0-228.6-0.1-342.9c0-4.9,1-6.4,6.2-6.3c21.6,0.4,43.3,0.2,64.9,0.3c-2.4,1.1-1.9,3.2-1.9,5.2
	C1052.7,826.9,1052.7,943.5,1052.8,1060.2z"/>
<path class="st2" d="M489.7,451.5c12.1,8.8,23.1,18.9,34.7,28.4c14.6,11.9,29,24,43.3,36.2c2.5,2.1,3.8,2.2,6.5-0.1
	c60.1-50.8,120.3-101.5,180.5-152.2c0.6-0.5,1.2-1.1,1.9-1.6c0.8-0.6,1.7-1.4,2.7-0.8c1.3,0.9,0.6,2,0.1,3.1
	c-1.7,3.7-4.6,6.9-5.7,11c-3.9,3.2-4.5,8.3-7.1,12.2c-8,14-16.1,27.9-24,42c-1.9,3.4-4.7,6.5-5.2,10.6c-3.6,4-6,8.6-7.8,13.6
	c-1.2,0.2-1.4,1.3-1.9,2.1c-9.5,16.6-18.9,33.2-28.3,49.8c-1.4,2.4-3.8,4.5-3.5,8.1c9.4-1.7,18.6-3.4,27.7-5
	c1.8-0.3,4.1-2.1,5.5,0.1c1,1.7-1,3.3-2.1,4.7c-12.9,16.5-25.9,33-38.9,49.4c-22.5,28.5-44.9,57-67.5,85.3c-5.9,7.4-11,15.4-18,21.8
	c0.2-2.1-0.8-3.8-1.6-5.7c-5.8-13-11.6-26.1-17.3-39.1c-8.7-20.1-17.3-40.2-26-60.3c-13.5-31.2-27.3-62.4-40.6-93.7
	C494.4,464.9,490.1,458.9,489.7,451.5z"/>
<path class="st3" d="M601.7,450.8c1.6-6.5,5.3-12.1,8.2-18.1c17.9-37.2,36.1-74.2,54.2-111.3c2.7-5.6,1.5-11.8,2.2-17.7
	c1.2-9.4,1.3-18.9,2.2-28.3c0.4-4.4-1-5.4-5.1-3.9c-4.6,1.6-9.4,2.9-14.5,3.8c6.9-8.5,12.5-18,21.9-24c5.1-3.2,10.1-6.4,15.1-9.7
	c5.3-3.4,5.8-4.9,3.1-10.7c-8.2-17.5-16.4-35-24.6-52.4c-3.9-8.2-4-8.2,3-14.2c12.8-10.8,25.6-21.4,39.4-33
	c-23.9,8.3-44.7,21.5-69,25.6c8.2-6.2,16.4-12.3,24.6-18.5c16.2-12.2,32.7-24,48.6-36.7c5-4,9.6-2,14.5-1.9
	c2.2,6.6,4.3,13.3,6.5,19.9c9.8,29.8,19.6,59.6,29.5,89.4c0.9,2.6,1.2,5.2,0.6,7.8c-7.6,37.5-15.2,75-22.8,112.5
	c-0.4,2.2-1.3,4.1-3,5.6c-15,13-30,26.1-45.1,39.1c-23.5,20.3-47,40.7-70.6,60.8C614.5,440.4,609,446.6,601.7,450.8z"/>
<path class="st1" d="M574.4,681.6c-1.8,3.9-3.4,0.9-4.8-0.3c-5.7-5-11.5-10.1-17-15.4c-2.4-2.2-4.9-3.1-8.1-3.1
	c-11.3,0.1-22.6-0.1-33.9-0.1c-1.2-0.9-2.3-1.9-3.5-2.7c-3.2-2.2-4.9-1.5-4.6,2.6c-6,1.9-8.4-1.7-10.7-6.4
	c-9.8-19.9-19.9-39.7-29.9-59.6c-0.7-1.3-1.5-2.6-2.3-3.8c0-1.2-0.6-2.9-1.4-2.5c-1.5,0.8-0.3,2.1,0.5,3.1
	c8.4,21.9,16.7,43.8,25.1,65.7c1.1,2.8,0.7,3.8-2.6,3.9c-8.9,0.3-9,0.3-9.7-8.6c-0.1-1.5-0.2-3-0.5-4.4c-0.8-3.4-3-4.5-5.9-2.6
	c-4.9,3.1-9.7,6.5-14.5,9.8c-2.1,1.4-2.3,3.4-1.4,5.7c1,2.5-4.1,11.2-6.7,11.8c-1.7,0.4-2.5-0.8-3.2-1.9
	c-7.1-11.6-18.4-16.3-30.7-20.4c-32.1-10.8-63.9-22.5-95.8-33.8c-2.9-1-4.1-2.1-2.7-5.4c9.3-21.7,18.4-43.5,27.5-65.2
	c0.4-0.9,0.9-1.4,1.8-1.3c2.7,8.4,2.7,17.3,4,25.9c1.4,9,2.3,18.1,3.5,27.2c0.2,1.2,0.1,3,2,2.8c1.6-0.1,1.4-1.6,1.7-2.7
	c0.7-2.6,1.2-5.2,1.8-7.8c4.5-20.2,8.9-40.4,13.4-60.7c2.7,1.4,2.1-1.4,2.5-2.2c5.6-11.8,11.5-23.4,18.1-34.7
	c0.2,2.3,0.8,4.9,3.6,2.6c3.7-3,5.2-3.1,6.7,1.2c1.6,4.4,4.1,4,7.3,2.3c1.7-0.9,3.1-2.4,5.2-2.9c9.1-2.2,17.8-0.2,26.2,1.4
	c1.6,3.8-10.4,3.2-2,8.6c-5.1,0.7-3.1,3-1.2,5.2c26.6,32.1,53.3,64.2,79.9,96.3c16.7,20.2,33.3,40.5,50.3,60.6
	C566.1,674,568.6,679.5,574.4,681.6z M388.2,622.8c1.7-0.2,3.1-1,4-2.5c1.4-2.2,2.8-4.5,4.3-6.6c1.7-2.5,1.8-4.8-0.1-7.3
	c-2.5-3.3-4.8-6.8-7.2-10.2c-6.4-9.1-7.7-9.2-12.5,0.6c-8.1,16.7-10,11.9,5.6,23.3C384.1,621.4,385.9,622.7,388.2,622.8z
	 M415.9,570.7c2.5,0.2,3.7-0.2,4.7-1.3c4.8-5.1,8.9-10.7,13-16.3c1.7-2.4,0.7-4.6-2.2-5.3c-5.8-1.3-11.7-2.3-17.6-3.3
	c-3-0.5-4.6,1.1-5.5,3.8c-1.7,4.8-3.3,9.7-5.2,14.5c-0.8,2.1,0.2,3.6,1.7,4.1C408.7,568.6,412.8,569.7,415.9,570.7z M456.4,585.2
	c-0.8,0.6-0.8,1.3-0.5,1.9c0.2,0.4,0.6,1,1,0.9c0.9,0,0.8-0.8,0.6-1.4C457.2,586.1,456.7,585.6,456.4,585.2z"/>
<path class="st3" d="M486.6,273.8c-3.2-0.2-6.1-1.5-9.1-2.5c-3.4-1.1-5.1-0.4-4.8,3.5c0.9,11.3,2.2,22.5,2.3,33.8
	c0.2,14.1,8.6,24.9,13.8,36.9c5,11.7,10.2,23.3,16.3,34.5c5.7,10.4,10.6,21,15.9,31.6c5.7,11.5,11.3,23,16.9,34.5
	c0.5,1,0.6,2.2,0.9,3.3c-7.6-5-12.6-12.6-18.7-19.1c-23.1-24.8-45.8-50.1-68.7-75.1c-21.2-23.2-42.6-46.3-63.8-69.5
	c-4.6-19.2-9.2-38.4-13.7-57.6c-0.5-2.2-1.6-4.4-1.2-6.8c0.9-1.8,1.9-3.5,2.6-5.3c14.9-36.3,29.9-72.6,44.7-108.9
	c1.7-4.2,3.9-6.5,8.7-6.6c2.3-0.1,5,0,7.1-1.7c22.3,19.2,44.6,38.5,66.9,57.7c-0.2,0.4-0.3,0.8-0.5,1.2c-5.7-1.5-11.6-2.5-17.2-4.5
	c-5.9-2.1-11.6-4.9-17.4-7.5c-5.6-2.5-11.2-5.2-16.9-7.4c-5.7-2.2-10.8-5.8-17.1-6.6c14.6,12.1,29.1,24.2,43.7,36.1
	c2.6,2.1,2.1,4.1,1.1,6.5c-5.9,13.2-11.7,26.5-17.8,39.6c-2.8,6-5,12.3-8.8,17.9c-2.7,3.9,0,6.8,2.7,9c10,8.1,18.3,17.9,27.5,26.8
	c1.8,1.8,4.5,3.1,4.7,6.1L486.6,273.8z"/>
<path class="st1" d="M717.4,440.2c7.8-18.3,19.8-34.9,29.2-52.5c8.9,3.2,20.4,2.3,27.5,9c10.5,11.4,20,23.9,31.6,34.2
	c-18.8,15.6-38.9,29.6-56.4,46.6c-2.1,1.9-1,3.5-0.1,5.3c4.6,9.6,9.8,18.8,13.8,28.7c-0.9,1.3-1.7,2.7-1.2,4.2
	c3.1,10.6-9.4,3.9-10.7,9.9c0.7,9-8.3,2.5-8.7,6.7c1.6,0.5,3.4,1.3,5.1,1.3c4.1,0.2,8.4,3.8,12.5-0.6c1.8-1.3,4,3.6,2.2,4.4
	c-2.6,1.4-3.9,4.3-6.7,5.3c3.6-8.5-13.8-6.7-19.1-9c-7.8-1.7-7.4,8.7-9.7,13.7c-3.7,8.5,2.5,10.4,9.6,12.8
	c-5.5,1.8-9.5,4.3-8.8,11.4c0.3,2.9,0,4,2.8,2.1c1.8-1.2,3.1-1.1,3.9,0.9c1.6,6.1-9.3-0.5-7.5,8.3c0.5,3.6,1.3,7.1,1.9,10.7
	c1.8,13.7,3.3,9.5,14.1,9.5c-0.2,2.8-3.8,0.5-4.6,3.3c3.1,0.5,6,1.2,9.2,0.5c1.3-0.3,3.2-0.4,3.3,1.9c0.1,1.9-1.4,2.2-2.7,2
	c-7.9-1.1-15.3,2.7-23.1,2c-6.4-0.5-4.5,5-5.7,8c-2.7,7.2,7.4,4.1,6.7,10c-0.5,7.7,7.9,2.4,8.9,7.6c1.4,6.4-5.4,2.5-4.4,9.1
	c0.4,3.1,3.9-1.7,5.4,2.1c-6.7,2.9-14.3,4.9-20.6,8.4c-4.2,5.7-10.2,4.9-16.2,4.9c-16.7-0.3-33.6,0.6-50.3-0.4
	c1.4-7.3-5.3-1.4-8.2,0.3c-11.7,1.3-37.8-2.9-46.1,2.7c-5.3,4.2-9.7,9.5-15.7,12.8c0-3.4,4-4.7,4.2-8
	c42.8-51,82.7-104.6,124.4-156.6c4.4-4.2,1.9-7.2-3.4-4.8c-9.1,1.6-18.3,3.3-27.7,5c-0.3-3.6,2.1-5.7,3.5-8.1
	c10.2-17.1,19-35.8,30.2-52c2.9,2.2,2,5.8,2.9,8.7c1.5,7.1,8.7,2.7,13.5,2.7c3.6-0.4,5.2-2.4,5.6-5.8c-0.6-5.8,8.4-25.3-3.4-21.9
	C724.7,438.4,721.3,440.5,717.4,440.2z M662.3,627.8c-6.2,1.3-13.1,2.4-19.8,4.1c-7.4,2.5,1.9,9.8,4.1,13.3
	c8.7,10.9,5.6,10.4,17.7,3.3c10-5.9,10.5-10.3,2.6-19C665.8,628.3,664.6,627.7,662.3,627.8z M726.8,535.8c0.9-6.7-12.2-8.4-8.6-2.4
	c3.4,3.2,5.6,6,0.8,9.8c-1.8,1.6,0.8,4.2,2.6,3.2C722.7,542.8,727.5,541.3,726.8,535.8z M723.6,562.7c3.2,0.2,4-0.2,3.9-2
	c-0.1-3.5-3.8-2.6-5.6-4.4C720.3,554.6,719.1,564.1,723.6,562.7z M733.9,606.1c-0.3-0.1-0.5-0.2-0.6,0.2
	C733.6,606.5,733.8,606.5,733.9,606.1z"/>
<path class="st4" d="M582.7,670.2c-0.2,3.3-4.3,4.6-4.2,8c-1.3,1.1-2.7,2.2-4,3.3c-5.8-2-8.3-7.6-11.8-11.8
	c-16.9-20-33.5-40.4-50.3-60.6c-26.6-32.1-53.3-64.2-79.9-96.3c-1.9-2.2-3.9-4.6,1.2-5.2c0.7,0.1,1.3,0.2,2,0.4
	c8.3,2.9,17.1,3.4,25.6,5.3c2.7,0.6,2.9-0.9,1.8-2.8c-2.3-4-4.7-7.9-7-11.9c-0.8-1.3-1.6-2.7-2.3-4c-0.3-0.4-0.6-0.7-0.9-1.1l0-0.1
	c-0.1-1.6-0.6-3-2.1-3.9c-1-1.8-2-3.5-3-5.3c-0.3-0.6-0.6-1.2-1-1.8c-0.4-1.1-0.8-2.2-1.4-3.2c-12-21.3-23.9-42.7-36.1-63.9
	c-3-5.2-5.1-11.1-9.8-15.4c-0.8-5.4-2.9-10.1-7.2-13.6c-2.9-7.4-7.5-14-11.2-21c-0.6-1.2-2.3-2.6-0.6-3.9c1.5-1.2,2.7,0.5,3.8,1.4
	c34.7,28.9,69.4,57.9,104.1,86.8c0.1,0.1,0.2,0.3,0.2,0.4c0.4,0.5,0.7,1,1.1,1.5c0,0,0-0.2,0-0.2c0.4,7.4,4.7,13.4,7.5,19.8
	c13.3,31.3,27.1,62.4,40.6,93.7c8.7,20.1,17.3,40.3,26,60.3c5.7,13.1,11.5,26.1,17.3,39.1C581.8,666.4,582.8,668.1,582.7,670.2z"/>
<path class="st3" d="M538.8,183.5c6.1,0.5,11.5,4.4,17.8,4.2c0.3,0.3,0.6,0.5,0.9,0.8c0.1-0.2,0.2-0.3,0.3-0.5
	c-0.4-0.1-0.8-0.2-1.2-0.3c-4.1-3-8.1-6-12.2-9c1.9-0.1,3.5,0.3,5.2,1.2c4.3,2.2,5.9,0.9,6.1-3.7c0.2-4.4-1.5-9.2,1.2-13.1
	c3.2-4.7,0.3-9.3,0.3-13.9c0-1.2-1.5-2.3-2.9-2.4c-3.2-0.2-3.6-2.2-3.6-4.8c0.1-7.7,0-15.3,0-23c0-2.2,0.3-3.9,3-4.4
	c4.2-0.8,4.9-3.7,3.3-7.1c-1.2-2.6-1.1-5.1-1.4-7.8c-0.9-8.7,1.5-17.1,2-25.7c0.2-3.4-0.7-7.2,4.2-8.3c0.7-0.2,1.4-1.4,1.7-2.3
	c1.9-5.3,4.1-10.5,3.2-16.4c-0.4-2.8,0.7-4.6,3.8-4.6c3.3,0,5.6-3.7,9.4-2.5c0.7,0.2,0.7-1.6,0.9-2.5c2.4-0.2,4.6,0.6,6.8,1.4
	c15,5.4,30,10.9,45.3,15.7c4.8,1.5,10.1,2.4,14.2,5.7c17,13.5,33.9,27.1,50.8,40.7c-7.5,7.1-16.1,12.7-24.3,18.9
	c-17.9,13.5-35.6,27.3-54.1,40c-13,8.9-24.8,19.4-37.8,28.2c8.2-1.4,15.9-4.6,24.9-7.8c-4.6,7.9-8.6,14.7-12.7,21.5
	c-0.3,0.6-0.8,1.1-1.1,1.7c-7.1,12.2-7.1,12.2-20.9,13.8c-2.3,0.3-4.4-0.2-5.9-1.9c-9.2-10.5-18.8-20.6-27.4-31.7
	C538.6,183.8,538.7,183.6,538.8,183.5z"/>
<path class="st3" d="M580.7,37.7c-0.1,0.9-0.1,2.8-0.9,2.5c-3.8-1.3-6.1,2.4-9.4,2.5c-3,0-4.2,1.8-3.8,4.6
	c0.9,5.9-1.3,11.1-3.2,16.4c-0.3,0.9-1,2.1-1.7,2.3c-4.9,1.1-4,4.8-4.2,8.3c-0.5,8.6-2.9,17-2,25.7c0.3,2.6,0.2,5.2,1.4,7.8
	c1.6,3.4,0.9,6.3-3.3,7.1c-2.7,0.5-3,2.2-3,4.4c0,7.7,0.1,15.3,0,23c0,2.6,0.4,4.6,3.6,4.8c1.4,0.1,2.9,1.2,2.9,2.4
	c0,4.6,2.9,9.2-0.3,13.9c-2.7,4-1,8.7-1.2,13.1c-0.2,4.6-1.8,5.9-6.1,3.7c-1.7-0.9-3.3-1.3-5.2-1.2c-11-7.5-21.5-15.7-31.6-24.4
	c-21.4-18.5-42.8-37-64.2-55.6c-0.5-0.4-0.7-1-1.1-1.6c0.7-0.7,1.4-1.4,2.2-2c26.6-17.8,53.3-35.4,79.6-53.5
	c6.6-4.5,13.2-7.2,21.2-6c1.1,0.2,2.3-0.1,3.4-0.3C563.1,34.4,572.1,32.7,580.7,37.7z"/>
<path class="st1" d="M731.5,577.8c4.8,0.1,2.5-7.1-1.4-4.1c-2.8,1.9-2.5,0.8-2.8-2.1c-0.7-7,3.3-9.6,8.8-11.4
	c0.4,0.1,0.9,0.2,1.3,0.3c0.4,0.7,0.8,0.9,1.3,0.1c7.9-3.1,10.1-12.8,16.6-17.9c2.9-0.9,4.1-3.9,6.7-5.3c1.8-0.9-0.4-5.7-2.2-4.4
	c-4,4.4-8.3,0.8-12.5,0.6c-1.7-0.1-3.5-0.9-5.1-1.3c0.4-4.2,9.4,2.3,8.7-6.7c1.3-6,13.8,0.7,10.7-9.9c-0.4-1.5,0.4-2.9,1.2-4.2
	c5.6,7.4,7.6,17,12.9,24.2c5.5,19.6,8.7,40.2,13.5,60.1c0.5,2.4,0.2,6.7,2.8,6.6c3.4-0.2,2.1-4.5,2.5-7c2.4-15.6,3.6-31.3,6.5-46.8
	c3.7,1.7,3.8,5.6,5.1,8.6c7.9,18.1,15.4,36.4,23.1,54.6c1.3,3,0.6,3.9-2.3,4.9c-30.6,10.7-60.7,22.8-91.5,32.8
	c-1.5-3.7-5,1.1-5.4-2.1c-1.1-6.6,5.8-2.8,4.4-9.1c-1-5.2-9.4,0.1-8.9-7.6c0.7-5.9-9.5-2.8-6.7-10c1.1-3-0.7-8.5,5.7-8
	c7.8,0.6,15.3-3.2,23.1-2c1.4,0.2,2.8-0.1,2.7-2c-0.1-2.3-2-2.2-3.3-1.9c-3.1,0.8-6,0.1-9.2-0.5c0.8-2.7,4.4-0.4,4.6-3.3
	c12.1-1,10.9,0.7,11-13.1C753.8,581.3,737.6,581.3,731.5,577.8z"/>
<path class="st2" d="M802.7,662.1c25.1-9.6,50.3-19.2,75.4-28.8c2.6-1,5.2-1,7.9-1c19.7,0,39.3,0.1,59,0c3.9,0,7.6,0.6,11.2,2
	c9.5,3.6,19,7,28.6,10.3c2.4,0.8,3.1,1.5,1.7,4.1c-6.7,11.9-13.3,23.8-19.7,35.9c-1.2,2.3-2.7,2.9-5.2,2.9
	c-23.8-0.1-47.7-0.1-71.5,0c-2.6,0-4.2-0.9-5.8-2.9c-4.6-6.1-9.7-11.9-14.1-18.1c-1.9-2.7-4-3.3-7.1-3.3c-19.5,0.1-39,0-58.5,0
	c-0.6,0-1.3-0.1-1.9-0.1C802.8,662.7,802.8,662.4,802.7,662.1z"/>
<path class="st2" d="M370.3,663.1c-19.6,0-39.3,0.2-58.9-0.1c-5.3-0.1-9.1,1.3-12.5,5.3c-4.2,4.9-9,9.3-13.4,14.1
	c-1.7,1.9-3.6,2.6-6.1,2.5c-8.8-0.2-17.7-0.3-26.5-0.3c-2.7,0-4.7-0.9-6.6-2.8c-5.2-5.4-10.7-10.5-15.8-16c-2-2.1-4.1-2.9-7-2.9
	c-14,0.1-28,0-42,0.1c-2.9,0-4.5-0.8-5.7-3.6c-1.9-4.4-4-8.8-6.3-13c-1-1.9-0.7-2.9,0.9-4.1c5.8-4.3,11.4-8.6,17.1-13
	c1.6-1.2,3.3-1.3,5.2-1.4c28.8-0.7,57.6-1.4,86.3,2.7c5,0.7,9.7,2.5,14.3,4.1c25.7,9,51.3,18.1,77,27.1
	C370.3,662.4,370.3,662.7,370.3,663.1z"/>
<path class="st1" d="M453.7,494.7c0.8,1.3,1.6,2.7,2.3,4c-5,0.7-7.5-2.5-9.4-6.2c-1.4-2.9-3.7-1.7-5.6-1.6c-2.1,0.1-2.3,1.9-2.5,3.7
	c-0.2,2.5,1.2,3.5,3.4,4.1c1.3,0.3,3-0.6,4.3,1.5c-5.9-0.2-7.9,4.5-10.8,8c-0.7-0.1-1.3-0.2-2-0.4c-8.4-5.4,3.6-4.8,2-8.6
	c-8.4-1.6-17.2-3.6-26.2-1.4c-2,0.5-3.4,2-5.2,2.9c-3.2,1.7-5.8,2.1-7.3-2.3c-1.5-4.3-3-4.2-6.7-1.2c-2.8,2.3-3.4-0.3-3.6-2.6
	c0,0,0,0.1,0,0.1c0.9-0.4,1-1.2,1-2.1c0,0-0.1,0.1-0.1,0.1c1.7-1.2,4.2-2.1,2.1-5c0.6-1.4,1.1-2.8,1.9-4.1c1.9-3.5,1.3-5.8-2-8.4
	c-20.6-16.4-40.9-33.1-61.3-49.7c-0.3-0.3-0.4-0.9-0.6-1.3c7.2-7.8,15.7-14.3,23.1-21.7c3.1-3.1,6.4-4,10.6-3.8
	c12.7,0.6,25.5,0.9,38.2,1.4c4.7,4.2,6.7,10.1,9.8,15.4c12.2,21.2,24.1,42.6,36.1,63.9c0.6,1,0.9,2.1,1.4,3.2
	c0.1,1.1,0.1,2.1,0.2,3.2c0.8-0.2,0.7-0.9,0.8-1.5c1,1.8,2,3.5,3,5.3c0.2,1.6-1,3.9,2.1,3.9c0,0,0,0.1,0,0.1
	C453.1,493.9,453.4,494.3,453.7,494.7z M442.6,480.7c-0.9,0.1-2-0.3-2.5,0.9c-0.1,0.2,0.4,0.8,0.7,0.9
	C442.2,482.7,442.5,481.7,442.6,480.7c0.1-0.1,0.1-0.3,0.2-0.4C442.8,480.4,442.7,480.6,442.6,480.7z M390.7,458.9
	c0,2.1,0.5,4.1,0.8,6c1.7,13.6,1.8,12.2,13.9,10.9c4-0.4,6-2.2,6.7-6c1-5.5,2-11.1,2.9-16.6c0.8-4.6-0.8-6.3-5.4-5.2
	c-4.7,1.2-9.3,3-14.1,4.3C391.8,453.3,390,455.2,390.7,458.9z"/>
<path class="st2" d="M592.2,247.7c0.1-0.3,0.2-0.7,0.4-0.9c8.2-7.8,8.3-16.5,3.1-25.9c-1.7-3.1-1.3-6.2,0.2-9.5
	c4.7-10.3,8.6-20.9,15.7-29.9c2.2-2.8,4.3-4.3,7.9-4c10.5,0.8,20.9,1.5,31.4,2.1c3.5,0.2,5.4,1.8,6.7,4.9c6.3,14.5,12.6,29,19,43.4
	c1.8,4.1,0.9,6.8-2.7,9.3c-8.4,5.9-16.7,12.1-25,18.2c-2.5,1.9-4.8,4-7.2,6.1c-2.6-4.2-7.3-3.1-11.1-4.1
	C617.9,253.9,605,250.9,592.2,247.7z"/>
<path class="st2" d="M903.7,425.9c-3.1,13.6-4.1,27.6-6.1,41.4c-0.6,4-1.7,7.5-4.4,10.8c-15.2,18.7-30.2,37.5-45.3,56.3
	c-0.2,0.3-0.4,0.5-0.6,0.8c-1,1-1.6,3-3.4,2.3c-1.9-0.8-0.9-2.6-0.6-4c2.3-13.9,4.5-27.9,6.8-41.8c3.1-18.7,6.2-37.4,9.3-56
	c0.3-2,0.3-4,0.5-5.9c1.8-4,1.8-8.4,2.6-12.6c0.4-2.4,1.4-3.8,3.6-4.8c12-5.8,23.9-11.6,35.9-17.5c1.5-0.7,3-2,4.6-0.8
	c1.4,1.1,0.3,2.8,0.2,4.2C906.1,407.5,903.4,416.5,903.7,425.9z"/>
<path class="st2" d="M280.9,428.8c2.7,17.1,5.4,34.1,8.1,51.2c2.9,17.9,5.9,35.8,8.8,53.6c0.2,1.3,1,2.8-0.5,3.6c-2,1.1-2.6-1-3.4-2
	c-16-19.8-31.8-39.7-47.8-59.5c-1.8-2.2-2.1-4.8-2.5-7.4c-1.8-11.8-2.6-23.8-5.2-35.5c-0.1-2.8,0.3-5.7-0.2-8.4
	c-2-10.2-4-20.3-3.6-30.7c2.4-0.8,4.2,0.7,6.1,1.6c11,5.4,22,10.9,33.1,16.2c3.2,1.5,4.9,3.4,5.1,7.1
	C279.2,422.1,280.2,425.4,280.9,428.8z"/>
<path class="st2" d="M200.9,461.9c4.9,4.3,10.8,7.2,16.2,10.7c2.1,1.4,3.3,2.8,3.7,5.4c5.1,30.9,10.3,61.7,15.4,92.6
	c0.2,1.4,1.2,3.1-0.6,4c-1.8,0.9-2.6-0.9-3.6-1.9c-19.4-20.6-38.7-41.3-58.1-61.9c-1.9-2-2.4-4.2-2.4-6.8c0-13-0.3-26-0.4-39
	c0-2-0.1-4-0.9-5.9c0.1-3.3,0.2-6.5,0.5-9.8c0.3-3.3,1-5.2,5.2-3c2.6,1.4,4.3,4.8,8,4.2C188.9,455.4,194.8,458.7,200.9,461.9z"/>
<path class="st2" d="M970.4,457.6c-1.2,9.4-1.5,19-0.6,28.4c1.6,15.6-3.2,27.2-14.8,38c-16.1,15.1-30.4,32.1-45.6,48.2
	c-1.1,1.1-2,3.2-3.9,2.4c-2-0.9-0.9-2.9-0.6-4.4c5.1-30.7,10.4-61.3,15.4-92c0.5-2.8,1.6-4.3,3.9-5.7c5-3,9.7-6.3,14.6-9.5
	c8.8-5.6,17.8-11.1,26.5-16.8c3.5-2.3,4.7-1.3,4.7,2.5C970,451.7,969.5,454.7,970.4,457.6z"/>
<path class="st4" d="M540.9,232.9c-0.7,2.3,0.7,3.7,1.9,5.3c7.9,10.5,15.8,21,23.6,31.6c4.1,5.5,3.1,8.4-3.2,10.9
	c-7.1,2.8-14.3,5.5-21.4,8.4c-2.3,0.9-4.5,1.1-6.8,0.2c-0.3-0.1-0.6-0.3-0.9-0.3c-13.3-2-23.3-8.6-29.3-20.9
	c-4.3-8.7-12.4-13.6-20-19.1c-5.5-4-11-8.1-16.6-12c-3.5-2.4-4.4-5.1-2.6-9c3-6.5,5.9-13,8.8-19.5c0.7,0.7,1.3,1.6,2.1,2
	C497.1,220.4,518.9,226.9,540.9,232.9z"/>
<path class="st2" d="M1025.6,502.6c3.2-0.1,6.3-0.3,9.5-0.4c5.7-0.2,6,0.2,4.1,5.8c-4,11.6-8,23.2-11.9,34.8c-0.5,1.5-1.6,2.9-1,4.7
	c0,0,0.2,0,0.2,0c-1.5,0-1,1.3-1.4,2.1c-1.9,4.5-3.6,9.1-4.6,13.9c-2.3,6.6-4.8,13.1-7,19.7c-0.8,2.5-2.1,4.3-4.4,5.7
	c-13.7,8.9-27.3,17.9-40.9,26.8c-1.2,0.8-2.4,2.4-3.9,1.3c-1.5-1-0.6-2.7-0.3-4.2c6.6-27.3,13.2-54.7,19.7-82
	c0.5-2.2,1.6-3.4,3.4-4.6c5.2-3.2,10.4-6.6,15.6-9.9C1010.2,511.9,1017.9,507.2,1025.6,502.6z"/>
<path class="st5" d="M580.7,37.7c-8.5-5-17.6-3.3-26.6-2.2c-1.1,0.1-2.3,0.4-3.4,0.3c-8-1.2-14.6,1.5-21.2,6
	c-26.4,18.1-53.1,35.7-79.6,53.5c-0.8,0.5-1.5,1.3-2.2,2c-0.3-0.1-0.7-0.1-0.9-0.3c-6.9-4.6-7-4.7-0.7-9.9
	c21.5-17.9,43-35.7,64.5-53.6c1.7-1.5,3.6-2.3,5.8-2.6c19.7-3,39.4-6,59.2-9c2.5-0.4,4.9-0.2,7.4,0.6c23.1,7.5,46.2,14.9,69.3,22.4
	c2.2,0.7,4.3,1.7,6.1,3.3c15.9,14.1,31.8,28.3,47.9,42.2c2.8,2.5,2.8,3.8-0.3,5.7c-2.7,1.6-4.8,4.1-7.9,5.2
	C680.8,87.6,663.9,74,647,60.5c-4.1-3.3-9.4-4.2-14.2-5.7c-15.3-4.8-30.3-10.2-45.3-15.7C585.2,38.3,583.1,37.5,580.7,37.7z"/>
<path class="st2" d="M137.5,515.7c5.4,3.5,10.8,7.1,16.3,10.5c2.1,1.3,3.3,2.9,3.9,5.4c5.8,24.6,11.8,49.1,17.6,73.7
	c0.4,1.9,2.4,4.3-0.7,6.1c-2.8,1.7-5,2.7-8.4,0.3c-11-7.7-22.4-15-33.7-22.3c-2.5-1.6-4-3.6-5-6.5c-2.2-6.8-4.6-13.5-7-20.2
	c-1.4-4-2.8-8-4.1-12c-4.9-14.4-9.8-28.8-14.7-43.2c-1.7-5-1.4-5.4,3.9-5.3c3,0.1,6,0.3,8.9,0.4c2,1,4,2.3,6.1,3.1
	c3.5,1.3,5.6,5.4,9.9,5C132.4,513,134.7,514.7,137.5,515.7z"/>
<path class="st3" d="M970.4,457.6c-0.9-2.9-0.4-5.9-0.4-8.9c0-3.9-1.1-4.9-4.7-2.5c-8.8,5.7-17.7,11.2-26.5,16.8
	c-2.6-3.9-7.6-5-10.3-8.8c0.1-0.5,0.1-1,0.3-1.5c12.3-25.2,24.6-50.4,36.8-75.6c0.9-1.9,2.1-2.6,4.3-2.5c7.6,0.3,15.3,0.4,22.9,0.7
	c1.7,0.1,3.4,0.5,4.1-1.7c2.6,8.9,5.1,17.8,7.7,26.6c0.8,2.7,0.6,5-1,7.4c-10.6,16.2-21,32.5-31.6,48.8
	C971.7,457,971,457.2,970.4,457.6z"/>
<path class="st3" d="M280.9,428.8c-0.7-3.4-1.8-6.8-2-10.2c-0.3-3.6-1.9-5.5-5.1-7.1c-11.1-5.2-22-10.8-33.1-16.2
	c-1.9-0.9-3.7-2.4-6.1-1.6c-1.5-1.2-2.3-2.7-3-4.5c-4.6-11.7-9-23.5-13.9-35.1c-1.7-4-1-6.7,1.6-9.8c5.9-7.3,12-14.6,17-22.5
	c1.3,0.2,2.6,0.9,3.9,0.7c10.2-1.6,13.3,5,16.6,12.9c7.5,18.4,15.9,36.4,24,54.6c3.8,8.6,7.6,17.3,11.5,25.8c0.8,1.7,1,3-0.6,4.4
	C288.3,423.3,285.3,427,280.9,428.8z"/>
<path class="st3" d="M200.9,461.9c-6-3.2-12-6.5-17-11.3c-1-1.9-1.7-3.9-2.9-5.7c-9.3-14.7-18.7-29.4-28.2-44
	c-1.9-2.9-2.6-5.2-0.8-8.6c4-7.6,7.4-15.6,11-23.4c0.5-1,2.5-2.5-0.4-3.3c5.6-1.5,11.1-3,16.7-4.6c2.3-0.7,3.4,0.5,4.2,2.3
	c7.7,17.1,15.5,34.2,23.2,51.3c4.4,9.7,8.6,19.4,13,29c1.1,2.3,1.2,4.1-1,5.6C212.8,453.5,207.3,458.4,200.9,461.9z"/>
<path class="st1" d="M903.7,425.9c-0.3-9.4,2.4-18.4,3-27.6c0.1-1.4,1.2-3.1-0.2-4.2c-1.6-1.3-3.2,0.1-4.6,0.8
	c-12,5.8-23.9,11.7-35.9,17.5c-2.2,1-3.2,2.4-3.6,4.8c-0.8,4.2-0.8,8.6-2.6,12.6c-2.7-1.1-4.9-2.8-6.3-5.4c-0.2-2.3,1.1-4.1,2-6
	c13-26.5,26-53,38.9-79.6c3.3-6.8,3.5-6.9,11-5.6c7.3,1.2,14.7,2.2,22.1,3.3c1.2,0.2,1.9-0.2,1.9-1.5c0.9,1,1.6,2.2,2.7,2.9
	c8.6,5.8,7.3,12.5,3.3,20.8c-10.1,21.1-19.4,42.7-29,64C905.8,423.9,905.6,425.6,903.7,425.9z"/>
<path class="st5" d="M601.7,450.8c7.3-4.2,12.8-10.4,19.1-15.8c23.6-20.2,47.1-40.5,70.6-60.8c15.1-13,30-26.1,45.1-39.1
	c1.7-1.5,2.6-3.4,3-5.6c7.6-37.5,15.2-75,22.8-112.5c0.5-2.7,0.2-5.2-0.6-7.8c-9.9-29.8-19.7-59.6-29.5-89.4
	c-2.2-6.6-4.3-13.3-6.5-19.9c4.9-1.3,7.6,0.1,9.5,5.3c12.3,33.1,25,66,37.7,98.9c1.1,2.8,1.3,5.3,0.7,8.2
	c-7.9,37-15.6,74-23.4,110.9c-0.5,2.6-1.8,4.5-3.7,6.3c-43.3,39.8-86.5,79.6-129.7,119.5c-1.9,1.7-4,2.9-6.3,4c-6,2.9-12,5.8-18,8.7
	c-4.5-1.1,1.5-1.9,0.1-3C597.2,457.8,599.5,454.4,601.7,450.8z"/>
<path class="st5" d="M860.4,712.6c-20.3,0.1-40.6,0.4-60.9-0.8c-4.6-0.3-6,1.2-5.9,5.9c1.3,96.4,0.7,192.8,1.3,289.3
	c0.1,17.8,0.2,35.6,0.5,53.4c-8.7,0.8-8.7,0.8-8.7-8c0-113.9,0-227.7-0.2-341.6c0-5,1.3-6,6-5.9c20.3,0.3,40.6,0,60.9,0.2
	C861,705,860.7,703.1,860.4,712.6z"/>
<path class="st3" d="M116.4,550.6c1.4,4,2.8,8,4.1,12c-0.9,0.1-1.5,0.5-1.8,1.5c-2.3,7.8-5,15.5-6.7,23.4c-1.2,5.2-3.5,5.6-7.5,3.5
	c0.4-1.3-0.7-1.1-1.4-1.5c-10.5-5.4-21-10.8-31.5-16.1c-2-1-3.5-2.3-4.5-4.4c-6.8-13.1-13.6-26.2-20.5-39.4
	c2.8-8.8,6.9-16.3,16.6-19.5c3-1,4.8-0.9,7.1,1.1c15,13.1,30.1,26,45.2,39C115.7,550.6,116.1,550.6,116.4,550.6z"/>
<path class="st3" d="M1020.4,563.6c1-4.8,2.7-9.4,4.6-13.9c0.9-0.4,1.5-1,1.4-2.1c0,0-0.2-0.1-0.2,0c5.2-1.8,8.4-6.3,12.4-9.6
	c10.1-8.3,19.9-17,29.8-25.6c3.2-2.7,6.4-4.2,10-0.7c2.1,10.4,5.6,20.5,8.6,30.6c0.9,3.1,0.5,5.3-1.5,7.8
	c-7.4,9.4-14.8,18.8-21.9,28.4c-1.6,2.2-4.8,3.7-4.2,7.3c-9.1,2.2-18.3,4.4-27.4,6.6c-2.9,0.7-3.4-1.2-3.9-3.2
	c-2.2-7.6-4.4-15.3-6.6-22.9C1021.3,565.2,1021.4,564.2,1020.4,563.6z"/>
<path class="st2" d="M366,531.5c-4.5,20.2-8.9,40.4-13.4,60.7c-0.6,2.6-1.1,5.2-1.8,7.8c-0.3,1.1-0.1,2.6-1.7,2.7
	c-2,0.1-1.9-1.7-2-2.8c-1.2-9.1-2.2-18.2-3.5-27.2c-1.3-8.6-1.3-17.5-4-25.9c-0.2-11.4-3.5-22.3-5.4-33.5
	c-1.9-11.3-4.2-22.6-6.5-33.8c-0.7-3.4,0.3-4.8,3.5-6.4c7.3-3.6,13.3-3.5,19.7,2.4c5.8,5.4,12.6,9.8,19.2,14.3
	c3.3,2.3,4.4,4.6,3.4,8.7C370.7,509.4,368.5,520.5,366,531.5z"/>
<path class="st2" d="M801,548.6c-2.9,15.5-4.1,31.2-6.5,46.8c-0.4,2.5,0.9,6.8-2.5,7c-2.6,0.1-2.2-4.2-2.8-6.6
	c-4.3-19.6-8.5-39.2-12.8-58.8c-0.1-0.4-0.5-0.8-0.7-1.3c-2.7-12.3-5.2-24.7-8.1-37c-1-4.2-0.2-6.6,3.5-9.1
	c7.7-5.2,15.2-10.7,22.5-16.6c3.8-3.1,7.1-3.6,11.7-1.7c8.6,3.6,8.8,3.3,7.1,12.5c-3.5,18.5-7,36.9-10.4,55.4
	C801.4,542.3,801.3,545.5,801,548.6z"/>
<path class="st5" d="M387.5,285.7c21.3,23.2,42.6,46.3,63.8,69.5c22.9,25,45.6,50.3,68.7,75.1c6.1,6.5,11.1,14.1,18.7,19.1
	c0,0,0.1,0.1,0.1,0.1c-0.2,0.7,0.2,0.8,0.8,0.9c2,5.7,6.5,7.6,12,8.6c6.7,1.2,13,4.6,20,4.7c4,0.7,8,1.3,12,2
	c-8.2,5.9-16.4,5.8-25.3,1c-10.9-5.8-24.3-6.7-33.7-15.4c-9.1-8.5-17-18.2-25.4-27.4c-35-38.1-70-76.1-105-114.2
	c-1.5-1.6-2.5-3.4-2.9-5.6C390.1,298,388,292,387.5,285.7z"/>
<path class="st2" d="M540.9,232.9c-21.9-6.1-43.8-12.5-64.4-22.4c-0.8-0.4-1.4-1.3-2.1-2c3.5-8.2,7.1-16.5,10.6-24.7
	c1.1-2.5,2.8-4,5.7-4.2c10.8-0.6,21.6-1.3,32.4-2.1c3.5-0.2,5.9,1.1,7.8,4.2c6.4,10.4,10.7,21.7,15.3,33c0.5,1.1,0.7,2.3,0.2,3.4
	C544.4,222.9,543.4,228.2,540.9,232.9z"/>
<path class="st3" d="M1025.6,502.6c-7.7,4.6-15.3,9.3-23,13.9c-3.3-7-5.9-14.5-11.1-20.5c-1.3-1.6-2.8-2.9-4.6-3.7
	c-4.1-1.9-3.6-4.2-1.1-7.3c11.3-14.3,22.5-28.8,33.7-43.2c1.6-2.1,3.4-4.1,5.1-6.1c6.1,12.5,12.2,25.1,18.3,37.6
	c0.6,1.3,0.6,3.1,2.6,3.3c-5.9,7.1-11.7,14.2-17.6,21.3C1026.7,499.3,1025,500.4,1025.6,502.6z"/>
<path class="st5" d="M304.5,705.8c-1.8,6.8-2,13.8-2.8,20.6c-2.4,20.3-4.6,40.6-6.8,60.9c-1.8,17-3.5,34-5.4,51
	c-1.8,16.2-3.7,32.3-5.5,48.5c-1.9,16.7-3.6,33.3-5.5,50c-2.1,19-4.1,38-6.2,56.9c-1.9,17.5-3.9,35-5.7,52.5
	c-0.5,4.6-0.8,9.3-1.2,13.9c-6.1,0.7-6.2,0.7-5.6-5.2c4.7-45.2,9.5-90.3,14.3-135.5c4.6-43.3,9.1-86.7,13.7-130
	c2.7-25.8,5.4-51.6,8.2-77.4C296.7,704.7,296.8,704.7,304.5,705.8z"/>
<path class="st4" d="M592.2,247.7c12.8,3.2,25.7,6.2,38.5,9.6c3.8,1,8.5-0.1,11.1,4.1c-4.3,6.5-8.6,13-12.9,19.4
	c-0.8,1.1-1.9,1.9-3.2,2.3c-6.8,2.1-13.6,4.3-20.4,6.4c-1.5,0.5-2.9,0.3-4.4-0.3c-7.7-3.1-15.5-6.1-23.1-9.2
	c-4.4-1.8-5.5-4.7-2.8-8.6C580.6,263.5,586.5,255.6,592.2,247.7z"/>
<path class="st5" d="M434.2,966.4c-2.9-0.9-2.9-3.7-3.2-5.7c-3.2-20.3-6.2-40.7-9.3-61c-2.5-16.4-5-32.8-7.5-49.2
	c-3.2-21.3-6.4-42.7-9.6-64c-3.9-26.1-7.9-52.2-12-78.3c-0.1-0.8-0.6-1.5-0.9-2.3c11.1-1.9,11.5-1.4,12.8,9.4
	c5.2,44.1,10.5,88.2,15.7,132.3c4.5,38.3,9,76.7,13.5,115c-0.1,0.1-0.2,0.3-0.2,0.4c0.1,0.3,0.2,0.6,0.3,0.8
	C434,964.6,434.1,965.5,434.2,966.4z"/>
<path class="st5" d="M1052.8,1060.2c0-116.7,0-233.3,0-350c0-1.9-0.6-4.1,1.9-5.2c1.4-0.1,2.8-0.1,2.8,1.8c0,1.2,0,2.3,0,3.5
	c0,114.9,0,229.8,0,344.6C1057.4,1058.2,1058.1,1061.9,1052.8,1060.2z"/>
<path class="st3" d="M137.5,515.7c-2.8-1-5-2.7-6.9-5c0.2-1.6-0.9-2.8-1.6-4.1c-5.7-10.4-11.4-20.9-17.4-31.2
	c-2.8-4.9-3.8-9.4-1.7-14.9c2.8-7.4,4.6-15.2,6.8-22.8c12.7,16.2,25.3,32.4,38,48.7c1,1.3,3.3,3,0.5,4.4c-8.2,4-11.6,11.5-14.8,19.2
	C139.6,511.9,138.5,513.8,137.5,515.7z"/>
<path class="st5" d="M162.6,365.6c2.9,0.8,0.8,2.3,0.4,3.3c-3.6,7.8-7,15.8-11,23.4c-1.8,3.4-1.1,5.7,0.8,8.6
	c9.5,14.6,18.9,29.3,28.2,44c1.1,1.8,1.9,3.8,2.9,5.7c-3.6,0.6-5.4-2.8-8-4.2c-4.2-2.3-4.9-0.4-5.2,3c-0.3,3.3-0.3,6.5-0.5,9.8
	c-6.6-8.2-11.5-17.4-17.4-26.1c-5.6-8.3-10.8-16.8-16.3-25.1c-1.8-2.7-2.3-5.1-1.3-8.3c2.7-8.4,5.1-16.9,7.4-25.4
	c0.7-2.6,2-3.9,4.6-4.5C152.4,368.6,157.5,367,162.6,365.6z"/>
<path class="st5" d="M996.8,373.6c-0.7,2.1-2.4,1.7-4.1,1.7c-7.6-0.3-15.3-0.4-22.9-0.7c-2.1-0.1-3.3,0.6-4.3,2.5
	c-12.2,25.2-24.5,50.4-36.8,75.6c-0.2,0.4-0.2,1-0.3,1.5c-10.6-5.4-10.7-5.6-6.1-16c11.1-24.7,22.3-49.4,33.3-74.2
	c1.3-3,2.5-3.9,5.8-2.9c10.3,3.2,20.8,6,31.2,8.9C994.8,370.5,996.6,371.2,996.8,373.6z"/>
<path class="st2" d="M1011.6,655.8c-0.8-2.5,1.1-4.3,1.9-6.3c8-17.6,15.3-35.4,23.9-52.7c1-1.9,2-3.3,4.2-3.7
	c7.4-1.6,14.9-3.4,22.3-5.2c1.3,2.2-0.3,4-0.7,5.8c-2.7,10.5-5.6,20.9-8.4,31.3c-0.4,1.4-0.5,3-1.9,3.9
	c-13.9,8.8-27.1,18.5-41.4,26.8L1011.6,655.8z"/>
<path class="st5" d="M929.4,334.9c0,1.3-0.7,1.7-1.9,1.5c-7.4-1.1-14.8-2.1-22.1-3.3c-7.4-1.3-7.6-1.2-11,5.6
	c-13,26.5-26,53.1-38.9,79.6c-0.9,1.9-2.2,3.7-2,6c-7.4-3.7-7.7-4.5-4.7-11.4c12.6-28.6,25.3-57.2,37.8-85.9c1-2.2,2.1-3.6,4.7-3.7
	c2,0,4-0.6,5.9-0.7c6.4-0.5,13.4-4.2,19-1.2C921.6,324.2,925.1,330.3,929.4,334.9z"/>
<path class="st5" d="M399.5,400.1c-12.7-0.4-25.5-0.7-38.2-1.4c-4.3-0.2-7.5,0.7-10.6,3.8c-7.5,7.5-15.9,14-23.1,21.7
	c-8-2.7-8.5-10.7-11.6-16.9c-0.7-1.5,1-2.3,1.9-3.1c6.4-5.6,12.8-11.1,19.2-16.7c1.3-1.1,2.7-1.8,4.5-1.8
	c16.9,0.3,33.8,0.5,50.8,0.7C396.7,390,398.7,394.7,399.5,400.1z"/>
<path class="st2" d="M76.2,587.7c9.2,2.2,17.5,4.2,25.7,6c2.4,0.5,3.6,1.8,4.5,4c6,15.3,12.2,30.6,18.2,45.9
	c0.6,1.6,2.2,3.5,0.2,4.9c-1.7,1.2-3-0.8-4.3-1.7c-10.2-6.5-20.3-13.3-30.6-19.7c-2.8-1.7-4.2-3.8-5-6.9
	C82.2,609.5,79.3,599,76.2,587.7z"/>
<path class="st5" d="M236.4,321.9c-5.1,8-11.1,15.2-17,22.5c-2.6,3.2-3.3,5.9-1.6,9.8c4.9,11.6,9.3,23.4,13.9,35.1
	c0.7,1.7,1.5,3.3,3,4.5c-0.4,10.4,1.6,20.5,3.6,30.7c0.5,2.7,0.2,5.6,0.2,8.4c-6.5-14.2-13.1-28.3-19.5-42.5
	c-6.1-13.3-12-26.7-18.1-40c-1.2-2.6-1.2-4.3,1-6.5c6.7-6.9,13.3-14,19.7-21.2c1.8-2,3.8-2.9,6.1-2
	C230.5,321.9,233.5,321.5,236.4,321.9z"/>
<path class="st5" d="M435.7,98.8c-2.1,1.7-4.8,1.6-7.1,1.7c-4.8,0.1-7,2.4-8.7,6.6c-14.8,36.4-29.8,72.6-44.7,108.9
	c-0.8,1.8-1.7,3.6-2.6,5.3c-3-8.9-4.2-17.3,0-26.8c13.6-30.7,26.2-61.8,39-92.9c1.6-4,3.5-6.6,8.2-6.1c1.8,0.2,3.7-0.2,5.4-0.5
	C429.5,94.1,433,95.1,435.7,98.8z"/>
<path class="st5" d="M236.7,713.7c-47.9-0.1-95.9-0.1-143.8-0.2c-0.7-8.6-0.7-8.6,7.8-8.6c42.6,0,85.2,0,127.9,0
	C237.2,704.9,237.2,704.9,236.7,713.7z"/>
<path class="st5" d="M599.5,886.6c-1.6-4.5-0.8-9.2-0.6-13.8c0.9-29.1,1.1-58.2-0.1-87.3c-0.4-10.1,0.7-20.2-1.9-30.3
	c-3.6-13.6-10.9-24.5-21.7-33.2c-5.2-4.2-10.4-8.3-15.6-12.4c12.6,1.3,22.8,7.4,30.9,16.8c8.7,10.1,12.6,22.4,13.5,35.3
	c2.6,36.8,3.6,73.7-0.5,110.5C603,877.2,602.1,882.2,599.5,886.6z"/>
<path class="st5" d="M805.6,430.8c-6.7-5-11.2-12-17-17.9c-5.1-5.2-9.8-10.8-14.6-16.3c-1.9-2.2-4.2-3.6-7.1-4.2
	c-6.8-1.4-13.6-3.2-20.3-4.8c2.6-3.9,3.2-9,7.1-12.2c5.2,0.8,10.5,1.7,15.7,2.5c1.9,0.3,3.4,1.3,4.8,2.6
	c13.9,12.4,27.8,24.7,41.8,37c2.5,2.2,2.7,3.4-0.1,5.3C812.3,425.3,809,428.1,805.6,430.8z"/>
<path class="st5" d="M116.8,437.7c-2.2,7.6-4,15.4-6.8,22.8c-2.1,5.6-1.1,10.1,1.7,14.9c6,10.3,11.6,20.8,17.4,31.2
	c0.7,1.3,1.8,2.5,1.6,4.1c-4.3,0.4-6.4-3.8-9.9-5c-2.1-0.8-4.1-2-6.1-3.1c0.3-2.2-1.6-3.1-2.7-4.5c-6.3-7.7-12.5-15.5-19.1-23
	c-2.1-2.4-2.1-4.3-0.7-7c5.6-11.1,11-22.3,16.4-33.5c2.4-4.9,2.4-5,5.8-0.7C115.1,435.2,115.9,436.4,116.8,437.7z"/>
<path class="st5" d="M760.6,725.6c-3.8-0.6-6.4-3.3-9.5-5.2c-29.8-17.5-60.6-21.1-93.1-7.9c-8.3,3.4-16.1,7.9-24.8,10.1
	c19.6-20.6,44.1-26.6,71.4-24.5c19.1,1.5,36.3,7.8,50.5,21.2C757.2,721.3,759.6,722.8,760.6,725.6z"/>
<path class="st5" d="M1059.5,585.7c-0.6-3.5,2.6-5.1,4.2-7.3c7.1-9.6,14.5-19,21.9-28.4c1.9-2.5,2.4-4.7,1.5-7.8
	c-3-10.2-6.5-20.2-8.6-30.6c5.3,1.4,8.9,4.3,11.1,9.6c2.6,6.3,5.8,12.3,9,18.3c1.4,2.6,1.6,4.6-0.1,7.3c-4,6.3-6.7,13.6-11.4,19.2
	C1079.8,574.9,1072,583.8,1059.5,585.7z"/>
<path class="st5" d="M46.7,529.7c6.8,13.1,13.7,26.2,20.5,39.4c1.1,2,2.5,3.4,4.5,4.4c10.5,5.3,21,10.7,31.5,16.1
	c0.7,0.3,1.8,0.1,1.4,1.5c-10.2-2.3-20.8-3.7-30.5-7.3c-8.1-3-16.5-7-20.8-16c-3.4-7-7.5-13.7-11.7-20.3c-1.8-2.9-2.1-5.3-0.3-8.2
	C43.4,536.2,44.1,532.5,46.7,529.7z"/>
<path class="st2" d="M533.6,344.1c-5.2-17.4-8.2-34.6-9-52.1c-0.1-2.1,0.6-2.7,2.6-2c4.7,1.6,9.5,3.1,14.2,4.5
	c1.8,0.5,2.5,1.1,1.7,3.1c-5.9,14.3-7.5,29.5-8.8,44.7C534.3,342.7,534,343.1,533.6,344.1z"/>
<path class="st2" d="M607.4,343.2c-1.8-15.4-3.4-30.8-9.2-45.2c-0.9-2.1-0.4-2.9,1.7-3.5c5.4-1.5,10.7-3.3,16.5-5
	C616.2,308.1,612.8,325.7,607.4,343.2z"/>
<path class="st5" d="M261.2,871.7c-3-2-3.5-5.5-5-8.4c-5.5-10.1-13.8-16.8-23.9-21.7c-14.1-6.9-29.3-9.5-44.6-11.9
	c-2.7-0.4-5.5-0.9-9-1.5c4.5-1.4,8.4,0.3,12-1.1c0.6,0,1.2,0.1,1.8,0.1c2.7,0.9,5.4,0.6,8.2,0.5c7.6,0.4,15.1,1.4,22.7,2.8
	c19.9,3.7,31.2,16.1,36.4,35C260.4,867.4,260.7,869.6,261.2,871.7z"/>
<path class="st2" d="M544.3,390c1.6,3.4,1.1,5.9,1.1,8.2c-0.1,12.4,3.7,23.8,8.8,35c1.2,2.6,1.1,3.9-2.2,4
	c-15.9,0.7-12.7,3.8-14.9-11.5C535.3,413.3,539.2,402.1,544.3,390z"/>
<path class="st2" d="M598.3,390.7c5.2,11.8,8.6,23.5,6.9,36.4c-1.5,11.2-1.4,11.3-12.7,10.3c-5.8-0.5-6-0.5-3.7-5.5
	c5.5-12,8.6-24.5,8.2-37.7C596.9,393.2,596.7,392.2,598.3,390.7z"/>
<path class="st5" d="M516.8,1060.3c-0.7-35.2,1.1-70.4,0.9-105.6c-0.1-9.6,0-19.3,0.1-28.9c0-2.7-0.5-5.8,2.9-7.2
	c0.1,19.1,0.2,38.3,0.2,57.4c0,26.6,0,53.3,0,79.9C520.9,1058.9,521,1061.5,516.8,1060.3z"/>
<path class="st5" d="M1045.5,476.7c-2-0.2-2-2.1-2.6-3.3c-6.1-12.5-12.2-25.1-18.3-37.6c1-1.9,2.3-3.6,4.5-5.4
	c2.4,4.8,4.8,9.5,7.1,14.1c3.6,7.3,6.8,14.8,10.7,22C1049.2,470.6,1049.1,473.7,1045.5,476.7z"/>
<path class="st3" d="M583.7,465.8c-4-0.7-8-1.3-12-2c7-1.9,13.7-4.5,21-5c1.4,1-4.6,1.9-0.1,3C589.6,463.1,586.6,464.4,583.7,465.8z
	"/>
<path class="st2" d="M640.2,662.8c1.5-1,3-2,4.5-3c3.5-2.3,4.2-0.7,3.7,2.6c-2.1,1.2-4.5,0.4-6.7,0.8c-0.4-0.5-0.8-0.7-1.3-0.2
	L640.2,662.8z"/>
<path class="st4" d="M502.6,662.6c-0.3-4.1,1.3-4.8,4.6-2.6c1.2,0.8,2.4,1.8,3.5,2.7C508,663.3,505.3,663.2,502.6,662.6z"/>
<path class="st1" d="M200.7,827.6c-2.7,0.1-5.5,0.5-8.2-0.5C195.3,826.6,198,826.4,200.7,827.6z"/>
<path class="st1" d="M389.7,487.7c2,2.8-0.4,3.8-2.1,5C387.6,490.8,388.8,489.3,389.7,487.7z"/>
<path class="st1" d="M387.6,492.6c0,0.9-0.2,1.7-1,2.1C386.5,493.8,386.7,493,387.6,492.6z"/>
<path class="st3" d="M486.7,273.7c0.4,0.1,0.8,0.3,1.3,0.4c-0.1,0.1-0.3,0.4-0.3,0.3c-0.4-0.2-0.7-0.4-1.1-0.7
	C486.6,273.8,486.7,273.7,486.7,273.7z"/>
<path class="st1" d="M538.5,183.9c-0.2-0.2-0.5-0.5-0.5-0.5c0.4-0.5,0.6-0.2,0.9,0.2C538.7,183.6,538.6,183.8,538.5,183.9z"/>
<path class="st5" d="M559.7,709.7c-0.3-0.3-0.6-0.6-0.9-0.8C559.2,708.9,560,708.7,559.7,709.7z"/>
<path class="st5" d="M761.6,726.7c-0.6-0.1-1-0.4-1.1-1.1C761.3,725.6,761.6,726,761.6,726.7z"/>
<path class="st5" d="M762.5,727.7c-0.3-0.4-0.7-0.7-1-1.1C761.9,727,762.2,727.3,762.5,727.7z"/>
<path class="st2" d="M489.7,451.7c-0.4-0.5-0.7-1-1.1-1.5C489.2,450.5,489.9,450.8,489.7,451.7z"/>
<path class="st3" d="M539.6,450.5c-0.5-0.1-1-0.3-0.8-0.9C539.1,449.9,539.4,450.2,539.6,450.5z"/>
<path class="st1" d="M640.5,663c0.5-0.5,0.9-0.3,1.3,0.2C641.3,663.6,640.8,663.6,640.5,663z"/>
<path class="st2" d="M1011.5,655.7c-0.2,0.2-0.4,0.4-0.6,0.6c0-0.2-0.1-0.4-0.1-0.5c0.2-0.4,0.5-0.4,0.7,0
	C1011.6,655.8,1011.5,655.7,1011.5,655.7z"/>
<path class="st1" d="M434,963.8c-0.1-0.3-0.2-0.5-0.3-0.8c0-0.1,0.1-0.3,0.2-0.4c0.1,0.3,0.3,0.6,0.4,0.8
	C434.2,963.5,434,963.6,434,963.8z"/>
<path class="st0" d="M166.5,940.6c0-17.8,0.1-35.6-0.1-53.4c0-3.8,1.1-5.2,4.8-4.5c1.8,0.3,3.6,0.5,5.4,0.8c9.6,1.8,12,4.4,13,14
	c0.7,6.1,0.9,12.3,0.9,18.4c0,17.1,0,34.3,0,51.4c0,6.5-0.6,12.9-1.5,19.4c-1,7.2-5.6,10.8-12.3,11.8c-12.6,1.9-10.2,2.2-10.3-8.5
	C166.4,973.6,166.5,957.1,166.5,940.6z"/>
<path class="st0" d="M353.3,787.8c1.1,14.9,2.2,29.7,3.1,44.6c1.8,29.7,4.1,59.3,7,89c1.2,12.4,1.4,12.4-11,12.3
	c-4.3,0-10.2,1.8-12.4-0.8c-2.1-2.4-0.6-8.1-0.2-12.4c2-23.7,3.8-47.3,6.5-71c2-17.8,3.6-35.7,5.4-53.6c0.3-2.8,0.8-5.5,1.1-8.3
	C353,787.8,353.2,787.8,353.3,787.8z"/>
<path class="st0" d="M860.5,940.9c0-18,0.1-36-0.1-53.9c0-3.6,1.1-4.8,4.5-4.3c0.3,0.1,0.7,0,1,0c13.3,0.9,17.7,4.2,18.1,17.4
	c0.8,27.6,1.6,55.2-0.5,82.8c-1,13.7-6.7,15.2-20.4,16.4c-3.7,0.3-2.7-2.7-2.7-4.6C860.5,976.9,860.5,958.9,860.5,940.9z"/>
<path class="st0" d="M520.7,810.9c0-13.5,0.2-27-0.1-40.5c-0.1-4.4,1.8-5,5.3-4.6c12.5,1.5,16.7,5.4,17.7,18
	c1.5,18.6,1.5,37.2-0.2,55.8c-1.1,12.7-6.5,17.2-18.6,17.1c-3.3,0-4.3-1.1-4.2-4.3C520.8,838.6,520.7,824.8,520.7,810.9z"/>
<path class="st0" d="M717.4,440.2c3.9,0.3,7.3-1.8,10.9-2.8c4.7-1.3,6.6,0.4,5.9,5.2c-0.9,5.6-1.8,11.1-2.5,16.7
	c-0.4,3.5-2,5.5-5.6,5.8c-2.5,0.3-4.9,0.6-7.4,1.2c-3.4,0.8-5.1-0.4-6.2-3.9c-0.9-2.9,0-6.4-2.9-8.7
	C711.4,448.7,713.8,444.1,717.4,440.2z"/>
<path class="st0" d="M388.2,622.8c-2.3-0.1-4.1-1.4-5.8-2.7c-15.6-11.3-13.7-6.6-5.6-23.3c4.7-9.8,6.1-9.7,12.5-0.6
	c2.4,3.4,4.7,6.9,7.2,10.2c1.9,2.5,1.8,4.8,0.1,7.3c-1.5,2.2-2.9,4.4-4.3,6.6C391.3,621.8,389.9,622.6,388.2,622.8z"/>
<path class="st0" d="M415.9,570.7c-3.1-1-7.2-2.2-11.1-3.8c-1.4-0.6-2.5-2.1-1.7-4.1c1.8-4.8,3.5-9.6,5.2-14.5
	c0.9-2.7,2.5-4.3,5.5-3.8c5.9,1,11.7,2.1,17.6,3.3c2.9,0.6,3.9,2.8,2.2,5.3c-4,5.7-8.2,11.3-13,16.3
	C419.6,570.5,418.4,570.9,415.9,570.7z"/>
<path class="st3" d="M458.8,593.4c-0.8-1-2-2.3-0.5-3.1c0.8-0.4,1.4,1.3,1.4,2.5C459.4,593,459.1,593.2,458.8,593.4z"/>
<path class="st3" d="M456.4,585.2c0.4,0.5,0.8,0.9,1.1,1.4c0.2,0.6,0.3,1.4-0.6,1.4c-0.3,0-0.8-0.5-1-0.9
	C455.6,586.5,455.5,585.8,456.4,585.2z"/>
<path class="st0" d="M755.2,542.7c-4,3.5-6.5,8.3-9.9,12.3c-1.9,2.2-3.4,5-6.7,5.6c-0.4,0-0.9,0-1.3-0.1c-0.4-0.1-0.9-0.2-1.3-0.3
	c-1.4-0.5-2.8-0.9-4.2-1.5c-6.8-2.8-7.5-4.3-5.4-11.3c1-3.2,2.1-6.3,2.9-9.5c1-3.7,3.4-4.8,6.8-4.2c5.1,0.9,10.1,2.1,15.1,2.8
	C755.5,537,756.2,539.2,755.2,542.7z"/>
<path class="st0" d="M662.3,627.8c2.3-0.2,3.5,0.5,4.6,1.7c7.9,8.7,7.4,13.1-2.6,19c-12.1,7.1-9,7.6-17.6-3.3c-2-2.5-4-4.9-5.9-7.4
	c-2-2.7-1.2-5.1,1.8-5.9C649.2,630.3,656.1,629.1,662.3,627.8z"/>
<path class="st0" d="M731.5,577.8c5.7,1.9,11.5,4,17.3,5.8c3.4,1,4.8,3,4.8,6.5c-0.1,13.8,1.1,12.1-11,13.1c-0.7,0-1.3-0.1-2-0.1
	c-10.7,1-9.9,2.7-12.1-9.4c-0.7-3.6-1.4-7.1-1.9-10.7C726,579.2,727.4,577.2,731.5,577.8z"/>
<path class="st1" d="M726.8,535.8c0.7,5.5-4.1,7.1-5.2,10.6c-0.1,0.2-1.7,0.3-2.2-0.1c-1.1-0.8-1.2-2.4-0.3-3.1
	c4.8-3.8,2.6-6.5-0.8-9.8c-1.5-1.4-0.9-3.4,1.8-3.7C723.9,529.3,726.8,532.3,726.8,535.8z"/>
<path class="st1" d="M723.6,562.7c-3.1,0.4-3.2-1.8-3-4.1c0.1-1,0.3-3.3,1.4-2.2c1.7,1.7,5.5,0.9,5.6,4.4
	C727.6,562.5,726.9,562.9,723.6,562.7z"/>
<path class="st3" d="M733.9,606.1c0,0.1-0.1,0.4-0.1,0.4c-0.1,0-0.3-0.1-0.4-0.1c0-0.1,0.1-0.4,0.1-0.4
	C733.6,605.9,733.7,606,733.9,606.1z"/>
<path class="st1" d="M435.6,508.1c2.9-3.5,4.9-8.1,10.8-8c-1.4-2.1-3-1.2-4.3-1.5c-2.2-0.5-3.6-1.5-3.4-4.1c0.1-1.8,0.3-3.6,2.5-3.7
	c1.9-0.1,4.1-1.3,5.6,1.6c1.8,3.7,4.4,6.9,9.4,6.2c2.3,4,4.7,7.9,7,11.9c1.1,1.9,0.9,3.4-1.8,2.8C452.7,511.5,443.9,511,435.6,508.1
	z"/>
<path class="st1" d="M452.8,493.5c-3.1,0-1.9-2.3-2.1-3.9C452.2,490.5,452.7,491.9,452.8,493.5z"/>
<path class="st1" d="M447.7,484.3c-0.1,0.6,0,1.3-0.8,1.5c-0.1-1.1-0.1-2.1-0.2-3.2C447.1,483.2,447.4,483.7,447.7,484.3z"/>
<path class="st1" d="M453.7,494.7c-0.3-0.4-0.6-0.7-0.9-1.1C453.1,493.9,453.4,494.3,453.7,494.7z"/>
<path class="st0" d="M556.6,187.8c0.4,0.1,0.8,0.2,1.2,0.3c-0.1,0.2-0.2,0.3-0.3,0.5C557.2,188.3,556.9,188,556.6,187.8
	C556.6,187.7,556.6,187.8,556.6,187.8z"/>
<path class="st1" d="M737.4,560.5c0.4,0,0.9,0,1.3,0.1C738.2,561.5,737.8,561.2,737.4,560.5z"/>
<path class="st0" d="M390.7,458.9c-0.7-3.7,1.1-5.7,4.8-6.6c4.7-1.3,9.3-3.1,14.1-4.3c4.6-1.2,6.2,0.5,5.4,5.2
	c-0.9,5.5-1.9,11.1-2.9,16.6c-0.7,3.8-2.7,5.5-6.7,6c-12.1,1.4-12.2,2.7-13.9-10.9C391.2,463,390.7,461.1,390.7,458.9z"/>
<path class="st1" d="M442.6,480.7c-0.2,1-0.4,2-1.7,1.8c-0.3,0-0.8-0.7-0.7-0.9C440.6,480.4,441.7,480.8,442.6,480.7L442.6,480.7z"
	/>
<path class="st1" d="M442.6,480.7c0.1-0.1,0.2-0.3,0.2-0.4C442.8,480.4,442.7,480.6,442.6,480.7
	C442.6,480.7,442.6,480.7,442.6,480.7z"/>
<path class="st0" d="M1026.4,547.6c0.2,1.1-0.4,1.7-1.4,2.1C1025.4,548.9,1025,547.6,1026.4,547.6z"/>
</svg>
