<?xml version="1.0" encoding="utf-8"?>
<!-- Generator: Adobe Illustrator 26.0.2, SVG Export Plug-In . SVG Version: 6.00 Build 0)  -->
<svg version="1.1" id="Layer_1" xmlns="http://www.w3.org/2000/svg" xmlns:xlink="http://www.w3.org/1999/xlink" x="0px" y="0px"
	 viewBox="0 0 1400 1400" style="enable-background:new 0 0 1400 1400;" xml:space="preserve">
<style type="text/css">
	.st0{fill:none;}
	.st1{fill:#B0C3D5;}
	.st2{fill:#E5F2FE;}
	.st3{fill:url(#SVGID_1_);}
	.st4{fill:#3E9AFD;}
	.st5{fill:#71A6D1;}
	.st6{fill:#91C5EF;}
	.st7{fill:none;stroke:#4DBBFF;stroke-width:14;stroke-miterlimit:10;}
</style>
<pattern  y="1400" width="216.7" height="372.7" patternUnits="userSpaceOnUse" id="SVGID_0000017675993183113129246" viewBox="47 -455.7 216.7 372.7" style="overflow:visible;">
	<g>
		<rect x="47" y="-455.7" class="st0" width="216.7" height="372.7"/>
		<g>
			<rect x="47" y="-455.7" class="st0" width="216.7" height="372.7"/>
			<g>
				<rect x="47" y="-455.7" class="st0" width="216.7" height="372.7"/>
				<g>
					<path class="st1" d="M233.7-65.5c0.3,0.7,1.1,0.9,1.7,1.3c2.2,1.3,4.4,2.5,6.6,3.7c6.8,3.9,13.5,7.8,20.3,11.7
						c1.1,0.6,2,0.7,3.1,0c0.8-0.6,1.8-0.9,2.6-1.4c6.6-4,13.3-7.8,19.9-11.6c2-1.1,4.2-2,5.8-3.6c0-11.7,0-23.4,0-35.2
						c-0.1-0.7-0.8-0.7-1.2-1c-8.9-5.2-17.8-10.3-26.7-15.5c-1.5-0.8-2.8-0.6-4.2,0.1c-8.9,5.1-17.8,10.2-26.6,15.3
						c-0.5,0.3-1.1,0.3-1.2,1C233.7-88.9,233.7-77.2,233.7-65.5z M282.3-92.3c0,6.3,0,12.5,0,18.8c0,0.3,0,0.7-0.3,0.9
						c-2,1.2-4,2.5-6.1,3.6c-3.6,1.9-7,4.3-10.6,6.1c-1.2,0.6-2.1,0.8-3.4,0c-5-3-10-5.8-15.1-8.7c-0.5-0.3-1-0.7-1.5-1
						c-0.4-0.3-0.3-0.8-0.3-1.2c0-6.3,0-12.5,0-18.8c0-0.4-0.1-0.8,0.3-1.1c2-1.7,4.5-2.6,6.7-3.9c3.2-2,6.5-3.7,9.7-5.7
						c1.4-0.9,2.5-0.8,3.9,0.1c5,3,10,5.9,15,8.8c0.5,0.3,1.1,0.6,1.4,1.2C282.3-93,282.3-92.6,282.3-92.3z"/>
					<path class="st1" d="M233.7-131.9c0.1-0.7,0.7-0.8,1.2-1c7.2-4.2,14.4-8.3,21.7-12.4c1.2-0.7,1.2-1.6,1.2-2.6
						c0-5.3-0.1-10.6,0-15.8c0.1-6.3-0.3-12.6,0.1-19c0.1-1.9-0.1-3.8-0.2-5.6c-0.1-1.5,0-2.9,0.7-4.2c1.1-2.2,2.8-3.3,5.2-2.9
						c1.4,0.2,3,0,4.2,1.1c1.5,1.4,1.9,3.2,1.9,5.1c0,11.6,0,23.1,0,34.7c0,0.4,0,0.9,0,1.6c1.7-1,3.3-1.7,4.8-2.7
						c5.8-3.6,11.8-6.9,17.7-10.3c2.5-1.4,4.9-2.9,7.4-4.3c1.7-1,3.3-1.7,5.4-1.6c2.6,0.2,4.3,1.2,5.2,3.8c0.6,1.9,0.1,5.1-1.6,6.3
						c-2.9,2.1-6.1,3.7-9.2,5.5c-8,4.8-16.1,9.3-24.2,14c-8.7,5-17.4,10-26.1,15c-5,2.9-10,5.8-15,8.7c-0.7-0.3-0.5-0.9-0.5-1.4
						C233.6-123.9,233.7-127.9,233.7-131.9z"/>
					<path class="st1" d="M206.3-160.8c0.4-3.1,2.1-4.6,5.2-4.7c2.2-0.1,4.2,0,5.5,2.1c0.4,0.6,0.8,1.2,0.7,2c0,28.2,0,56.5,0,84.7
						c0,0.6-0.2,1.3,0.3,1.9c-0.5,0.5-0.8,0.1-1.2-0.1c-3-1.9-6.2-3.3-9-5.5c-0.4-0.3-1.1,0-1.4-0.7c0-8.6,0-17.1,0-25.7
						c0-0.6,0.2-1.2-0.3-1.8c0-1.1-1-1.5-1.7-1.9c-5.6-3.2-11.2-6.3-16.8-9.6c-6.4-3.7-12.7-7.6-19.3-11.1c-3.6-1.9-4.4-8.4,0-10.6
						c2.1-1,4.3-0.8,6,0.2c6.7,3.7,13.3,7.6,19.9,11.4c2.6,1.5,5.2,2.9,7.7,4.4c1.2,0.7,2.3,1.8,3.9,1.8c1.1-0.9,0.4-2.1,0.4-3.1
						C206.4-138.3,206.3-149.5,206.3-160.8z"/>
				</g>
				<g>
					<path class="st1" d="M17-65.5c0.3,0.7,1.1,0.9,1.7,1.3c2.2,1.3,4.4,2.5,6.6,3.7c6.8,3.9,13.5,7.8,20.3,11.7
						c1.1,0.6,2,0.7,3.1,0c0.8-0.6,1.8-0.9,2.6-1.4c6.6-4,13.3-7.8,19.9-11.6c2-1.1,4.2-2,5.8-3.6c0-11.7,0-23.4,0-35.2
						c-0.1-0.7-0.8-0.7-1.2-1c-8.9-5.2-17.8-10.3-26.7-15.5c-1.5-0.8-2.8-0.6-4.2,0.1c-8.9,5.1-17.8,10.2-26.6,15.3
						c-0.5,0.3-1.1,0.3-1.2,1C17-88.9,17-77.2,17-65.5z M65.6-92.3c0,6.3,0,12.5,0,18.8c0,0.3,0,0.7-0.3,0.9c-2,1.2-4,2.5-6.1,3.6
						c-3.6,1.9-7,4.3-10.6,6.1c-1.2,0.6-2.1,0.8-3.4,0c-5-3-10-5.8-15.1-8.7c-0.5-0.3-1-0.7-1.5-1c-0.4-0.3-0.3-0.8-0.3-1.2
						c0-6.3,0-12.5,0-18.8c0-0.4-0.1-0.8,0.3-1.1c2-1.7,4.5-2.6,6.7-3.9c3.2-2,6.5-3.7,9.7-5.7c1.4-0.9,2.5-0.8,3.9,0.1
						c5,3,10,5.9,15,8.8c0.5,0.3,1.1,0.6,1.4,1.2C65.6-93,65.6-92.6,65.6-92.3z"/>
					<path class="st1" d="M62.4-127.2c3.5-2,6.8-3.9,10.2-5.8c1.1-0.6,2.4-0.4,3.4,0.3c7,4,14,8,20.8,12.2c1.5,0.9,2.2,0.6,3.4-0.1
						c11.5-6.7,23.1-13.3,34.6-20.1c2.2-1.3,4.4-1.9,6.8-1.2c1.1,0.3,2.1,1,2.8,2c1.6,2.3,1.1,7.1-2,8.8c-10,5.6-19.8,11.3-29.7,17
						c-0.7,0.4-1.3,0.8-2.1,1.3c2,1.2,3.9,2.3,5.8,3.4c8.5,4.9,17,10,25.7,14.7c3.2,1.8,4,6.3,2.4,8.8s-5.5,3.4-8.4,1.7
						c-8.3-4.8-16.5-9.7-24.8-14.5c-10.3-5.9-20.7-11.8-31-17.7c-5.3-3-10.6-6.1-15.9-9.2C63.5-125.8,62.8-126.3,62.4-127.2z"/>
					<path class="st1" d="M17-131.9c0.1-0.7,0.7-0.8,1.2-1c7.2-4.2,14.4-8.3,21.7-12.4c1.2-0.7,1.2-1.6,1.2-2.6
						c0-5.3-0.1-10.6,0-15.8c0.1-6.3-0.3-12.6,0.1-19c0.1-1.9-0.1-3.8-0.2-5.6c-0.1-1.5,0-2.9,0.7-4.2c1.1-2.2,2.8-3.3,5.2-2.9
						c1.4,0.2,3,0,4.2,1.1c1.5,1.4,1.9,3.2,1.9,5.1c0,11.6,0,23.1,0,34.7c0,0.4,0,0.9,0,1.6c1.7-1,3.3-1.7,4.8-2.7
						c5.8-3.6,11.8-6.9,17.7-10.3c2.5-1.4,4.9-2.9,7.4-4.3c1.7-1,3.3-1.7,5.4-1.6c2.6,0.2,4.3,1.2,5.2,3.8c0.6,1.9,0.1,5.1-1.6,6.3
						c-2.9,2.1-6.1,3.7-9.2,5.5c-8,4.8-16.1,9.3-24.2,14c-8.7,5-17.4,10-26.1,15c-5,2.9-10,5.8-15,8.7c-0.7-0.3-0.5-0.9-0.5-1.4
						C17-123.9,17-127.9,17-131.9z"/>
					<path class="st1" d="M104-4.5c-0.4,3.7-4.9,5.7-8.6,3.8c-1.8-0.9-2.6-2.4-2.7-4.4c0-14.1,0-28.2,0-42.3c0-14.7,0-29.4,0-44.1
						c1.4-0.1,2.2,1.1,3.3,1.7c2.7,1.4,5.3,3,8,4.5c0,9,0,17.9,0,26.9c0,0.5-0.2,1.1,0.3,1.6c2.5,1.5,5,3.1,7.6,4.6
						c8.4,4.9,16.8,9.7,25.2,14.6c1.6,0.9,3.2,1.7,4.8,2.6c3.2,1.8,4.4,5.4,2.9,8.3c-1.6,3-5.3,4-8.6,2.3c-2.7-1.4-5.3-2.9-7.9-4.5
						c-7.6-4.4-15.2-8.9-22.8-13.3c-0.1-0.1-0.3-0.2-0.4-0.3c-1.8-0.7-1,0.8-1,1.3C103.9-29,104-16.8,104-4.5z"/>
				</g>
				<g>
					<path class="st1" d="M125.3-251.9c0.3,0.7,1.1,0.9,1.7,1.3c2.2,1.3,4.4,2.5,6.6,3.7c6.8,3.9,13.5,7.8,20.3,11.7
						c1.1,0.6,2,0.7,3.1,0c0.8-0.6,1.8-0.9,2.6-1.4c6.6-4,13.3-7.8,19.9-11.6c2-1.1,4.2-2,5.8-3.6c0-11.7,0-23.4,0-35.2
						c-0.1-0.7-0.8-0.7-1.2-1c-8.9-5.2-17.8-10.3-26.7-15.5c-1.5-0.8-2.8-0.6-4.2,0.1c-8.9,5.1-17.8,10.2-26.6,15.3
						c-0.5,0.3-1.1,0.3-1.2,1C125.3-275.3,125.3-263.6,125.3-251.9z M173.9-278.7c0,6.3,0,12.5,0,18.8c0,0.3,0,0.7-0.3,0.9
						c-2,1.2-4,2.5-6.1,3.6c-3.6,1.9-7,4.3-10.6,6.1c-1.2,0.6-2.1,0.8-3.4,0c-5-3-10-5.8-15.1-8.7c-0.5-0.3-1-0.7-1.5-1
						c-0.4-0.3-0.3-0.8-0.3-1.2c0-6.3,0-12.5,0-18.8c0-0.4-0.1-0.8,0.3-1.1c2-1.7,4.5-2.6,6.7-3.9c3.2-2,6.5-3.7,9.7-5.7
						c1.4-0.9,2.5-0.8,3.9,0.1c5,3,10,5.9,15,8.8c0.5,0.3,1.1,0.6,1.4,1.2C174-279.3,173.9-279,173.9-278.7z"/>
					<path class="st1" d="M170.7-313.5c3.5-2,6.8-3.9,10.2-5.8c1.1-0.6,2.4-0.4,3.4,0.3c7,4,14,8,20.8,12.2c1.5,0.9,2.2,0.6,3.4-0.1
						c11.5-6.7,23.1-13.3,34.6-20.1c2.2-1.3,4.4-1.9,6.8-1.2c1.1,0.3,2.1,1,2.8,2c1.6,2.3,1.1,7.1-2,8.8c-10,5.6-19.8,11.3-29.7,17
						c-0.7,0.4-1.3,0.8-2.1,1.3c2,1.2,3.9,2.3,5.8,3.4c8.5,4.9,17,10,25.7,14.7c3.2,1.8,4,6.3,2.4,8.8s-5.5,3.4-8.4,1.7
						c-8.3-4.8-16.5-9.7-24.8-14.5c-10.3-5.9-20.7-11.8-31-17.7c-5.3-3-10.6-6.1-15.9-9.2C171.9-312.2,171.2-312.6,170.7-313.5z"/>
					<path class="st1" d="M91.3-239.4c-0.3-0.8-0.7-1.2-1.2-1.4c-9.4-5-18.4-10.6-27.7-15.9c-0.9-0.5-1.7-1-2.6-1.5
						c-3.4-1.7-3.8-7.4-0.8-9.8c1.8-1.4,4.7-1.8,7.1-0.5c4.5,2.5,8.9,5.1,13.3,7.7c8.5,4.9,16.9,9.8,25.4,14.7
						c2.7,1.6,5.3,3.3,8.1,4.8c4.6,2.4,9,5.2,13.5,7.7c3.6,2,7.1,4.1,10.6,6.1c0.8,0.5,1.1,1.4,2.1,1.8c0.6,0.2,0.1,0.6-0.2,1
						c-1.4,1.2-3.1,1.8-4.6,2.9c-1.4,1-3.1,1.7-4.6,2.6c-1,0.6-1.8,0.5-2.8-0.1c-7.3-4.3-14.6-8.5-22-12.8c-0.8-0.5-1.5-0.4-2.3,0
						c-6,3.5-12.1,6.9-18.1,10.4c-6.1,3.5-12.2,7.1-18.3,10.6c-1.8,1-3.6,1.2-5.6,0.5c-2.6-1-3.4-3.1-3.5-5.6
						c-0.1-2.4,1-4.2,3.1-5.4C70.1-227.3,80-233,90-238.8C90.3-239.1,90.7-239.4,91.3-239.4z"/>
					<path class="st1" d="M125.3-318.2c0.1-0.7,0.7-0.8,1.2-1c7.2-4.2,14.4-8.3,21.7-12.4c1.2-0.7,1.2-1.6,1.2-2.6
						c0-5.3-0.1-10.6,0-15.8c0.1-6.3-0.3-12.6,0.1-19c0.1-1.9-0.1-3.8-0.2-5.6c-0.1-1.5,0-2.9,0.7-4.2c1.1-2.2,2.8-3.3,5.2-2.9
						c1.4,0.2,3,0,4.2,1.1c1.5,1.4,1.9,3.2,1.9,5.1c0,11.6,0,23.1,0,34.7c0,0.4,0,0.9,0,1.6c1.7-1,3.3-1.7,4.8-2.7
						c5.8-3.6,11.8-6.9,17.7-10.3c2.5-1.4,4.9-2.9,7.4-4.3c1.7-1,3.3-1.7,5.4-1.6c2.6,0.2,4.3,1.2,5.2,3.8c0.6,1.9,0.1,5.1-1.6,6.3
						c-2.9,2.1-6.1,3.7-9.2,5.5c-8,4.8-16.1,9.3-24.2,14c-8.7,5-17.4,10-26.1,15c-5,2.9-10,5.8-15,8.7c-0.7-0.3-0.5-0.9-0.5-1.4
						C125.3-310.3,125.3-314.3,125.3-318.2z"/>
					<path class="st1" d="M160.6-160.9c-0.5,3.6-5,5.4-8.5,3.3c-1.9-1.1-2.8-2.8-2.8-5.1c0-11.7,0-23.3,0-35c0-0.5,0.3-1.2-0.4-1.5
						c-0.5-0.2-0.9,0.3-1.3,0.5c-7.7,4.4-15.3,8.8-23,13.2c-2.5,1.5-5,3-7.6,4.3c-3,1.5-6.4,0.4-7.9-2.2c-1.7-2.9-0.5-6.7,2.4-8.4
						c9.6-5.5,19.1-11.1,28.6-16.6c7.7-4.4,15.4-8.8,23.1-13.3c6.7-3.9,13.4-7.8,20.2-11.7c0.5-0.3,1.1-0.5,1.7-0.7
						c0.5,0.5,0.3,1.2,0.3,1.7c0,3.7,0,7.4,0,11.2c-0.8,1.7-2.7,2-4.1,2.9c-6.7,4-13.5,7.9-20.2,11.8c-0.5,0.4-0.3,1-0.3,1.5
						C160.6-190.2,160.6-175.6,160.6-160.9z"/>
					<path class="st1" d="M212.3-190.9c-0.4,3.7-4.9,5.7-8.6,3.8c-1.8-0.9-2.6-2.4-2.7-4.4c0-14.1,0-28.2,0-42.3
						c0-14.7,0-29.4,0-44.1c1.4-0.1,2.2,1.1,3.3,1.7c2.7,1.4,5.3,3,8,4.5c0,9,0,17.9,0,26.9c0,0.5-0.2,1.1,0.3,1.6
						c2.5,1.5,5,3.1,7.6,4.6c8.4,4.9,16.8,9.7,25.2,14.6c1.6,0.9,3.2,1.7,4.8,2.6c3.2,1.8,4.4,5.4,2.9,8.3c-1.6,3-5.3,4-8.6,2.3
						c-2.7-1.4-5.3-2.9-7.9-4.5c-7.6-4.4-15.2-8.9-22.8-13.3c-0.1-0.1-0.3-0.2-0.4-0.3c-1.8-0.7-1,0.8-1,1.3
						C212.3-215.4,212.3-203.1,212.3-190.9z"/>
					<path class="st1" d="M98-347.2c0.4-3.1,2.1-4.6,5.2-4.7c2.2-0.1,4.2,0,5.5,2.1c0.4,0.6,0.8,1.2,0.7,2c0,28.2,0,56.5,0,84.7
						c0,0.6-0.2,1.3,0.3,1.9c-0.5,0.5-0.8,0.1-1.2-0.1c-3-1.9-6.2-3.3-9-5.5c-0.4-0.3-1.1,0-1.4-0.7c0-8.6,0-17.1,0-25.7
						c0-0.6,0.2-1.2-0.3-1.8c0-1.1-1-1.5-1.7-1.9c-5.6-3.2-11.2-6.3-16.8-9.6c-6.4-3.7-12.7-7.6-19.3-11.1c-3.6-1.9-4.4-8.4,0-10.6
						c2.1-1,4.3-0.8,6,0.2c6.7,3.7,13.3,7.6,19.9,11.4c2.6,1.5,5.2,2.9,7.7,4.4c1.2,0.7,2.3,1.8,3.9,1.8c1.1-0.9,0.4-2.1,0.4-3.1
						C98-324.6,98-335.9,98-347.2z"/>
				</g>
				<g>
					<path class="st1" d="M233.7-438.2c0.3,0.7,1.1,0.9,1.7,1.3c2.2,1.3,4.4,2.5,6.6,3.7c6.8,3.9,13.5,7.8,20.3,11.7
						c1.1,0.6,2,0.7,3.1,0c0.8-0.6,1.8-0.9,2.6-1.4c6.6-4,13.3-7.8,19.9-11.6c2-1.1,4.2-2,5.8-3.6c0-11.7,0-23.4,0-35.2
						c-0.1-0.7-0.8-0.7-1.2-1c-8.9-5.2-17.8-10.3-26.7-15.5c-1.5-0.8-2.8-0.6-4.2,0.1c-8.9,5.1-17.8,10.2-26.6,15.3
						c-0.5,0.3-1.1,0.3-1.2,1C233.7-461.6,233.7-449.9,233.7-438.2z M282.3-465c0,6.3,0,12.5,0,18.8c0,0.3,0,0.7-0.3,0.9
						c-2,1.2-4,2.5-6.1,3.6c-3.6,1.9-7,4.3-10.6,6.1c-1.2,0.6-2.1,0.8-3.4,0c-5-3-10-5.8-15.1-8.7c-0.5-0.3-1-0.7-1.5-1
						c-0.4-0.3-0.3-0.8-0.3-1.2c0-6.3,0-12.5,0-18.8c0-0.4-0.1-0.8,0.3-1.1c2-1.7,4.5-2.6,6.7-3.9c3.2-2,6.5-3.7,9.7-5.7
						c1.4-0.9,2.5-0.8,3.9,0.1c5,3,10,5.9,15,8.8c0.5,0.3,1.1,0.6,1.4,1.2C282.3-465.7,282.3-465.3,282.3-465z"/>
					<path class="st1" d="M199.6-425.7c-0.3-0.8-0.7-1.2-1.2-1.4c-9.4-5-18.4-10.6-27.7-15.9c-0.9-0.5-1.7-1-2.6-1.5
						c-3.4-1.7-3.8-7.4-0.8-9.8c1.8-1.4,4.7-1.8,7.1-0.5c4.5,2.5,8.9,5.1,13.3,7.7c8.5,4.9,16.9,9.8,25.4,14.7
						c2.7,1.6,5.3,3.3,8.1,4.8c4.6,2.4,9,5.2,13.5,7.7c3.6,2,7.1,4.1,10.6,6.1c0.8,0.5,1.1,1.4,2.1,1.8c0.6,0.2,0.1,0.6-0.2,1
						c-1.4,1.2-3.1,1.8-4.6,2.9c-1.4,1-3.1,1.7-4.6,2.6c-1,0.6-1.8,0.5-2.8-0.1c-7.3-4.3-14.6-8.5-22-12.8c-0.8-0.5-1.5-0.4-2.3,0
						c-6,3.5-12.1,6.9-18.1,10.4c-6.1,3.5-12.2,7.1-18.3,10.6c-1.8,1-3.6,1.2-5.6,0.5c-2.6-1-3.4-3.1-3.5-5.6
						c-0.1-2.4,1-4.2,3.1-5.4c9.9-5.7,19.8-11.4,29.8-17.2C198.6-425.4,199-425.7,199.6-425.7z"/>
					<path class="st1" d="M269-347.3c-0.5,3.6-5,5.4-8.5,3.3c-1.9-1.1-2.8-2.8-2.8-5.1c0-11.7,0-23.3,0-35c0-0.5,0.3-1.2-0.4-1.5
						c-0.5-0.2-0.9,0.3-1.3,0.5c-7.7,4.4-15.3,8.8-23,13.2c-2.5,1.5-5,3-7.6,4.3c-3,1.5-6.4,0.4-7.9-2.2c-1.7-2.9-0.5-6.7,2.4-8.4
						c9.6-5.5,19.1-11.1,28.6-16.6c7.7-4.4,15.4-8.8,23.1-13.3c6.7-3.9,13.4-7.8,20.2-11.7c0.5-0.3,1.1-0.5,1.7-0.7
						c0.5,0.5,0.3,1.2,0.3,1.7c0,3.7,0,7.4,0,11.2c-0.8,1.7-2.7,2-4.1,2.9c-6.7,4-13.5,7.9-20.2,11.8c-0.5,0.4-0.3,1-0.3,1.5
						C269-376.5,269-361.9,269-347.3z"/>
					<path class="st1" d="M206.3-533.5c0.4-3.1,2.1-4.6,5.2-4.7c2.2-0.1,4.2,0,5.5,2.1c0.4,0.6,0.8,1.2,0.7,2c0,28.2,0,56.5,0,84.7
						c0,0.6-0.2,1.3,0.3,1.9c-0.5,0.5-0.8,0.1-1.2-0.1c-3-1.9-6.2-3.3-9-5.5c-0.4-0.3-1.1,0-1.4-0.7c0-8.6,0-17.1,0-25.7
						c0-0.6,0.2-1.2-0.3-1.8c0-1.1-1-1.5-1.7-1.9c-5.6-3.2-11.2-6.3-16.8-9.6c-6.4-3.7-12.7-7.6-19.3-11.1c-3.6-1.9-4.4-8.4,0-10.6
						c2.1-1,4.3-0.8,6,0.2c6.7,3.7,13.3,7.6,19.9,11.4c2.6,1.5,5.2,2.9,7.7,4.4c1.2,0.7,2.3,1.8,3.9,1.8c1.1-0.9,0.4-2.1,0.4-3.1
						C206.4-511,206.3-522.3,206.3-533.5z"/>
				</g>
				<g>
					<path class="st1" d="M17-438.2c0.3,0.7,1.1,0.9,1.7,1.3c2.2,1.3,4.4,2.5,6.6,3.7c6.8,3.9,13.5,7.8,20.3,11.7
						c1.1,0.6,2,0.7,3.1,0c0.8-0.6,1.8-0.9,2.6-1.4c6.6-4,13.3-7.8,19.9-11.6c2-1.1,4.2-2,5.8-3.6c0-11.7,0-23.4,0-35.2
						c-0.1-0.7-0.8-0.7-1.2-1c-8.9-5.2-17.8-10.3-26.7-15.5c-1.5-0.8-2.8-0.6-4.2,0.1c-8.9,5.1-17.8,10.2-26.6,15.3
						c-0.5,0.3-1.1,0.3-1.2,1C17-461.6,17-449.9,17-438.2z M65.6-465c0,6.3,0,12.5,0,18.8c0,0.3,0,0.7-0.3,0.9c-2,1.2-4,2.5-6.1,3.6
						c-3.6,1.9-7,4.3-10.6,6.1c-1.2,0.6-2.1,0.8-3.4,0c-5-3-10-5.8-15.1-8.7c-0.5-0.3-1-0.7-1.5-1c-0.4-0.3-0.3-0.8-0.3-1.2
						c0-6.3,0-12.5,0-18.8c0-0.4-0.1-0.8,0.3-1.1c2-1.7,4.5-2.6,6.7-3.9c3.2-2,6.5-3.7,9.7-5.7c1.4-0.9,2.5-0.8,3.9,0.1
						c5,3,10,5.9,15,8.8c0.5,0.3,1.1,0.6,1.4,1.2C65.6-465.7,65.6-465.3,65.6-465z"/>
					<path class="st1" d="M52.3-347.3c-0.5,3.6-5,5.4-8.5,3.3c-1.9-1.1-2.8-2.8-2.8-5.1c0-11.7,0-23.3,0-35c0-0.5,0.3-1.2-0.4-1.5
						c-0.5-0.2-0.9,0.3-1.3,0.5c-7.7,4.4-15.3,8.8-23,13.2c-2.5,1.5-5,3-7.6,4.3c-3,1.5-6.4,0.4-7.9-2.2c-1.7-2.9-0.5-6.7,2.4-8.4
						c9.6-5.5,19.1-11.1,28.6-16.6c7.7-4.4,15.4-8.8,23.1-13.3c6.7-3.9,13.4-7.8,20.2-11.7c0.5-0.3,1.1-0.5,1.7-0.7
						c0.5,0.5,0.3,1.2,0.3,1.7c0,3.7,0,7.4,0,11.2c-0.8,1.7-2.7,2-4.1,2.9c-6.7,4-13.5,7.9-20.2,11.8c-0.5,0.4-0.3,1-0.3,1.5
						C52.3-376.5,52.3-361.9,52.3-347.3z"/>
					<path class="st1" d="M104-377.3c-0.4,3.7-4.9,5.7-8.6,3.8c-1.8-0.9-2.6-2.4-2.7-4.4c0-14.1,0-28.2,0-42.3c0-14.7,0-29.4,0-44.1
						c1.4-0.1,2.2,1.1,3.3,1.7c2.7,1.4,5.3,3,8,4.5c0,9,0,17.9,0,26.9c0,0.5-0.2,1.1,0.3,1.6c2.5,1.5,5,3.1,7.6,4.6
						c8.4,4.9,16.8,9.7,25.2,14.6c1.6,0.9,3.2,1.7,4.8,2.6c3.2,1.8,4.4,5.4,2.9,8.3c-1.6,3-5.3,4-8.6,2.3c-2.7-1.4-5.3-2.9-7.9-4.5
						c-7.6-4.4-15.2-8.9-22.8-13.3c-0.1-0.1-0.3-0.2-0.4-0.3c-1.8-0.7-1,0.8-1,1.3C103.9-401.7,104-389.5,104-377.3z"/>
				</g>
			</g>
		</g>
	</g>
</pattern>
<rect class="st2" width="1400" height="1400"/>
<pattern  id="SVGID_1_" xlink:href="#SVGID_0000017675993183113129246" patternTransform="matrix(1 0 0 1 -758.3893 16079.5107)">
</pattern>
<rect class="st3" width="1400" height="1400"/>
<path class="st4" d="M897.5,800.8L897.5,800.8L897.5,800.8z"/>
<path class="st5" d="M494.1,463.5c0,0.2-0.1,0.3-0.1,0.5c-0.1-0.1-0.2-0.1-0.3-0.2c-0.1-0.2-0.4-0.4-0.2-0.6
	C493.6,463,494,463.2,494.1,463.5z"/>
<path class="st6" d="M857.5,517.5c-0.1,0-0.2-0.1-0.2-0.3c0.1-0.1,0.1-0.1,0.2,0C857.5,517.3,857.5,517.4,857.5,517.5z"/>
<path class="st6" d="M857.2,517.1c-0.1,0-0.2-0.1-0.3-0.3C857,516.9,857.2,517,857.2,517.1z"/>
<path class="st7" d="M663,733.6"/>
<rect x="384" y="724.5" class="st0" width="634.4" height="42.6"/>
<rect x="384" y="782.8" class="st0" width="631.9" height="42.6"/>
<rect x="384" y="891" class="st0" width="631.9" height="128.3"/>
</svg>
