<?xml version="1.0" encoding="utf-8"?>
<!-- Generator: Adobe Illustrator 26.0.2, SVG Export Plug-In . SVG Version: 6.00 Build 0)  -->
<svg version="1.1" id="Layer_1" xmlns="http://www.w3.org/2000/svg" xmlns:xlink="http://www.w3.org/1999/xlink" x="0px" y="0px"
	 viewBox="0 0 801.4 468.7" style="enable-background:new 0 0 801.4 468.7;" xml:space="preserve">
<style type="text/css">
	.st0{fill:none;stroke:#FFFFFF;stroke-width:32;stroke-miterlimit:10;}
	.st1{fill:#71A6D1;}
	.st2{fill:none;stroke:#4DBBFF;stroke-width:30;stroke-miterlimit:10;}
	.st3{fill:#91C5EF;}
	.st4{fill:#4DBBFF;stroke:#FFFFFF;stroke-miterlimit:10;}
	.st5{fill:#1369B7;stroke:#FFFFFF;stroke-miterlimit:10;}
	.st6{fill:#183B62;stroke:#FFFFFF;stroke-miterlimit:10;}
</style>
<path class="st0" d="M255.4,410.4c54.7-19.1,101.4-44,106.1-46.3c35.2-16.6,71.3-31.2,109.8-41c53.8-13.7,107.6-14.6,161.4-0.4
	c1.4,0.4,3.1,0.8,4.5,1.3C619.5,206.4,518.3,116.5,396,116.5c-134.6,0-243.8,109.2-243.8,243.8c0,26.8,4.5,52.9,12.4,77.2
	C192.1,430.6,224.9,421.2,255.4,410.4z"/>
<path class="st1" d="M195,263.6c0,0.2-0.1,0.3-0.1,0.5c-0.1-0.1-0.2-0.1-0.3-0.2c-0.1-0.2-0.4-0.4-0.2-0.6
	C194.5,263.1,194.9,263.3,195,263.6z"/>
<path class="st2" d="M255.4,410.4c54.7-19.1,101.4-44,106.1-46.3c35.2-16.6,71.3-31.2,109.8-41c53.8-13.7,107.6-14.6,161.4-0.4
	c1.4,0.4,3.1,0.8,4.5,1.3C619.5,206.4,518.3,116.5,396,116.5c-134.6,0-243.8,109.2-243.8,243.8c0,26.8,4.5,52.9,12.4,77.2
	C192.1,430.6,224.9,421.2,255.4,410.4z"/>
<path class="st3" d="M558.4,317.6c-0.1,0-0.2-0.1-0.2-0.3c0.1-0.1,0.1-0.1,0.2,0C558.4,317.4,558.4,317.5,558.4,317.6z"/>
<path class="st3" d="M558.1,317.2c-0.1,0-0.2-0.1-0.3-0.3C557.9,317,558.1,317.1,558.1,317.2z"/>
<path class="st4" d="M457.6,414.2c0,0,77.7-20.5,116.9-8.8c41.6,7.2,67.5,48.1,104.1,61.6c4.9,1.7,10.4,1.5,15.3-0.5
	c79.9-33.5-49.7-109.7-91.2-120.4c-177.1-42.9-321.9,150.9-539.3,83C159.3,505.5,454.7,414.9,457.6,414.2z"/>
<path class="st5" d="M13.4,412.8c32.4-2.2,47.4-2.4,93.3-7.5c3.8-0.4,6.9-0.8,8.8-1.1c19.3-2.7,89-18.6,149.5-39.7
	c54.7-19.1,101.4-44,106.1-46.3c35.2-16.6,71.3-31.2,109.8-41c53.8-13.7,107.6-14.6,161.4-0.4c39.5,10.4,76,26.8,111,46.3
	c10.2,5.5,20.8,10.4,29.5,17.7c30.1,25.3,21,68.2-14.6,84.1c-22,9.8-42.1,7.3-61.1-5.5c-19.3-13.3-39.7-25-60.9-36.1
	c-64.2-32.8-130.8-33.6-198.6-11.6c-11.6,3.7-23.2,7.5-34.6,11.8c-13.9,5.1-27.5,11-41.8,15.1c-11.6,3.3-22.4,8.6-33.8,12.2
	c-18.8,6.2-37.7,11.8-56.9,16.7c-70.2,18.1-141.3,22.4-213.3,8.9c-22.8-4.2-45-10.6-66.2-19.7C4.5,413.9,8.8,413.3,13.4,412.8z"/>
<path class="st6" d="M490.8,118.9c3.5-0.6,6.7-1.4,10.4-1.6c3.1-0.2,6.2-0.6,9.1-0.6c1.6,0,3.1-0.6,3.8-1.8c1.6-2.4,4-3.5,6.7-4.2
	c2-0.6,3.8-1.3,5.9-1.8c0.2,0,0.4,0,0.4-0.2c1.8-0.4,2.7,0.2,3.1,2c0.2,1.4,0.4,2.7,0.8,4c0.2,0.8,0.6,1.1,1.3,1.1
	c0.2,0,0.4,0,0.4,0c4.5-0.4,8.8-0.8,13.3-1.3c2-0.2,4-0.8,6.2-1.6c3.1-1.4,6.5-2,10-1.8c4.7,0.2,9.3,0.6,13.9,1.3
	c1.1,0.2,1.8,0.4,2.7,0.6c2,0.6,3.3,2,3.7,4c0.8,4.2-1.4,8.6-5.3,10.6c-0.8,0.4-1.6,0.6-2.2,1.1c-5.3,2-10,5.3-14,9.3
	c-0.6,0.6-1.1,1.1-1.6,1.6c-2.7,2.2-5.7,2.9-8.9,1.4c-1.3-0.4-2.2-1.3-3.5-1.6c-1.3-0.4-2.2,0.2-3.5,0.2c-1.8,0-3.5-0.6-5.1-1.6
	c-0.4-0.2-0.8-0.6-1.3-0.8c-0.6-0.4-1.1-0.4-1.6-0.2c-1.3,0.4-2.7,0.6-3.7,1.4c-0.6,0-1.3,0.2-1.6,0.4c-3.1,1.3-3.3,2-1.6,4.7
	c1.1,1.4,2,2.9,2.9,4c1.1,1.4,1.1,1.8-0.2,3.1c-1.8,1.6-3.7,3.3-5.5,4.9c-2.4,2.2-4.9,4.7-7.1,7.1c-0.6,0.4-1.1,0.8-1.6,1.3
	c-1.4,1.3-3.1,2.2-4.7,3.1c-7.1,3.3-14.2,6.7-21.6,9.5c-10.6,3.8-21.4,8-31.9,11.8c-9.8,3.5-19.5,7.1-29.3,10.6
	c-5.5,2-10.8,4.7-15.3,8.4c-1.6,1.3-3.3,2.2-5.1,2.9c-5.3,1.8-10.8,3.8-16.1,5.7c-4.9,1.6-10,3.5-14.9,5.1c-1.4,0.4-2.4,1.3-2.7,2.9
	c-0.2,0.8-0.4,1.4-0.4,2.2c-0.4,1.8-0.8,3.5-1.8,5.1c-2,3.3-3.8,6.5-5.9,9.8c-3.3,5.3-6.9,10.4-10.4,15.3c-1.1,1.4-1.8,3.1-2,4.9
	c-0.2,1.6,0.4,3.3,0.8,4.7c1.4,3.8,3.1,7.7,4.7,11.6c0.4,1.1,0.8,2,1.3,3.1c0.4,1.3,0.2,2.2-0.6,3.1c-0.4,0.4-0.8,0.8-1.3,1.3
	c-2,1.8-4.2,3.7-6.4,5.5c-6.2,5.1-12,10.2-18.1,15.3c-5.3,4.5-10.6,8.8-16.6,12.4c-2,1.3-3.8,2.4-5.7,3.8c-5.9,4.5-12,8.8-18.6,12.6
	c-2.4,1.4-4.9,2.9-7.3,4.2c-3.8,2-7.5,1.6-11-1.1c-2.9-2.2-5.3-5.1-7.5-8.2c-1.1-1.4-1.4-2.9-1.4-4.5c0-0.6,0-1.4-0.2-2
	c-0.2-3.5,0-6.9,0.4-10.4c0.4-2.9,0.8-5.7,1.4-8.6c1.1-6.2,2.7-12.2,5.1-18.1c3.8-9.8,7.5-19.5,10.8-29.5c0.4-1.4,1.1-2.7,1.3-4
	c0.6-3.3,0.2-6.5-1.8-9.1c-1.4-1.8-3.1-3.7-4.5-5.7c-0.4-0.6-0.8-0.6-1.4-0.2c-2.7,1.6-5.3,3.5-8,5.1c-0.6,0.4-1.3,0.8-2,1.3
	c-0.4,0.2-0.8,0.2-1.1-0.4c-0.2-0.2-0.2-0.4-0.4-0.6c-2.2-5.9-5.1-11.6-7.7-17.5c-0.4-0.8-0.4-1.8-1.3-2.2c-1.1-0.4-1.6,0.8-2.4,1.3
	c-0.2,0-0.2,0.2-0.4,0.2c-2.4,1.4-3.7,1.4-5.7-0.4c-1.6-1.3-3.1-2.7-4.7-3.8c-0.6-0.4-1.3-1.1-1.6-1.4c-0.8-0.6-1.3-1.4-1.3-2.4
	c0-1.4-0.2-3.1,0.2-4.5c0.4-2-0.2-3.3-1.6-4.5c-1.4-1.4-3.1-2.7-4.7-4c-1.4-1.3-2.9-2.7-4.5-3.7c-0.2-0.4-0.4-0.8-0.8-1.1
	c-3.5-3.1-6.9-6.2-10.4-9.1c-2-1.8-4-3.7-5.5-6.4c-0.6-1.1-1.4-2-2-3.1c-0.2-0.6-0.4-1.1-0.8-1.6c-3.1-5.3-5.3-10.8-6.9-16.6
	c-2.4-8.6-4.5-17.1-6.7-25.7c-0.6-2-0.8-4.2-1.3-6.5c-0.6-2.9-1.4-5.7-3.3-8c-0.8-1.3-1.1-2.2-0.6-3.7c0.2-0.6,0.4-1.3,0.6-2
	c1.1-2.2,1.1-4.7,0.6-6.9c-0.6-3.7-1.3-7.3-1.6-11c-0.2-1.8-0.2-3.5,0.2-5.3c0.6-2.4,1.3-4.7,2.2-6.9c2-4.9,5.5-8.2,9.8-11
	c1.8-1.3,4-1.8,6.4-1.8c1.8,0,3.7-0.6,5.3-1.4c3.8-1.8,8-3.5,12.2-4c1.8-0.2,3.7-0.4,5.5-0.4c1.8-0.2,3.7-0.2,5.5-0.6
	c0.8-0.2,0.8-0.8,0.2-1.3c-1.1-1.1-2.2-2-3.5-3.1c-2.4-2.2-4.7-4.7-6.5-7.3c-3.1-4.7-4.9-9.5-5.3-15.3c-0.6-7.1,0.6-13.9,3.1-20.4
	c2.7-6.7,6.9-11.6,13.5-14.4c3.8-1.8,8-3.5,12.2-4.2c3.3-0.4,6.4-0.6,9.5,0.6C267,3,271.2,4.9,275,6.9c1.8,1.1,3.7,1.8,5.3,3.1
	c5.1,3.8,8.4,8.8,10.8,14.4c0.8,2,1.1,4.2,1.3,6.5s0.2,4.5,0.2,6.9c0,1.6,0.4,3.1,1.3,4.2c0.6,1.1,1.4,2,2,3.3
	c0.2,0.4,0.6,0.8,0.8,1.3c1.3,2,1.1,3.3-0.6,4.7c-1.6,1.4-2,3.1-2,4.9c0,2-0.2,4-0.4,6.2c0,1.1,0.2,1.4,1.4,1.3
	c2.9-0.2,5.7,0,8.6-1.3c2-0.8,4.2-0.8,6.5,0c2.9,1.1,5.7,1.8,8.6,2.4c0.6,0.2,1.3,0.4,1.8,0.8c3.5,2,7.1,3.1,11.2,3.1
	c1.6,0,3.3,0.2,4.9,0.6c4.5,0.8,8.8,1.8,13.3,2.9c3.1,0.6,5.7,0.4,8.4-1.3c0.8-0.4,1.6-0.8,2.4-1.4c1.8-1.1,3.8-1.8,5.9-2.2
	c4-1.1,8-0.6,11.6,1.1c4.5,2,8.8,4.5,12.4,7.7c3.1,2.9,5.3,6.2,6.9,10c1.1,2.2,0.8,4.2-0.4,6.4c-1.8,3.3-4.2,5.9-7.7,7.5
	c-2,1.1-4.2,1.8-6.4,3.5c-1.8,0.2-3.3,1.4-4.9,2c-2.4,1.1-4.7,1.6-7.3,1.6c-2,0-3.8,0-5.9-0.2s-4.2,0-6.4,0.2
	c-4.5,0.6-8.9,1.3-13.7,1.8c-4.2,0.6-8.6,1.4-12.8,2c-1.6,0.2-3.1,0.8-4.2,2.2c-2.4,2.9-5.5,4.9-9.1,6.4c-1.4,0.6-2.7,1.3-3.8,1.8
	c-1.4,0.6-1.8,1.4-1.3,2.9c0.6,1.6,0.2,3.1-0.8,4.2c-0.4,0.4-0.6,1.1-1.1,1.4c-0.4,0.6-0.4,1.1-0.2,1.6c0.6,1.4,0.4,2.9-0.4,4
	c0,0.2,0,0.4,0,0.6c0.8,0.2,1.6,0.4,2.7,0.6c1.1,0.2,2,0.4,2.9,0.8c2,0.6,3.5,1.6,4,3.7c0.2,1.1,0.8,1.8,2,2c0.6,0.4,1.3,0.4,2,0.4
	c1.3,0,2.4,0.2,3.5,0.4c4.5,0.8,8.6,2.4,12.4,4.5c1.8,1.1,3.8,2.2,5.7,3.3c3.7,2,7.5,2.9,11.8,1.6c4-1.3,8.2-1.3,12.4-1.1
	c1.3,0,2.4,0,3.8-0.2c8.4-1.4,16.7-2.9,24.8-5.1c2.7-0.8,5.5-1.4,8.4-1.4c2,0,4-0.4,6.2-0.8c1.4-0.4,3.1-0.8,4.2-1.6
	c1.1-0.6,2.2-1.1,3.3-1.4c2-0.6,4-1.1,6.4-1.1c5.9-0.2,11.2-2.2,16.7-4.2c0.4-0.2,0.8-0.4,1.3-0.8c1.3-0.2,2.2-1.1,3.1-1.6
	c1.3-0.8,2.4-1.6,3.7-2.4c1.4-0.8,3.1-1.4,4.9-1.4c1.1,0,2-0.2,2.9-1.1c1.4-1.1,2.9-1.6,4.7-2c1.4-0.4,3.1-0.6,4.5-1.1
	C475.5,123.2,483,121,490.8,118.9z"/>
</svg>
