<?xml version="1.0" encoding="utf-8"?>
<!-- Generator: Adobe Illustrator 26.0.2, SVG Export Plug-In . SVG Version: 6.00 Build 0)  -->
<svg version="1.1" id="Layer_1" xmlns="http://www.w3.org/2000/svg" xmlns:xlink="http://www.w3.org/1999/xlink" x="0px" y="0px"
	 viewBox="0 0 802.1 475.9" style="enable-background:new 0 0 802.1 475.9;" xml:space="preserve">
<style type="text/css">
	.st0{fill:#91C5EF;}
	.st1{fill:#296AAE;stroke:#FFFFFF;stroke-miterlimit:10;}
	.st2{fill:#183B62;stroke:#FFFFFF;stroke-miterlimit:10;}
	.st3{fill:#3E9AFD;stroke:#FFFFFF;stroke-miterlimit:10;}
	.st4{fill:#EF7E04;stroke:#FFFFFF;stroke-miterlimit:10;}
	.st5{fill:#EE7D03;stroke:#FFFFFF;stroke-miterlimit:10;}
	.st6{fill:#71A6D1;}
	.st7{fill:#3E9AFD;}
</style>
<path class="st0" d="M559.3,318.1c-0.1,0-0.2-0.1-0.2-0.3c0.1-0.1,0.1-0.1,0.2,0C559.3,317.9,559.3,318,559.3,318.1z"/>
<path class="st0" d="M559,317.7c-0.1,0-0.2-0.1-0.3-0.3C558.8,317.5,559,317.6,559,317.7z"/>
<path class="st1" d="M91.6,364.2c-0.4-0.6-1-1-1.6-1.4c-9.8-7.2-19.3-14.8-28.3-23.1c-10-9-19.7-18.5-28.9-28.1
	c-6.6-7-13-14.2-19.3-21.5c-0.6-0.6-1-1.4-1.6-2c0-0.4,0.2-0.6,0.2-1c10.8,5.8,21.9,11.4,33.1,16.6c15.6,7.2,31.7,13.8,47.9,19.5
	c10.4,3.6,20.9,7,31.5,10c6,1.6,12,3.2,17.9,4.8c0.8,0.2,1.6,0.4,2.4,0.4c0.2,0,0.4,0.2,0.8,0.2c7,1.6,14.2,3.2,21.3,4.4
	c1.2,0.2,2.4,0.6,3.6,0.6c0.4,0.2,0.8,0.4,1.2,0.4c6.4,1,12.6,2.2,19.1,3c4.6,0.6,9.2,1.2,13.8,1.8c7,0.8,14,1.4,21.1,1.8
	c4.8,0.4,9.4,0.6,14.2,0.8c6.6,0.2,13.4,0.4,20.1,0.4c1.2,0,2.6-0.2,3.8-0.2c3,0.2,6,0.2,9,0c11.4-0.2,22.9-0.8,34.3-1.4
	c11.8-0.8,23.5-2,35.1-3.4c6.8-0.8,13.6-1.8,20.3-2.8c14.2-1.8,28.3-4.4,42.5-6.8c10.6-1.8,21.3-4,31.9-6c9.4-1.8,18.9-3.8,28.3-5.6
	c9.8-2,19.9-3.8,29.7-5.8c6.4-1.2,12.8-2.6,19.3-3.8c11.2-2,22.5-3.8,33.7-5.2c6.4-0.8,12.8-1.6,19.1-2.2c5.4-0.6,11-0.8,16.4-1.2
	c11.2-0.6,22.5-0.8,33.5,0c1,0,2.2,0.2,3.2,0c2,0.2,4.2,0.4,6.2,0.6c3.8,0.4,7.6,0.8,11.4,1.4c3.2,0.4,6.2,1,9.2,1.4
	c2.8,0.6,5.6,1.4,8.4,2c15.8,3.6,30.9,9.4,45.3,17.1c12.6,6.8,24.1,15,34.9,24.3c9.4,8.2,18.1,17.3,26.1,26.7c3.4,4,6.8,8,10,12.2
	c3,4.2,6.2,8.2,9,12.6c5.4,8,10.6,16,15.6,24.5c1.6,2.6,3,5.2,4.4,7.8c0.2,0.4,0.4,0.8,0.6,1.2c0.2,0.6,0.6,1,0,1.6
	c-0.8,0.8-1.4,1-2.2,0.4c-1.2-0.6-2.4-1.4-3.4-2c-7.4-4.4-14.8-8.6-22.3-13c-9.4-5.4-18.7-11-28.1-16.4
	c-12.6-7.2-26.1-13.4-39.7-18.5c-1.8-0.6-3.6-1.4-5.4-2c-0.6-0.2-1.2-0.4-2-0.6c-0.2-0.2-0.4,0-0.4,0l0,0c0-0.4-0.2-0.4-0.6-0.6
	c-0.2-0.4-0.6-0.4-1.2-0.4c-0.8,0-1.4-0.2-2.2-0.4c-5.2-1.8-10.6-3.2-16-4.6c-2.4-0.6-4.6-1.2-7-1.6c-3.8-0.8-7.8-1.6-11.8-2.2
	c-2.6-0.4-5.4-0.8-8.2-1.2c-1.8-0.4-3.4-0.4-5.2-0.6c-3.2-0.4-6.4-1.2-9.6-1.2c-3-0.2-6.2-0.6-9.2-0.6s-6-0.6-9-0.6
	c-5.8,0.2-11.4,0-17.3,0c-4.4,0-9-0.2-13.4,0.4c-3.6,0.4-7.4,0.2-11.2,0.6c-3,0.2-6,0.8-9,0.6c-0.2,0-0.4,0-0.4,0
	c-2.6,0.6-5.2,0.4-8,0.8c-2,0.4-4,0.4-6,0.6c-4,0.4-8,1.2-12,1.8c-1.4,0.2-2.8,0.4-4.2,0.6c-3,0.4-6,0.8-9.2,1.4
	c-3.4,0.6-6.8,1.2-10,1.6c-2.4,0.4-4.8,0.8-7.4,1.2c-2.8,0.6-5.6,1.2-8.6,1.6c-5.6,1.2-11.2,2.2-16.8,3.4c-5,1.2-10,2-15,3.2
	c-7,1.6-14,3.2-21.3,4.6c-6.2,1.2-12.2,2.8-18.5,4.2c-2.6,0.6-5.2,1.2-7.8,1.8c-4.6,1-9,2-13.6,2.8c-3,0.6-6.2,1.4-9.2,2
	c-2.2,0.4-4.6,0.8-6.8,1.2s-4.6,1-6.8,1.4c-3.2,0.6-6.4,1.2-9.6,1.8c-5,1-10,1.8-15.2,2.8c-3.2,0.6-6.2,1-9.4,1.4
	c-1.4,0.2-2.8,0.6-4.2,0.6c-1.2,0.2-2.4,0.2-3.6,0.4c-3.8,0.8-7.6,0.8-11.4,1.4c-1.8,0.2-3.4,0.4-5.2,0.6c-3,0.4-5.8,1-8.8,1
	c-0.4,0-0.6,0-1,0.2c-2.6,0.2-5.2,0.6-8,0.8c-2.2,0.2-4.4,0.2-6.4,0.4c-3.2,0.2-6.4,0.6-9.6,0.6s-6.4,0-9.8,0c-0.6,0-1.4,0-2,0
	c-3.6,0.6-7.2,0.2-10.8,0.4c-1.8-0.6-3.8-0.4-5.8-0.4c-2.6,0-5.2,0-7.8,0c-0.6,0-1.2,0-1.8,0c-3.2-0.8-6.6,0-10-0.8
	c-2.6,0.2-5-0.4-7.4-0.6c-3.4-0.2-6.8-0.8-10.4-1.4c-2.8-0.4-5.6-0.6-8.4-1.2c-2.6-0.4-5.4-1-8-1.4c-4.8-1-9.6-2.2-14.4-3.2
	c-3.4-0.8-7-1.8-10.4-2.8c-5.8-1.6-11.6-3.4-17.3-5.6c-1.2-0.4-2.6-0.8-3.8-1.2c-2-0.8-4.2-1.6-6.2-2.4c-5.6-2.2-11-4.6-16.4-7.2
	s-10.6-5.2-15.8-8c-2.4-1.4-4.8-2.4-7-3.8c-6.6-4-13.4-8-19.9-12.6c-2.6-1.8-5.4-3.4-7.6-5.6C92.2,364.2,91.8,364.2,91.6,364.2z"/>
<path class="st2" d="M490,117.9c3.4-0.6,6.6-1.4,10.2-1.6c3-0.2,6-0.6,9-0.6c1.6,0,3-0.6,3.8-1.8c1.6-2.4,4-3.4,6.6-4.2
	c2-0.6,3.8-1.2,5.8-1.8c0.2,0,0.4,0,0.4-0.2c1.8-0.4,2.6,0.2,3,2c0.2,1.4,0.4,2.6,0.8,4c0.2,0.8,0.6,1,1.2,1c0.2,0,0.4,0,0.4,0
	c4.4-0.4,8.6-0.8,13-1.2c2-0.2,4-0.8,6-1.6c3-1.4,6.4-2,9.8-1.8c4.6,0.2,9.2,0.6,13.6,1.2c1,0.2,1.8,0.4,2.6,0.6c2,0.6,3.2,2,3.6,4
	c0.8,4.2-1.4,8.4-5.2,10.4c-0.8,0.4-1.6,0.6-2.2,1c-5.2,2-9.8,5.2-13.8,9.2c-0.6,0.6-1,1-1.6,1.6c-2.6,2.2-5.6,2.8-8.8,1.4
	c-1.2-0.4-2.2-1.2-3.4-1.6s-2.2,0.2-3.4,0.2c-1.8,0-3.4-0.6-5-1.6c-0.4-0.2-0.8-0.6-1.2-0.8c-0.6-0.4-1-0.4-1.6-0.2
	c-1.2,0.4-2.6,0.6-3.6,1.4c-0.6,0-1.2,0.2-1.6,0.4c-3,1.2-3.2,2-1.6,4.6c1,1.4,2,2.8,2.8,4c1,1.4,1,1.8-0.2,3
	c-1.8,1.6-3.6,3.2-5.4,4.8c-2.4,2.2-4.8,4.6-7,7c-0.6,0.4-1,0.8-1.6,1.2c-1.4,1.2-3,2.2-4.6,3c-7,3.2-14,6.6-21.3,9.4
	c-10.4,3.8-21.1,7.8-31.5,11.6c-9.6,3.4-19.3,7-28.9,10.4c-5.4,2-10.6,4.6-15,8.2c-1.6,1.2-3.2,2.2-5,2.8
	c-5.2,1.8-10.6,3.8-15.8,5.6c-4.8,1.6-9.8,3.4-14.6,5c-1.4,0.4-2.4,1.2-2.6,2.8c-0.2,0.8-0.4,1.4-0.4,2.2c-0.4,1.8-0.8,3.4-1.8,5
	c-2,3.2-3.8,6.4-5.8,9.6c-3.2,5.2-6.8,10.2-10.2,15c-1,1.4-1.8,3-2,4.8c-0.2,1.6,0.4,3.2,0.8,4.6c1.4,3.8,3,7.6,4.6,11.4
	c0.4,1,0.8,2,1.2,3c0.4,1.2,0.2,2.2-0.6,3c-0.4,0.4-0.8,0.8-1.2,1.2c-2,1.8-4.2,3.6-6.2,5.4c-6,5-11.8,10-17.9,15
	c-5.2,4.4-10.4,8.6-16.2,12.2c-2,1.2-3.8,2.4-5.6,3.8c-5.8,4.4-11.8,8.6-18.3,12.4c-2.4,1.4-4.8,2.8-7.2,4.2c-3.8,2-7.4,1.6-10.8-1
	c-2.8-2.2-5.2-5-7.4-8c-1-1.4-1.4-2.8-1.4-4.4c0-0.6,0-1.4-0.2-2c-0.2-3.4,0-6.8,0.4-10.2c0.4-2.8,0.8-5.6,1.4-8.4
	c1-6,2.6-12,5-17.9c3.8-9.6,7.4-19.3,10.6-29.1c0.4-1.4,1-2.6,1.2-4c0.6-3.2,0.2-6.4-1.8-9c-1.4-1.8-3-3.6-4.4-5.6
	c-0.4-0.6-0.8-0.6-1.4-0.2c-2.6,1.6-5.2,3.4-7.8,5c-0.6,0.4-1.2,0.8-2,1.2c-0.4,0.2-0.8,0.2-1-0.4c-0.2-0.2-0.2-0.4-0.4-0.6
	c-2.2-5.8-5-11.4-7.6-17.3c-0.4-0.8-0.4-1.8-1.2-2.2c-1-0.4-1.6,0.8-2.4,1.2c-0.2,0-0.2,0.2-0.4,0.2c-2.4,1.4-3.6,1.4-5.6-0.4
	c-1.6-1.2-3-2.6-4.6-3.8c-0.6-0.4-1.2-1-1.6-1.4c-0.8-0.6-1.2-1.4-1.2-2.4c0-1.4-0.2-3,0.2-4.4c0.4-2-0.2-3.2-1.6-4.4
	c-1.4-1.4-3-2.6-4.6-4c-1.4-1.2-2.8-2.6-4.4-3.6c-0.2-0.4-0.4-0.8-0.8-1c-3.4-3-6.8-6-10.2-9c-2-1.8-4-3.6-5.4-6.2c-0.6-1-1.4-2-2-3
	c-0.2-0.6-0.4-1-0.8-1.6c-3-5.2-5.2-10.6-6.8-16.2c-2.4-8.4-4.4-16.8-6.6-25.3c-0.6-2-0.8-4.2-1.2-6.4c-0.6-2.8-1.4-5.6-3.2-7.8
	c-0.8-1.2-1-2.2-0.6-3.6c0.2-0.6,0.4-1.2,0.6-2c1-2.2,1-4.6,0.6-6.8c-0.6-3.6-1.2-7.2-1.6-10.8c-0.2-1.8-0.2-3.4,0.2-5.2
	c0.6-2.4,1.2-4.6,2.2-6.8c2-4.8,5.4-8,9.6-10.8c1.8-1.2,4-1.8,6.2-1.8c1.8,0,3.6-0.6,5.2-1.4c3.8-1.8,7.8-3.4,12-4
	c1.8-0.2,3.6-0.4,5.4-0.4c1.8-0.2,3.6-0.2,5.4-0.6c0.8-0.2,0.8-0.8,0.2-1.2c-1-1-2.2-2-3.4-3c-2.4-2.2-4.6-4.6-6.4-7.2
	c-3-4.6-4.8-9.4-5.2-15c-0.6-7,0.6-13.6,3-20.1c2.6-6.6,6.8-11.4,13.2-14.2c3.8-1.8,7.8-3.4,12-4.2c3.2-0.4,6.2-0.6,9.4,0.6
	c4.2,1.6,8.2,3.4,12,5.4c1.8,1,3.6,1.8,5.2,3c5,3.8,8.2,8.6,10.6,14.2c0.8,2,1,4.2,1.2,6.4s0.2,4.4,0.2,6.8c0,1.6,0.4,3,1.2,4.2
	c0.6,1,1.4,2,2,3.2c0.2,0.4,0.6,0.8,0.8,1.2c1.2,2,1,3.2-0.6,4.6s-2,3-2,4.8c0,2-0.2,4-0.4,6c0,1,0.2,1.4,1.4,1.2
	c2.8-0.2,5.6,0,8.4-1.2c2-0.8,4.2-0.8,6.4,0c2.8,1,5.6,1.8,8.4,2.4c0.6,0.2,1.2,0.4,1.8,0.8c3.4,2,7,3,11,3c1.6,0,3.2,0.2,4.8,0.6
	c4.4,0.8,8.6,1.8,13,2.8c3,0.6,5.6,0.4,8.2-1.2c0.8-0.4,1.6-0.8,2.4-1.4c1.8-1,3.8-1.8,5.8-2.2c4-1,7.8-0.6,11.4,1
	c4.4,2,8.6,4.4,12.2,7.6c3,2.8,5.2,6,6.8,9.8c1,2.2,0.8,4.2-0.4,6.2c-1.8,3.2-4.2,5.8-7.6,7.4c-2,1-4.2,1.8-6.2,3.4
	c-1.8,0.2-3.2,1.4-4.8,2c-2.4,1-4.6,1.6-7.2,1.6c-2,0-3.8,0-5.8-0.2s-4.2,0-6.2,0.2c-4.4,0.6-8.8,1.2-13.4,1.8
	c-4.2,0.6-8.4,1.4-12.6,2c-1.6,0.2-3,0.8-4.2,2.2c-2.4,2.8-5.4,4.8-9,6.2c-1.4,0.6-2.6,1.2-3.8,1.8c-1.4,0.6-1.8,1.4-1.2,2.8
	c0.6,1.6,0.2,3-0.8,4.2c-0.4,0.4-0.6,1-1,1.4c-0.4,0.6-0.4,1-0.2,1.6c0.6,1.4,0.4,2.8-0.4,4c0,0.2,0,0.4,0,0.6
	c0.8,0.2,1.6,0.4,2.6,0.6s2,0.4,2.8,0.8c2,0.6,3.4,1.6,4,3.6c0.2,1,0.8,1.8,2,2c0.6,0.4,1.2,0.4,2,0.4c1.2,0,2.4,0.2,3.4,0.4
	c4.4,0.8,8.4,2.4,12.2,4.4c1.8,1,3.8,2.2,5.6,3.2c3.6,2,7.4,2.8,11.6,1.6c4-1.2,8-1.2,12.2-1c1.2,0,2.4,0,3.8-0.2
	c8.2-1.4,16.4-2.8,24.5-5c2.6-0.8,5.4-1.4,8.2-1.4c2,0,4-0.4,6-0.8c1.4-0.4,3-0.8,4.2-1.6c1-0.6,2.2-1,3.2-1.4c2-0.6,4-1,6.2-1
	c5.8-0.2,11-2.2,16.4-4.2c0.4-0.2,0.8-0.4,1.2-0.8c1.2-0.2,2.2-1,3-1.6c1.2-0.8,2.4-1.6,3.6-2.4c1.4-0.8,3-1.4,4.8-1.4
	c1,0,2-0.2,2.8-1c1.4-1,2.8-1.6,4.6-2c1.4-0.4,3-0.6,4.4-1C474.9,122.1,482.3,119.9,490,117.9z"/>
<path class="st3" d="M91.6,364.2c0.2,0,0.6,0,0.6,0.2c2.2,2.2,5,3.8,7.6,5.6c6.4,4.4,13,8.6,19.9,12.6c2.2,1.4,4.8,2.4,7,3.8
	c5.2,3,10.4,5.4,15.8,8s10.8,5,16.4,7.2c2,0.8,4.2,1.6,6.2,2.4c1.2,0.6,2.6,0.8,3.8,1.2c5.6,2.2,11.4,4,17.3,5.6
	c3.4,1,6.8,2,10.4,2.8c4.8,1.2,9.6,2.2,14.4,3.2c2.6,0.6,5.4,1,8,1.4c2.8,0.4,5.6,0.8,8.4,1.2c3.4,0.4,6.8,1.2,10.4,1.4
	c2.4,0.2,5,0.8,7.4,0.6c3.2,0.8,6.6,0,10,0.8c0.6,0.2,1.2,0,1.8,0c2.6,0,5.2,0,7.8,0c2,0,3.8-0.2,5.8,0.4c3.6-0.2,7.2,0.4,10.8-0.4
	c0.6-0.2,1.4,0,2,0c3.2,0,6.4,0,9.8,0c3.2,0,6.4-0.4,9.6-0.6c2.2-0.2,4.4-0.2,6.4-0.4c2.6-0.2,5.2-0.6,8-0.8c0.4,0,0.6-0.2,1-0.2
	c3,0,6-0.6,8.8-1c1.8-0.2,3.4-0.4,5.2-0.6c3.8-0.6,7.6-0.6,11.4-1.4c1.2-0.2,2.4-0.4,3.6-0.4c1.4-0.2,2.8-0.4,4.2-0.6
	c3.2-0.4,6.2-1,9.4-1.4c5-0.8,10.2-1.8,15.2-2.8c3.2-0.6,6.4-1.2,9.6-1.8c2.2-0.4,4.6-1,6.8-1.4s4.6-0.8,6.8-1.2
	c3-0.6,6.2-1.4,9.2-2c4.6-1,9-2,13.6-2.8c2.6-0.6,5.2-1.2,7.8-1.8c6.2-1.4,12.2-2.8,18.5-4.2c7-1.4,14.2-3,21.3-4.6c5-1,10-2,15-3.2
	c5.6-1.4,11.2-2.4,16.8-3.4c2.8-0.6,5.6-1.2,8.6-1.6c2.4-0.4,4.8-0.8,7.4-1.2c3.4-0.6,6.6-1.2,10-1.6c3-0.4,6-1,9.2-1.4
	c1.4-0.2,2.8-0.4,4.2-0.6c4-0.4,8-1.4,12-1.8c2-0.2,4-0.4,6-0.6c2.6-0.4,5.4-0.2,8-0.8c0.2,0,0.4,0,0.4,0c3,0.2,6-0.4,9-0.6
	c3.8-0.2,7.4,0,11.2-0.6c4.4-0.6,9-0.4,13.4-0.4c5.8,0,11.4,0,17.3,0c3,0,6,0.6,9,0.6s6.2,0.4,9.2,0.6c3.2,0.2,6.4,0.8,9.6,1.2
	c1.8,0.2,3.4,0.2,5.2,0.6c2.6,0.4,5.4,0.8,8.2,1.2c4,0.8,7.8,1.4,11.8,2.2c2.4,0.4,4.6,1,7,1.6c5.4,1.2,10.8,2.8,16,4.6
	c0.8,0.2,1.4,0.4,2.2,0.4c0.4,0,0.8,0,1.2,0.4c0,0.2,0.2,0.4,0.6,0.6l0,0c0,0.2,0.2,0.4,0.4,0.6c6.4,4.2,12.6,8.8,18.7,13.4
	c5.8,4.6,11.6,9.2,17.3,14c5.2,4.4,10.2,9,15.2,13.8c8.6,8.4,17.1,17.1,25.1,25.9c4.8,5.4,9.4,10.8,14,16.2c0.6,0.8,1.6,1.2,1.4,2.4
	c-1,0.2-1.8-0.6-2.4-1c-12-6.6-24.5-12.8-36.9-18.5s-24.9-10.8-37.7-15.6c-13.4-5-27.1-9.4-40.9-13.2c-10.2-2.8-20.7-5.4-31.1-7.6
	c-7.2-1.4-14.4-2.8-21.7-4c-5.2-0.8-10.6-1.6-15.8-2.2c-4.8-0.6-9.6-1.2-14.4-1.8c-1.8-0.2-3.4-0.4-5.2-0.6
	c-3.4-0.2-6.8-0.4-10.2-0.8c-3.6-0.2-7.2-0.6-10.8-0.8c-1.4,0-2.8,0-4.2-0.2c-6.6-0.2-13.2-0.6-19.9-0.4c-6,0.2-12.2,0-18.3,0
	c-4.8,0-9.4,0.2-14.2,0.4c-5.4,0.2-10.8,0.6-16.2,1c-5.8,0.4-11.8,1-17.7,1.6c-6.4,0.6-12.8,1.6-19.5,2.2c-8.2,0.8-16.4,2-24.7,3.2
	c-8.6,1.2-17.3,2.8-25.9,4.2c-4.4,0.8-8.8,1.4-13.2,2.2c-5.8,1-11.8,2.2-17.7,3.4c-7.2,1.4-14.6,2.8-21.9,4.2
	c-6.4,1.2-12.8,2.4-19.3,3.8c-6.6,1.2-13.2,2.6-19.9,3.8c-5.8,1.2-11.8,2.2-17.7,3.4c-4.2,0.8-8.4,1.4-12.6,2.2
	c-5.4,0.8-10.8,1.8-16.2,2.4c-5.8,0.8-11.6,1.4-17.5,2.2c-5.2,0.6-10.6,1-16,1.6c-7.4,0.6-14.8,0.8-22.3,1.2
	c-7.2,0.2-14.4,0-21.9-0.4c-4.6-0.2-9.2-0.6-14-1.2s-9.4-1.2-14-2c-9.2-1.6-18.3-4-27.1-6.8c-15.8-5.2-30.7-12.6-44.5-21.9
	c-8.4-5.6-16.2-11.8-23.7-18.7c-8-7.4-15.6-15.4-22.7-23.9c-2-2.2-4-4.4-5.8-6.8c-6.6-8.4-12.6-17.1-18.5-25.9
	c-3.6-5.6-7.2-11.4-10.6-17.3c-1.2-2.2-2.6-4.4-3.8-6.8c-0.4-0.6-0.6-1.4-1-2c-0.2-0.4-0.2-1,0.2-1.4s1-1,1.8-0.6
	c0.6,0.2,1,0.4,1.6,0.8c7.8,4.6,15.4,9.2,23.3,13.8c10.6,6.2,21.3,12.6,31.9,18.9c9.4,5.4,19.3,10,29.3,14.2
	C90,364,90.8,364.2,91.6,364.2z"/>
<path class="st4" d="M516.2,160.6c2.2-2.6,4.6-4.8,7-7c1.8-1.6,3.6-3.2,5.4-4.8c1.2-1.2,1.4-1.4,0.2-3c-1-1.4-2-2.8-2.8-4
	c-1.8-2.6-1.4-3.4,1.6-4.6c0.6-0.2,1-0.4,1.6-0.4c0.6,0.8,1.4,1.2,2.2,1.6c9.2,5.6,18.1,11.8,26.5,18.7c11,8.8,21.1,18.5,30.5,28.9
	c11.8,13.2,22.1,27.5,30.7,42.9c10.2,18.3,18.1,37.5,23.3,58c1.8,7.2,3.4,14.6,4.6,22.1c0.2,0.8,0.2,1.4,0.2,2.2
	c-3-0.4-6.2-1-9.2-1.4c-3.8-0.6-7.6-0.8-11.4-1.4c-2-0.2-4.2-0.4-6.2-0.6c-0.2-1-0.4-2-0.6-3c-2.2-10.2-5-20.5-8.6-30.3
	c-4.8-13.2-11-25.9-18.3-37.9c-9.8-16.2-21.7-30.9-35.3-43.9c-10.2-9.8-21.1-18.5-32.9-26.3C522.1,164.2,519.3,162.4,516.2,160.6z"
	/>
<path class="st4" d="M215.2,176.8c0.6,1,1.4,2,2,3c1.4,2.4,3.2,4.4,5.4,6.2c3.4,3,6.8,6,10.2,9c0.4,0.2,0.6,0.6,0.8,1
	c-0.6,0.6-1.2,1.4-1.8,2c-3.6,3.6-7,7.4-10.2,11.4c-8.8,10.6-16.6,21.7-23.3,33.7c-5.8,10.4-10.8,21.5-14.8,32.7
	c-4.8,13.6-8.2,27.5-10.2,41.7c-1,6.8-1.6,13.6-1.8,20.5c0,1.8-0.2,3.6-0.2,5.4c-1.2,0.2-2.4-0.4-3.6-0.6
	c-7.2-1.4-14.2-2.8-21.3-4.4c-0.2,0-0.4-0.2-0.8-0.2c0.2-3.6,0.2-7.4,0.6-11c0.4-3.4,0.6-7,1-10.4c1-8.2,2.4-16.2,4.2-24.1
	c2-9,4.6-17.9,7.8-26.7c4.2-11.4,9-22.7,14.8-33.3c7-13,15-25.3,24.3-36.7c4.4-5.4,9-10.8,13.8-15.8
	C213.2,179,214.2,177.8,215.2,176.8z"/>
<path class="st5" d="M323.9,140.5c-1.2-0.2-1.6-1-2-2c-0.6-2-2-3.2-4-3.6c-1-0.2-2-0.6-2.8-0.8s-1.8-0.4-2.6-0.6c0-0.4,0-0.6,0-0.6
	c0.8-1.2,1-2.6,0.4-4c-0.2-0.6-0.2-1.2,0.2-1.6s0.6-1,1-1.4c1-1.2,1.4-2.6,0.8-4.2c-0.6-1.4-0.2-2.2,1.2-2.8
	c1.2-0.6,2.6-1.2,3.8-1.8c3.4-1.4,6.4-3.4,9-6.2c1.2-1.2,2.6-1.8,4.2-2.2c4.2-0.6,8.4-1.4,12.6-2c4.4-0.6,8.8-1.4,13.4-1.8
	c2-0.2,4.2-0.4,6.2-0.2c2,0,3.8,0.2,5.8,0.2c2.6,0,5-0.6,7.2-1.6c1.6-0.6,3-1.8,4.8-2c0.6,0,1.4,0.2,2,0c3.6,0,7.2-0.4,10.8-0.2
	c6.4,0,13,0.2,19.5,0.6c4.6,0.4,9.2,0.8,14,1.2c5.2,0.6,10.6,1.4,15.8,2.4c8.2,1.6,16.4,3.4,24.7,5.8c6.2,1.8,12.4,3.8,18.5,6.2
	c0.6,0.2,1.2,0.6,1.8,0.8c-7.4,2.2-14.8,4.2-22.5,6.4c-1.4,0.4-3,0.6-4.4,1c-1.6,0.4-3.2,1-4.6,2c-0.8,0.6-1.8,1-2.8,1
	c-1.8,0-3.2,0.4-4.8,1.4c-1.2,0.8-2.4,1.6-3.6,2.4c-1,0.6-2,1.4-3,1.6c-0.8-0.2-1.6-0.4-2.4-0.6c-11.8-2.2-23.9-3.6-36.1-4
	c-10.8-0.4-21.5,0-32.3,1c-6.6,0.6-13.2,1.6-19.9,2.8c-9.6,1.8-18.9,4.2-28.1,7.2C325.1,139.9,324.3,139.9,323.9,140.5z"/>
<path class="st6" d="M12.2,287.2c0,0.4-0.2,0.6-0.2,1c-0.2-0.2-0.4-0.2-0.6-0.4c-0.2-0.4-0.8-0.8-0.4-1.2
	C11.4,286.3,12,286.8,12.2,287.2z"/>
<path class="st0" d="M699.2,389.3c-0.2,0-0.4-0.2-0.4-0.6c0.2-0.2,0.2-0.2,0.4,0C699.2,388.9,699.2,389.1,699.2,389.3z"/>
<polygon class="st7" points="791.7,475.9 791.7,475.7 791.7,475.7 "/>
<path class="st0" d="M698.8,388.7c-0.2,0-0.4-0.2-0.6-0.6C698.4,388.2,698.8,388.4,698.8,388.7z"/>
</svg>
